<?xml version="1.0" encoding="utf-8" standalone="no"?>
<!DOCTYPE svg PUBLIC "-//W3C//DTD SVG 1.1//EN"
  "http://www.w3.org/Graphics/SVG/1.1/DTD/svg11.dtd">
<svg xmlns:xlink="http://www.w3.org/1999/xlink" width="720pt" height="432pt" viewBox="0 0 720 432" xmlns="http://www.w3.org/2000/svg" version="1.1">
 <metadata>
  <rdf:RDF xmlns:dc="http://purl.org/dc/elements/1.1/" xmlns:cc="http://creativecommons.org/ns#" xmlns:rdf="http://www.w3.org/1999/02/22-rdf-syntax-ns#">
   <cc:Work>
    <dc:type rdf:resource="http://purl.org/dc/dcmitype/StillImage"/>
    <dc:date>2024-04-20T19:23:18.783284</dc:date>
    <dc:format>image/svg+xml</dc:format>
    <dc:creator>
     <cc:Agent>
      <dc:title>Matplotlib v3.7.2, https://matplotlib.org/</dc:title>
     </cc:Agent>
    </dc:creator>
   </cc:Work>
  </rdf:RDF>
 </metadata>
 <defs>
  <style type="text/css">*{stroke-linejoin: round; stroke-linecap: butt}</style>
 </defs>
 <g id="figure_1">
  <g id="patch_1">
   <path d="M 0 432 
L 720 432 
L 720 0 
L 0 0 
z
" style="fill: #ffffff"/>
  </g>
  <g id="axes_1">
   <g id="patch_2">
    <path d="M 90 384.48 
L 648 384.48 
L 648 51.84 
L 90 51.84 
z
" style="fill: #ffffff"/>
   </g>
   <g id="patch_3">
    <path d="M 90 384.48 
L 108.6 384.48 
L 108.6 384.48 
L 90 384.48 
z
" clip-path="url(#p2e897c764d)" style="fill: #ffd100; fill-opacity: 0.2"/>
   </g>
   <g id="patch_4">
    <path d="M 108.6 384.48 
L 127.2 384.48 
L 127.2 384.48 
L 108.6 384.48 
z
" clip-path="url(#p2e897c764d)" style="fill: #ffd100; fill-opacity: 0.2"/>
   </g>
   <g id="patch_5">
    <path d="M 127.2 384.48 
L 145.8 384.48 
L 145.8 384.416589 
L 127.2 384.416589 
z
" clip-path="url(#p2e897c764d)" style="fill: #ffd100; fill-opacity: 0.2"/>
   </g>
   <g id="patch_6">
    <path d="M 145.8 384.48 
L 164.4 384.48 
L 164.4 384.48 
L 145.8 384.48 
z
" clip-path="url(#p2e897c764d)" style="fill: #ffd100; fill-opacity: 0.2"/>
   </g>
   <g id="patch_7">
    <path d="M 164.4 384.48 
L 183 384.48 
L 183 379.533963 
L 164.4 379.533963 
z
" clip-path="url(#p2e897c764d)" style="fill: #ffd100; fill-opacity: 0.2"/>
   </g>
   <g id="patch_8">
    <path d="M 183 384.48 
L 201.6 384.48 
L 201.6 375.443971 
L 183 375.443971 
z
" clip-path="url(#p2e897c764d)" style="fill: #ffd100; fill-opacity: 0.2"/>
   </g>
   <g id="patch_9">
    <path d="M 201.6 384.48 
L 220.2 384.48 
L 220.2 378.614508 
L 201.6 378.614508 
z
" clip-path="url(#p2e897c764d)" style="fill: #ffd100; fill-opacity: 0.2"/>
   </g>
   <g id="patch_10">
    <path d="M 220.2 384.48 
L 238.8 384.48 
L 238.8 379.629079 
L 220.2 379.629079 
z
" clip-path="url(#p2e897c764d)" style="fill: #ffd100; fill-opacity: 0.2"/>
   </g>
   <g id="patch_11">
    <path d="M 238.8 384.48 
L 257.4 384.48 
L 257.4 380.802178 
L 238.8 380.802178 
z
" clip-path="url(#p2e897c764d)" style="fill: #ffd100; fill-opacity: 0.2"/>
   </g>
   <g id="patch_12">
    <path d="M 257.4 384.48 
L 276 384.48 
L 276 381.309464 
L 257.4 381.309464 
z
" clip-path="url(#p2e897c764d)" style="fill: #ffd100; fill-opacity: 0.2"/>
   </g>
   <g id="patch_13">
    <path d="M 276 384.48 
L 294.6 384.48 
L 294.6 382.165508 
L 276 382.165508 
z
" clip-path="url(#p2e897c764d)" style="fill: #ffd100; fill-opacity: 0.2"/>
   </g>
   <g id="patch_14">
    <path d="M 294.6 384.48 
L 313.2 384.48 
L 313.2 382.545973 
L 294.6 382.545973 
z
" clip-path="url(#p2e897c764d)" style="fill: #ffd100; fill-opacity: 0.2"/>
   </g>
   <g id="patch_15">
    <path d="M 313.2 384.48 
L 331.8 384.48 
L 331.8 383.211785 
L 313.2 383.211785 
z
" clip-path="url(#p2e897c764d)" style="fill: #ffd100; fill-opacity: 0.2"/>
   </g>
   <g id="patch_16">
    <path d="M 331.8 384.48 
L 350.4 384.48 
L 350.4 383.338607 
L 331.8 383.338607 
z
" clip-path="url(#p2e897c764d)" style="fill: #ffd100; fill-opacity: 0.2"/>
   </g>
   <g id="patch_17">
    <path d="M 350.4 384.48 
L 369 384.48 
L 369 383.497134 
L 350.4 383.497134 
z
" clip-path="url(#p2e897c764d)" style="fill: #ffd100; fill-opacity: 0.2"/>
   </g>
   <g id="patch_18">
    <path d="M 369 384.48 
L 387.6 384.48 
L 387.6 383.623955 
L 369 383.623955 
z
" clip-path="url(#p2e897c764d)" style="fill: #ffd100; fill-opacity: 0.2"/>
   </g>
   <g id="patch_19">
    <path d="M 387.6 384.48 
L 406.2 384.48 
L 406.2 383.655661 
L 387.6 383.655661 
z
" clip-path="url(#p2e897c764d)" style="fill: #ffd100; fill-opacity: 0.2"/>
   </g>
   <g id="patch_20">
    <path d="M 406.2 384.48 
L 424.8 384.48 
L 424.8 383.877598 
L 406.2 383.877598 
z
" clip-path="url(#p2e897c764d)" style="fill: #ffd100; fill-opacity: 0.2"/>
   </g>
   <g id="patch_21">
    <path d="M 424.8 384.48 
L 443.4 384.48 
L 443.4 383.877598 
L 424.8 383.877598 
z
" clip-path="url(#p2e897c764d)" style="fill: #ffd100; fill-opacity: 0.2"/>
   </g>
   <g id="patch_22">
    <path d="M 443.4 384.48 
L 462 384.48 
L 462 384.036125 
L 443.4 384.036125 
z
" clip-path="url(#p2e897c764d)" style="fill: #ffd100; fill-opacity: 0.2"/>
   </g>
   <g id="patch_23">
    <path d="M 462 384.48 
L 480.6 384.48 
L 480.6 384.353179 
L 462 384.353179 
z
" clip-path="url(#p2e897c764d)" style="fill: #ffd100; fill-opacity: 0.2"/>
   </g>
   <g id="patch_24">
    <path d="M 480.6 384.48 
L 499.2 384.48 
L 499.2 384.353179 
L 480.6 384.353179 
z
" clip-path="url(#p2e897c764d)" style="fill: #ffd100; fill-opacity: 0.2"/>
   </g>
   <g id="patch_25">
    <path d="M 499.2 384.48 
L 517.8 384.48 
L 517.8 384.131241 
L 499.2 384.131241 
z
" clip-path="url(#p2e897c764d)" style="fill: #ffd100; fill-opacity: 0.2"/>
   </g>
   <g id="patch_26">
    <path d="M 517.8 384.48 
L 536.4 384.48 
L 536.4 384.384884 
L 517.8 384.384884 
z
" clip-path="url(#p2e897c764d)" style="fill: #ffd100; fill-opacity: 0.2"/>
   </g>
   <g id="patch_27">
    <path d="M 536.4 384.48 
L 555 384.48 
L 555 384.416589 
L 536.4 384.416589 
z
" clip-path="url(#p2e897c764d)" style="fill: #ffd100; fill-opacity: 0.2"/>
   </g>
   <g id="patch_28">
    <path d="M 555 384.48 
L 573.6 384.48 
L 573.6 384.384884 
L 555 384.384884 
z
" clip-path="url(#p2e897c764d)" style="fill: #ffd100; fill-opacity: 0.2"/>
   </g>
   <g id="patch_29">
    <path d="M 573.6 384.48 
L 592.2 384.48 
L 592.2 384.289768 
L 573.6 384.289768 
z
" clip-path="url(#p2e897c764d)" style="fill: #ffd100; fill-opacity: 0.2"/>
   </g>
   <g id="patch_30">
    <path d="M 592.2 384.48 
L 610.8 384.48 
L 610.8 384.353179 
L 592.2 384.353179 
z
" clip-path="url(#p2e897c764d)" style="fill: #ffd100; fill-opacity: 0.2"/>
   </g>
   <g id="patch_31">
    <path d="M 610.8 384.48 
L 629.4 384.48 
L 629.4 384.353179 
L 610.8 384.353179 
z
" clip-path="url(#p2e897c764d)" style="fill: #ffd100; fill-opacity: 0.2"/>
   </g>
   <g id="patch_32">
    <path d="M 629.4 384.48 
L 648 384.48 
L 648 384.48 
L 629.4 384.48 
z
" clip-path="url(#p2e897c764d)" style="fill: #ffd100; fill-opacity: 0.2"/>
   </g>
   <g id="patch_33">
    <path d="M 90 384.48 
L 108.6 384.48 
L 108.6 384.48 
L 90 384.48 
z
" clip-path="url(#p2e897c764d)" style="fill: #ffd100; fill-opacity: 0.4"/>
   </g>
   <g id="patch_34">
    <path d="M 108.6 384.48 
L 127.2 384.48 
L 127.2 384.48 
L 108.6 384.48 
z
" clip-path="url(#p2e897c764d)" style="fill: #ffd100; fill-opacity: 0.4"/>
   </g>
   <g id="patch_35">
    <path d="M 127.2 384.416589 
L 145.8 384.416589 
L 145.8 384.416589 
L 127.2 384.416589 
z
" clip-path="url(#p2e897c764d)" style="fill: #ffd100; fill-opacity: 0.4"/>
   </g>
   <g id="patch_36">
    <path d="M 145.8 384.48 
L 164.4 384.48 
L 164.4 384.48 
L 145.8 384.48 
z
" clip-path="url(#p2e897c764d)" style="fill: #ffd100; fill-opacity: 0.4"/>
   </g>
   <g id="patch_37">
    <path d="M 164.4 379.533963 
L 183 379.533963 
L 183 375.031801 
L 164.4 375.031801 
z
" clip-path="url(#p2e897c764d)" style="fill: #ffd100; fill-opacity: 0.4"/>
   </g>
   <g id="patch_38">
    <path d="M 183 375.443971 
L 201.6 375.443971 
L 201.6 365.80554 
L 183 365.80554 
z
" clip-path="url(#p2e897c764d)" style="fill: #ffd100; fill-opacity: 0.4"/>
   </g>
   <g id="patch_39">
    <path d="M 201.6 378.614508 
L 220.2 378.614508 
L 220.2 371.924676 
L 201.6 371.924676 
z
" clip-path="url(#p2e897c764d)" style="fill: #ffd100; fill-opacity: 0.4"/>
   </g>
   <g id="patch_40">
    <path d="M 220.2 379.629079 
L 238.8 379.629079 
L 238.8 373.922114 
L 220.2 373.922114 
z
" clip-path="url(#p2e897c764d)" style="fill: #ffd100; fill-opacity: 0.4"/>
   </g>
   <g id="patch_41">
    <path d="M 238.8 380.802178 
L 257.4 380.802178 
L 257.4 377.029239 
L 238.8 377.029239 
z
" clip-path="url(#p2e897c764d)" style="fill: #ffd100; fill-opacity: 0.4"/>
   </g>
   <g id="patch_42">
    <path d="M 257.4 381.309464 
L 276 381.309464 
L 276 378.646213 
L 257.4 378.646213 
z
" clip-path="url(#p2e897c764d)" style="fill: #ffd100; fill-opacity: 0.4"/>
   </g>
   <g id="patch_43">
    <path d="M 276 382.165508 
L 294.6 382.165508 
L 294.6 380.136365 
L 276 380.136365 
z
" clip-path="url(#p2e897c764d)" style="fill: #ffd100; fill-opacity: 0.4"/>
   </g>
   <g id="patch_44">
    <path d="M 294.6 382.545973 
L 313.2 382.545973 
L 313.2 380.326597 
L 294.6 380.326597 
z
" clip-path="url(#p2e897c764d)" style="fill: #ffd100; fill-opacity: 0.4"/>
   </g>
   <g id="patch_45">
    <path d="M 313.2 383.211785 
L 331.8 383.211785 
L 331.8 381.785044 
L 313.2 381.785044 
z
" clip-path="url(#p2e897c764d)" style="fill: #ffd100; fill-opacity: 0.4"/>
   </g>
   <g id="patch_46">
    <path d="M 331.8 383.338607 
L 350.4 383.338607 
L 350.4 382.387446 
L 331.8 382.387446 
z
" clip-path="url(#p2e897c764d)" style="fill: #ffd100; fill-opacity: 0.4"/>
   </g>
   <g id="patch_47">
    <path d="M 350.4 383.497134 
L 369 383.497134 
L 369 382.260624 
L 350.4 382.260624 
z
" clip-path="url(#p2e897c764d)" style="fill: #ffd100; fill-opacity: 0.4"/>
   </g>
   <g id="patch_48">
    <path d="M 369 383.623955 
L 387.6 383.623955 
L 387.6 382.76791 
L 369 382.76791 
z
" clip-path="url(#p2e897c764d)" style="fill: #ffd100; fill-opacity: 0.4"/>
   </g>
   <g id="patch_49">
    <path d="M 387.6 383.655661 
L 406.2 383.655661 
L 406.2 383.053259 
L 387.6 383.053259 
z
" clip-path="url(#p2e897c764d)" style="fill: #ffd100; fill-opacity: 0.4"/>
   </g>
   <g id="patch_50">
    <path d="M 406.2 383.877598 
L 424.8 383.877598 
L 424.8 383.243491 
L 406.2 383.243491 
z
" clip-path="url(#p2e897c764d)" style="fill: #ffd100; fill-opacity: 0.4"/>
   </g>
   <g id="patch_51">
    <path d="M 424.8 383.877598 
L 443.4 383.877598 
L 443.4 383.338607 
L 424.8 383.338607 
z
" clip-path="url(#p2e897c764d)" style="fill: #ffd100; fill-opacity: 0.4"/>
   </g>
   <g id="patch_52">
    <path d="M 443.4 384.036125 
L 462 384.036125 
L 462 383.719071 
L 443.4 383.719071 
z
" clip-path="url(#p2e897c764d)" style="fill: #ffd100; fill-opacity: 0.4"/>
   </g>
   <g id="patch_53">
    <path d="M 462 384.353179 
L 480.6 384.353179 
L 480.6 383.972714 
L 462 383.972714 
z
" clip-path="url(#p2e897c764d)" style="fill: #ffd100; fill-opacity: 0.4"/>
   </g>
   <g id="patch_54">
    <path d="M 480.6 384.353179 
L 499.2 384.353179 
L 499.2 384.099536 
L 480.6 384.099536 
z
" clip-path="url(#p2e897c764d)" style="fill: #ffd100; fill-opacity: 0.4"/>
   </g>
   <g id="patch_55">
    <path d="M 499.2 384.131241 
L 517.8 384.131241 
L 517.8 384.036125 
L 499.2 384.036125 
z
" clip-path="url(#p2e897c764d)" style="fill: #ffd100; fill-opacity: 0.4"/>
   </g>
   <g id="patch_56">
    <path d="M 517.8 384.384884 
L 536.4 384.384884 
L 536.4 384.226357 
L 517.8 384.226357 
z
" clip-path="url(#p2e897c764d)" style="fill: #ffd100; fill-opacity: 0.4"/>
   </g>
   <g id="patch_57">
    <path d="M 536.4 384.416589 
L 555 384.416589 
L 555 384.289768 
L 536.4 384.289768 
z
" clip-path="url(#p2e897c764d)" style="fill: #ffd100; fill-opacity: 0.4"/>
   </g>
   <g id="patch_58">
    <path d="M 555 384.384884 
L 573.6 384.384884 
L 573.6 384.258062 
L 555 384.258062 
z
" clip-path="url(#p2e897c764d)" style="fill: #ffd100; fill-opacity: 0.4"/>
   </g>
   <g id="patch_59">
    <path d="M 573.6 384.289768 
L 592.2 384.289768 
L 592.2 384.162946 
L 573.6 384.162946 
z
" clip-path="url(#p2e897c764d)" style="fill: #ffd100; fill-opacity: 0.4"/>
   </g>
   <g id="patch_60">
    <path d="M 592.2 384.353179 
L 610.8 384.353179 
L 610.8 384.194652 
L 592.2 384.194652 
z
" clip-path="url(#p2e897c764d)" style="fill: #ffd100; fill-opacity: 0.4"/>
   </g>
   <g id="patch_61">
    <path d="M 610.8 384.353179 
L 629.4 384.353179 
L 629.4 384.321473 
L 610.8 384.321473 
z
" clip-path="url(#p2e897c764d)" style="fill: #ffd100; fill-opacity: 0.4"/>
   </g>
   <g id="patch_62">
    <path d="M 629.4 384.48 
L 648 384.48 
L 648 384.353179 
L 629.4 384.353179 
z
" clip-path="url(#p2e897c764d)" style="fill: #ffd100; fill-opacity: 0.4"/>
   </g>
   <g id="patch_63">
    <path d="M 90 384.48 
L 108.6 384.48 
L 108.6 384.416589 
L 90 384.416589 
z
" clip-path="url(#p2e897c764d)" style="fill: #ffd100; fill-opacity: 0.6"/>
   </g>
   <g id="patch_64">
    <path d="M 108.6 384.48 
L 127.2 384.48 
L 127.2 384.416589 
L 108.6 384.416589 
z
" clip-path="url(#p2e897c764d)" style="fill: #ffd100; fill-opacity: 0.6"/>
   </g>
   <g id="patch_65">
    <path d="M 127.2 384.416589 
L 145.8 384.416589 
L 145.8 384.353179 
L 127.2 384.353179 
z
" clip-path="url(#p2e897c764d)" style="fill: #ffd100; fill-opacity: 0.6"/>
   </g>
   <g id="patch_66">
    <path d="M 145.8 384.48 
L 164.4 384.48 
L 164.4 384.353179 
L 145.8 384.353179 
z
" clip-path="url(#p2e897c764d)" style="fill: #ffd100; fill-opacity: 0.6"/>
   </g>
   <g id="patch_67">
    <path d="M 164.4 375.031801 
L 183 375.031801 
L 183 354.233082 
L 164.4 354.233082 
z
" clip-path="url(#p2e897c764d)" style="fill: #ffd100; fill-opacity: 0.6"/>
   </g>
   <g id="patch_68">
    <path d="M 183 365.80554 
L 201.6 365.80554 
L 201.6 319.040128 
L 183 319.040128 
z
" clip-path="url(#p2e897c764d)" style="fill: #ffd100; fill-opacity: 0.6"/>
   </g>
   <g id="patch_69">
    <path d="M 201.6 371.924676 
L 220.2 371.924676 
L 220.2 341.963106 
L 201.6 341.963106 
z
" clip-path="url(#p2e897c764d)" style="fill: #ffd100; fill-opacity: 0.6"/>
   </g>
   <g id="patch_70">
    <path d="M 220.2 373.922114 
L 238.8 373.922114 
L 238.8 353.852618 
L 220.2 353.852618 
z
" clip-path="url(#p2e897c764d)" style="fill: #ffd100; fill-opacity: 0.6"/>
   </g>
   <g id="patch_71">
    <path d="M 238.8 377.029239 
L 257.4 377.029239 
L 257.4 361.810665 
L 238.8 361.810665 
z
" clip-path="url(#p2e897c764d)" style="fill: #ffd100; fill-opacity: 0.6"/>
   </g>
   <g id="patch_72">
    <path d="M 257.4 378.646213 
L 276 378.646213 
L 276 365.456781 
L 257.4 365.456781 
z
" clip-path="url(#p2e897c764d)" style="fill: #ffd100; fill-opacity: 0.6"/>
   </g>
   <g id="patch_73">
    <path d="M 276 380.136365 
L 294.6 380.136365 
L 294.6 372.780721 
L 276 372.780721 
z
" clip-path="url(#p2e897c764d)" style="fill: #ffd100; fill-opacity: 0.6"/>
   </g>
   <g id="patch_74">
    <path d="M 294.6 380.326597 
L 313.2 380.326597 
L 313.2 373.319712 
L 294.6 373.319712 
z
" clip-path="url(#p2e897c764d)" style="fill: #ffd100; fill-opacity: 0.6"/>
   </g>
   <g id="patch_75">
    <path d="M 313.2 381.785044 
L 331.8 381.785044 
L 331.8 377.251177 
L 313.2 377.251177 
z
" clip-path="url(#p2e897c764d)" style="fill: #ffd100; fill-opacity: 0.6"/>
   </g>
   <g id="patch_76">
    <path d="M 331.8 382.387446 
L 350.4 382.387446 
L 350.4 378.868151 
L 331.8 378.868151 
z
" clip-path="url(#p2e897c764d)" style="fill: #ffd100; fill-opacity: 0.6"/>
   </g>
   <g id="patch_77">
    <path d="M 350.4 382.260624 
L 369 382.260624 
L 369 378.741329 
L 350.4 378.741329 
z
" clip-path="url(#p2e897c764d)" style="fill: #ffd100; fill-opacity: 0.6"/>
   </g>
   <g id="patch_78">
    <path d="M 369 382.76791 
L 387.6 382.76791 
L 387.6 378.424275 
L 369 378.424275 
z
" clip-path="url(#p2e897c764d)" style="fill: #ffd100; fill-opacity: 0.6"/>
   </g>
   <g id="patch_79">
    <path d="M 387.6 383.053259 
L 406.2 383.053259 
L 406.2 380.548535 
L 387.6 380.548535 
z
" clip-path="url(#p2e897c764d)" style="fill: #ffd100; fill-opacity: 0.6"/>
   </g>
   <g id="patch_80">
    <path d="M 406.2 383.243491 
L 424.8 383.243491 
L 424.8 381.436285 
L 406.2 381.436285 
z
" clip-path="url(#p2e897c764d)" style="fill: #ffd100; fill-opacity: 0.6"/>
   </g>
   <g id="patch_81">
    <path d="M 424.8 383.338607 
L 443.4 383.338607 
L 443.4 381.88016 
L 424.8 381.88016 
z
" clip-path="url(#p2e897c764d)" style="fill: #ffd100; fill-opacity: 0.6"/>
   </g>
   <g id="patch_82">
    <path d="M 443.4 383.719071 
L 462 383.719071 
L 462 382.514267 
L 443.4 382.514267 
z
" clip-path="url(#p2e897c764d)" style="fill: #ffd100; fill-opacity: 0.6"/>
   </g>
   <g id="patch_83">
    <path d="M 462 383.972714 
L 480.6 383.972714 
L 480.6 382.799616 
L 462 382.799616 
z
" clip-path="url(#p2e897c764d)" style="fill: #ffd100; fill-opacity: 0.6"/>
   </g>
   <g id="patch_84">
    <path d="M 480.6 384.099536 
L 499.2 384.099536 
L 499.2 383.275196 
L 480.6 383.275196 
z
" clip-path="url(#p2e897c764d)" style="fill: #ffd100; fill-opacity: 0.6"/>
   </g>
   <g id="patch_85">
    <path d="M 499.2 384.036125 
L 517.8 384.036125 
L 517.8 383.465428 
L 499.2 383.465428 
z
" clip-path="url(#p2e897c764d)" style="fill: #ffd100; fill-opacity: 0.6"/>
   </g>
   <g id="patch_86">
    <path d="M 517.8 384.226357 
L 536.4 384.226357 
L 536.4 383.782482 
L 517.8 383.782482 
z
" clip-path="url(#p2e897c764d)" style="fill: #ffd100; fill-opacity: 0.6"/>
   </g>
   <g id="patch_87">
    <path d="M 536.4 384.289768 
L 555 384.289768 
L 555 383.845893 
L 536.4 383.845893 
z
" clip-path="url(#p2e897c764d)" style="fill: #ffd100; fill-opacity: 0.6"/>
   </g>
   <g id="patch_88">
    <path d="M 555 384.258062 
L 573.6 384.258062 
L 573.6 383.782482 
L 555 383.782482 
z
" clip-path="url(#p2e897c764d)" style="fill: #ffd100; fill-opacity: 0.6"/>
   </g>
   <g id="patch_89">
    <path d="M 573.6 384.162946 
L 592.2 384.162946 
L 592.2 383.719071 
L 573.6 383.719071 
z
" clip-path="url(#p2e897c764d)" style="fill: #ffd100; fill-opacity: 0.6"/>
   </g>
   <g id="patch_90">
    <path d="M 592.2 384.194652 
L 610.8 384.194652 
L 610.8 383.719071 
L 592.2 383.719071 
z
" clip-path="url(#p2e897c764d)" style="fill: #ffd100; fill-opacity: 0.6"/>
   </g>
   <g id="patch_91">
    <path d="M 610.8 384.321473 
L 629.4 384.321473 
L 629.4 384.06783 
L 610.8 384.06783 
z
" clip-path="url(#p2e897c764d)" style="fill: #ffd100; fill-opacity: 0.6"/>
   </g>
   <g id="patch_92">
    <path d="M 629.4 384.353179 
L 648 384.353179 
L 648 384.131241 
L 629.4 384.131241 
z
" clip-path="url(#p2e897c764d)" style="fill: #ffd100; fill-opacity: 0.6"/>
   </g>
   <g id="patch_93">
    <path d="M 90 384.416589 
L 108.6 384.416589 
L 108.6 384.194652 
L 90 384.194652 
z
" clip-path="url(#p2e897c764d)" style="fill: #ffd100; fill-opacity: 0.8"/>
   </g>
   <g id="patch_94">
    <path d="M 108.6 384.416589 
L 127.2 384.416589 
L 127.2 384.258062 
L 108.6 384.258062 
z
" clip-path="url(#p2e897c764d)" style="fill: #ffd100; fill-opacity: 0.8"/>
   </g>
   <g id="patch_95">
    <path d="M 127.2 384.353179 
L 145.8 384.353179 
L 145.8 383.941009 
L 127.2 383.941009 
z
" clip-path="url(#p2e897c764d)" style="fill: #ffd100; fill-opacity: 0.8"/>
   </g>
   <g id="patch_96">
    <path d="M 145.8 384.353179 
L 164.4 384.353179 
L 164.4 384.06783 
L 145.8 384.06783 
z
" clip-path="url(#p2e897c764d)" style="fill: #ffd100; fill-opacity: 0.8"/>
   </g>
   <g id="patch_97">
    <path d="M 164.4 354.233082 
L 183 354.233082 
L 183 294.912346 
L 164.4 294.912346 
z
" clip-path="url(#p2e897c764d)" style="fill: #ffd100; fill-opacity: 0.8"/>
   </g>
   <g id="patch_98">
    <path d="M 183 319.040128 
L 201.6 319.040128 
L 201.6 201.983923 
L 183 201.983923 
z
" clip-path="url(#p2e897c764d)" style="fill: #ffd100; fill-opacity: 0.8"/>
   </g>
   <g id="patch_99">
    <path d="M 201.6 341.963106 
L 220.2 341.963106 
L 220.2 267.328679 
L 201.6 267.328679 
z
" clip-path="url(#p2e897c764d)" style="fill: #ffd100; fill-opacity: 0.8"/>
   </g>
   <g id="patch_100">
    <path d="M 220.2 353.852618 
L 238.8 353.852618 
L 238.8 301.507062 
L 220.2 301.507062 
z
" clip-path="url(#p2e897c764d)" style="fill: #ffd100; fill-opacity: 0.8"/>
   </g>
   <g id="patch_101">
    <path d="M 238.8 361.810665 
L 257.4 361.810665 
L 257.4 322.591129 
L 238.8 322.591129 
z
" clip-path="url(#p2e897c764d)" style="fill: #ffd100; fill-opacity: 0.8"/>
   </g>
   <g id="patch_102">
    <path d="M 257.4 365.456781 
L 276 365.456781 
L 276 335.78056 
L 257.4 335.78056 
z
" clip-path="url(#p2e897c764d)" style="fill: #ffd100; fill-opacity: 0.8"/>
   </g>
   <g id="patch_103">
    <path d="M 276 372.780721 
L 294.6 372.780721 
L 294.6 353.820913 
L 276 353.820913 
z
" clip-path="url(#p2e897c764d)" style="fill: #ffd100; fill-opacity: 0.8"/>
   </g>
   <g id="patch_104">
    <path d="M 294.6 373.319712 
L 313.2 373.319712 
L 313.2 356.262226 
L 294.6 356.262226 
z
" clip-path="url(#p2e897c764d)" style="fill: #ffd100; fill-opacity: 0.8"/>
   </g>
   <g id="patch_105">
    <path d="M 313.2 377.251177 
L 331.8 377.251177 
L 331.8 364.949496 
L 313.2 364.949496 
z
" clip-path="url(#p2e897c764d)" style="fill: #ffd100; fill-opacity: 0.8"/>
   </g>
   <g id="patch_106">
    <path d="M 331.8 378.868151 
L 350.4 378.868151 
L 350.4 369.293131 
L 331.8 369.293131 
z
" clip-path="url(#p2e897c764d)" style="fill: #ffd100; fill-opacity: 0.8"/>
   </g>
   <g id="patch_107">
    <path d="M 350.4 378.741329 
L 369 378.741329 
L 369 369.261425 
L 350.4 369.261425 
z
" clip-path="url(#p2e897c764d)" style="fill: #ffd100; fill-opacity: 0.8"/>
   </g>
   <g id="patch_108">
    <path d="M 369 378.424275 
L 387.6 378.424275 
L 387.6 369.198014 
L 369 369.198014 
z
" clip-path="url(#p2e897c764d)" style="fill: #ffd100; fill-opacity: 0.8"/>
   </g>
   <g id="patch_109">
    <path d="M 387.6 380.548535 
L 406.2 380.548535 
L 406.2 374.270873 
L 387.6 374.270873 
z
" clip-path="url(#p2e897c764d)" style="fill: #ffd100; fill-opacity: 0.8"/>
   </g>
   <g id="patch_110">
    <path d="M 406.2 381.436285 
L 424.8 381.436285 
L 424.8 376.521954 
L 406.2 376.521954 
z
" clip-path="url(#p2e897c764d)" style="fill: #ffd100; fill-opacity: 0.8"/>
   </g>
   <g id="patch_111">
    <path d="M 424.8 381.88016 
L 443.4 381.88016 
L 443.4 377.50482 
L 424.8 377.50482 
z
" clip-path="url(#p2e897c764d)" style="fill: #ffd100; fill-opacity: 0.8"/>
   </g>
   <g id="patch_112">
    <path d="M 443.4 382.514267 
L 462 382.514267 
L 462 379.629079 
L 443.4 379.629079 
z
" clip-path="url(#p2e897c764d)" style="fill: #ffd100; fill-opacity: 0.8"/>
   </g>
   <g id="patch_113">
    <path d="M 462 382.799616 
L 480.6 382.799616 
L 480.6 379.977838 
L 462 379.977838 
z
" clip-path="url(#p2e897c764d)" style="fill: #ffd100; fill-opacity: 0.8"/>
   </g>
   <g id="patch_114">
    <path d="M 480.6 383.275196 
L 499.2 383.275196 
L 499.2 380.897294 
L 480.6 380.897294 
z
" clip-path="url(#p2e897c764d)" style="fill: #ffd100; fill-opacity: 0.8"/>
   </g>
   <g id="patch_115">
    <path d="M 499.2 383.465428 
L 517.8 383.465428 
L 517.8 381.911865 
L 499.2 381.911865 
z
" clip-path="url(#p2e897c764d)" style="fill: #ffd100; fill-opacity: 0.8"/>
   </g>
   <g id="patch_116">
    <path d="M 517.8 383.782482 
L 536.4 383.782482 
L 536.4 382.070392 
L 517.8 382.070392 
z
" clip-path="url(#p2e897c764d)" style="fill: #ffd100; fill-opacity: 0.8"/>
   </g>
   <g id="patch_117">
    <path d="M 536.4 383.845893 
L 555 383.845893 
L 555 382.450857 
L 536.4 382.450857 
z
" clip-path="url(#p2e897c764d)" style="fill: #ffd100; fill-opacity: 0.8"/>
   </g>
   <g id="patch_118">
    <path d="M 555 383.782482 
L 573.6 383.782482 
L 573.6 382.76791 
L 555 382.76791 
z
" clip-path="url(#p2e897c764d)" style="fill: #ffd100; fill-opacity: 0.8"/>
   </g>
   <g id="patch_119">
    <path d="M 573.6 383.719071 
L 592.2 383.719071 
L 592.2 382.450857 
L 573.6 382.450857 
z
" clip-path="url(#p2e897c764d)" style="fill: #ffd100; fill-opacity: 0.8"/>
   </g>
   <g id="patch_120">
    <path d="M 592.2 383.719071 
L 610.8 383.719071 
L 610.8 382.736205 
L 592.2 382.736205 
z
" clip-path="url(#p2e897c764d)" style="fill: #ffd100; fill-opacity: 0.8"/>
   </g>
   <g id="patch_121">
    <path d="M 610.8 384.06783 
L 629.4 384.06783 
L 629.4 383.402018 
L 610.8 383.402018 
z
" clip-path="url(#p2e897c764d)" style="fill: #ffd100; fill-opacity: 0.8"/>
   </g>
   <g id="patch_122">
    <path d="M 629.4 384.131241 
L 648 384.131241 
L 648 383.465428 
L 629.4 383.465428 
z
" clip-path="url(#p2e897c764d)" style="fill: #ffd100; fill-opacity: 0.8"/>
   </g>
   <g id="patch_123">
    <path d="M 90 384.194652 
L 108.6 384.194652 
L 108.6 383.687366 
L 90 383.687366 
z
" clip-path="url(#p2e897c764d)" style="fill: #ffd100"/>
   </g>
   <g id="patch_124">
    <path d="M 108.6 384.258062 
L 127.2 384.258062 
L 127.2 383.402018 
L 108.6 383.402018 
z
" clip-path="url(#p2e897c764d)" style="fill: #ffd100"/>
   </g>
   <g id="patch_125">
    <path d="M 127.2 383.941009 
L 145.8 383.941009 
L 145.8 383.148375 
L 127.2 383.148375 
z
" clip-path="url(#p2e897c764d)" style="fill: #ffd100"/>
   </g>
   <g id="patch_126">
    <path d="M 145.8 384.06783 
L 164.4 384.06783 
L 164.4 383.243491 
L 145.8 383.243491 
z
" clip-path="url(#p2e897c764d)" style="fill: #ffd100"/>
   </g>
   <g id="patch_127">
    <path d="M 164.4 294.912346 
L 183 294.912346 
L 183 225.223955 
L 164.4 225.223955 
z
" clip-path="url(#p2e897c764d)" style="fill: #ffd100"/>
   </g>
   <g id="patch_128">
    <path d="M 183 201.983923 
L 201.6 201.983923 
L 201.6 67.68 
L 183 67.68 
z
" clip-path="url(#p2e897c764d)" style="fill: #ffd100"/>
   </g>
   <g id="patch_129">
    <path d="M 201.6 267.328679 
L 220.2 267.328679 
L 220.2 180.487686 
L 201.6 180.487686 
z
" clip-path="url(#p2e897c764d)" style="fill: #ffd100"/>
   </g>
   <g id="patch_130">
    <path d="M 220.2 301.507062 
L 238.8 301.507062 
L 238.8 240.664468 
L 220.2 240.664468 
z
" clip-path="url(#p2e897c764d)" style="fill: #ffd100"/>
   </g>
   <g id="patch_131">
    <path d="M 238.8 322.591129 
L 257.4 322.591129 
L 257.4 276.586645 
L 238.8 276.586645 
z
" clip-path="url(#p2e897c764d)" style="fill: #ffd100"/>
   </g>
   <g id="patch_132">
    <path d="M 257.4 335.78056 
L 276 335.78056 
L 276 300.587606 
L 257.4 300.587606 
z
" clip-path="url(#p2e897c764d)" style="fill: #ffd100"/>
   </g>
   <g id="patch_133">
    <path d="M 276 353.820913 
L 294.6 353.820913 
L 294.6 329.154139 
L 276 329.154139 
z
" clip-path="url(#p2e897c764d)" style="fill: #ffd100"/>
   </g>
   <g id="patch_134">
    <path d="M 294.6 356.262226 
L 313.2 356.262226 
L 313.2 337.682882 
L 294.6 337.682882 
z
" clip-path="url(#p2e897c764d)" style="fill: #ffd100"/>
   </g>
   <g id="patch_135">
    <path d="M 313.2 364.949496 
L 331.8 364.949496 
L 331.8 350.396733 
L 313.2 350.396733 
z
" clip-path="url(#p2e897c764d)" style="fill: #ffd100"/>
   </g>
   <g id="patch_136">
    <path d="M 331.8 369.293131 
L 350.4 369.293131 
L 350.4 358.481601 
L 331.8 358.481601 
z
" clip-path="url(#p2e897c764d)" style="fill: #ffd100"/>
   </g>
   <g id="patch_137">
    <path d="M 350.4 369.261425 
L 369 369.261425 
L 369 359.305941 
L 350.4 359.305941 
z
" clip-path="url(#p2e897c764d)" style="fill: #ffd100"/>
   </g>
   <g id="patch_138">
    <path d="M 369 369.198014 
L 387.6 369.198014 
L 387.6 360.352218 
L 369 360.352218 
z
" clip-path="url(#p2e897c764d)" style="fill: #ffd100"/>
   </g>
   <g id="patch_139">
    <path d="M 387.6 374.270873 
L 406.2 374.270873 
L 406.2 367.327398 
L 387.6 367.327398 
z
" clip-path="url(#p2e897c764d)" style="fill: #ffd100"/>
   </g>
   <g id="patch_140">
    <path d="M 406.2 376.521954 
L 424.8 376.521954 
L 424.8 371.41739 
L 406.2 371.41739 
z
" clip-path="url(#p2e897c764d)" style="fill: #ffd100"/>
   </g>
   <g id="patch_141">
    <path d="M 424.8 377.50482 
L 443.4 377.50482 
L 443.4 372.241729 
L 424.8 372.241729 
z
" clip-path="url(#p2e897c764d)" style="fill: #ffd100"/>
   </g>
   <g id="patch_142">
    <path d="M 443.4 379.629079 
L 462 379.629079 
L 462 376.014668 
L 443.4 376.014668 
z
" clip-path="url(#p2e897c764d)" style="fill: #ffd100"/>
   </g>
   <g id="patch_143">
    <path d="M 462 379.977838 
L 480.6 379.977838 
L 480.6 375.951257 
L 462 375.951257 
z
" clip-path="url(#p2e897c764d)" style="fill: #ffd100"/>
   </g>
   <g id="patch_144">
    <path d="M 480.6 380.897294 
L 499.2 380.897294 
L 499.2 378.551097 
L 480.6 378.551097 
z
" clip-path="url(#p2e897c764d)" style="fill: #ffd100"/>
   </g>
   <g id="patch_145">
    <path d="M 499.2 381.911865 
L 517.8 381.911865 
L 517.8 379.090088 
L 499.2 379.090088 
z
" clip-path="url(#p2e897c764d)" style="fill: #ffd100"/>
   </g>
   <g id="patch_146">
    <path d="M 517.8 382.070392 
L 536.4 382.070392 
L 536.4 379.755901 
L 517.8 379.755901 
z
" clip-path="url(#p2e897c764d)" style="fill: #ffd100"/>
   </g>
   <g id="patch_147">
    <path d="M 536.4 382.450857 
L 555 382.450857 
L 555 380.199776 
L 536.4 380.199776 
z
" clip-path="url(#p2e897c764d)" style="fill: #ffd100"/>
   </g>
   <g id="patch_148">
    <path d="M 555 382.76791 
L 573.6 382.76791 
L 573.6 381.341169 
L 555 381.341169 
z
" clip-path="url(#p2e897c764d)" style="fill: #ffd100"/>
   </g>
   <g id="patch_149">
    <path d="M 573.6 382.450857 
L 592.2 382.450857 
L 592.2 381.119231 
L 573.6 381.119231 
z
" clip-path="url(#p2e897c764d)" style="fill: #ffd100"/>
   </g>
   <g id="patch_150">
    <path d="M 592.2 382.736205 
L 610.8 382.736205 
L 610.8 381.436285 
L 592.2 381.436285 
z
" clip-path="url(#p2e897c764d)" style="fill: #ffd100"/>
   </g>
   <g id="patch_151">
    <path d="M 610.8 383.402018 
L 629.4 383.402018 
L 629.4 382.197214 
L 610.8 382.197214 
z
" clip-path="url(#p2e897c764d)" style="fill: #ffd100"/>
   </g>
   <g id="patch_152">
    <path d="M 629.4 383.465428 
L 648 383.465428 
L 648 382.7045 
L 629.4 382.7045 
z
" clip-path="url(#p2e897c764d)" style="fill: #ffd100"/>
   </g>
   <g id="matplotlib.axis_1">
    <g id="xtick_1">
     <g id="line2d_1">
      <defs>
       <path id="mc430d4b351" d="M 0 0 
L 0 3.5 
" style="stroke: #000000; stroke-width: 0.8"/>
      </defs>
      <g>
       <use xlink:href="#mc430d4b351" x="176.118393" y="384.48" style="stroke: #000000; stroke-width: 0.8"/>
      </g>
     </g>
     <g id="text_1">
      <!-- 200 -->
      <g transform="translate(167.322299 399.47375) scale(0.1 -0.1)">
       <defs>
        <path id="MicrosoftYaHei-32" d="M 2666 3572 
Q 2666 3963 2419 4186 
Q 2172 4409 1747 4409 
Q 1447 4409 1140 4256 
Q 834 4103 569 3819 
L 569 4413 
Q 806 4659 1107 4790 
Q 1409 4922 1816 4922 
Q 2472 4922 2872 4570 
Q 3272 4219 3272 3619 
Q 3272 3084 3026 2693 
Q 2781 2303 2188 1894 
Q 1581 1475 1376 1294 
Q 1172 1113 1090 947 
Q 1009 781 1009 544 
L 3416 544 
L 3416 0 
L 372 0 
L 372 241 
Q 372 659 486 951 
Q 600 1244 862 1520 
Q 1125 1797 1681 2184 
Q 2250 2584 2458 2886 
Q 2666 3188 2666 3572 
z
" transform="scale(0.015625)"/>
        <path id="MicrosoftYaHei-30" d="M 284 2325 
Q 284 3606 709 4264 
Q 1134 4922 1941 4922 
Q 3478 4922 3478 2441 
Q 3478 1216 3045 567 
Q 2613 -81 1831 -81 
Q 1094 -81 689 534 
Q 284 1150 284 2325 
z
M 909 2353 
Q 909 425 1888 425 
Q 2850 425 2850 2384 
Q 2850 4413 1906 4413 
Q 909 4413 909 2353 
z
" transform="scale(0.015625)"/>
       </defs>
       <use xlink:href="#MicrosoftYaHei-32"/>
       <use xlink:href="#MicrosoftYaHei-30" x="58.642578"/>
       <use xlink:href="#MicrosoftYaHei-30" x="117.285156"/>
      </g>
     </g>
    </g>
    <g id="xtick_2">
     <g id="line2d_2">
      <g>
       <use xlink:href="#mc430d4b351" x="294.088795" y="384.48" style="stroke: #000000; stroke-width: 0.8"/>
      </g>
     </g>
     <g id="text_2">
      <!-- 400 -->
      <g transform="translate(285.292701 399.47375) scale(0.1 -0.1)">
       <defs>
        <path id="MicrosoftYaHei-34" d="M 2906 4841 
L 2906 1644 
L 3631 1644 
L 3631 1138 
L 2906 1138 
L 2906 0 
L 2313 0 
L 2313 1138 
L 53 1138 
L 53 1616 
Q 656 2294 1265 3178 
Q 1875 4063 2272 4841 
L 2906 4841 
z
M 741 1644 
L 2313 1644 
L 2313 3950 
Q 1988 3366 1616 2817 
Q 1244 2269 741 1644 
z
" transform="scale(0.015625)"/>
       </defs>
       <use xlink:href="#MicrosoftYaHei-34"/>
       <use xlink:href="#MicrosoftYaHei-30" x="58.642578"/>
       <use xlink:href="#MicrosoftYaHei-30" x="117.285156"/>
      </g>
     </g>
    </g>
    <g id="xtick_3">
     <g id="line2d_3">
      <g>
       <use xlink:href="#mc430d4b351" x="412.059197" y="384.48" style="stroke: #000000; stroke-width: 0.8"/>
      </g>
     </g>
     <g id="text_3">
      <!-- 600 -->
      <g transform="translate(403.263103 399.47375) scale(0.1 -0.1)">
       <defs>
        <path id="MicrosoftYaHei-36" d="M 3181 4219 
Q 2803 4413 2391 4413 
Q 1763 4413 1381 3866 
Q 1000 3319 994 2372 
L 1009 2372 
Q 1353 3038 2106 3038 
Q 2734 3038 3109 2628 
Q 3484 2219 3484 1541 
Q 3484 831 3051 375 
Q 2619 -81 1947 -81 
Q 1209 -81 789 495 
Q 369 1072 369 2131 
Q 369 3413 920 4167 
Q 1472 4922 2372 4922 
Q 2888 4922 3181 4781 
L 3181 4219 
z
M 1031 1584 
Q 1031 1106 1286 765 
Q 1541 425 1963 425 
Q 2363 425 2613 719 
Q 2863 1013 2863 1475 
Q 2863 1975 2627 2253 
Q 2391 2531 1956 2531 
Q 1544 2531 1287 2250 
Q 1031 1969 1031 1584 
z
" transform="scale(0.015625)"/>
       </defs>
       <use xlink:href="#MicrosoftYaHei-36"/>
       <use xlink:href="#MicrosoftYaHei-30" x="58.642578"/>
       <use xlink:href="#MicrosoftYaHei-30" x="117.285156"/>
      </g>
     </g>
    </g>
    <g id="xtick_4">
     <g id="line2d_4">
      <g>
       <use xlink:href="#mc430d4b351" x="530.029598" y="384.48" style="stroke: #000000; stroke-width: 0.8"/>
      </g>
     </g>
     <g id="text_4">
      <!-- 800 -->
      <g transform="translate(521.233505 399.47375) scale(0.1 -0.1)">
       <defs>
        <path id="MicrosoftYaHei-38" d="M 306 1350 
Q 306 1769 556 2122 
Q 806 2475 1200 2625 
Q 884 2803 700 3081 
Q 516 3359 516 3684 
Q 516 4028 692 4312 
Q 869 4597 1183 4759 
Q 1497 4922 1875 4922 
Q 2256 4922 2572 4761 
Q 2888 4600 3063 4315 
Q 3238 4031 3238 3684 
Q 3238 3366 3058 3086 
Q 2878 2806 2559 2625 
Q 2953 2472 3200 2119 
Q 3447 1766 3447 1350 
Q 3447 938 3250 611 
Q 3053 284 2690 103 
Q 2328 -78 1875 -78 
Q 1425 -78 1065 103 
Q 706 284 506 612 
Q 306 941 306 1350 
z
M 906 1378 
Q 906 947 1172 687 
Q 1438 428 1878 428 
Q 2309 428 2582 692 
Q 2856 956 2856 1378 
Q 2856 1778 2579 2051 
Q 2303 2325 1878 2325 
Q 1456 2325 1181 2058 
Q 906 1791 906 1378 
z
M 1081 3634 
Q 1081 3309 1312 3076 
Q 1544 2844 1878 2844 
Q 2206 2844 2445 3078 
Q 2684 3313 2684 3634 
Q 2684 3963 2454 4191 
Q 2225 4419 1878 4419 
Q 1534 4419 1307 4195 
Q 1081 3972 1081 3634 
z
" transform="scale(0.015625)"/>
       </defs>
       <use xlink:href="#MicrosoftYaHei-38"/>
       <use xlink:href="#MicrosoftYaHei-30" x="58.642578"/>
       <use xlink:href="#MicrosoftYaHei-30" x="117.285156"/>
      </g>
     </g>
    </g>
    <g id="xtick_5">
     <g id="line2d_5">
      <g>
       <use xlink:href="#mc430d4b351" x="648" y="384.48" style="stroke: #000000; stroke-width: 0.8"/>
      </g>
     </g>
     <g id="text_5">
      <!-- 1000 -->
      <g transform="translate(636.271875 399.47375) scale(0.1 -0.1)">
       <defs>
        <path id="MicrosoftYaHei-31" d="M 1781 0 
L 1781 4141 
Q 1638 3997 1295 3819 
Q 953 3641 663 3569 
L 663 4169 
Q 1047 4275 1484 4508 
Q 1922 4741 2156 4947 
L 2388 4947 
L 2388 0 
L 1781 0 
z
" transform="scale(0.015625)"/>
       </defs>
       <use xlink:href="#MicrosoftYaHei-31"/>
       <use xlink:href="#MicrosoftYaHei-30" x="58.642578"/>
       <use xlink:href="#MicrosoftYaHei-30" x="117.285156"/>
       <use xlink:href="#MicrosoftYaHei-30" x="175.927734"/>
      </g>
     </g>
    </g>
    <g id="text_6">
     <!-- 评论字数 -->
     <g transform="translate(349 413.953438) scale(0.1 -0.1)">
      <defs>
       <path id="MicrosoftYaHei-8bc4" d="M 1750 2028 
L 3775 2028 
L 3775 4447 
L 2088 4447 
L 2088 4916 
L 5975 4916 
L 5975 4447 
L 4281 4447 
L 4281 2028 
L 6319 2028 
L 6319 1553 
L 4281 1553 
L 4281 -797 
L 3775 -797 
L 3775 1553 
L 1750 1553 
L 1750 2028 
z
M 2219 866 
Q 2238 553 2263 328 
Q 1456 -228 963 -628 
L 669 -209 
Q 881 -28 881 303 
L 881 2716 
L 100 2716 
L 100 3166 
L 1363 3166 
L 1363 241 
Q 1775 534 2219 866 
z
M 4725 2697 
Q 5175 3309 5563 4028 
L 6019 3753 
Q 5613 3091 5125 2403 
L 4725 2697 
z
M 2056 3791 
L 2450 4028 
Q 2919 3353 3288 2716 
L 2850 2434 
Q 2431 3209 2056 3791 
z
M 738 5222 
Q 1419 4522 1725 4184 
L 1288 3816 
Q 894 4334 356 4891 
L 738 5222 
z
" transform="scale(0.015625)"/>
       <path id="MicrosoftYaHei-8bba" d="M 2725 2866 
L 3225 2866 
L 3225 1553 
Q 4425 2072 5188 2753 
L 5538 2341 
Q 4569 1578 3225 1034 
L 3225 216 
Q 3225 -197 3600 -197 
L 4844 -197 
Q 5294 -197 5363 203 
Q 5444 659 5475 1191 
Q 5675 1103 5981 1009 
Q 5925 497 5844 53 
Q 5719 -672 4869 -672 
L 3450 -672 
Q 2725 -672 2725 122 
L 2725 2866 
z
M 4413 5253 
L 4331 5109 
Q 5075 3791 6344 3166 
Q 6163 2947 5981 2697 
Q 4744 3516 4056 4666 
Q 3388 3559 2106 2678 
Q 1925 2941 1763 3109 
Q 3181 3947 3831 5253 
L 4413 5253 
z
M 2206 691 
Q 2225 366 2250 153 
Q 1550 -316 994 -747 
L 700 -328 
Q 913 -153 913 209 
L 913 2678 
L 100 2678 
L 100 3141 
L 1400 3141 
L 1400 122 
Q 1769 372 2206 691 
z
M 856 5197 
Q 1538 4497 1844 4159 
L 1406 3791 
Q 1013 4309 475 4866 
L 856 5197 
z
" transform="scale(0.015625)"/>
       <path id="MicrosoftYaHei-5b57" d="M 125 1628 
L 3056 1628 
L 3056 2022 
L 4288 2797 
L 1263 2797 
L 1263 3253 
L 5050 3253 
L 5050 2747 
L 3569 1797 
L 3569 1628 
L 6300 1628 
L 6300 1166 
L 3569 1166 
L 3569 16 
Q 3569 -778 2775 -778 
Q 2456 -778 1844 -766 
Q 1819 -528 1769 -209 
Q 2263 -278 2644 -278 
Q 3056 -278 3056 166 
L 3056 1166 
L 125 1166 
L 125 1628 
z
M 363 4384 
L 3238 4384 
Q 3006 4713 2681 5103 
L 3100 5384 
Q 3494 4953 3750 4584 
L 3453 4384 
L 6088 4384 
L 6088 3116 
L 5581 3116 
L 5581 3928 
L 863 3928 
L 863 3116 
L 363 3116 
L 363 4384 
z
" transform="scale(0.015625)"/>
       <path id="MicrosoftYaHei-6570" d="M 4175 5303 
L 4675 5228 
Q 4544 4622 4369 4097 
L 6281 4097 
L 6281 3672 
L 5888 3672 
Q 5731 1834 5088 753 
Q 5594 66 6375 -372 
Q 6175 -647 6038 -866 
Q 5275 -372 4769 309 
Q 4194 -403 3400 -928 
Q 3263 -747 3044 -534 
Q 3919 41 4463 772 
Q 3956 1647 3794 2791 
Q 3663 2559 3519 2359 
Q 3394 2541 3206 2759 
Q 3931 3803 4175 5303 
z
M 150 1697 
L 1100 1697 
Q 1238 1934 1369 2184 
L 1819 2041 
Q 1719 1866 1619 1697 
L 3150 1697 
L 3150 1291 
Q 2913 678 2431 216 
Q 2775 53 3131 -109 
L 2856 -541 
Q 2469 -322 2050 -103 
Q 1344 -609 269 -903 
Q 169 -703 56 -466 
Q 969 -259 1600 128 
Q 1063 403 475 691 
Q 675 978 863 1284 
L 150 1284 
L 150 1697 
z
M 219 3847 
L 1656 3847 
L 1656 5247 
L 2119 5247 
L 2119 3847 
L 3319 3847 
L 3319 3434 
L 2119 3434 
L 2119 3053 
L 2306 3266 
Q 2888 2841 3281 2516 
L 2981 2166 
Q 2638 2491 2119 2897 
L 2119 2184 
L 1656 2184 
L 1656 3059 
Q 1088 2466 331 2016 
Q 213 2197 63 2397 
Q 850 2822 1506 3434 
L 219 3434 
L 219 3847 
z
M 5388 3672 
L 4219 3672 
Q 4188 3591 4150 3516 
Q 4263 2191 4775 1247 
Q 5275 2159 5388 3672 
z
M 1088 834 
Q 1531 634 2000 416 
Q 2431 784 2675 1284 
L 1375 1284 
Q 1231 1053 1088 834 
z
M 3038 5091 
L 3425 4834 
Q 3081 4384 2738 4003 
Q 2594 4128 2400 4266 
Q 2725 4647 3038 5091 
z
M 381 4816 
L 738 5059 
Q 1019 4716 1319 4322 
L 931 4047 
Q 656 4453 381 4816 
z
" transform="scale(0.015625)"/>
      </defs>
      <use xlink:href="#MicrosoftYaHei-8bc4"/>
      <use xlink:href="#MicrosoftYaHei-8bba" x="100"/>
      <use xlink:href="#MicrosoftYaHei-5b57" x="200"/>
      <use xlink:href="#MicrosoftYaHei-6570" x="300"/>
     </g>
    </g>
   </g>
   <g id="matplotlib.axis_2">
    <g id="ytick_1">
     <g id="line2d_6">
      <defs>
       <path id="m09dfa4b721" d="M 0 0 
L -3.5 0 
" style="stroke: #000000; stroke-width: 0.8"/>
      </defs>
      <g>
       <use xlink:href="#m09dfa4b721" x="90" y="384.48" style="stroke: #000000; stroke-width: 0.8"/>
      </g>
     </g>
     <g id="text_7">
      <!-- 0 -->
      <g transform="translate(77.135937 388.476875) scale(0.1 -0.1)">
       <use xlink:href="#MicrosoftYaHei-30"/>
      </g>
     </g>
    </g>
    <g id="ytick_2">
     <g id="line2d_7">
      <g>
       <use xlink:href="#m09dfa4b721" x="90" y="321.069271" style="stroke: #000000; stroke-width: 0.8"/>
      </g>
     </g>
     <g id="text_8">
      <!-- 2000 -->
      <g transform="translate(59.54375 325.066146) scale(0.1 -0.1)">
       <use xlink:href="#MicrosoftYaHei-32"/>
       <use xlink:href="#MicrosoftYaHei-30" x="58.642578"/>
       <use xlink:href="#MicrosoftYaHei-30" x="117.285156"/>
       <use xlink:href="#MicrosoftYaHei-30" x="175.927734"/>
      </g>
     </g>
    </g>
    <g id="ytick_3">
     <g id="line2d_8">
      <g>
       <use xlink:href="#m09dfa4b721" x="90" y="257.658543" style="stroke: #000000; stroke-width: 0.8"/>
      </g>
     </g>
     <g id="text_9">
      <!-- 4000 -->
      <g transform="translate(59.54375 261.655418) scale(0.1 -0.1)">
       <use xlink:href="#MicrosoftYaHei-34"/>
       <use xlink:href="#MicrosoftYaHei-30" x="58.642578"/>
       <use xlink:href="#MicrosoftYaHei-30" x="117.285156"/>
       <use xlink:href="#MicrosoftYaHei-30" x="175.927734"/>
      </g>
     </g>
    </g>
    <g id="ytick_4">
     <g id="line2d_9">
      <g>
       <use xlink:href="#m09dfa4b721" x="90" y="194.247814" style="stroke: #000000; stroke-width: 0.8"/>
      </g>
     </g>
     <g id="text_10">
      <!-- 6000 -->
      <g transform="translate(59.54375 198.244689) scale(0.1 -0.1)">
       <use xlink:href="#MicrosoftYaHei-36"/>
       <use xlink:href="#MicrosoftYaHei-30" x="58.642578"/>
       <use xlink:href="#MicrosoftYaHei-30" x="117.285156"/>
       <use xlink:href="#MicrosoftYaHei-30" x="175.927734"/>
      </g>
     </g>
    </g>
    <g id="ytick_5">
     <g id="line2d_10">
      <g>
       <use xlink:href="#m09dfa4b721" x="90" y="130.837086" style="stroke: #000000; stroke-width: 0.8"/>
      </g>
     </g>
     <g id="text_11">
      <!-- 8000 -->
      <g transform="translate(59.54375 134.833961) scale(0.1 -0.1)">
       <use xlink:href="#MicrosoftYaHei-38"/>
       <use xlink:href="#MicrosoftYaHei-30" x="58.642578"/>
       <use xlink:href="#MicrosoftYaHei-30" x="117.285156"/>
       <use xlink:href="#MicrosoftYaHei-30" x="175.927734"/>
      </g>
     </g>
    </g>
    <g id="ytick_6">
     <g id="line2d_11">
      <g>
       <use xlink:href="#m09dfa4b721" x="90" y="67.426357" style="stroke: #000000; stroke-width: 0.8"/>
      </g>
     </g>
     <g id="text_12">
      <!-- 10000 -->
      <g transform="translate(53.679688 71.423232) scale(0.1 -0.1)">
       <use xlink:href="#MicrosoftYaHei-31"/>
       <use xlink:href="#MicrosoftYaHei-30" x="58.642578"/>
       <use xlink:href="#MicrosoftYaHei-30" x="117.285156"/>
       <use xlink:href="#MicrosoftYaHei-30" x="175.927734"/>
       <use xlink:href="#MicrosoftYaHei-30" x="234.570312"/>
      </g>
     </g>
    </g>
    <g id="text_13">
     <!-- 数量 -->
     <g transform="translate(47.19375 228.16) rotate(-90) scale(0.1 -0.1)">
      <defs>
       <path id="MicrosoftYaHei-91cf" d="M 113 -278 
L 2981 -278 
L 2981 78 
L 475 78 
L 475 403 
L 2981 403 
L 2981 759 
L 1494 759 
L 1494 597 
L 1069 597 
L 1069 2516 
L 5350 2516 
L 5350 597 
L 4925 597 
L 4925 759 
L 3419 759 
L 3419 403 
L 5931 403 
L 5931 78 
L 3419 78 
L 3419 -278 
L 6288 -278 
L 6288 -616 
L 113 -616 
L 113 -278 
z
M 1119 5072 
L 5306 5072 
L 5306 3284 
L 4881 3284 
L 4881 3453 
L 1544 3453 
L 1544 3284 
L 1119 3284 
L 1119 5072 
z
M 163 3153 
L 6263 3153 
L 6263 2816 
L 163 2816 
L 163 3153 
z
M 1544 3778 
L 4881 3778 
L 4881 4116 
L 1544 4116 
L 1544 3778 
z
M 4881 4747 
L 1544 4747 
L 1544 4416 
L 4881 4416 
L 4881 4747 
z
M 3419 1084 
L 4925 1084 
L 4925 1491 
L 3419 1491 
L 3419 1084 
z
M 1494 1084 
L 2981 1084 
L 2981 1491 
L 1494 1491 
L 1494 1084 
z
M 4925 2191 
L 3419 2191 
L 3419 1791 
L 4925 1791 
L 4925 2191 
z
M 1494 1791 
L 2981 1791 
L 2981 2191 
L 1494 2191 
L 1494 1791 
z
" transform="scale(0.015625)"/>
      </defs>
      <use xlink:href="#MicrosoftYaHei-6570"/>
      <use xlink:href="#MicrosoftYaHei-91cf" x="100"/>
     </g>
    </g>
   </g>
   <g id="patch_153">
    <path d="M 90 384.48 
L 90 51.84 
" style="fill: none; stroke: #000000; stroke-width: 0.8; stroke-linejoin: miter; stroke-linecap: square"/>
   </g>
   <g id="patch_154">
    <path d="M 90 384.48 
L 648 384.48 
" style="fill: none; stroke: #000000; stroke-width: 0.8; stroke-linejoin: miter; stroke-linecap: square"/>
   </g>
   <g id="legend_1">
    <g id="patch_155">
     <path d="M 593.135937 137.238438 
L 641 137.238438 
Q 643 137.238438 643 135.238438 
L 643 58.84 
Q 643 56.84 641 56.84 
L 593.135937 56.84 
Q 591.135937 56.84 591.135937 58.84 
L 591.135937 135.238438 
Q 591.135937 137.238438 593.135937 137.238438 
z
" style="fill: #ffffff; opacity: 0.8; stroke: #cccccc; stroke-linejoin: miter"/>
    </g>
    <g id="patch_156">
     <path d="M 595.135937 68.83375 
L 615.135937 68.83375 
L 615.135937 61.83375 
L 595.135937 61.83375 
z
" style="fill: #ffd100; fill-opacity: 0.2"/>
    </g>
    <g id="text_14">
     <!-- 1星 -->
     <g transform="translate(623.135937 68.83375) scale(0.1 -0.1)">
      <defs>
       <path id="MicrosoftYaHei-661f" d="M 900 5047 
L 5600 5047 
L 5600 2422 
L 5125 2422 
L 5125 2641 
L 900 2641 
L 900 5047 
z
M 275 -141 
L 3113 -141 
L 3113 472 
L 1075 472 
L 1075 922 
L 3113 922 
L 3113 1497 
L 1294 1497 
Q 928 963 506 516 
Q 356 684 144 884 
Q 863 1597 1338 2547 
L 1813 2347 
Q 1700 2141 1584 1947 
L 3113 1947 
L 3113 2503 
L 3613 2503 
L 3613 1947 
L 5963 1947 
L 5963 1497 
L 3613 1497 
L 3613 922 
L 5794 922 
L 5794 472 
L 3613 472 
L 3613 -141 
L 6250 -141 
L 6250 -591 
L 275 -591 
L 275 -141 
z
M 1375 3078 
L 5125 3078 
L 5125 3634 
L 1375 3634 
L 1375 3078 
z
M 5125 4609 
L 1375 4609 
L 1375 4059 
L 5125 4059 
L 5125 4609 
z
" transform="scale(0.015625)"/>
      </defs>
      <use xlink:href="#MicrosoftYaHei-31"/>
      <use xlink:href="#MicrosoftYaHei-661f" x="58.642578"/>
     </g>
    </g>
    <g id="patch_157">
     <path d="M 595.135937 84.313438 
L 615.135937 84.313438 
L 615.135937 77.313438 
L 595.135937 77.313438 
z
" style="fill: #ffd100; fill-opacity: 0.4"/>
    </g>
    <g id="text_15">
     <!-- 2星 -->
     <g transform="translate(623.135937 84.313438) scale(0.1 -0.1)">
      <use xlink:href="#MicrosoftYaHei-32"/>
      <use xlink:href="#MicrosoftYaHei-661f" x="58.642578"/>
     </g>
    </g>
    <g id="patch_158">
     <path d="M 595.135937 99.793125 
L 615.135937 99.793125 
L 615.135937 92.793125 
L 595.135937 92.793125 
z
" style="fill: #ffd100; fill-opacity: 0.6"/>
    </g>
    <g id="text_16">
     <!-- 3星 -->
     <g transform="translate(623.135937 99.793125) scale(0.1 -0.1)">
      <defs>
       <path id="MicrosoftYaHei-33" d="M 447 809 
Q 944 425 1569 425 
Q 2069 425 2361 670 
Q 2653 916 2653 1328 
Q 2653 2247 1338 2247 
L 934 2247 
L 934 2753 
L 1319 2753 
Q 2484 2753 2484 3616 
Q 2484 4413 1594 4413 
Q 1084 4413 634 4069 
L 634 4647 
Q 1109 4922 1744 4922 
Q 2363 4922 2738 4598 
Q 3113 4275 3113 3759 
Q 3113 2809 2144 2538 
L 2144 2525 
Q 2669 2469 2973 2155 
Q 3278 1841 3278 1372 
Q 3278 719 2808 319 
Q 2338 -81 1556 -81 
Q 869 -81 447 175 
L 447 809 
z
" transform="scale(0.015625)"/>
      </defs>
      <use xlink:href="#MicrosoftYaHei-33"/>
      <use xlink:href="#MicrosoftYaHei-661f" x="58.642578"/>
     </g>
    </g>
    <g id="patch_159">
     <path d="M 595.135937 115.272812 
L 615.135937 115.272812 
L 615.135937 108.272812 
L 595.135937 108.272812 
z
" style="fill: #ffd100; fill-opacity: 0.8"/>
    </g>
    <g id="text_17">
     <!-- 4星 -->
     <g transform="translate(623.135937 115.272812) scale(0.1 -0.1)">
      <use xlink:href="#MicrosoftYaHei-34"/>
      <use xlink:href="#MicrosoftYaHei-661f" x="58.642578"/>
     </g>
    </g>
    <g id="patch_160">
     <path d="M 595.135937 130.7525 
L 615.135937 130.7525 
L 615.135937 123.7525 
L 595.135937 123.7525 
z
" style="fill: #ffd100"/>
    </g>
    <g id="text_18">
     <!-- 5星 -->
     <g transform="translate(623.135937 130.7525) scale(0.1 -0.1)">
      <defs>
       <path id="MicrosoftYaHei-35" d="M 3294 1494 
Q 3294 784 2823 350 
Q 2353 -84 1559 -84 
Q 878 -84 544 119 
L 544 744 
Q 1034 425 1544 425 
Q 2050 425 2361 704 
Q 2672 984 2672 1447 
Q 2672 1909 2348 2167 
Q 2025 2425 1434 2425 
Q 978 2425 613 2384 
L 791 4841 
L 3053 4841 
L 3053 4303 
L 1306 4303 
L 1206 2931 
L 1647 2950 
Q 2416 2950 2855 2567 
Q 3294 2184 3294 1494 
z
" transform="scale(0.015625)"/>
      </defs>
      <use xlink:href="#MicrosoftYaHei-35"/>
      <use xlink:href="#MicrosoftYaHei-661f" x="58.642578"/>
     </g>
    </g>
   </g>
  </g>
 </g>
 <defs>
  <clipPath id="p2e897c764d">
   <rect x="90" y="51.84" width="558" height="332.64"/>
  </clipPath>
 </defs>
</svg>
