<?xml version="1.0" encoding="utf-8" standalone="no"?>
<!DOCTYPE svg PUBLIC "-//W3C//DTD SVG 1.1//EN"
  "http://www.w3.org/Graphics/SVG/1.1/DTD/svg11.dtd">
<svg xmlns:xlink="http://www.w3.org/1999/xlink" width="1008pt" height="576pt" viewBox="0 0 1008 576" xmlns="http://www.w3.org/2000/svg" version="1.1">
 <metadata>
  <rdf:RDF xmlns:dc="http://purl.org/dc/elements/1.1/" xmlns:cc="http://creativecommons.org/ns#" xmlns:rdf="http://www.w3.org/1999/02/22-rdf-syntax-ns#">
   <cc:Work>
    <dc:type rdf:resource="http://purl.org/dc/dcmitype/StillImage"/>
    <dc:date>2024-04-20T19:23:19.332218</dc:date>
    <dc:format>image/svg+xml</dc:format>
    <dc:creator>
     <cc:Agent>
      <dc:title>Matplotlib v3.7.2, https://matplotlib.org/</dc:title>
     </cc:Agent>
    </dc:creator>
   </cc:Work>
  </rdf:RDF>
 </metadata>
 <defs>
  <style type="text/css">*{stroke-linejoin: round; stroke-linecap: butt}</style>
 </defs>
 <g id="figure_1">
  <g id="patch_1">
   <path d="M 0 576 
L 1008 576 
L 1008 0 
L 0 0 
z
" style="fill: #ffffff"/>
  </g>
  <g id="axes_1">
   <g id="patch_2">
    <path d="M 126 489.6 
L 907.2 489.6 
L 907.2 69.12 
L 126 69.12 
z
" style="fill: #ffffff"/>
   </g>
   <g id="patch_3">
    <path d="M 136.85 489.6 
L 158.55 489.6 
L 158.55 472.478485 
L 136.85 472.478485 
z
" clip-path="url(#pb97569174a)" style="fill: #ff0000; opacity: 0.6"/>
   </g>
   <g id="patch_4">
    <path d="M 180.25 489.6 
L 201.95 489.6 
L 201.95 451.519564 
L 180.25 451.519564 
z
" clip-path="url(#pb97569174a)" style="fill: #ff0000; opacity: 0.6"/>
   </g>
   <g id="patch_5">
    <path d="M 223.65 489.6 
L 245.35 489.6 
L 245.35 436.787569 
L 223.65 436.787569 
z
" clip-path="url(#pb97569174a)" style="fill: #ff0000; opacity: 0.6"/>
   </g>
   <g id="patch_6">
    <path d="M 267.05 489.6 
L 288.75 489.6 
L 288.75 480.963305 
L 267.05 480.963305 
z
" clip-path="url(#pb97569174a)" style="fill: #ff0000; opacity: 0.6"/>
   </g>
   <g id="patch_7">
    <path d="M 310.45 489.6 
L 332.15 489.6 
L 332.15 450.608307 
L 310.45 450.608307 
z
" clip-path="url(#pb97569174a)" style="fill: #ff0000; opacity: 0.6"/>
   </g>
   <g id="patch_8">
    <path d="M 353.85 489.6 
L 375.55 489.6 
L 375.55 468.1652 
L 353.85 468.1652 
z
" clip-path="url(#pb97569174a)" style="fill: #ff0000; opacity: 0.6"/>
   </g>
   <g id="patch_9">
    <path d="M 397.25 489.6 
L 418.95 489.6 
L 418.95 471.941856 
L 397.25 471.941856 
z
" clip-path="url(#pb97569174a)" style="fill: #ff0000; opacity: 0.6"/>
   </g>
   <g id="patch_10">
    <path d="M 440.65 489.6 
L 462.35 489.6 
L 462.35 482.390941 
L 440.65 482.390941 
z
" clip-path="url(#pb97569174a)" style="fill: #ff0000; opacity: 0.6"/>
   </g>
   <g id="patch_11">
    <path d="M 484.05 489.6 
L 505.75 489.6 
L 505.75 475.586886 
L 484.05 475.586886 
z
" clip-path="url(#pb97569174a)" style="fill: #ff0000; opacity: 0.6"/>
   </g>
   <g id="patch_12">
    <path d="M 527.45 489.6 
L 549.15 489.6 
L 549.15 477.713153 
L 527.45 477.713153 
z
" clip-path="url(#pb97569174a)" style="fill: #ff0000; opacity: 0.6"/>
   </g>
   <g id="patch_13">
    <path d="M 570.85 489.6 
L 592.55 489.6 
L 592.55 478.128281 
L 570.85 478.128281 
z
" clip-path="url(#pb97569174a)" style="fill: #ff0000; opacity: 0.6"/>
   </g>
   <g id="patch_14">
    <path d="M 614.25 489.6 
L 635.95 489.6 
L 635.95 484.446333 
L 614.25 484.446333 
z
" clip-path="url(#pb97569174a)" style="fill: #ff0000; opacity: 0.6"/>
   </g>
   <g id="patch_15">
    <path d="M 657.65 489.6 
L 679.35 489.6 
L 679.35 475.424884 
L 657.65 475.424884 
z
" clip-path="url(#pb97569174a)" style="fill: #ff0000; opacity: 0.6"/>
   </g>
   <g id="patch_16">
    <path d="M 701.05 489.6 
L 722.75 489.6 
L 722.75 480.99368 
L 701.05 480.99368 
z
" clip-path="url(#pb97569174a)" style="fill: #ff0000; opacity: 0.6"/>
   </g>
   <g id="patch_17">
    <path d="M 744.45 489.6 
L 766.15 489.6 
L 766.15 487.524358 
L 744.45 487.524358 
z
" clip-path="url(#pb97569174a)" style="fill: #ff0000; opacity: 0.6"/>
   </g>
   <g id="patch_18">
    <path d="M 787.85 489.6 
L 809.55 489.6 
L 809.55 466.767939 
L 787.85 466.767939 
z
" clip-path="url(#pb97569174a)" style="fill: #ff0000; opacity: 0.6"/>
   </g>
   <g id="patch_19">
    <path d="M 831.25 489.6 
L 852.95 489.6 
L 852.95 471.425477 
L 831.25 471.425477 
z
" clip-path="url(#pb97569174a)" style="fill: #ff0000; opacity: 0.6"/>
   </g>
   <g id="patch_20">
    <path d="M 874.65 489.6 
L 896.35 489.6 
L 896.35 483.646451 
L 874.65 483.646451 
z
" clip-path="url(#pb97569174a)" style="fill: #ff0000; opacity: 0.6"/>
   </g>
   <g id="patch_21">
    <path d="M 136.85 472.478485 
L 158.55 472.478485 
L 158.55 315.478954 
L 136.85 315.478954 
z
" clip-path="url(#pb97569174a)" style="fill: #808080; opacity: 0.6"/>
   </g>
   <g id="patch_22">
    <path d="M 180.25 451.519564 
L 201.95 451.519564 
L 201.95 401.491531 
L 180.25 401.491531 
z
" clip-path="url(#pb97569174a)" style="fill: #808080; opacity: 0.6"/>
   </g>
   <g id="patch_23">
    <path d="M 223.65 436.787569 
L 245.35 436.787569 
L 245.35 341.834544 
L 223.65 341.834544 
z
" clip-path="url(#pb97569174a)" style="fill: #808080; opacity: 0.6"/>
   </g>
   <g id="patch_24">
    <path d="M 267.05 480.963305 
L 288.75 480.963305 
L 288.75 445.130637 
L 267.05 445.130637 
z
" clip-path="url(#pb97569174a)" style="fill: #808080; opacity: 0.6"/>
   </g>
   <g id="patch_25">
    <path d="M 310.45 450.608307 
L 332.15 450.608307 
L 332.15 416.102025 
L 310.45 416.102025 
z
" clip-path="url(#pb97569174a)" style="fill: #808080; opacity: 0.6"/>
   </g>
   <g id="patch_26">
    <path d="M 353.85 468.1652 
L 375.55 468.1652 
L 375.55 433.253915 
L 353.85 433.253915 
z
" clip-path="url(#pb97569174a)" style="fill: #808080; opacity: 0.6"/>
   </g>
   <g id="patch_27">
    <path d="M 397.25 471.941856 
L 418.95 471.941856 
L 418.95 453.078827 
L 397.25 453.078827 
z
" clip-path="url(#pb97569174a)" style="fill: #808080; opacity: 0.6"/>
   </g>
   <g id="patch_28">
    <path d="M 440.65 482.390941 
L 462.35 482.390941 
L 462.35 415.332519 
L 440.65 415.332519 
z
" clip-path="url(#pb97569174a)" style="fill: #808080; opacity: 0.6"/>
   </g>
   <g id="patch_29">
    <path d="M 484.05 475.586886 
L 505.75 475.586886 
L 505.75 456.187227 
L 484.05 456.187227 
z
" clip-path="url(#pb97569174a)" style="fill: #808080; opacity: 0.6"/>
   </g>
   <g id="patch_30">
    <path d="M 527.45 477.713153 
L 549.15 477.713153 
L 549.15 461.351019 
L 527.45 461.351019 
z
" clip-path="url(#pb97569174a)" style="fill: #808080; opacity: 0.6"/>
   </g>
   <g id="patch_31">
    <path d="M 570.85 478.128281 
L 592.55 478.128281 
L 592.55 467.102066 
L 570.85 467.102066 
z
" clip-path="url(#pb97569174a)" style="fill: #808080; opacity: 0.6"/>
   </g>
   <g id="patch_32">
    <path d="M 614.25 484.446333 
L 635.95 484.446333 
L 635.95 480.902554 
L 614.25 480.902554 
z
" clip-path="url(#pb97569174a)" style="fill: #808080; opacity: 0.6"/>
   </g>
   <g id="patch_33">
    <path d="M 657.65 475.424884 
L 679.35 475.424884 
L 679.35 467.52732 
L 657.65 467.52732 
z
" clip-path="url(#pb97569174a)" style="fill: #808080; opacity: 0.6"/>
   </g>
   <g id="patch_34">
    <path d="M 701.05 480.99368 
L 722.75 480.99368 
L 722.75 473.754246 
L 701.05 473.754246 
z
" clip-path="url(#pb97569174a)" style="fill: #808080; opacity: 0.6"/>
   </g>
   <g id="patch_35">
    <path d="M 744.45 487.524358 
L 766.15 487.524358 
L 766.15 485.803094 
L 744.45 485.803094 
z
" clip-path="url(#pb97569174a)" style="fill: #808080; opacity: 0.6"/>
   </g>
   <g id="patch_36">
    <path d="M 787.85 466.767939 
L 809.55 466.767939 
L 809.55 457.078235 
L 787.85 457.078235 
z
" clip-path="url(#pb97569174a)" style="fill: #808080; opacity: 0.6"/>
   </g>
   <g id="patch_37">
    <path d="M 831.25 471.425477 
L 852.95 471.425477 
L 852.95 447.32778 
L 831.25 447.32778 
z
" clip-path="url(#pb97569174a)" style="fill: #808080; opacity: 0.6"/>
   </g>
   <g id="patch_38">
    <path d="M 874.65 483.646451 
L 896.35 483.646451 
L 896.35 477.854904 
L 874.65 477.854904 
z
" clip-path="url(#pb97569174a)" style="fill: #808080; opacity: 0.6"/>
   </g>
   <g id="patch_39">
    <path d="M 136.85 315.478954 
L 158.55 315.478954 
L 158.55 89.142857 
L 136.85 89.142857 
z
" clip-path="url(#pb97569174a)" style="fill: #ffd100; opacity: 0.6"/>
   </g>
   <g id="patch_40">
    <path d="M 180.25 401.491531 
L 201.95 401.491531 
L 201.95 247.033396 
L 180.25 247.033396 
z
" clip-path="url(#pb97569174a)" style="fill: #ffd100; opacity: 0.6"/>
   </g>
   <g id="patch_41">
    <path d="M 223.65 341.834544 
L 245.35 341.834544 
L 245.35 280.446168 
L 223.65 280.446168 
z
" clip-path="url(#pb97569174a)" style="fill: #ffd100; opacity: 0.6"/>
   </g>
   <g id="patch_42">
    <path d="M 267.05 445.130637 
L 288.75 445.130637 
L 288.75 301.850593 
L 267.05 301.850593 
z
" clip-path="url(#pb97569174a)" style="fill: #ffd100; opacity: 0.6"/>
   </g>
   <g id="patch_43">
    <path d="M 310.45 416.102025 
L 332.15 416.102025 
L 332.15 305.596873 
L 310.45 305.596873 
z
" clip-path="url(#pb97569174a)" style="fill: #ffd100; opacity: 0.6"/>
   </g>
   <g id="patch_44">
    <path d="M 353.85 433.253915 
L 375.55 433.253915 
L 375.55 340.447408 
L 353.85 340.447408 
z
" clip-path="url(#pb97569174a)" style="fill: #ffd100; opacity: 0.6"/>
   </g>
   <g id="patch_45">
    <path d="M 397.25 453.078827 
L 418.95 453.078827 
L 418.95 348.112095 
L 397.25 348.112095 
z
" clip-path="url(#pb97569174a)" style="fill: #ffd100; opacity: 0.6"/>
   </g>
   <g id="patch_46">
    <path d="M 440.65 415.332519 
L 462.35 415.332519 
L 462.35 353.55939 
L 440.65 353.55939 
z
" clip-path="url(#pb97569174a)" style="fill: #ffd100; opacity: 0.6"/>
   </g>
   <g id="patch_47">
    <path d="M 484.05 456.187227 
L 505.75 456.187227 
L 505.75 368.109134 
L 484.05 368.109134 
z
" clip-path="url(#pb97569174a)" style="fill: #ffd100; opacity: 0.6"/>
   </g>
   <g id="patch_48">
    <path d="M 527.45 461.351019 
L 549.15 461.351019 
L 549.15 381.80837 
L 527.45 381.80837 
z
" clip-path="url(#pb97569174a)" style="fill: #ffd100; opacity: 0.6"/>
   </g>
   <g id="patch_49">
    <path d="M 570.85 467.102066 
L 592.55 467.102066 
L 592.55 395.679734 
L 570.85 395.679734 
z
" clip-path="url(#pb97569174a)" style="fill: #ffd100; opacity: 0.6"/>
   </g>
   <g id="patch_50">
    <path d="M 614.25 480.902554 
L 635.95 480.902554 
L 635.95 405.288437 
L 614.25 405.288437 
z
" clip-path="url(#pb97569174a)" style="fill: #ffd100; opacity: 0.6"/>
   </g>
   <g id="patch_51">
    <path d="M 657.65 467.52732 
L 679.35 467.52732 
L 679.35 408.001959 
L 657.65 408.001959 
z
" clip-path="url(#pb97569174a)" style="fill: #ffd100; opacity: 0.6"/>
   </g>
   <g id="patch_52">
    <path d="M 701.05 473.754246 
L 722.75 473.754246 
L 722.75 411.697614 
L 701.05 411.697614 
z
" clip-path="url(#pb97569174a)" style="fill: #ffd100; opacity: 0.6"/>
   </g>
   <g id="patch_53">
    <path d="M 744.45 485.803094 
L 766.15 485.803094 
L 766.15 416.699405 
L 744.45 416.699405 
z
" clip-path="url(#pb97569174a)" style="fill: #ffd100; opacity: 0.6"/>
   </g>
   <g id="patch_54">
    <path d="M 787.85 457.078235 
L 809.55 457.078235 
L 809.55 424.434968 
L 787.85 424.434968 
z
" clip-path="url(#pb97569174a)" style="fill: #ffd100; opacity: 0.6"/>
   </g>
   <g id="patch_55">
    <path d="M 831.25 447.32778 
L 852.95 447.32778 
L 852.95 426.095482 
L 831.25 426.095482 
z
" clip-path="url(#pb97569174a)" style="fill: #ffd100; opacity: 0.6"/>
   </g>
   <g id="patch_56">
    <path d="M 874.65 477.854904 
L 896.35 477.854904 
L 896.35 461.229518 
L 874.65 461.229518 
z
" clip-path="url(#pb97569174a)" style="fill: #ffd100; opacity: 0.6"/>
   </g>
   <g id="matplotlib.axis_1">
    <g id="xtick_1">
     <g id="line2d_1">
      <defs>
       <path id="m3732365e5b" d="M 0 0 
L 0 3.5 
" style="stroke: #000000; stroke-width: 0.8"/>
      </defs>
      <g>
       <use xlink:href="#m3732365e5b" x="147.7" y="489.6" style="stroke: #000000; stroke-width: 0.8"/>
      </g>
     </g>
     <g id="text_1">
      <!-- 菜品#口味 -->
      <g transform="translate(113.14568 535.048931) rotate(-45) scale(0.1 -0.1)">
       <defs>
        <path id="MicrosoftYaHei-83dc" d="M 6313 -109 
Q 6075 -366 5925 -584 
Q 4331 -53 3406 1122 
L 3406 -897 
L 2925 -897 
L 2925 1122 
Q 2025 59 450 -659 
Q 306 -472 88 -234 
Q 1413 216 2375 1128 
L 200 1128 
L 200 1566 
L 2925 1566 
L 2925 2041 
L 3406 2041 
L 3406 1566 
L 6231 1566 
L 6231 1128 
L 3906 1128 
Q 4813 209 6313 -109 
z
M 150 4716 
L 1900 4716 
L 1900 5303 
L 2388 5303 
L 2388 4716 
L 4013 4716 
L 4013 5303 
L 4500 5303 
L 4500 4716 
L 6269 4716 
L 6269 4272 
L 4500 4272 
L 4500 3916 
L 4013 3916 
L 4013 4272 
L 2388 4272 
L 2388 3859 
L 1900 3859 
L 1900 4272 
L 150 4272 
L 150 4716 
z
M 581 3178 
Q 544 3378 494 3616 
Q 3381 3647 5600 3809 
L 5675 3372 
Q 3388 3228 581 3178 
z
M 4088 2153 
Q 4513 2534 5044 3172 
L 5456 2847 
Q 4713 2097 4419 1834 
L 4088 2153 
z
M 925 2791 
L 1306 3028 
Q 1556 2716 1956 2097 
L 1525 1822 
Q 1244 2322 925 2791 
z
M 2638 2991 
L 3031 3184 
Q 3331 2747 3550 2341 
L 3106 2103 
Q 2975 2441 2638 2991 
z
" transform="scale(0.015625)"/>
        <path id="MicrosoftYaHei-54c1" d="M 1044 5047 
L 5356 5047 
L 5356 2572 
L 4856 2572 
L 4856 2772 
L 1544 2772 
L 1544 2572 
L 1044 2572 
L 1044 5047 
z
M 3588 2059 
L 5975 2059 
L 5975 -828 
L 5500 -828 
L 5500 -403 
L 4063 -403 
L 4063 -828 
L 3588 -828 
L 3588 2059 
z
M 431 2059 
L 2813 2059 
L 2813 -828 
L 2338 -828 
L 2338 -409 
L 906 -409 
L 906 -828 
L 431 -828 
L 431 2059 
z
M 4856 4609 
L 1544 4609 
L 1544 3209 
L 4856 3209 
L 4856 4609 
z
M 5500 1622 
L 4063 1622 
L 4063 3 
L 5500 3 
L 5500 1622 
z
M 2338 1622 
L 906 1622 
L 906 16 
L 2338 16 
L 2338 1622 
z
" transform="scale(0.015625)"/>
        <path id="MicrosoftYaHei-23" d="M 3928 3500 
L 3850 3109 
L 2994 3109 
L 2791 2119 
L 3694 2119 
L 3616 1734 
L 2706 1734 
L 2425 413 
L 1972 413 
L 2253 1734 
L 1422 1734 
L 1141 413 
L 688 413 
L 969 1734 
L 113 1734 
L 191 2119 
L 1053 2119 
L 1256 3109 
L 347 3109 
L 425 3500 
L 1334 3500 
L 1613 4838 
L 2066 4838 
L 1788 3500 
L 2619 3500 
L 2897 4838 
L 3350 4838 
L 3072 3500 
L 3928 3500 
z
M 2541 3109 
L 1709 3109 
L 1506 2119 
L 2338 2119 
L 2541 3109 
z
" transform="scale(0.015625)"/>
        <path id="MicrosoftYaHei-53e3" d="M 713 4684 
L 5675 4684 
L 5675 -578 
L 5138 -578 
L 5138 28 
L 1250 28 
L 1250 -578 
L 713 -578 
L 713 4684 
z
M 5138 497 
L 5138 4216 
L 1250 4216 
L 1250 497 
L 5138 497 
z
" transform="scale(0.015625)"/>
        <path id="MicrosoftYaHei-5473" d="M 6375 116 
Q 6144 -109 5956 -309 
Q 5009 509 4369 1725 
L 4369 -828 
L 3906 -828 
L 3906 1759 
Q 3172 563 2081 -378 
Q 1925 -178 1719 22 
Q 2953 953 3750 2291 
L 2275 2291 
L 2275 2722 
L 3906 2722 
L 3906 3884 
L 2525 3884 
L 2525 4316 
L 3906 4316 
L 3906 5316 
L 4369 5316 
L 4369 4316 
L 5881 4316 
L 5881 3884 
L 4369 3884 
L 4369 2722 
L 6169 2722 
L 6169 2291 
L 4503 2291 
Q 5244 853 6375 116 
z
M 450 4628 
L 2100 4628 
L 2100 828 
L 900 828 
L 900 316 
L 450 316 
L 450 4628 
z
M 1650 1272 
L 1650 4184 
L 900 4184 
L 900 1272 
L 1650 1272 
z
" transform="scale(0.015625)"/>
       </defs>
       <use xlink:href="#MicrosoftYaHei-83dc"/>
       <use xlink:href="#MicrosoftYaHei-54c1" x="100"/>
       <use xlink:href="#MicrosoftYaHei-23" x="200"/>
       <use xlink:href="#MicrosoftYaHei-53e3" x="263.818359"/>
       <use xlink:href="#MicrosoftYaHei-5473" x="363.818359"/>
      </g>
     </g>
    </g>
    <g id="xtick_2">
     <g id="line2d_2">
      <g>
       <use xlink:href="#m3732365e5b" x="191.1" y="489.6" style="stroke: #000000; stroke-width: 0.8"/>
      </g>
     </g>
     <g id="text_2">
      <!-- 服务#服务人员态度 -->
      <g transform="translate(128.261409 563.333202) rotate(-45) scale(0.1 -0.1)">
       <defs>
        <path id="MicrosoftYaHei-670d" d="M 2819 4941 
L 5906 4941 
Q 5875 4434 5856 4141 
Q 5806 3172 4869 3191 
Q 4613 3197 4063 3216 
Q 4025 3459 3981 3709 
Q 4444 3653 4813 3641 
Q 5350 3622 5394 4153 
Q 5413 4316 5425 4509 
L 3294 4509 
L 3294 2709 
L 5931 2709 
L 5931 2341 
Q 5681 1244 5016 431 
Q 5556 -81 6356 -366 
Q 6144 -616 5994 -816 
Q 5225 -456 4691 78 
Q 4213 -394 3569 -753 
Q 3450 -547 3313 -341 
Q 3938 -22 4391 422 
Q 3781 1203 3588 2303 
L 3294 2303 
L 3294 -803 
L 2819 -803 
L 2819 4941 
z
M 538 4966 
L 2300 4966 
L 2300 -103 
Q 2300 -728 1719 -728 
Q 1400 -728 1125 -709 
Q 1100 -522 1050 -266 
Q 1369 -316 1600 -316 
Q 1856 -316 1856 -59 
L 1856 1378 
L 981 1378 
Q 1000 -59 463 -816 
Q 325 -634 119 -466 
Q 538 178 538 1359 
L 538 4966 
z
M 5438 2303 
L 4016 2303 
Q 4209 1403 4706 772 
Q 5222 1425 5438 2303 
z
M 981 1766 
L 1856 1766 
L 1856 2972 
L 981 2972 
L 981 1766 
z
M 1856 4559 
L 981 4559 
L 981 3359 
L 1856 3359 
L 1856 4559 
z
" transform="scale(0.015625)"/>
        <path id="MicrosoftYaHei-52a1" d="M 1900 5391 
L 2369 5191 
Q 2228 4959 2075 4741 
L 5456 4741 
L 5456 4322 
Q 4875 3616 3866 3088 
Q 4916 2706 6369 2616 
Q 6169 2334 6019 2091 
Q 4391 2306 3288 2819 
Q 2047 2291 288 1984 
Q 181 2178 31 2422 
Q 1597 2663 2750 3103 
Q 2038 3538 1609 4131 
Q 1125 3556 538 3066 
Q 350 3266 194 3403 
Q 1344 4316 1900 5391 
z
M 588 1728 
L 2406 1728 
Q 2450 2031 2481 2403 
L 2988 2403 
Q 2947 2031 2903 1728 
L 5425 1728 
Q 5363 609 5306 159 
Q 5206 -722 4256 -728 
Q 3888 -734 3150 -703 
Q 3113 -472 3056 -184 
Q 3775 -247 4244 -253 
Q 4775 -241 4831 284 
Q 4888 753 4913 1284 
L 2828 1284 
Q 2497 -219 500 -897 
Q 356 -691 194 -478 
Q 1988 103 2319 1284 
L 588 1284 
L 588 1728 
z
M 4788 4328 
L 1997 4328 
Q 2500 3725 3291 3334 
Q 4194 3756 4788 4328 
z
" transform="scale(0.015625)"/>
        <path id="MicrosoftYaHei-4eba" d="M 100 -303 
Q 2825 1272 2981 5222 
L 3531 5222 
Q 3497 4553 3400 3947 
Q 4175 822 6313 -166 
Q 6050 -453 5850 -709 
Q 3994 341 3203 3006 
Q 2519 431 494 -778 
Q 325 -547 100 -303 
z
" transform="scale(0.015625)"/>
        <path id="MicrosoftYaHei-5458" d="M 1100 5041 
L 5300 5041 
L 5300 3097 
L 4800 3097 
L 4800 3328 
L 1600 3328 
L 1600 3097 
L 1100 3097 
L 1100 5041 
z
M 2913 2116 
L 3419 2116 
Q 3425 1778 3400 1384 
Q 3381 1103 3325 866 
Q 4675 334 6275 -409 
L 5994 -878 
Q 4775 -247 3163 434 
Q 3050 209 2875 41 
Q 2150 -634 425 -909 
Q 319 -647 150 -434 
Q 1906 -166 2475 397 
Q 2856 747 2894 1428 
Q 2919 1778 2913 2116 
z
M 756 2741 
L 5650 2741 
L 5650 459 
L 5150 459 
L 5150 2303 
L 1256 2303 
L 1256 422 
L 756 422 
L 756 2741 
z
M 4800 3766 
L 4800 4603 
L 1600 4603 
L 1600 3766 
L 4800 3766 
z
" transform="scale(0.015625)"/>
        <path id="MicrosoftYaHei-6001" d="M 325 4434 
L 2888 4434 
Q 2972 4822 2969 5328 
L 3438 5328 
Q 3444 4841 3372 4434 
L 6075 4434 
L 6075 3991 
L 3528 3991 
Q 4419 2706 6231 2241 
Q 6050 2034 5881 1759 
Q 4041 2394 3172 3772 
Q 2975 3331 2588 2953 
Q 3078 2616 3538 2259 
L 3225 1891 
Q 2828 2244 2259 2675 
Q 1556 2138 388 1703 
Q 294 1922 113 2178 
Q 2250 2866 2750 3991 
L 325 3991 
L 325 4434 
z
M 1713 1547 
L 2200 1547 
L 2200 203 
Q 2200 -172 2575 -172 
L 3763 -172 
Q 4175 -172 4256 134 
Q 4331 428 4381 1028 
Q 4556 953 4863 847 
Q 4763 128 4706 -47 
Q 4563 -616 3869 -616 
L 2488 -616 
Q 1713 -616 1713 172 
L 1713 1547 
z
M 813 1447 
L 1281 1297 
Q 1038 522 663 -297 
Q 463 -203 194 -116 
Q 569 591 813 1447 
z
M 4894 1272 
L 5263 1553 
Q 5781 972 6306 309 
L 5888 -9 
Q 5425 641 4894 1272 
z
M 2594 1503 
L 2913 1809 
Q 3419 1403 3850 991 
L 3488 641 
Q 3094 1059 2594 1503 
z
" transform="scale(0.015625)"/>
        <path id="MicrosoftYaHei-5ea6" d="M 1550 1216 
L 1550 1628 
L 5469 1628 
L 5469 1222 
Q 4903 613 4147 163 
Q 5050 -200 6263 -309 
L 6019 -797 
Q 4625 -603 3644 -109 
Q 2600 -619 1250 -866 
Q 1150 -666 994 -416 
Q 2231 -222 3166 166 
Q 2497 600 2066 1216 
L 1550 1216 
z
M 1363 3541 
L 2294 3541 
L 2294 4066 
L 2769 4066 
L 2769 3541 
L 4538 3541 
L 4538 4072 
L 5013 4072 
L 5013 3541 
L 6150 3541 
L 6150 3128 
L 5013 3128 
L 5013 1928 
L 4538 1928 
L 4538 2147 
L 2769 2147 
L 2769 1922 
L 2294 1922 
L 2294 3128 
L 1363 3128 
L 1363 3541 
z
M 3025 5172 
L 3481 5391 
Q 3694 5056 3909 4634 
L 6213 4634 
L 6213 4197 
L 1225 4197 
L 1225 2316 
Q 1225 178 394 -872 
Q 238 -666 38 -447 
Q 725 397 738 2347 
L 738 4634 
L 3331 4634 
Q 3188 4909 3025 5172 
z
M 2769 2547 
L 4538 2547 
L 4538 3128 
L 2769 3128 
L 2769 2547 
z
M 4819 1216 
L 2588 1216 
Q 3031 728 3656 391 
Q 4334 741 4819 1216 
z
" transform="scale(0.015625)"/>
       </defs>
       <use xlink:href="#MicrosoftYaHei-670d"/>
       <use xlink:href="#MicrosoftYaHei-52a1" x="100"/>
       <use xlink:href="#MicrosoftYaHei-23" x="200"/>
       <use xlink:href="#MicrosoftYaHei-670d" x="263.818359"/>
       <use xlink:href="#MicrosoftYaHei-52a1" x="363.818359"/>
       <use xlink:href="#MicrosoftYaHei-4eba" x="463.818359"/>
       <use xlink:href="#MicrosoftYaHei-5458" x="563.818359"/>
       <use xlink:href="#MicrosoftYaHei-6001" x="663.818359"/>
       <use xlink:href="#MicrosoftYaHei-5ea6" x="763.818359"/>
      </g>
     </g>
    </g>
    <g id="xtick_3">
     <g id="line2d_3">
      <g>
       <use xlink:href="#m3732365e5b" x="234.5" y="489.6" style="stroke: #000000; stroke-width: 0.8"/>
      </g>
     </g>
     <g id="text_3">
      <!-- 价格#价格水平 -->
      <g transform="translate(185.803545 549.191067) rotate(-45) scale(0.1 -0.1)">
       <defs>
        <path id="MicrosoftYaHei-4ef7" d="M 69 2166 
Q 913 3484 1388 5259 
L 1875 5109 
Q 1650 4391 1400 3766 
L 1400 -853 
L 931 -853 
L 931 2722 
Q 619 2109 281 1622 
Q 163 1959 69 2166 
z
M 4319 5272 
L 4231 5116 
Q 5006 3747 6319 3141 
Q 6156 2953 5975 2703 
Q 4706 3434 3975 4703 
Q 3275 3497 2000 2603 
Q 1850 2822 1675 2997 
Q 3088 3884 3756 5272 
L 4319 5272 
z
M 3313 2828 
L 3313 1941 
Q 3313 134 2275 -891 
Q 2094 -709 1856 -541 
Q 2825 347 2825 1897 
L 2825 2828 
L 3313 2828 
z
M 4631 2828 
L 5119 2828 
L 5119 -828 
L 4631 -828 
L 4631 2828 
z
" transform="scale(0.015625)"/>
        <path id="MicrosoftYaHei-683c" d="M 2250 3278 
Q 3063 4309 3438 5341 
L 3906 5184 
Q 3788 4903 3644 4628 
L 5906 4628 
L 5906 4184 
Q 5481 3447 4731 2809 
Q 5450 2409 6313 2247 
Q 6169 1947 6106 1703 
Q 5163 1991 4313 2503 
Q 3481 1972 2306 1528 
Q 2206 1759 2094 1966 
Q 3088 2284 3919 2816 
Q 3450 3253 3163 3791 
Q 2888 3366 2563 2947 
Q 2444 3084 2250 3278 
z
M 2713 1559 
L 5800 1559 
L 5800 -872 
L 5319 -872 
L 5319 -559 
L 3194 -559 
L 3194 -872 
L 2713 -872 
L 2713 1559 
z
M 88 1378 
Q 756 2422 1025 3641 
L 131 3641 
L 131 4078 
L 1031 4078 
L 1031 5297 
L 1500 5297 
L 1500 4078 
L 2300 4078 
L 2300 3641 
L 1500 3641 
L 1500 2953 
L 1675 3122 
Q 2013 2797 2419 2384 
L 2094 2078 
Q 1763 2466 1500 2747 
L 1500 -866 
L 1031 -866 
L 1031 2453 
Q 713 1422 288 828 
Q 206 1097 88 1378 
z
M 5319 1109 
L 3194 1109 
L 3194 -109 
L 5319 -109 
L 5319 1109 
z
M 5338 4203 
L 3413 4203 
Q 3775 3491 4300 3078 
Q 4938 3566 5338 4203 
z
" transform="scale(0.015625)"/>
        <path id="MicrosoftYaHei-6c34" d="M 2925 5297 
L 3431 5297 
L 3431 4294 
Q 3700 3563 4047 2934 
Q 4738 3509 5425 4309 
L 5844 3934 
Q 5113 3169 4300 2506 
Q 5125 1200 6319 384 
Q 6056 122 5894 -84 
Q 4250 1209 3431 3119 
L 3431 197 
Q 3431 -734 2538 -734 
Q 2263 -734 1725 -728 
Q 1694 -497 1625 -166 
Q 2125 -216 2438 -216 
Q 2925 -216 2925 253 
L 2925 5297 
z
M 256 3297 
L 256 3772 
L 2413 3772 
L 2413 3316 
Q 1881 1266 475 -197 
Q 263 47 94 184 
Q 1506 1672 1913 3297 
L 256 3297 
z
" transform="scale(0.015625)"/>
        <path id="MicrosoftYaHei-5e73" d="M 169 1934 
L 2938 1934 
L 2938 4547 
L 450 4547 
L 450 5028 
L 5975 5028 
L 5975 4547 
L 3463 4547 
L 3463 1934 
L 6250 1934 
L 6250 1453 
L 3463 1453 
L 3463 -847 
L 2938 -847 
L 2938 1453 
L 169 1453 
L 169 1934 
z
M 3950 2559 
Q 4638 3284 5188 4159 
L 5656 3859 
Q 4950 2891 4338 2234 
L 3950 2559 
z
M 769 3859 
L 1163 4134 
Q 1863 3316 2369 2553 
L 1925 2222 
Q 1444 3003 769 3859 
z
" transform="scale(0.015625)"/>
       </defs>
       <use xlink:href="#MicrosoftYaHei-4ef7"/>
       <use xlink:href="#MicrosoftYaHei-683c" x="100"/>
       <use xlink:href="#MicrosoftYaHei-23" x="200"/>
       <use xlink:href="#MicrosoftYaHei-4ef7" x="263.818359"/>
       <use xlink:href="#MicrosoftYaHei-683c" x="363.818359"/>
       <use xlink:href="#MicrosoftYaHei-6c34" x="463.818359"/>
       <use xlink:href="#MicrosoftYaHei-5e73" x="563.818359"/>
      </g>
     </g>
    </g>
    <g id="xtick_4">
     <g id="line2d_4">
      <g>
       <use xlink:href="#m3732365e5b" x="277.9" y="489.6" style="stroke: #000000; stroke-width: 0.8"/>
      </g>
     </g>
     <g id="text_4">
      <!-- 环境#装修情况 -->
      <g transform="translate(229.203545 549.191067) rotate(-45) scale(0.1 -0.1)">
       <defs>
        <path id="MicrosoftYaHei-73af" d="M 2606 4447 
L 2606 4916 
L 6050 4916 
L 6050 4447 
L 4441 4447 
Q 4228 3716 3959 3053 
L 4369 3053 
L 4369 -816 
L 3875 -816 
L 3875 2850 
Q 3247 1381 2338 259 
Q 2175 422 1944 566 
Q 3284 2200 3925 4447 
L 2606 4447 
z
M 94 922 
Q 544 1031 1050 1166 
L 1050 2641 
L 213 2641 
L 213 3091 
L 1050 3091 
L 1050 4241 
L 169 4241 
L 169 4691 
L 2375 4691 
L 2375 4241 
L 1544 4241 
L 1544 3091 
L 2369 3091 
L 2369 2641 
L 1544 2641 
L 1544 1297 
Q 1922 1400 2331 1516 
Q 2313 1284 2325 1084 
Q 1081 691 175 391 
L 94 922 
z
M 4856 2909 
Q 5813 1628 6313 834 
L 5888 509 
Q 5225 1622 4469 2653 
L 4856 2909 
z
" transform="scale(0.015625)"/>
        <path id="MicrosoftYaHei-5883" d="M 2338 2722 
L 5756 2722 
L 5756 591 
L 5325 591 
L 5325 734 
L 4738 734 
L 4738 59 
Q 4738 -284 5063 -284 
L 5456 -284 
Q 5763 -284 5806 28 
Q 5844 272 5856 603 
Q 6094 497 6319 416 
Q 6275 28 6225 -172 
Q 6119 -703 5519 -703 
L 4950 -703 
Q 4294 -703 4294 -78 
L 4294 734 
L 3709 734 
Q 3628 50 3175 -284 
Q 2794 -591 1838 -866 
Q 1706 -653 1550 -434 
Q 2525 -228 2888 66 
Q 3188 300 3250 734 
L 2769 734 
L 2769 591 
L 2338 591 
L 2338 2722 
z
M 106 678 
Q 441 756 881 869 
L 881 3259 
L 169 3259 
L 169 3703 
L 881 3703 
L 881 5266 
L 1338 5266 
L 1338 3703 
L 1981 3703 
L 1981 3259 
L 1338 3259 
L 1338 991 
Q 1688 1084 2094 1197 
Q 2100 928 2113 728 
Q 1150 466 200 159 
L 106 678 
z
M 2113 3522 
L 3238 3522 
Q 3066 3794 2856 4066 
L 3225 4297 
Q 3481 3984 3700 3678 
L 3466 3522 
L 4409 3522 
Q 4663 3909 4881 4303 
L 5331 4053 
Q 5119 3781 4909 3522 
L 6200 3522 
L 6200 3147 
L 2113 3147 
L 2113 3522 
z
M 2263 4703 
L 3913 4703 
Q 3800 4928 3663 5159 
L 4100 5341 
Q 4291 5006 4425 4703 
L 5988 4703 
L 5988 4328 
L 2263 4328 
L 2263 4703 
z
M 2769 1097 
L 5325 1097 
L 5325 1559 
L 2769 1559 
L 2769 1097 
z
M 5325 2359 
L 2769 2359 
L 2769 1909 
L 5325 1909 
L 5325 2359 
z
" transform="scale(0.015625)"/>
        <path id="MicrosoftYaHei-88c5" d="M 3700 241 
Q 3694 -34 3700 -253 
Q 2869 -491 2375 -666 
Q 2188 -734 1925 -872 
L 1650 -491 
Q 1800 -366 1800 -59 
L 1800 425 
Q 1163 53 363 -247 
Q 244 -22 81 197 
Q 1750 734 2716 1634 
L 163 1634 
L 163 2072 
L 3091 2072 
Q 2941 2313 2794 2522 
L 3194 2766 
Q 3406 2453 3588 2191 
L 3388 2072 
L 6275 2072 
L 6275 1634 
L 3428 1634 
Q 3688 1125 4113 756 
Q 4809 1091 5488 1466 
L 5750 1009 
Q 5128 763 4484 481 
Q 5213 19 6306 -141 
Q 6119 -391 5963 -609 
Q 3938 -213 3069 1381 
Q 2713 1028 2263 716 
L 2263 -197 
Q 3006 9 3700 241 
z
M 2825 3228 
L 4181 3228 
L 4181 4059 
L 2606 4059 
L 2606 4491 
L 4181 4491 
L 4181 5334 
L 4650 5334 
L 4650 4491 
L 6263 4491 
L 6263 4059 
L 4650 4059 
L 4650 3228 
L 6050 3228 
L 6050 2797 
L 2825 2797 
L 2825 3228 
z
M 1863 5347 
L 2325 5347 
L 2325 2466 
L 1863 2466 
L 1863 3425 
Q 1188 3038 450 2603 
Q 381 2747 194 3066 
Q 1084 3519 1863 3963 
L 1863 5347 
z
M 363 4728 
L 694 5053 
Q 1263 4584 1550 4297 
L 1175 3934 
Q 725 4416 363 4728 
z
" transform="scale(0.015625)"/>
        <path id="MicrosoftYaHei-4fee" d="M 2363 3553 
Q 3131 4359 3531 5316 
L 3981 5178 
Q 3859 4919 3725 4678 
L 5788 4678 
L 5788 4284 
Q 5353 3653 4741 3175 
Q 5366 2850 6313 2684 
Q 6213 2522 6094 2222 
Q 4959 2506 4338 2894 
Q 3653 2459 2588 2084 
Q 2469 2284 2325 2491 
Q 3294 2747 3975 3156 
Q 3553 3497 3247 3916 
Q 2997 3566 2713 3259 
Q 2575 3397 2363 3553 
z
M 81 2278 
Q 856 3653 1238 5316 
L 1700 5228 
Q 1509 4497 1281 3856 
L 1281 -822 
L 838 -822 
L 838 2769 
Q 578 2213 281 1747 
Q 200 1997 81 2278 
z
M 5750 1103 
L 6031 759 
Q 4538 -409 2581 -884 
Q 2456 -653 2331 -478 
Q 4288 -16 5750 1103 
z
M 1775 528 
L 1775 4316 
L 2206 4316 
L 2206 528 
L 1775 528 
z
M 5188 1847 
L 5481 1509 
Q 4406 703 2913 147 
Q 2763 378 2631 534 
Q 4194 1041 5188 1847 
z
M 4581 2484 
L 4881 2166 
Q 3925 1522 2844 1141 
Q 2744 1328 2563 1516 
Q 3644 1822 4581 2484 
z
M 5219 4291 
L 3497 4291 
Q 3494 4284 3491 4278 
Q 3863 3744 4356 3413 
Q 4913 3828 5219 4291 
z
" transform="scale(0.015625)"/>
        <path id="MicrosoftYaHei-60c5" d="M 2806 -797 
L 2331 -797 
L 2331 2372 
L 5844 2372 
L 5844 -41 
Q 5844 -734 5213 -747 
Q 4800 -753 4150 -747 
Q 4119 -547 4056 -266 
Q 4650 -303 5025 -303 
Q 5369 -303 5369 -3 
L 5369 334 
L 2806 334 
L 2806 -797 
z
M 1925 3147 
L 3838 3147 
L 3838 3578 
L 2263 3578 
L 2263 3972 
L 3838 3972 
L 3838 4391 
L 2088 4391 
L 2088 4784 
L 3838 4784 
L 3838 5347 
L 4313 5347 
L 4313 4784 
L 6188 4784 
L 6188 4391 
L 4313 4391 
L 4313 3972 
L 6013 3972 
L 6013 3578 
L 4313 3578 
L 4313 3147 
L 6319 3147 
L 6319 2753 
L 1925 2753 
L 1925 3147 
z
M 931 5291 
L 1375 5291 
L 1375 4019 
L 1613 4191 
Q 1931 3816 2181 3497 
L 1831 3241 
Q 1638 3525 1375 3869 
L 1375 -816 
L 931 -816 
L 931 5291 
z
M 5369 1972 
L 2806 1972 
L 2806 1541 
L 5369 1541 
L 5369 1972 
z
M 2806 722 
L 5369 722 
L 5369 1153 
L 2806 1153 
L 2806 722 
z
M 319 3866 
L 719 3816 
Q 650 3059 494 2209 
Q 350 2247 88 2297 
Q 225 2909 319 3866 
z
" transform="scale(0.015625)"/>
        <path id="MicrosoftYaHei-51b5" d="M 2550 1984 
L 2063 1984 
L 2063 4997 
L 5763 4997 
L 5763 1984 
L 5275 1984 
L 5275 2259 
L 4675 2259 
L 4675 72 
Q 4675 -241 4969 -241 
L 5400 -241 
Q 5700 -241 5738 91 
Q 5781 384 5794 866 
Q 6006 778 6300 678 
Q 6256 184 6194 -147 
Q 6106 -691 5506 -691 
L 4888 -691 
Q 4188 -691 4188 -9 
L 4188 2259 
L 3541 2259 
Q 3519 1069 3163 453 
Q 2775 -253 1663 -866 
Q 1525 -653 1350 -441 
Q 2375 122 2725 716 
Q 3038 1216 3059 2259 
L 2550 2259 
L 2550 1984 
z
M 5275 4547 
L 2550 4547 
L 2550 2709 
L 5275 2709 
L 5275 4547 
z
M 1181 2416 
Q 1450 2228 1663 2103 
Q 1138 859 588 -497 
L 88 -197 
Q 681 959 1181 2416 
z
M 531 4884 
Q 1106 4322 1669 3672 
L 1238 3284 
Q 725 3953 163 4553 
L 531 4884 
z
" transform="scale(0.015625)"/>
       </defs>
       <use xlink:href="#MicrosoftYaHei-73af"/>
       <use xlink:href="#MicrosoftYaHei-5883" x="100"/>
       <use xlink:href="#MicrosoftYaHei-23" x="200"/>
       <use xlink:href="#MicrosoftYaHei-88c5" x="263.818359"/>
       <use xlink:href="#MicrosoftYaHei-4fee" x="363.818359"/>
       <use xlink:href="#MicrosoftYaHei-60c5" x="463.818359"/>
       <use xlink:href="#MicrosoftYaHei-51b5" x="563.818359"/>
      </g>
     </g>
    </g>
    <g id="xtick_5">
     <g id="line2d_5">
      <g>
       <use xlink:href="#m3732365e5b" x="321.3" y="489.6" style="stroke: #000000; stroke-width: 0.8"/>
      </g>
     </g>
     <g id="text_5">
      <!-- 菜品#分量 -->
      <g transform="translate(286.74568 535.048931) rotate(-45) scale(0.1 -0.1)">
       <defs>
        <path id="MicrosoftYaHei-5206" d="M 900 2559 
L 5056 2559 
Q 5025 1497 4963 484 
Q 4888 -684 3856 -678 
Q 3350 -684 2788 -647 
Q 2750 -384 2700 -116 
Q 3181 -184 3775 -191 
Q 4400 -203 4463 541 
Q 4513 1216 4538 2097 
L 2616 2097 
Q 2541 1053 2181 416 
Q 1706 -422 588 -878 
Q 425 -666 231 -459 
Q 1269 -72 1725 666 
Q 2053 1225 2103 2097 
L 900 2097 
L 900 2559 
z
M 3488 5159 
L 3938 5353 
Q 4625 3678 6350 2847 
Q 6069 2553 5944 2372 
Q 4225 3366 3488 5159 
z
M 50 2766 
Q 1338 3678 2250 5253 
L 2694 5009 
Q 1744 3347 413 2341 
Q 281 2534 50 2766 
z
" transform="scale(0.015625)"/>
        <path id="MicrosoftYaHei-91cf" d="M 113 -278 
L 2981 -278 
L 2981 78 
L 475 78 
L 475 403 
L 2981 403 
L 2981 759 
L 1494 759 
L 1494 597 
L 1069 597 
L 1069 2516 
L 5350 2516 
L 5350 597 
L 4925 597 
L 4925 759 
L 3419 759 
L 3419 403 
L 5931 403 
L 5931 78 
L 3419 78 
L 3419 -278 
L 6288 -278 
L 6288 -616 
L 113 -616 
L 113 -278 
z
M 1119 5072 
L 5306 5072 
L 5306 3284 
L 4881 3284 
L 4881 3453 
L 1544 3453 
L 1544 3284 
L 1119 3284 
L 1119 5072 
z
M 163 3153 
L 6263 3153 
L 6263 2816 
L 163 2816 
L 163 3153 
z
M 1544 3778 
L 4881 3778 
L 4881 4116 
L 1544 4116 
L 1544 3778 
z
M 4881 4747 
L 1544 4747 
L 1544 4416 
L 4881 4416 
L 4881 4747 
z
M 3419 1084 
L 4925 1084 
L 4925 1491 
L 3419 1491 
L 3419 1084 
z
M 1494 1084 
L 2981 1084 
L 2981 1491 
L 1494 1491 
L 1494 1084 
z
M 4925 2191 
L 3419 2191 
L 3419 1791 
L 4925 1791 
L 4925 2191 
z
M 1494 1791 
L 2981 1791 
L 2981 2191 
L 1494 2191 
L 1494 1791 
z
" transform="scale(0.015625)"/>
       </defs>
       <use xlink:href="#MicrosoftYaHei-83dc"/>
       <use xlink:href="#MicrosoftYaHei-54c1" x="100"/>
       <use xlink:href="#MicrosoftYaHei-23" x="200"/>
       <use xlink:href="#MicrosoftYaHei-5206" x="263.818359"/>
       <use xlink:href="#MicrosoftYaHei-91cf" x="363.818359"/>
      </g>
     </g>
    </g>
    <g id="xtick_6">
     <g id="line2d_6">
      <g>
       <use xlink:href="#m3732365e5b" x="364.7" y="489.6" style="stroke: #000000; stroke-width: 0.8"/>
      </g>
     </g>
     <g id="text_6">
      <!-- 环境#就餐空间 -->
      <g transform="translate(316.003545 549.191067) rotate(-45) scale(0.1 -0.1)">
       <defs>
        <path id="MicrosoftYaHei-5c31" d="M 3194 3534 
L 3847 3534 
Q 3856 4031 3869 5309 
L 4325 5309 
Q 4313 4128 4297 3534 
L 6125 3534 
L 6125 3078 
L 5013 3078 
L 5013 84 
Q 5013 -209 5244 -209 
L 5450 -209 
Q 5719 -209 5769 159 
Q 5831 534 5850 1116 
Q 6294 941 6319 928 
Q 6263 372 6213 9 
Q 6119 -659 5513 -659 
L 5094 -659 
Q 4556 -659 4556 -3 
L 4556 3078 
L 4278 3078 
Q 4238 603 2863 -872 
Q 2700 -697 2506 -509 
Q 3800 866 3828 3078 
L 3194 3078 
L 3194 3534 
z
M 550 3497 
L 3025 3497 
L 3025 1616 
L 2588 1616 
L 2588 1766 
L 2006 1766 
L 2006 -84 
Q 2006 -722 1369 -722 
Q 1088 -722 819 -709 
Q 794 -466 719 -228 
Q 1000 -272 1294 -272 
Q 1569 -272 1569 9 
L 1569 1766 
L 988 1766 
L 988 1616 
L 550 1616 
L 550 3497 
z
M 175 4478 
L 1719 4478 
Q 1556 4809 1325 5166 
L 1744 5366 
Q 1975 5022 2150 4672 
L 1750 4478 
L 3375 4478 
L 3375 4053 
L 175 4053 
L 175 4478 
z
M 2588 3084 
L 988 3084 
L 988 2178 
L 2588 2178 
L 2588 3084 
z
M 813 1397 
L 1219 1234 
Q 913 447 519 -166 
Q 363 -53 119 53 
Q 525 666 813 1397 
z
M 4663 4678 
L 4956 5003 
Q 5450 4653 5913 4272 
L 5588 3909 
Q 5300 4184 4663 4678 
z
M 2206 1259 
L 2563 1484 
Q 2919 1022 3156 634 
L 2769 372 
Q 2538 797 2206 1259 
z
" transform="scale(0.015625)"/>
        <path id="MicrosoftYaHei-9910" d="M 3581 3347 
L 3475 3222 
Q 4719 2228 6381 1753 
Q 6231 1566 6088 1341 
Q 5475 1572 4938 1828 
L 4938 372 
Q 5175 509 5419 684 
L 5694 359 
Q 5275 122 4769 -122 
Q 5381 -303 5894 -472 
L 5694 -859 
Q 4244 -322 2700 72 
L 2856 397 
Q 3619 197 4281 16 
Q 4613 184 4863 328 
L 4538 328 
L 4538 472 
L 1831 472 
L 1831 -359 
Q 2344 -259 3150 -78 
Q 3138 -266 3138 -484 
Q 2363 -628 1788 -772 
Q 1663 -809 1506 -891 
L 1263 -516 
Q 1419 -384 1419 -191 
L 1419 1747 
Q 881 1447 319 1191 
Q 200 1397 63 1566 
Q 1875 2297 3106 3347 
L 3581 3347 
z
M 906 3391 
L 1163 3641 
Q 1456 3422 1706 3216 
Q 2138 3497 2488 3853 
L 1038 3853 
Q 781 3553 475 3291 
Q 281 3441 131 3522 
Q 763 4028 1125 4622 
L 1513 4509 
Q 1406 4334 1288 4178 
L 1788 4178 
L 1788 5309 
L 2200 5309 
L 2200 4941 
L 3238 4941 
L 3238 4616 
L 2200 4616 
L 2200 4178 
L 2963 4178 
L 2963 3834 
Q 2000 2728 406 2159 
Q 294 2334 125 2509 
Q 800 2703 1363 3003 
Q 1181 3166 906 3391 
z
M 3538 4103 
L 3763 4397 
Q 4225 4166 4688 3928 
Q 5106 4228 5463 4634 
L 3631 4634 
L 3631 4991 
L 5975 4991 
L 5975 4653 
Q 5563 4116 5075 3728 
Q 5619 3441 6163 3141 
L 5894 2772 
Q 5300 3122 4713 3459 
Q 4344 3216 3944 3047 
Q 3819 3197 3644 3391 
Q 3988 3509 4300 3684 
Q 3919 3897 3538 4103 
z
M 4538 784 
L 4538 1134 
L 1831 1134 
L 1831 784 
L 4538 784 
z
M 1831 1778 
L 1831 1434 
L 4538 1434 
L 4538 1778 
L 1831 1778 
z
M 2881 2441 
L 3250 2584 
Q 3400 2347 3513 2091 
L 4469 2091 
Q 3881 2416 3213 2947 
Q 2631 2491 1988 2091 
L 3075 2091 
Q 2981 2272 2881 2441 
z
" transform="scale(0.015625)"/>
        <path id="MicrosoftYaHei-7a7a" d="M 331 -34 
L 2931 -34 
L 2931 1603 
L 975 1603 
L 975 2078 
L 5425 2078 
L 5425 1603 
L 3463 1603 
L 3463 -34 
L 6069 -34 
L 6069 -509 
L 331 -509 
L 331 -34 
z
M 369 4528 
L 3084 4528 
Q 2941 4800 2725 5141 
L 3188 5366 
Q 3444 4997 3631 4641 
L 3403 4528 
L 6038 4528 
L 6038 3316 
L 5525 3316 
L 5525 4053 
L 881 4053 
L 881 3316 
L 369 3316 
L 369 4528 
z
M 2381 3741 
L 2750 3384 
Q 1538 2434 469 1834 
Q 275 2091 94 2241 
Q 1319 2866 2381 3741 
z
M 3988 3734 
Q 5300 2953 6269 2259 
L 5913 1828 
Q 4969 2566 3688 3372 
L 3988 3734 
z
" transform="scale(0.015625)"/>
        <path id="MicrosoftYaHei-95f4" d="M 1863 3647 
L 4513 3647 
L 4513 553 
L 2313 553 
L 2313 166 
L 1863 166 
L 1863 3647 
z
M 2388 4453 
L 2388 4922 
L 6013 4922 
L 6013 -28 
Q 6013 -816 5119 -816 
Q 4756 -816 4169 -803 
Q 4144 -616 4069 -297 
Q 4588 -334 5056 -334 
Q 5525 -334 5525 122 
L 5525 4453 
L 2388 4453 
z
M 419 4084 
L 906 4084 
L 906 -816 
L 419 -816 
L 419 4084 
z
M 2313 997 
L 4063 997 
L 4063 1884 
L 2313 1884 
L 2313 997 
z
M 4063 3203 
L 2313 3203 
L 2313 2328 
L 4063 2328 
L 4063 3203 
z
M 744 5003 
L 1100 5322 
Q 1575 4872 1981 4447 
L 1575 4091 
Q 1194 4541 744 5003 
z
" transform="scale(0.015625)"/>
       </defs>
       <use xlink:href="#MicrosoftYaHei-73af"/>
       <use xlink:href="#MicrosoftYaHei-5883" x="100"/>
       <use xlink:href="#MicrosoftYaHei-23" x="200"/>
       <use xlink:href="#MicrosoftYaHei-5c31" x="263.818359"/>
       <use xlink:href="#MicrosoftYaHei-9910" x="363.818359"/>
       <use xlink:href="#MicrosoftYaHei-7a7a" x="463.818359"/>
       <use xlink:href="#MicrosoftYaHei-95f4" x="563.818359"/>
      </g>
     </g>
    </g>
    <g id="xtick_7">
     <g id="line2d_7">
      <g>
       <use xlink:href="#m3732365e5b" x="408.1" y="489.6" style="stroke: #000000; stroke-width: 0.8"/>
      </g>
     </g>
     <g id="text_7">
      <!-- 环境#卫生情况 -->
      <g transform="translate(359.403545 549.191067) rotate(-45) scale(0.1 -0.1)">
       <defs>
        <path id="MicrosoftYaHei-536b" d="M 181 22 
L 2263 22 
L 2263 4391 
L 463 4391 
L 463 4866 
L 5663 4866 
Q 5625 3372 5569 2441 
Q 5519 1409 4506 1391 
Q 4056 1391 3463 1403 
Q 3431 1678 3363 1959 
Q 3931 1903 4413 1903 
Q 5006 1916 5056 2509 
Q 5113 3303 5138 4391 
L 2788 4391 
L 2788 22 
L 6225 22 
L 6225 -441 
L 181 -441 
L 181 22 
z
" transform="scale(0.015625)"/>
        <path id="MicrosoftYaHei-751f" d="M 125 16 
L 3025 16 
L 3025 1609 
L 813 1609 
L 813 2091 
L 3025 2091 
L 3025 3534 
L 1375 3534 
Q 959 2784 419 2178 
Q 288 2384 81 2616 
Q 963 3603 1475 5028 
L 1988 4891 
Q 1822 4434 1622 4016 
L 3025 4016 
L 3025 5341 
L 3563 5341 
L 3563 4016 
L 5950 4016 
L 5950 3534 
L 3563 3534 
L 3563 2091 
L 5775 2091 
L 5775 1609 
L 3563 1609 
L 3563 16 
L 6288 16 
L 6288 -453 
L 125 -453 
L 125 16 
z
" transform="scale(0.015625)"/>
       </defs>
       <use xlink:href="#MicrosoftYaHei-73af"/>
       <use xlink:href="#MicrosoftYaHei-5883" x="100"/>
       <use xlink:href="#MicrosoftYaHei-23" x="200"/>
       <use xlink:href="#MicrosoftYaHei-536b" x="263.818359"/>
       <use xlink:href="#MicrosoftYaHei-751f" x="363.818359"/>
       <use xlink:href="#MicrosoftYaHei-60c5" x="463.818359"/>
       <use xlink:href="#MicrosoftYaHei-51b5" x="563.818359"/>
      </g>
     </g>
    </g>
    <g id="xtick_8">
     <g id="line2d_8">
      <g>
       <use xlink:href="#m3732365e5b" x="451.5" y="489.6" style="stroke: #000000; stroke-width: 0.8"/>
      </g>
     </g>
     <g id="text_8">
      <!-- 价格#折扣力度 -->
      <g transform="translate(402.803545 549.191067) rotate(-45) scale(0.1 -0.1)">
       <defs>
        <path id="MicrosoftYaHei-6298" d="M 2631 4816 
Q 4256 4822 5975 5078 
L 6144 4591 
Q 4281 4397 3119 4372 
L 3119 2916 
L 6300 2916 
L 6300 2453 
L 5163 2453 
L 5163 -822 
L 4663 -822 
L 4663 2453 
L 3119 2453 
Q 3103 203 2250 -859 
Q 2081 -672 1856 -472 
Q 2631 441 2631 2447 
L 2631 4816 
z
M 75 1953 
Q 513 2072 1013 2216 
L 1013 3591 
L 181 3591 
L 181 4022 
L 1013 4022 
L 1013 5259 
L 1500 5259 
L 1500 4022 
L 2275 4022 
L 2275 3591 
L 1500 3591 
L 1500 2363 
Q 1834 2463 2194 2578 
Q 2200 2259 2206 2078 
Q 1922 1997 1500 1866 
L 1500 -22 
Q 1500 -703 938 -722 
Q 650 -734 263 -728 
Q 225 -466 181 -203 
Q 556 -241 756 -241 
Q 1013 -241 1013 66 
L 1013 1709 
Q 622 1584 144 1428 
L 75 1953 
z
" transform="scale(0.015625)"/>
        <path id="MicrosoftYaHei-6263" d="M 2750 4684 
L 5913 4684 
L 5913 -728 
L 5425 -728 
L 5425 -203 
L 3238 -203 
L 3238 -728 
L 2750 -728 
L 2750 4684 
z
M 5425 4216 
L 3238 4216 
L 3238 253 
L 5425 253 
L 5425 4216 
z
M 94 1947 
Q 578 2066 1088 2200 
L 1088 3603 
L 181 3603 
L 181 4059 
L 1088 4059 
L 1088 5266 
L 1575 5266 
L 1575 4059 
L 2450 4059 
L 2450 3603 
L 1575 3603 
L 1575 2328 
Q 1991 2441 2425 2559 
Q 2431 2247 2438 2066 
Q 2003 1944 1575 1822 
L 1575 -34 
Q 1575 -716 969 -722 
Q 688 -728 269 -722 
Q 231 -459 175 -203 
Q 544 -234 806 -234 
Q 1088 -234 1088 97 
L 1088 1681 
Q 619 1550 163 1416 
L 94 1947 
z
" transform="scale(0.015625)"/>
        <path id="MicrosoftYaHei-529b" d="M 400 3916 
L 2425 3916 
Q 2444 4603 2450 5316 
L 2994 5316 
Q 2981 4653 2963 3916 
L 5831 3916 
Q 5756 1472 5688 459 
Q 5606 -616 4538 -628 
Q 4025 -628 3300 -603 
Q 3275 -359 3206 -9 
L 3225 -9 
Q 4038 -84 4488 -78 
Q 5094 -66 5156 591 
Q 5231 1709 5269 3403 
L 2950 3403 
Q 2894 1775 2431 953 
Q 1938 41 506 -803 
Q 331 -578 131 -328 
Q 1488 434 1913 1209 
Q 2353 1913 2406 3403 
L 400 3403 
L 400 3916 
z
" transform="scale(0.015625)"/>
       </defs>
       <use xlink:href="#MicrosoftYaHei-4ef7"/>
       <use xlink:href="#MicrosoftYaHei-683c" x="100"/>
       <use xlink:href="#MicrosoftYaHei-23" x="200"/>
       <use xlink:href="#MicrosoftYaHei-6298" x="263.818359"/>
       <use xlink:href="#MicrosoftYaHei-6263" x="363.818359"/>
       <use xlink:href="#MicrosoftYaHei-529b" x="463.818359"/>
       <use xlink:href="#MicrosoftYaHei-5ea6" x="563.818359"/>
      </g>
     </g>
    </g>
    <g id="xtick_9">
     <g id="line2d_9">
      <g>
       <use xlink:href="#m3732365e5b" x="494.9" y="489.6" style="stroke: #000000; stroke-width: 0.8"/>
      </g>
     </g>
     <g id="text_9">
      <!-- 环境#嘈杂情况 -->
      <g transform="translate(446.203545 549.191067) rotate(-45) scale(0.1 -0.1)">
       <defs>
        <path id="MicrosoftYaHei-5608" d="M 2281 3891 
L 3388 3891 
L 3388 4378 
L 2050 4378 
L 2050 4753 
L 3388 4753 
L 3388 5272 
L 3788 5272 
L 3788 4753 
L 4494 4753 
L 4494 5272 
L 4894 5272 
L 4894 4753 
L 6263 4753 
L 6263 4378 
L 4894 4378 
L 4894 3891 
L 6006 3891 
L 6006 1759 
L 5606 1759 
L 5606 1897 
L 2681 1897 
L 2681 1759 
L 2281 1759 
L 2281 3891 
z
M 2481 1441 
L 5794 1441 
L 5794 -853 
L 5356 -853 
L 5356 -591 
L 2919 -591 
L 2919 -853 
L 2481 -853 
L 2481 1441 
z
M 381 4659 
L 1913 4659 
L 1913 297 
L 1475 297 
L 1475 791 
L 819 791 
L 819 172 
L 381 172 
L 381 4659 
z
M 1475 4247 
L 819 4247 
L 819 1203 
L 1475 1203 
L 1475 4247 
z
M 2919 -228 
L 5356 -228 
L 5356 253 
L 2919 253 
L 2919 -228 
z
M 5356 1078 
L 2919 1078 
L 2919 603 
L 5356 603 
L 5356 1078 
z
M 4894 2234 
L 5606 2234 
L 5606 2741 
L 4894 2741 
L 4894 2234 
z
M 2681 2234 
L 3388 2234 
L 3388 2741 
L 2681 2741 
L 2681 2234 
z
M 3788 2234 
L 4494 2234 
L 4494 2741 
L 3788 2741 
L 3788 2234 
z
M 5606 3553 
L 4894 3553 
L 4894 3053 
L 5606 3053 
L 5606 3553 
z
M 2681 3053 
L 3388 3053 
L 3388 3553 
L 2681 3553 
L 2681 3053 
z
M 3788 3053 
L 4494 3053 
L 4494 3553 
L 3788 3553 
L 3788 3053 
z
M 3788 3891 
L 4494 3891 
L 4494 4378 
L 3788 4378 
L 3788 3891 
z
" transform="scale(0.015625)"/>
        <path id="MicrosoftYaHei-6742" d="M 4731 4653 
L 4731 3216 
Q 4731 2816 5069 2816 
L 5288 2816 
Q 5663 2816 5725 3122 
Q 5794 3428 5831 3903 
Q 6144 3766 6313 3709 
Q 6256 3284 6188 2966 
Q 6056 2366 5319 2366 
L 5000 2366 
Q 4231 2366 4231 3172 
L 4231 4203 
L 2497 4203 
Q 2297 2856 456 2197 
Q 306 2459 156 2647 
Q 1766 3153 1984 4203 
L 450 4203 
L 450 4653 
L 2031 4653 
Q 2050 4956 2050 5341 
L 2550 5341 
Q 2550 4956 2534 4653 
L 4731 4653 
z
M 156 1966 
L 2925 1966 
L 2925 2753 
L 3438 2753 
L 3438 1966 
L 6038 1966 
L 6038 1516 
L 3438 1516 
L 3438 -28 
Q 3438 -728 2731 -728 
L 1913 -728 
Q 1906 -697 1819 -222 
Q 2219 -259 2581 -259 
Q 2925 -259 2925 122 
L 2925 1516 
L 156 1516 
L 156 1966 
z
M 4106 747 
L 4419 1134 
Q 5450 484 6163 -41 
L 5819 -497 
Q 4969 191 4106 747 
z
M 1700 1209 
L 2088 866 
Q 1288 109 400 -559 
Q 250 -347 69 -153 
Q 938 447 1700 1209 
z
" transform="scale(0.015625)"/>
       </defs>
       <use xlink:href="#MicrosoftYaHei-73af"/>
       <use xlink:href="#MicrosoftYaHei-5883" x="100"/>
       <use xlink:href="#MicrosoftYaHei-23" x="200"/>
       <use xlink:href="#MicrosoftYaHei-5608" x="263.818359"/>
       <use xlink:href="#MicrosoftYaHei-6742" x="363.818359"/>
       <use xlink:href="#MicrosoftYaHei-60c5" x="463.818359"/>
       <use xlink:href="#MicrosoftYaHei-51b5" x="563.818359"/>
      </g>
     </g>
    </g>
    <g id="xtick_10">
     <g id="line2d_10">
      <g>
       <use xlink:href="#m3732365e5b" x="538.3" y="489.6" style="stroke: #000000; stroke-width: 0.8"/>
      </g>
     </g>
     <g id="text_10">
      <!-- 菜品#外观 -->
      <g transform="translate(503.74568 535.048931) rotate(-45) scale(0.1 -0.1)">
       <defs>
        <path id="MicrosoftYaHei-5916" d="M 38 2084 
Q 969 3503 1438 5316 
L 1950 5172 
Q 1800 4666 1638 4197 
L 3375 4197 
L 3375 3734 
Q 3044 628 569 -822 
Q 438 -616 244 -378 
Q 1456 341 2106 1422 
Q 1669 1791 1125 2172 
L 1444 2553 
Q 1975 2166 2350 1872 
Q 2738 2678 2850 3722 
L 1456 3722 
Q 1019 2616 325 1553 
Q 200 1809 38 2084 
z
M 3988 5266 
L 4513 5266 
L 4513 3116 
L 4763 3397 
Q 5656 2703 6356 2128 
L 6000 1666 
Q 5338 2278 4513 2972 
L 4513 -859 
L 3988 -859 
L 3988 5266 
z
" transform="scale(0.015625)"/>
        <path id="MicrosoftYaHei-89c2" d="M 788 3672 
Q 1125 3025 1469 2359 
Q 1722 3225 1806 4266 
L 250 4266 
L 250 4741 
L 2294 4741 
L 2294 4284 
Q 2181 2869 1784 1747 
Q 2159 1019 2544 266 
L 2081 9 
Q 1841 534 1544 1147 
Q 1094 163 394 -559 
Q 269 -366 81 -103 
Q 825 659 1253 1741 
Q 859 2538 381 3466 
L 788 3672 
z
M 4031 4141 
L 4506 4141 
L 4506 3009 
Q 4506 2256 4394 1678 
L 4769 1678 
L 4769 191 
Q 4769 -203 5094 -203 
L 5394 -203 
Q 5713 -203 5756 134 
Q 5794 441 5819 966 
Q 6025 878 6313 772 
Q 6263 216 6213 -91 
Q 6119 -666 5500 -666 
L 5019 -666 
Q 4306 -666 4306 72 
L 4306 1313 
Q 4200 953 4044 678 
Q 3600 -116 2381 -822 
Q 2250 -634 2038 -409 
Q 3206 216 3625 941 
Q 4031 1584 4031 2978 
L 4031 4141 
z
M 2744 5034 
L 5794 5034 
L 5794 1284 
L 5319 1284 
L 5319 4572 
L 3219 4572 
L 3219 1197 
L 2744 1197 
L 2744 5034 
z
" transform="scale(0.015625)"/>
       </defs>
       <use xlink:href="#MicrosoftYaHei-83dc"/>
       <use xlink:href="#MicrosoftYaHei-54c1" x="100"/>
       <use xlink:href="#MicrosoftYaHei-23" x="200"/>
       <use xlink:href="#MicrosoftYaHei-5916" x="263.818359"/>
       <use xlink:href="#MicrosoftYaHei-89c2" x="363.818359"/>
      </g>
     </g>
    </g>
    <g id="xtick_11">
     <g id="line2d_11">
      <g>
       <use xlink:href="#m3732365e5b" x="581.7" y="489.6" style="stroke: #000000; stroke-width: 0.8"/>
      </g>
     </g>
     <g id="text_11">
      <!-- 价格#性价比 -->
      <g transform="translate(540.074613 542.119999) rotate(-45) scale(0.1 -0.1)">
       <defs>
        <path id="MicrosoftYaHei-6027" d="M 1963 -153 
L 3988 -153 
L 3988 1522 
L 2375 1522 
L 2375 1959 
L 3988 1959 
L 3988 3472 
L 2975 3472 
Q 2744 2878 2438 2291 
Q 2169 2509 2019 2578 
Q 2644 3709 2894 4891 
L 3388 4759 
Q 3281 4328 3138 3909 
L 3988 3909 
L 3988 5284 
L 4481 5284 
L 4481 3909 
L 6125 3909 
L 6125 3472 
L 4481 3472 
L 4481 1959 
L 6000 1959 
L 6000 1522 
L 4481 1522 
L 4481 -153 
L 6319 -153 
L 6319 -591 
L 1963 -591 
L 1963 -153 
z
M 988 5291 
L 1469 5291 
L 1469 4091 
L 1738 4241 
Q 2063 3734 2294 3291 
L 1906 3041 
Q 1688 3503 1469 3859 
L 1469 -872 
L 988 -872 
L 988 5291 
z
M 406 3878 
L 819 3784 
Q 706 3028 506 2178 
Q 338 2241 75 2297 
Q 263 2978 406 3878 
z
" transform="scale(0.015625)"/>
        <path id="MicrosoftYaHei-6bd4" d="M 3225 5316 
L 3744 5316 
L 3744 2672 
Q 4959 3550 5744 4509 
L 6188 4178 
Q 5175 3063 3744 2056 
L 3744 247 
Q 3744 -166 4106 -166 
L 5175 -166 
Q 5588 -166 5650 203 
Q 5725 678 5763 1247 
Q 6025 1147 6300 1066 
Q 6244 484 6150 22 
Q 6019 -622 5319 -622 
L 3944 -622 
Q 3225 -622 3225 159 
L 3225 5316 
z
M 1063 5153 
L 1063 3278 
L 2825 3278 
L 2825 2809 
L 1063 2809 
L 1063 153 
Q 1713 428 2763 928 
Q 2763 634 2788 366 
Q 1869 -3 1231 -328 
Q 956 -472 725 -672 
L 344 -184 
Q 544 -34 544 272 
L 544 5153 
L 1063 5153 
z
" transform="scale(0.015625)"/>
       </defs>
       <use xlink:href="#MicrosoftYaHei-4ef7"/>
       <use xlink:href="#MicrosoftYaHei-683c" x="100"/>
       <use xlink:href="#MicrosoftYaHei-23" x="200"/>
       <use xlink:href="#MicrosoftYaHei-6027" x="263.818359"/>
       <use xlink:href="#MicrosoftYaHei-4ef7" x="363.818359"/>
       <use xlink:href="#MicrosoftYaHei-6bd4" x="463.818359"/>
      </g>
     </g>
    </g>
    <g id="xtick_12">
     <g id="line2d_12">
      <g>
       <use xlink:href="#m3732365e5b" x="625.1" y="489.6" style="stroke: #000000; stroke-width: 0.8"/>
      </g>
     </g>
     <g id="text_12">
      <!-- 位置#交通便利 -->
      <g transform="translate(576.403545 549.191067) rotate(-45) scale(0.1 -0.1)">
       <defs>
        <path id="MicrosoftYaHei-4f4d" d="M 1788 -59 
L 4228 -59 
Q 4678 1144 5269 3372 
L 5831 3203 
Q 5453 2044 4756 -59 
L 6319 -59 
L 6319 -522 
L 1788 -522 
L 1788 -59 
z
M 81 2291 
Q 975 3641 1431 5322 
L 1963 5191 
Q 1703 4397 1406 3709 
L 1406 -853 
L 938 -853 
L 938 2731 
Q 644 2181 319 1716 
Q 231 1953 81 2291 
z
M 1919 4191 
L 4122 4191 
Q 3844 4659 3506 5059 
L 3931 5353 
Q 4206 5034 4613 4497 
L 4150 4191 
L 6206 4191 
L 6206 3728 
L 1919 3728 
L 1919 4191 
z
M 2769 3309 
Q 3181 2184 3669 584 
L 3150 434 
Q 2725 1966 2294 3147 
L 2769 3309 
z
" transform="scale(0.015625)"/>
        <path id="MicrosoftYaHei-7f6e" d="M 94 -284 
L 1025 -284 
L 1025 2609 
L 2938 2609 
L 2938 3016 
L 244 3016 
L 244 3366 
L 2938 3366 
L 2938 3697 
L 3388 3697 
L 3388 3366 
L 6150 3366 
L 6150 3016 
L 3388 3016 
L 3388 2609 
L 5431 2609 
L 5431 -284 
L 6294 -284 
L 6294 -647 
L 94 -647 
L 94 -284 
z
M 638 5034 
L 5756 5034 
L 5756 3641 
L 5331 3641 
L 5331 3784 
L 1069 3784 
L 1069 3641 
L 638 3641 
L 638 5034 
z
M 1463 -284 
L 4994 -284 
L 4994 116 
L 1463 116 
L 1463 -284 
z
M 1463 441 
L 4994 441 
L 4994 834 
L 1463 834 
L 1463 441 
z
M 1463 1159 
L 4994 1159 
L 4994 1553 
L 1463 1553 
L 1463 1159 
z
M 4994 2272 
L 1463 2272 
L 1463 1878 
L 4994 1878 
L 4994 2272 
z
M 5331 4697 
L 4181 4697 
L 4181 4122 
L 5331 4122 
L 5331 4697 
z
M 2625 4122 
L 3769 4122 
L 3769 4697 
L 2625 4697 
L 2625 4122 
z
M 1069 4122 
L 2213 4122 
L 2213 4697 
L 1069 4697 
L 1069 4122 
z
" transform="scale(0.015625)"/>
        <path id="MicrosoftYaHei-4ea4" d="M 4194 2641 
L 4675 2434 
Q 4209 1375 3566 713 
Q 4503 19 6225 -278 
Q 5994 -591 5850 -803 
Q 4184 -378 3194 375 
Q 2334 -297 463 -847 
Q 325 -628 150 -366 
Q 1909 78 2803 713 
Q 2184 1344 1738 2359 
L 2156 2597 
Q 2566 1669 3194 1041 
Q 3766 1609 4194 2641 
z
M 194 4384 
L 3122 4384 
Q 2975 4691 2700 5128 
L 3163 5353 
Q 3431 4978 3638 4566 
L 3288 4384 
L 6194 4384 
L 6194 3922 
L 194 3922 
L 194 4384 
z
M 2044 3634 
L 2444 3309 
Q 1569 2391 625 1666 
Q 469 1859 275 2066 
Q 1219 2734 2044 3634 
z
M 4288 3666 
Q 5431 2766 6075 2159 
Q 5900 1984 5700 1753 
Q 4994 2478 3944 3341 
L 4288 3666 
z
" transform="scale(0.015625)"/>
        <path id="MicrosoftYaHei-901a" d="M 2594 147 
L 2150 147 
L 2150 3666 
L 3656 3666 
Q 3188 3906 2688 4147 
L 2944 4447 
Q 3434 4209 3866 3994 
L 4981 4578 
L 2050 4578 
L 2050 4978 
L 5806 4978 
L 5806 4559 
L 4297 3775 
Q 4406 3719 4509 3666 
L 5850 3666 
L 5850 841 
Q 5850 128 5194 128 
Q 4869 128 4488 147 
Q 4456 384 4394 628 
Q 4788 584 5069 584 
Q 5406 584 5406 909 
L 5406 1216 
L 4213 1216 
L 4213 241 
L 3769 241 
L 3769 1216 
L 2594 1216 
L 2594 147 
z
M 2663 -197 
L 4219 -222 
L 6300 -172 
Q 6231 -378 6125 -666 
L 4056 -678 
L 2569 -641 
Q 1506 -628 1081 91 
Q 825 -147 331 -747 
L 75 -228 
Q 628 306 875 538 
L 875 2641 
L 131 2641 
L 131 3103 
L 1356 3103 
L 1356 431 
Q 1741 -191 2663 -197 
z
M 856 5203 
Q 1175 4816 1731 4022 
L 1288 3709 
Q 781 4503 456 4934 
L 856 5203 
z
M 5406 3266 
L 4213 3266 
L 4213 2641 
L 5406 2641 
L 5406 3266 
z
M 4213 1616 
L 5406 1616 
L 5406 2241 
L 4213 2241 
L 4213 1616 
z
M 2594 2641 
L 3769 2641 
L 3769 3266 
L 2594 3266 
L 2594 2641 
z
M 2594 1616 
L 3769 1616 
L 3769 2241 
L 2594 2241 
L 2594 1616 
z
" transform="scale(0.015625)"/>
        <path id="MicrosoftYaHei-4fbf" d="M 5513 1359 
L 5513 1541 
L 4234 1541 
Q 4147 825 3875 391 
Q 4844 -69 6300 -172 
Q 6138 -422 6013 -659 
Q 4556 -503 3566 22 
Q 2981 -534 1938 -841 
Q 1788 -641 1594 -416 
Q 2638 -147 3144 278 
Q 2606 647 2238 1153 
L 2581 1434 
Q 2925 959 3456 622 
Q 3691 969 3775 1541 
L 2150 1541 
L 2150 3959 
L 3825 3959 
L 3825 4547 
L 2069 4547 
L 2069 4972 
L 6200 4972 
L 6200 4547 
L 4275 4547 
L 4275 3959 
L 5950 3959 
L 5950 1359 
L 5513 1359 
z
M 56 2309 
Q 919 3516 1488 5322 
L 1969 5128 
Q 1678 4328 1375 3666 
L 1375 -809 
L 925 -809 
L 925 2769 
Q 597 2184 256 1747 
Q 169 2003 56 2309 
z
M 4266 1941 
L 5513 1941 
L 5513 2559 
L 4275 2559 
Q 4275 2272 4266 1941 
z
M 3816 1941 
Q 3825 2091 3825 2559 
L 2588 2559 
L 2588 1941 
L 3816 1941 
z
M 5513 3559 
L 4275 3559 
L 4275 2947 
L 5513 2947 
L 5513 3559 
z
M 2588 2947 
L 3825 2947 
L 3825 3559 
L 2588 3559 
L 2588 2947 
z
" transform="scale(0.015625)"/>
        <path id="MicrosoftYaHei-5229" d="M 75 741 
Q 913 1653 1488 2997 
L 106 2997 
L 106 3453 
L 1606 3453 
L 1606 4391 
Q 963 4328 331 4272 
Q 288 4503 206 4747 
Q 1706 4866 3269 5066 
L 3394 4591 
Q 2731 4509 2081 4441 
L 2081 3453 
L 3500 3453 
L 3500 2997 
L 2081 2997 
L 2081 2159 
L 2356 2422 
Q 2944 1922 3525 1347 
L 3144 959 
Q 2763 1403 2081 2053 
L 2081 -828 
L 1606 -828 
L 1606 2297 
Q 1069 1084 325 178 
Q 156 584 75 741 
z
M 5444 5197 
L 5938 5197 
L 5938 -9 
Q 5938 -803 5138 -797 
Q 4881 -797 4306 -791 
Q 4269 -534 4213 -228 
Q 4719 -284 4981 -284 
Q 5444 -291 5444 184 
L 5444 5197 
z
M 3963 4572 
L 4438 4572 
L 4438 622 
L 3963 622 
L 3963 4572 
z
" transform="scale(0.015625)"/>
       </defs>
       <use xlink:href="#MicrosoftYaHei-4f4d"/>
       <use xlink:href="#MicrosoftYaHei-7f6e" x="100"/>
       <use xlink:href="#MicrosoftYaHei-23" x="200"/>
       <use xlink:href="#MicrosoftYaHei-4ea4" x="263.818359"/>
       <use xlink:href="#MicrosoftYaHei-901a" x="363.818359"/>
       <use xlink:href="#MicrosoftYaHei-4fbf" x="463.818359"/>
       <use xlink:href="#MicrosoftYaHei-5229" x="563.818359"/>
      </g>
     </g>
    </g>
    <g id="xtick_13">
     <g id="line2d_13">
      <g>
       <use xlink:href="#m3732365e5b" x="668.5" y="489.6" style="stroke: #000000; stroke-width: 0.8"/>
      </g>
     </g>
     <g id="text_13">
      <!-- 位置#是否容易寻找 -->
      <g transform="translate(605.661409 563.333202) rotate(-45) scale(0.1 -0.1)">
       <defs>
        <path id="MicrosoftYaHei-662f" d="M 1088 5078 
L 5338 5078 
L 5338 2472 
L 4863 2472 
L 4863 2722 
L 1563 2722 
L 1563 2472 
L 1088 2472 
L 1088 5078 
z
M 1400 1553 
L 1875 1409 
Q 1775 1081 1647 788 
Q 2122 19 3063 -134 
L 3063 1747 
L 213 1747 
L 213 2184 
L 6225 2184 
L 6225 1747 
L 3563 1747 
L 3563 1122 
L 5788 1122 
L 5788 697 
L 3563 697 
L 3563 -172 
Q 4763 -197 6344 -147 
Q 6244 -416 6169 -641 
Q 4331 -647 3344 -622 
Q 2022 -606 1434 359 
Q 1006 -413 350 -891 
Q 225 -703 44 -484 
Q 1050 191 1400 1553 
z
M 1563 3147 
L 4863 3147 
L 4863 3697 
L 1563 3697 
L 1563 3147 
z
M 4863 4653 
L 1563 4653 
L 1563 4109 
L 4863 4109 
L 4863 4653 
z
" transform="scale(0.015625)"/>
        <path id="MicrosoftYaHei-5426" d="M 938 1959 
L 5463 1959 
L 5463 -816 
L 4956 -816 
L 4956 -397 
L 1444 -397 
L 1444 -828 
L 938 -828 
L 938 1959 
z
M 350 4959 
L 6050 4959 
L 6050 4509 
L 3713 4509 
Q 3494 4247 3219 3984 
L 3488 3984 
L 3488 2166 
L 2981 2166 
L 2981 3772 
Q 1813 2803 419 2159 
Q 313 2347 100 2616 
Q 1875 3378 3113 4509 
L 350 4509 
L 350 4959 
z
M 4956 1509 
L 1444 1509 
L 1444 41 
L 4956 41 
L 4956 1509 
z
M 3619 3622 
L 3888 3984 
Q 5244 3297 6313 2603 
L 5981 2172 
Q 4913 2916 3619 3622 
z
" transform="scale(0.015625)"/>
        <path id="MicrosoftYaHei-5bb9" d="M 3550 3147 
Q 3500 3091 3444 3022 
Q 4644 1872 6313 1447 
Q 6106 1134 6006 916 
Q 5594 1066 5225 1247 
L 5225 -859 
L 4725 -859 
L 4725 -578 
L 1669 -578 
L 1669 -859 
L 1169 -859 
L 1169 1191 
Q 763 972 338 797 
Q 225 1028 63 1241 
Q 2000 2059 3025 3228 
L 3550 3147 
z
M 363 4572 
L 3038 4572 
Q 2900 4822 2725 5109 
L 3206 5328 
Q 3438 4972 3644 4572 
L 6031 4572 
L 6031 3522 
L 5525 3522 
L 5525 4122 
L 863 4122 
L 863 3497 
L 363 3497 
L 363 4572 
z
M 4725 934 
L 1669 934 
L 1669 -128 
L 4725 -128 
L 4725 934 
z
M 3163 2684 
Q 2394 1928 1494 1384 
L 4950 1384 
Q 3869 1953 3163 2684 
z
M 2338 3847 
L 2638 3441 
Q 1488 2734 706 2359 
Q 594 2566 419 2791 
Q 1494 3259 2338 3847 
z
M 4006 3841 
Q 4944 3409 5938 2859 
L 5650 2416 
Q 4875 2891 3744 3453 
L 4006 3841 
z
" transform="scale(0.015625)"/>
        <path id="MicrosoftYaHei-6613" d="M 919 5022 
L 5519 5022 
L 5519 2422 
L 5031 2422 
L 5031 2672 
L 919 2672 
L 919 5022 
z
M 113 1091 
Q 1113 1634 1806 2566 
L 2250 2397 
Q 2125 2228 2000 2072 
L 5881 2072 
Q 5825 891 5763 247 
Q 5681 -759 4750 -766 
Q 4231 -772 3669 -766 
Q 3631 -497 3575 -234 
Q 4119 -284 4625 -284 
Q 5213 -284 5275 303 
Q 5344 866 5369 1634 
L 4406 1634 
Q 4025 -9 2188 -891 
Q 2025 -684 1838 -466 
Q 3588 253 3919 1634 
L 2969 1634 
Q 2513 303 556 -453 
Q 394 -247 206 -34 
Q 2050 653 2450 1634 
L 1606 1634 
Q 1075 1097 425 691 
Q 294 878 113 1091 
z
M 1406 3109 
L 5031 3109 
L 5031 3634 
L 1406 3634 
L 1406 3109 
z
M 5031 4584 
L 1406 4584 
L 1406 4072 
L 5031 4072 
L 5031 4584 
z
" transform="scale(0.015625)"/>
        <path id="MicrosoftYaHei-5bfb" d="M 656 2847 
L 5113 2847 
L 5113 3484 
L 906 3484 
L 906 3916 
L 5113 3916 
L 5113 4547 
L 731 4547 
L 731 4978 
L 5594 4978 
L 5594 2191 
L 5113 2191 
L 5113 2416 
L 656 2416 
L 656 2847 
z
M 106 1628 
L 4519 1628 
L 4519 2078 
L 5031 2078 
L 5031 1628 
L 6319 1628 
L 6319 1178 
L 5031 1178 
L 5031 16 
Q 5031 -759 4238 -759 
Q 3856 -759 3219 -747 
Q 3181 -497 3125 -203 
Q 3700 -247 4106 -247 
Q 4519 -247 4519 197 
L 4519 1178 
L 106 1178 
L 106 1628 
z
M 1275 728 
L 1594 1053 
Q 2275 503 2663 159 
L 2300 -209 
Q 1725 341 1275 728 
z
" transform="scale(0.015625)"/>
        <path id="MicrosoftYaHei-627e" d="M 2094 209 
Q 3075 656 3841 1209 
Q 3653 1884 3575 3022 
L 2375 2884 
L 2300 3347 
L 3547 3488 
Q 3503 4297 3463 5291 
L 3975 5291 
Q 3984 4325 4022 3544 
L 6131 3784 
L 6188 3328 
L 4050 3078 
Q 4109 2125 4250 1522 
Q 5003 2141 5513 2878 
L 5919 2572 
Q 5263 1725 4391 1034 
Q 4647 284 5075 -91 
Q 5313 -291 5456 -291 
Q 5619 -291 5688 16 
Q 5775 466 5831 978 
Q 6119 853 6313 797 
Q 6194 78 6088 -291 
Q 5938 -797 5513 -797 
Q 5113 -797 4806 -528 
Q 4294 -97 3994 734 
Q 3269 216 2406 -203 
Q 2294 -28 2094 209 
z
M 88 1991 
Q 575 2063 1188 2172 
L 1188 3634 
L 181 3634 
L 181 4072 
L 1188 4072 
L 1188 5266 
L 1669 5266 
L 1669 4072 
L 2575 4072 
L 2575 3634 
L 1669 3634 
L 1669 2263 
Q 2100 2344 2588 2441 
Q 2594 2197 2606 1972 
Q 2141 1884 1669 1794 
L 1669 -91 
Q 1669 -741 1081 -753 
Q 756 -759 344 -747 
Q 319 -509 256 -222 
Q 675 -266 919 -266 
Q 1188 -266 1188 3 
L 1188 1694 
Q 691 1594 188 1484 
L 88 1991 
z
M 4369 4822 
L 4644 5134 
Q 5200 4759 5731 4353 
L 5413 3991 
Q 4881 4459 4369 4822 
z
" transform="scale(0.015625)"/>
       </defs>
       <use xlink:href="#MicrosoftYaHei-4f4d"/>
       <use xlink:href="#MicrosoftYaHei-7f6e" x="100"/>
       <use xlink:href="#MicrosoftYaHei-23" x="200"/>
       <use xlink:href="#MicrosoftYaHei-662f" x="263.818359"/>
       <use xlink:href="#MicrosoftYaHei-5426" x="363.818359"/>
       <use xlink:href="#MicrosoftYaHei-5bb9" x="463.818359"/>
       <use xlink:href="#MicrosoftYaHei-6613" x="563.818359"/>
       <use xlink:href="#MicrosoftYaHei-5bfb" x="663.818359"/>
       <use xlink:href="#MicrosoftYaHei-627e" x="763.818359"/>
      </g>
     </g>
    </g>
    <g id="xtick_14">
     <g id="line2d_14">
      <g>
       <use xlink:href="#m3732365e5b" x="711.9" y="489.6" style="stroke: #000000; stroke-width: 0.8"/>
      </g>
     </g>
     <g id="text_14">
      <!-- 菜品#推荐程度 -->
      <g transform="translate(663.203545 549.191067) rotate(-45) scale(0.1 -0.1)">
       <defs>
        <path id="MicrosoftYaHei-63a8" d="M 1694 3016 
Q 2488 3978 3106 5334 
L 3575 5178 
Q 3338 4681 3075 4222 
L 6200 4222 
L 6200 3797 
L 4650 3797 
L 4650 2828 
L 6113 2828 
L 6113 2403 
L 4650 2403 
L 4650 1434 
L 6113 1434 
L 6113 1009 
L 4650 1009 
L 4650 22 
L 6300 22 
L 6300 -391 
L 2875 -391 
L 2875 -859 
L 2400 -859 
L 2400 3150 
Q 2225 2903 2044 2666 
Q 1931 2803 1694 3016 
z
M 88 1978 
Q 506 2075 894 2175 
L 894 3691 
L 131 3691 
L 131 4128 
L 894 4128 
L 894 5316 
L 1363 5316 
L 1363 4128 
L 2088 4128 
L 2088 3691 
L 1363 3691 
L 1363 2297 
Q 1744 2400 2088 2503 
Q 2100 2216 2131 2016 
Q 1728 1903 1363 1797 
L 1363 -97 
Q 1363 -734 869 -766 
Q 556 -784 231 -778 
Q 206 -528 156 -259 
Q 469 -284 656 -284 
Q 894 -284 894 -41 
L 894 1663 
Q 500 1547 150 1441 
L 88 1978 
z
M 2875 22 
L 4175 22 
L 4175 1009 
L 2875 1009 
L 2875 22 
z
M 2875 1434 
L 4175 1434 
L 4175 2403 
L 2875 2403 
L 2875 1434 
z
M 2875 2828 
L 4175 2828 
L 4175 3797 
L 2875 3797 
L 2875 2828 
z
M 4019 5072 
L 4413 5316 
Q 4719 4922 4975 4541 
L 4544 4272 
Q 4313 4659 4019 5072 
z
" transform="scale(0.015625)"/>
        <path id="MicrosoftYaHei-8350" d="M 275 3541 
L 1984 3541 
Q 2059 3681 2131 3828 
L 2625 3828 
Q 2553 3681 2481 3541 
L 6138 3541 
L 6138 3103 
L 2250 3103 
Q 2016 2684 1763 2316 
L 1763 -791 
L 1288 -791 
L 1288 1681 
Q 856 1159 381 759 
Q 213 1009 88 1178 
Q 1044 1950 1738 3103 
L 275 3103 
L 275 3541 
z
M 2225 1228 
L 4106 1228 
L 4106 1534 
L 5019 2122 
L 2563 2122 
L 2563 2547 
L 5794 2547 
L 5794 2122 
L 4581 1353 
L 4581 1228 
L 6225 1228 
L 6225 791 
L 4581 791 
L 4581 -41 
Q 4581 -778 3900 -778 
Q 3506 -778 2813 -772 
Q 2781 -534 2731 -266 
Q 3306 -316 3781 -316 
Q 4106 -316 4106 34 
L 4106 791 
L 2225 791 
L 2225 1228 
z
M 263 4741 
L 1913 4741 
L 1913 5297 
L 2388 5297 
L 2388 4741 
L 4125 4741 
L 4125 5303 
L 4600 5303 
L 4600 4741 
L 6225 4741 
L 6225 4303 
L 4600 4303 
L 4600 3847 
L 4125 3847 
L 4125 4303 
L 2388 4303 
L 2388 3916 
L 1913 3916 
L 1913 4303 
L 263 4303 
L 263 4741 
z
" transform="scale(0.015625)"/>
        <path id="MicrosoftYaHei-7a0b" d="M 2750 5028 
L 5850 5028 
L 5850 2884 
L 5375 2884 
L 5375 3141 
L 3225 3141 
L 3225 2884 
L 2750 2884 
L 2750 5028 
z
M 44 903 
Q 663 1806 994 3041 
L 119 3041 
L 119 3453 
L 1094 3453 
L 1094 4431 
Q 700 4375 288 4328 
Q 238 4541 156 4759 
Q 1219 4847 2300 5097 
L 2438 4659 
Q 2003 4572 1544 4497 
L 1544 3453 
L 2413 3453 
L 2413 3041 
L 1544 3041 
L 1544 2216 
L 1788 2428 
Q 2038 2172 2519 1609 
L 2144 1303 
Q 1781 1766 1544 2050 
L 1544 -841 
L 1094 -841 
L 1094 2153 
Q 763 1078 256 359 
Q 156 628 44 903 
z
M 2250 -84 
L 4038 -84 
L 4038 841 
L 2619 841 
L 2619 1259 
L 4038 1259 
L 4038 2109 
L 2469 2109 
L 2469 2528 
L 6113 2528 
L 6113 2109 
L 4538 2109 
L 4538 1259 
L 5956 1259 
L 5956 841 
L 4538 841 
L 4538 -84 
L 6325 -84 
L 6325 -503 
L 2250 -503 
L 2250 -84 
z
M 5375 4603 
L 3225 4603 
L 3225 3566 
L 5375 3566 
L 5375 4603 
z
" transform="scale(0.015625)"/>
       </defs>
       <use xlink:href="#MicrosoftYaHei-83dc"/>
       <use xlink:href="#MicrosoftYaHei-54c1" x="100"/>
       <use xlink:href="#MicrosoftYaHei-23" x="200"/>
       <use xlink:href="#MicrosoftYaHei-63a8" x="263.818359"/>
       <use xlink:href="#MicrosoftYaHei-8350" x="363.818359"/>
       <use xlink:href="#MicrosoftYaHei-7a0b" x="463.818359"/>
       <use xlink:href="#MicrosoftYaHei-5ea6" x="563.818359"/>
      </g>
     </g>
    </g>
    <g id="xtick_15">
     <g id="line2d_15">
      <g>
       <use xlink:href="#m3732365e5b" x="755.3" y="489.6" style="stroke: #000000; stroke-width: 0.8"/>
      </g>
     </g>
     <g id="text_15">
      <!-- 位置#位于商圈附近 -->
      <g transform="translate(692.461409 563.333202) rotate(-45) scale(0.1 -0.1)">
       <defs>
        <path id="MicrosoftYaHei-4e8e" d="M 125 2759 
L 3031 2759 
L 3031 4372 
L 625 4372 
L 625 4866 
L 5800 4866 
L 5800 4372 
L 3556 4372 
L 3556 2759 
L 6275 2759 
L 6275 2266 
L 3556 2266 
L 3556 122 
Q 3556 -303 3400 -491 
Q 3225 -709 2744 -722 
Q 2463 -722 1688 -716 
Q 1656 -428 1588 -147 
Q 2294 -197 2569 -197 
Q 2850 -197 2944 -91 
Q 3031 -3 3031 303 
L 3031 2266 
L 125 2266 
L 125 2759 
z
" transform="scale(0.015625)"/>
        <path id="MicrosoftYaHei-5546" d="M 600 3309 
L 2119 3309 
Q 1903 3625 1650 3934 
L 2031 4191 
Q 2331 3841 2575 3541 
L 2238 3309 
L 3656 3309 
Q 3972 3716 4238 4166 
L 4713 3891 
Q 4416 3538 4213 3309 
L 5769 3309 
L 5769 34 
Q 5769 -753 5050 -759 
Q 4663 -766 4175 -753 
Q 4125 -391 4081 -228 
Q 4575 -278 4894 -278 
Q 5300 -278 5300 172 
L 5300 2878 
L 1069 2878 
L 1069 -834 
L 600 -834 
L 600 3309 
z
M 1950 -216 
L 1950 1797 
L 4456 1797 
L 4456 116 
L 2400 116 
L 2400 -216 
L 1950 -216 
z
M 144 4647 
L 2997 4647 
Q 2878 4869 2706 5141 
L 3188 5359 
Q 3375 5038 3581 4647 
L 6275 4647 
L 6275 4203 
L 144 4203 
L 144 4647 
z
M 4006 516 
L 4006 1397 
L 2400 1397 
L 2400 516 
L 4006 516 
z
M 2431 2809 
L 2769 2484 
Q 2038 1859 1400 1384 
Q 1213 1641 1106 1753 
Q 1794 2209 2431 2809 
z
M 3531 2466 
L 3806 2809 
Q 4731 2228 5206 1878 
L 4894 1484 
Q 4275 1984 3531 2466 
z
" transform="scale(0.015625)"/>
        <path id="MicrosoftYaHei-5708" d="M 431 5072 
L 5944 5072 
L 5944 -828 
L 5494 -828 
L 5494 -541 
L 881 -541 
L 881 -828 
L 431 -828 
L 431 5072 
z
M 1063 3009 
L 2478 3009 
Q 2613 3206 2716 3422 
L 1288 3422 
L 1288 3797 
L 2066 3797 
Q 1828 4044 1519 4309 
L 1813 4584 
Q 2138 4328 2425 4059 
L 2150 3797 
L 2859 3797 
Q 2963 4119 3050 4553 
L 3488 4553 
Q 3400 4156 3291 3797 
L 4178 3797 
L 3956 3997 
Q 4294 4284 4538 4591 
L 4881 4334 
Q 4588 4025 4334 3797 
L 5088 3797 
L 5088 3422 
L 3169 3422 
Q 3091 3209 2978 3009 
L 5338 3009 
L 5338 2634 
L 4178 2634 
Q 4634 2075 5450 1891 
Q 5288 1672 5144 1466 
Q 4559 1700 4134 2119 
Q 4122 1806 4094 1459 
Q 4044 916 3475 916 
Q 3219 916 2888 928 
Q 2863 1122 2806 1334 
Q 3156 1284 3369 1284 
Q 3688 1284 3706 1528 
Q 3719 1622 3725 1791 
L 2300 1791 
L 2300 866 
Q 2300 516 2688 516 
L 3919 516 
Q 4350 516 4444 816 
Q 4513 1034 4563 1353 
Q 4750 1266 4956 1197 
Q 4881 859 4813 647 
Q 4663 141 3994 141 
L 2619 141 
Q 1900 141 1900 822 
L 1900 1831 
Q 1566 1591 1156 1384 
Q 1041 1569 881 1763 
L 881 -116 
L 5494 -116 
L 5494 4647 
L 881 4647 
L 881 1775 
Q 1672 2119 2169 2634 
L 1063 2634 
L 1063 3009 
z
M 2294 2153 
L 4100 2153 
Q 3888 2369 3716 2634 
L 2734 2634 
Q 2544 2381 2294 2153 
z
" transform="scale(0.015625)"/>
        <path id="MicrosoftYaHei-9644" d="M 2225 1622 
Q 2400 453 1613 297 
Q 1350 253 1006 291 
Q 956 547 869 775 
L 869 -841 
L 400 -841 
L 400 5022 
L 2231 5022 
L 2231 4584 
Q 2000 3803 1669 2866 
Q 2150 2178 2225 1622 
z
M 3475 3947 
L 5056 3947 
L 5056 5284 
L 5544 5284 
L 5544 3947 
L 6325 3947 
L 6325 3478 
L 5544 3478 
L 5544 122 
Q 5544 -709 4650 -709 
Q 4281 -709 3900 -697 
Q 3869 -466 3800 -159 
Q 4269 -216 4588 -216 
Q 5056 -216 5056 216 
L 5056 3478 
L 3475 3478 
L 3475 3947 
z
M 2044 2772 
Q 2725 3809 3150 5291 
L 3638 5184 
Q 3459 4606 3244 4088 
L 3244 -828 
L 2769 -828 
L 2769 3081 
Q 2550 2678 2306 2322 
Q 2194 2566 2044 2772 
z
M 1444 747 
Q 1869 828 1731 1641 
Q 1644 2147 1169 2766 
Q 1438 3553 1719 4584 
L 869 4584 
L 869 797 
Q 1200 716 1444 747 
z
M 3581 2747 
L 3975 2934 
Q 4350 2266 4656 1516 
L 4194 1309 
Q 3900 2072 3581 2747 
z
" transform="scale(0.015625)"/>
        <path id="MicrosoftYaHei-8fd1" d="M 3088 4272 
L 3088 3166 
L 6244 3166 
L 6244 2703 
L 4994 2703 
L 4994 84 
L 4500 84 
L 4500 2703 
L 3084 2703 
Q 3038 1038 2225 91 
Q 2044 247 1819 422 
Q 2606 1334 2606 2916 
L 2606 4709 
Q 4131 4809 5863 5097 
L 5975 4634 
Q 4388 4391 3088 4272 
z
M 2700 -147 
L 4531 -178 
L 6313 -116 
Q 6206 -366 6113 -609 
L 4375 -622 
L 2650 -597 
Q 1594 -578 1100 116 
Q 925 -22 375 -672 
L 113 -147 
Q 597 297 881 538 
L 881 2684 
L 156 2684 
L 156 3134 
L 1363 3134 
L 1363 422 
Q 1813 -119 2700 -147 
z
M 794 5278 
Q 1238 4753 1738 4097 
L 1300 3778 
Q 763 4572 413 5003 
L 794 5278 
z
" transform="scale(0.015625)"/>
       </defs>
       <use xlink:href="#MicrosoftYaHei-4f4d"/>
       <use xlink:href="#MicrosoftYaHei-7f6e" x="100"/>
       <use xlink:href="#MicrosoftYaHei-23" x="200"/>
       <use xlink:href="#MicrosoftYaHei-4f4d" x="263.818359"/>
       <use xlink:href="#MicrosoftYaHei-4e8e" x="363.818359"/>
       <use xlink:href="#MicrosoftYaHei-5546" x="463.818359"/>
       <use xlink:href="#MicrosoftYaHei-5708" x="563.818359"/>
       <use xlink:href="#MicrosoftYaHei-9644" x="663.818359"/>
       <use xlink:href="#MicrosoftYaHei-8fd1" x="763.818359"/>
      </g>
     </g>
    </g>
    <g id="xtick_16">
     <g id="line2d_16">
      <g>
       <use xlink:href="#m3732365e5b" x="798.7" y="489.6" style="stroke: #000000; stroke-width: 0.8"/>
      </g>
     </g>
     <g id="text_16">
      <!-- 服务#点菜/上菜速度 -->
      <g transform="translate(732.840737 566.353874) rotate(-45) scale(0.1 -0.1)">
       <defs>
        <path id="MicrosoftYaHei-70b9" d="M 900 3378 
L 2863 3378 
L 2863 5341 
L 3388 5341 
L 3388 4591 
L 6181 4591 
L 6181 4141 
L 3388 4141 
L 3388 3378 
L 5600 3378 
L 5600 991 
L 5088 991 
L 5088 1253 
L 1413 1253 
L 1413 991 
L 900 991 
L 900 3378 
z
M 5088 2928 
L 1413 2928 
L 1413 1703 
L 5088 1703 
L 5088 2928 
z
M 5425 847 
Q 5925 91 6225 -516 
L 5750 -772 
Q 5438 -134 4994 622 
L 5425 847 
z
M 1369 553 
Q 894 -303 531 -791 
L 100 -484 
Q 506 53 931 803 
L 1369 553 
z
M 2413 828 
Q 2700 197 2913 -503 
L 2406 -678 
Q 2213 3 1963 666 
L 2413 828 
z
M 3906 872 
Q 4206 253 4450 -422 
L 3956 -616 
Q 3781 -53 3450 697 
L 3906 872 
z
" transform="scale(0.015625)"/>
        <path id="MicrosoftYaHei-2f" d="M 2791 4841 
L 469 -803 
L -103 -803 
L 2219 4841 
L 2791 4841 
z
" transform="scale(0.015625)"/>
        <path id="MicrosoftYaHei-4e0a" d="M 163 47 
L 2613 47 
L 2613 5209 
L 3181 5209 
L 3181 3328 
L 5750 3328 
L 5750 2828 
L 3181 2828 
L 3181 47 
L 6244 47 
L 6244 -453 
L 163 -453 
L 163 47 
z
" transform="scale(0.015625)"/>
        <path id="MicrosoftYaHei-901f" d="M 2231 3572 
L 3800 3572 
L 3800 4178 
L 1938 4178 
L 1938 4609 
L 3800 4609 
L 3800 5291 
L 4263 5291 
L 4263 4609 
L 6225 4609 
L 6225 4178 
L 4263 4178 
L 4263 3572 
L 5831 3572 
L 5831 1778 
L 5381 1778 
L 5381 1972 
L 4263 1972 
L 4263 1522 
L 4425 1772 
Q 5350 1266 6206 766 
L 5919 322 
Q 5044 916 4263 1347 
L 4263 -9 
L 3800 -9 
L 3800 1603 
Q 3044 766 2069 184 
Q 1963 347 1731 591 
Q 2869 1153 3644 1972 
L 2681 1972 
L 2681 1778 
L 2231 1778 
L 2231 3572 
z
M 2663 -222 
Q 4219 -247 6300 -197 
Q 6231 -403 6125 -691 
Q 4056 -703 2569 -666 
Q 1506 -653 1081 66 
Q 825 -172 331 -772 
L 75 -253 
Q 625 278 875 509 
L 875 2616 
L 131 2616 
L 131 3078 
L 1356 3078 
L 1356 403 
Q 1738 -216 2663 -222 
z
M 5381 3166 
L 4263 3166 
L 4263 2378 
L 5381 2378 
L 5381 3166 
z
M 2681 2378 
L 3800 2378 
L 3800 3166 
L 2681 3166 
L 2681 2378 
z
M 800 5178 
Q 1119 4791 1675 3997 
L 1231 3684 
Q 725 4478 400 4909 
L 800 5178 
z
" transform="scale(0.015625)"/>
       </defs>
       <use xlink:href="#MicrosoftYaHei-670d"/>
       <use xlink:href="#MicrosoftYaHei-52a1" x="100"/>
       <use xlink:href="#MicrosoftYaHei-23" x="200"/>
       <use xlink:href="#MicrosoftYaHei-70b9" x="263.818359"/>
       <use xlink:href="#MicrosoftYaHei-83dc" x="363.818359"/>
       <use xlink:href="#MicrosoftYaHei-2f" x="463.818359"/>
       <use xlink:href="#MicrosoftYaHei-4e0a" x="506.542969"/>
       <use xlink:href="#MicrosoftYaHei-83dc" x="606.542969"/>
       <use xlink:href="#MicrosoftYaHei-901f" x="706.542969"/>
       <use xlink:href="#MicrosoftYaHei-5ea6" x="806.542969"/>
      </g>
     </g>
    </g>
    <g id="xtick_17">
     <g id="line2d_17">
      <g>
       <use xlink:href="#m3732365e5b" x="842.1" y="489.6" style="stroke: #000000; stroke-width: 0.8"/>
      </g>
     </g>
     <g id="text_17">
      <!-- 服务#排队时间 -->
      <g transform="translate(793.403545 549.191067) rotate(-45) scale(0.1 -0.1)">
       <defs>
        <path id="MicrosoftYaHei-6392" d="M 4375 5309 
L 4863 5309 
L 4863 4159 
L 6188 4159 
L 6188 3684 
L 4863 3684 
L 4863 2609 
L 6038 2609 
L 6038 2134 
L 4863 2134 
L 4863 1047 
L 6294 1047 
L 6294 572 
L 4863 572 
L 4863 -841 
L 4375 -841 
L 4375 5309 
z
M 1844 1047 
L 3138 1047 
L 3138 2134 
L 2150 2134 
L 2150 2609 
L 3138 2609 
L 3138 3684 
L 2163 3684 
L 2163 4159 
L 3138 4159 
L 3138 5309 
L 3625 5309 
L 3625 -841 
L 3138 -841 
L 3138 572 
L 1844 572 
L 1844 1047 
z
M 131 4166 
L 875 4166 
L 875 5316 
L 1350 5316 
L 1350 4166 
L 1969 4166 
L 1969 3728 
L 1350 3728 
L 1350 2563 
Q 1650 2716 1938 2872 
Q 1956 2603 1988 2372 
Q 1681 2216 1350 2044 
L 1350 -134 
Q 1350 -772 669 -778 
Q 481 -784 156 -778 
Q 131 -528 75 -259 
Q 419 -284 613 -284 
Q 875 -284 875 3 
L 875 1797 
Q 525 1616 150 1416 
L 88 1966 
Q 491 2144 875 2328 
L 875 3728 
L 131 3728 
L 131 4166 
z
" transform="scale(0.015625)"/>
        <path id="MicrosoftYaHei-961f" d="M 2456 1728 
Q 2663 603 1831 466 
Q 1575 422 1163 459 
Q 1113 716 1019 997 
Q 1369 916 1625 947 
Q 2125 997 1931 1747 
Q 1819 2266 1338 2866 
Q 1688 3772 1931 4566 
L 913 4566 
L 913 -841 
L 419 -841 
L 419 5003 
L 2469 5003 
L 2469 4566 
Q 2144 3609 1869 2947 
Q 2381 2272 2456 1728 
z
M 3738 5253 
L 4250 5253 
Q 4244 4366 4228 3656 
Q 4584 794 6325 -228 
Q 6094 -478 5913 -709 
Q 4522 291 4056 2316 
Q 3703 409 2094 -822 
Q 1950 -647 1725 -422 
Q 3688 972 3725 3697 
Q 3738 4216 3738 5253 
z
" transform="scale(0.015625)"/>
        <path id="MicrosoftYaHei-65f6" d="M 344 4728 
L 2500 4728 
L 2500 -366 
L 2006 -366 
L 2006 153 
L 838 153 
L 838 -441 
L 344 -441 
L 344 4728 
z
M 2706 3941 
L 4925 3941 
L 4925 5322 
L 5425 5322 
L 5425 3941 
L 6313 3941 
L 6313 3478 
L 5425 3478 
L 5425 116 
Q 5425 -722 4625 -722 
Q 4263 -722 3563 -703 
Q 3531 -478 3463 -178 
Q 4119 -228 4488 -228 
Q 4925 -228 4925 216 
L 4925 3478 
L 2706 3478 
L 2706 3941 
z
M 838 616 
L 2006 616 
L 2006 2234 
L 838 2234 
L 838 616 
z
M 2006 4266 
L 838 4266 
L 838 2684 
L 2006 2684 
L 2006 4266 
z
M 3406 2878 
Q 3906 1966 4163 1422 
Q 4000 1347 3663 1172 
Q 3419 1766 2963 2653 
L 3406 2878 
z
" transform="scale(0.015625)"/>
       </defs>
       <use xlink:href="#MicrosoftYaHei-670d"/>
       <use xlink:href="#MicrosoftYaHei-52a1" x="100"/>
       <use xlink:href="#MicrosoftYaHei-23" x="200"/>
       <use xlink:href="#MicrosoftYaHei-6392" x="263.818359"/>
       <use xlink:href="#MicrosoftYaHei-961f" x="363.818359"/>
       <use xlink:href="#MicrosoftYaHei-65f6" x="463.818359"/>
       <use xlink:href="#MicrosoftYaHei-95f4" x="563.818359"/>
      </g>
     </g>
    </g>
    <g id="xtick_18">
     <g id="line2d_18">
      <g>
       <use xlink:href="#m3732365e5b" x="885.5" y="489.6" style="stroke: #000000; stroke-width: 0.8"/>
      </g>
     </g>
     <g id="text_18">
      <!-- 服务#停车方便 -->
      <g transform="translate(836.803545 549.191067) rotate(-45) scale(0.1 -0.1)">
       <defs>
        <path id="MicrosoftYaHei-505c" d="M 2344 3859 
L 5488 3859 
L 5488 2466 
L 5050 2466 
L 5050 2634 
L 2781 2634 
L 2781 2466 
L 2344 2466 
L 2344 3859 
z
M 75 2284 
Q 956 3666 1350 5309 
L 1813 5197 
Q 1581 4413 1313 3738 
L 1313 -809 
L 888 -809 
L 888 2797 
Q 600 2231 275 1766 
Q 181 2041 75 2284 
z
M 2288 1303 
L 5581 1303 
L 5581 903 
L 4356 903 
L 4356 -3 
Q 4356 -728 3681 -734 
Q 3381 -741 2894 -728 
Q 2856 -503 2794 -241 
Q 3200 -284 3544 -284 
Q 3906 -284 3906 128 
L 3906 903 
L 2288 903 
L 2288 1303 
z
M 1663 2228 
L 6219 2228 
L 6219 1247 
L 5781 1247 
L 5781 1828 
L 2100 1828 
L 2100 1247 
L 1663 1247 
L 1663 2228 
z
M 1825 4628 
L 3725 4628 
Q 3591 4913 3431 5184 
L 3856 5372 
Q 4066 5006 4234 4628 
L 6150 4628 
L 6150 4228 
L 1825 4228 
L 1825 4628 
z
M 5050 3484 
L 2781 3484 
L 2781 3009 
L 5050 3009 
L 5050 3484 
z
" transform="scale(0.015625)"/>
        <path id="MicrosoftYaHei-8f66" d="M 163 922 
L 3206 922 
L 3206 1991 
L 913 1991 
L 913 2447 
Q 1334 3200 1688 3909 
L 400 3909 
L 400 4372 
L 1913 4372 
Q 2156 4878 2363 5359 
L 2831 5216 
Q 2625 4772 2434 4372 
L 5950 4372 
L 5950 3909 
L 2209 3909 
Q 1797 3063 1456 2441 
L 3206 2441 
L 3206 3647 
L 3694 3647 
L 3694 2441 
L 5500 2441 
L 5500 1991 
L 3694 1991 
L 3694 922 
L 6188 922 
L 6188 459 
L 3694 459 
L 3694 -853 
L 3206 -853 
L 3206 459 
L 163 459 
L 163 922 
z
" transform="scale(0.015625)"/>
        <path id="MicrosoftYaHei-65b9" d="M 194 4241 
L 3194 4241 
Q 2878 4841 2700 5116 
L 3188 5347 
Q 3363 5078 3713 4472 
L 3256 4241 
L 6219 4241 
L 6219 3766 
L 2428 3766 
Q 2406 3197 2381 2797 
L 5400 2797 
Q 5325 1441 5238 441 
Q 5169 -691 4138 -691 
Q 3663 -691 2869 -641 
Q 2838 -403 2775 -66 
Q 3569 -172 4063 -172 
Q 4638 -172 4706 509 
Q 4781 1253 4838 2328 
L 2347 2328 
Q 2172 266 438 -872 
Q 269 -672 56 -447 
Q 1706 641 1825 2466 
Q 1869 2959 1897 3766 
L 194 3766 
L 194 4241 
z
" transform="scale(0.015625)"/>
       </defs>
       <use xlink:href="#MicrosoftYaHei-670d"/>
       <use xlink:href="#MicrosoftYaHei-52a1" x="100"/>
       <use xlink:href="#MicrosoftYaHei-23" x="200"/>
       <use xlink:href="#MicrosoftYaHei-505c" x="263.818359"/>
       <use xlink:href="#MicrosoftYaHei-8f66" x="363.818359"/>
       <use xlink:href="#MicrosoftYaHei-65b9" x="463.818359"/>
       <use xlink:href="#MicrosoftYaHei-4fbf" x="563.818359"/>
      </g>
     </g>
    </g>
   </g>
   <g id="patch_57">
    <path d="M 126 489.6 
L 907.2 489.6 
" style="fill: none; stroke: #000000; stroke-width: 0.8; stroke-linejoin: miter; stroke-linecap: square"/>
   </g>
   <g id="text_19">
    <!-- 39551 -->
    <g transform="translate(133.039844 86.65692) scale(0.1 -0.1)">
     <defs>
      <path id="MicrosoftYaHei-33" d="M 447 809 
Q 944 425 1569 425 
Q 2069 425 2361 670 
Q 2653 916 2653 1328 
Q 2653 2247 1338 2247 
L 934 2247 
L 934 2753 
L 1319 2753 
Q 2484 2753 2484 3616 
Q 2484 4413 1594 4413 
Q 1084 4413 634 4069 
L 634 4647 
Q 1109 4922 1744 4922 
Q 2363 4922 2738 4598 
Q 3113 4275 3113 3759 
Q 3113 2809 2144 2538 
L 2144 2525 
Q 2669 2469 2973 2155 
Q 3278 1841 3278 1372 
Q 3278 719 2808 319 
Q 2338 -81 1556 -81 
Q 869 -81 447 175 
L 447 809 
z
" transform="scale(0.015625)"/>
      <path id="MicrosoftYaHei-39" d="M 578 656 
Q 978 425 1441 425 
Q 2091 425 2448 937 
Q 2806 1450 2806 2394 
Q 2800 2388 2794 2394 
Q 2475 1788 1722 1788 
Q 1113 1788 713 2206 
Q 313 2625 313 3294 
Q 313 4006 750 4464 
Q 1188 4922 1884 4922 
Q 2606 4922 3012 4355 
Q 3419 3788 3419 2703 
Q 3419 1363 2894 641 
Q 2369 -81 1441 -81 
Q 931 -81 578 84 
L 578 656 
z
M 931 3372 
Q 931 2884 1181 2598 
Q 1431 2313 1872 2313 
Q 2253 2313 2512 2573 
Q 2772 2834 2772 3206 
Q 2772 3728 2514 4070 
Q 2256 4413 1834 4413 
Q 1444 4413 1187 4116 
Q 931 3819 931 3372 
z
" transform="scale(0.015625)"/>
      <path id="MicrosoftYaHei-35" d="M 3294 1494 
Q 3294 784 2823 350 
Q 2353 -84 1559 -84 
Q 878 -84 544 119 
L 544 744 
Q 1034 425 1544 425 
Q 2050 425 2361 704 
Q 2672 984 2672 1447 
Q 2672 1909 2348 2167 
Q 2025 2425 1434 2425 
Q 978 2425 613 2384 
L 791 4841 
L 3053 4841 
L 3053 4303 
L 1306 4303 
L 1206 2931 
L 1647 2950 
Q 2416 2950 2855 2567 
Q 3294 2184 3294 1494 
z
" transform="scale(0.015625)"/>
      <path id="MicrosoftYaHei-31" d="M 1781 0 
L 1781 4141 
Q 1638 3997 1295 3819 
Q 953 3641 663 3569 
L 663 4169 
Q 1047 4275 1484 4508 
Q 1922 4741 2156 4947 
L 2388 4947 
L 2388 0 
L 1781 0 
z
" transform="scale(0.015625)"/>
     </defs>
     <use xlink:href="#MicrosoftYaHei-33"/>
     <use xlink:href="#MicrosoftYaHei-39" x="58.642578"/>
     <use xlink:href="#MicrosoftYaHei-35" x="117.285156"/>
     <use xlink:href="#MicrosoftYaHei-35" x="175.927734"/>
     <use xlink:href="#MicrosoftYaHei-31" x="234.570312"/>
    </g>
   </g>
   <g id="text_20">
    <!-- 23957 -->
    <g transform="translate(176.439844 244.547458) scale(0.1 -0.1)">
     <defs>
      <path id="MicrosoftYaHei-32" d="M 2666 3572 
Q 2666 3963 2419 4186 
Q 2172 4409 1747 4409 
Q 1447 4409 1140 4256 
Q 834 4103 569 3819 
L 569 4413 
Q 806 4659 1107 4790 
Q 1409 4922 1816 4922 
Q 2472 4922 2872 4570 
Q 3272 4219 3272 3619 
Q 3272 3084 3026 2693 
Q 2781 2303 2188 1894 
Q 1581 1475 1376 1294 
Q 1172 1113 1090 947 
Q 1009 781 1009 544 
L 3416 544 
L 3416 0 
L 372 0 
L 372 241 
Q 372 659 486 951 
Q 600 1244 862 1520 
Q 1125 1797 1681 2184 
Q 2250 2584 2458 2886 
Q 2666 3188 2666 3572 
z
" transform="scale(0.015625)"/>
      <path id="MicrosoftYaHei-37" d="M 3422 4463 
Q 2659 3131 2223 1998 
Q 1788 866 1684 0 
L 1047 0 
Q 1163 853 1594 1947 
Q 2025 3041 2747 4300 
L 347 4300 
L 347 4841 
L 3422 4841 
L 3422 4463 
z
" transform="scale(0.015625)"/>
     </defs>
     <use xlink:href="#MicrosoftYaHei-32"/>
     <use xlink:href="#MicrosoftYaHei-33" x="58.642578"/>
     <use xlink:href="#MicrosoftYaHei-39" x="117.285156"/>
     <use xlink:href="#MicrosoftYaHei-35" x="175.927734"/>
     <use xlink:href="#MicrosoftYaHei-37" x="234.570312"/>
    </g>
   </g>
   <g id="text_21">
    <!-- 20657 -->
    <g transform="translate(219.839844 277.960231) scale(0.1 -0.1)">
     <defs>
      <path id="MicrosoftYaHei-30" d="M 284 2325 
Q 284 3606 709 4264 
Q 1134 4922 1941 4922 
Q 3478 4922 3478 2441 
Q 3478 1216 3045 567 
Q 2613 -81 1831 -81 
Q 1094 -81 689 534 
Q 284 1150 284 2325 
z
M 909 2353 
Q 909 425 1888 425 
Q 2850 425 2850 2384 
Q 2850 4413 1906 4413 
Q 909 4413 909 2353 
z
" transform="scale(0.015625)"/>
      <path id="MicrosoftYaHei-36" d="M 3181 4219 
Q 2803 4413 2391 4413 
Q 1763 4413 1381 3866 
Q 1000 3319 994 2372 
L 1009 2372 
Q 1353 3038 2106 3038 
Q 2734 3038 3109 2628 
Q 3484 2219 3484 1541 
Q 3484 831 3051 375 
Q 2619 -81 1947 -81 
Q 1209 -81 789 495 
Q 369 1072 369 2131 
Q 369 3413 920 4167 
Q 1472 4922 2372 4922 
Q 2888 4922 3181 4781 
L 3181 4219 
z
M 1031 1584 
Q 1031 1106 1286 765 
Q 1541 425 1963 425 
Q 2363 425 2613 719 
Q 2863 1013 2863 1475 
Q 2863 1975 2627 2253 
Q 2391 2531 1956 2531 
Q 1544 2531 1287 2250 
Q 1031 1969 1031 1584 
z
" transform="scale(0.015625)"/>
     </defs>
     <use xlink:href="#MicrosoftYaHei-32"/>
     <use xlink:href="#MicrosoftYaHei-30" x="58.642578"/>
     <use xlink:href="#MicrosoftYaHei-36" x="117.285156"/>
     <use xlink:href="#MicrosoftYaHei-35" x="175.927734"/>
     <use xlink:href="#MicrosoftYaHei-37" x="234.570312"/>
    </g>
   </g>
   <g id="text_22">
    <!-- 18543 -->
    <g transform="translate(263.239844 299.364655) scale(0.1 -0.1)">
     <defs>
      <path id="MicrosoftYaHei-38" d="M 306 1350 
Q 306 1769 556 2122 
Q 806 2475 1200 2625 
Q 884 2803 700 3081 
Q 516 3359 516 3684 
Q 516 4028 692 4312 
Q 869 4597 1183 4759 
Q 1497 4922 1875 4922 
Q 2256 4922 2572 4761 
Q 2888 4600 3063 4315 
Q 3238 4031 3238 3684 
Q 3238 3366 3058 3086 
Q 2878 2806 2559 2625 
Q 2953 2472 3200 2119 
Q 3447 1766 3447 1350 
Q 3447 938 3250 611 
Q 3053 284 2690 103 
Q 2328 -78 1875 -78 
Q 1425 -78 1065 103 
Q 706 284 506 612 
Q 306 941 306 1350 
z
M 906 1378 
Q 906 947 1172 687 
Q 1438 428 1878 428 
Q 2309 428 2582 692 
Q 2856 956 2856 1378 
Q 2856 1778 2579 2051 
Q 2303 2325 1878 2325 
Q 1456 2325 1181 2058 
Q 906 1791 906 1378 
z
M 1081 3634 
Q 1081 3309 1312 3076 
Q 1544 2844 1878 2844 
Q 2206 2844 2445 3078 
Q 2684 3313 2684 3634 
Q 2684 3963 2454 4191 
Q 2225 4419 1878 4419 
Q 1534 4419 1307 4195 
Q 1081 3972 1081 3634 
z
" transform="scale(0.015625)"/>
      <path id="MicrosoftYaHei-34" d="M 2906 4841 
L 2906 1644 
L 3631 1644 
L 3631 1138 
L 2906 1138 
L 2906 0 
L 2313 0 
L 2313 1138 
L 53 1138 
L 53 1616 
Q 656 2294 1265 3178 
Q 1875 4063 2272 4841 
L 2906 4841 
z
M 741 1644 
L 2313 1644 
L 2313 3950 
Q 1988 3366 1616 2817 
Q 1244 2269 741 1644 
z
" transform="scale(0.015625)"/>
     </defs>
     <use xlink:href="#MicrosoftYaHei-31"/>
     <use xlink:href="#MicrosoftYaHei-38" x="58.642578"/>
     <use xlink:href="#MicrosoftYaHei-35" x="117.285156"/>
     <use xlink:href="#MicrosoftYaHei-34" x="175.927734"/>
     <use xlink:href="#MicrosoftYaHei-33" x="234.570312"/>
    </g>
   </g>
   <g id="text_23">
    <!-- 18173 -->
    <g transform="translate(306.639844 303.110936) scale(0.1 -0.1)">
     <use xlink:href="#MicrosoftYaHei-31"/>
     <use xlink:href="#MicrosoftYaHei-38" x="58.642578"/>
     <use xlink:href="#MicrosoftYaHei-31" x="117.285156"/>
     <use xlink:href="#MicrosoftYaHei-37" x="175.927734"/>
     <use xlink:href="#MicrosoftYaHei-33" x="234.570312"/>
    </g>
   </g>
   <g id="text_24">
    <!-- 14731 -->
    <g transform="translate(350.039844 337.96147) scale(0.1 -0.1)">
     <use xlink:href="#MicrosoftYaHei-31"/>
     <use xlink:href="#MicrosoftYaHei-34" x="58.642578"/>
     <use xlink:href="#MicrosoftYaHei-37" x="117.285156"/>
     <use xlink:href="#MicrosoftYaHei-33" x="175.927734"/>
     <use xlink:href="#MicrosoftYaHei-31" x="234.570312"/>
    </g>
   </g>
   <g id="text_25">
    <!-- 13974 -->
    <g transform="translate(393.439844 345.626158) scale(0.1 -0.1)">
     <use xlink:href="#MicrosoftYaHei-31"/>
     <use xlink:href="#MicrosoftYaHei-33" x="58.642578"/>
     <use xlink:href="#MicrosoftYaHei-39" x="117.285156"/>
     <use xlink:href="#MicrosoftYaHei-37" x="175.927734"/>
     <use xlink:href="#MicrosoftYaHei-34" x="234.570312"/>
    </g>
   </g>
   <g id="text_26">
    <!-- 13436 -->
    <g transform="translate(436.839844 351.073452) scale(0.1 -0.1)">
     <use xlink:href="#MicrosoftYaHei-31"/>
     <use xlink:href="#MicrosoftYaHei-33" x="58.642578"/>
     <use xlink:href="#MicrosoftYaHei-34" x="117.285156"/>
     <use xlink:href="#MicrosoftYaHei-33" x="175.927734"/>
     <use xlink:href="#MicrosoftYaHei-36" x="234.570312"/>
    </g>
   </g>
   <g id="text_27">
    <!-- 11999 -->
    <g transform="translate(480.239844 365.623196) scale(0.1 -0.1)">
     <use xlink:href="#MicrosoftYaHei-31"/>
     <use xlink:href="#MicrosoftYaHei-31" x="58.642578"/>
     <use xlink:href="#MicrosoftYaHei-39" x="117.285156"/>
     <use xlink:href="#MicrosoftYaHei-39" x="175.927734"/>
     <use xlink:href="#MicrosoftYaHei-39" x="234.570312"/>
    </g>
   </g>
   <g id="text_28">
    <!-- 10646 -->
    <g transform="translate(523.639844 379.322433) scale(0.1 -0.1)">
     <use xlink:href="#MicrosoftYaHei-31"/>
     <use xlink:href="#MicrosoftYaHei-30" x="58.642578"/>
     <use xlink:href="#MicrosoftYaHei-36" x="117.285156"/>
     <use xlink:href="#MicrosoftYaHei-34" x="175.927734"/>
     <use xlink:href="#MicrosoftYaHei-36" x="234.570312"/>
    </g>
   </g>
   <g id="text_29">
    <!-- 9276 -->
    <g transform="translate(569.971875 393.193796) scale(0.1 -0.1)">
     <use xlink:href="#MicrosoftYaHei-39"/>
     <use xlink:href="#MicrosoftYaHei-32" x="58.642578"/>
     <use xlink:href="#MicrosoftYaHei-37" x="117.285156"/>
     <use xlink:href="#MicrosoftYaHei-36" x="175.927734"/>
    </g>
   </g>
   <g id="text_30">
    <!-- 8327 -->
    <g transform="translate(613.371875 402.802499) scale(0.1 -0.1)">
     <use xlink:href="#MicrosoftYaHei-38"/>
     <use xlink:href="#MicrosoftYaHei-33" x="58.642578"/>
     <use xlink:href="#MicrosoftYaHei-32" x="117.285156"/>
     <use xlink:href="#MicrosoftYaHei-37" x="175.927734"/>
    </g>
   </g>
   <g id="text_31">
    <!-- 8059 -->
    <g transform="translate(656.771875 405.516022) scale(0.1 -0.1)">
     <use xlink:href="#MicrosoftYaHei-38"/>
     <use xlink:href="#MicrosoftYaHei-30" x="58.642578"/>
     <use xlink:href="#MicrosoftYaHei-35" x="117.285156"/>
     <use xlink:href="#MicrosoftYaHei-39" x="175.927734"/>
    </g>
   </g>
   <g id="text_32">
    <!-- 7694 -->
    <g transform="translate(700.171875 409.211677) scale(0.1 -0.1)">
     <use xlink:href="#MicrosoftYaHei-37"/>
     <use xlink:href="#MicrosoftYaHei-36" x="58.642578"/>
     <use xlink:href="#MicrosoftYaHei-39" x="117.285156"/>
     <use xlink:href="#MicrosoftYaHei-34" x="175.927734"/>
    </g>
   </g>
   <g id="text_33">
    <!-- 7200 -->
    <g transform="translate(743.571875 414.213468) scale(0.1 -0.1)">
     <use xlink:href="#MicrosoftYaHei-37"/>
     <use xlink:href="#MicrosoftYaHei-32" x="58.642578"/>
     <use xlink:href="#MicrosoftYaHei-30" x="117.285156"/>
     <use xlink:href="#MicrosoftYaHei-30" x="175.927734"/>
    </g>
   </g>
   <g id="text_34">
    <!-- 6436 -->
    <g transform="translate(786.971875 421.949031) scale(0.1 -0.1)">
     <use xlink:href="#MicrosoftYaHei-36"/>
     <use xlink:href="#MicrosoftYaHei-34" x="58.642578"/>
     <use xlink:href="#MicrosoftYaHei-33" x="117.285156"/>
     <use xlink:href="#MicrosoftYaHei-36" x="175.927734"/>
    </g>
   </g>
   <g id="text_35">
    <!-- 6272 -->
    <g transform="translate(830.371875 423.609544) scale(0.1 -0.1)">
     <use xlink:href="#MicrosoftYaHei-36"/>
     <use xlink:href="#MicrosoftYaHei-32" x="58.642578"/>
     <use xlink:href="#MicrosoftYaHei-37" x="117.285156"/>
     <use xlink:href="#MicrosoftYaHei-32" x="175.927734"/>
    </g>
   </g>
   <g id="text_36">
    <!-- 2802 -->
    <g transform="translate(873.771875 458.743581) scale(0.1 -0.1)">
     <use xlink:href="#MicrosoftYaHei-32"/>
     <use xlink:href="#MicrosoftYaHei-38" x="58.642578"/>
     <use xlink:href="#MicrosoftYaHei-30" x="117.285156"/>
     <use xlink:href="#MicrosoftYaHei-32" x="175.927734"/>
    </g>
   </g>
   <g id="legend_1">
    <g id="patch_58">
     <path d="M 848.2 139.03875 
L 900.2 139.03875 
Q 902.2 139.03875 902.2 137.03875 
L 902.2 76.12 
Q 902.2 74.12 900.2 74.12 
L 848.2 74.12 
Q 846.2 74.12 846.2 76.12 
L 846.2 137.03875 
Q 846.2 139.03875 848.2 139.03875 
z
" style="fill: #ffffff; opacity: 0.8; stroke: #cccccc; stroke-linejoin: miter"/>
    </g>
    <g id="text_37">
     <!-- 情绪类别 -->
     <g transform="translate(854.2 86.11375) scale(0.1 -0.1)">
      <defs>
       <path id="MicrosoftYaHei-7eea" d="M 619 3309 
Q 884 3309 1484 3325 
Q 1706 3700 1950 4153 
L 2394 3947 
Q 1631 2678 869 1678 
Q 1344 1741 2119 1847 
Q 2097 1666 2075 1500 
Q 3097 2100 3909 2841 
L 2213 2841 
L 2213 3241 
L 3538 3241 
L 3538 4091 
L 2531 4091 
L 2531 4491 
L 3538 4491 
L 3538 5341 
L 4000 5341 
L 4000 4491 
L 5006 4491 
L 5006 4091 
L 4000 4091 
L 4000 3241 
L 4322 3241 
Q 5038 3972 5569 4828 
L 5988 4584 
Q 5484 3869 4903 3241 
L 6163 3241 
L 6163 2841 
L 4519 2841 
Q 4141 2466 3731 2128 
L 5663 2128 
L 5663 -816 
L 5200 -816 
L 5200 -491 
L 3350 -491 
L 3350 -816 
L 2888 -816 
L 2888 1484 
Q 2556 1256 2213 1047 
Q 2078 1259 1956 1400 
Q 1016 1259 313 1134 
L 194 1591 
Q 616 1919 1250 2938 
Q 606 2897 213 2859 
L 88 3272 
Q 563 3853 1188 5284 
L 1675 5109 
Q 1163 4128 619 3309 
z
M 3350 -78 
L 5200 -78 
L 5200 622 
L 3350 622 
L 3350 -78 
z
M 5200 1716 
L 3350 1716 
L 3350 1022 
L 5200 1022 
L 5200 1716 
z
M 150 172 
Q 1406 391 2294 578 
Q 2294 297 2313 122 
Q 1325 -59 306 -291 
L 150 172 
z
" transform="scale(0.015625)"/>
       <path id="MicrosoftYaHei-7c7b" d="M 6338 -359 
Q 6213 -503 6006 -853 
Q 3975 -459 3200 884 
Q 2644 -497 400 -897 
Q 288 -684 131 -434 
Q 2244 -147 2744 1047 
L 275 1047 
L 275 1484 
L 2875 1484 
Q 2925 1691 2956 1978 
L 3456 1978 
Q 3413 1697 3369 1484 
L 6125 1484 
L 6125 1047 
L 3619 1047 
Q 4450 -159 6338 -359 
z
M 325 3741 
L 2975 3741 
L 2975 5303 
L 3450 5303 
L 3450 3741 
L 6075 3741 
L 6075 3322 
L 3450 3322 
L 3450 2953 
L 3625 3191 
Q 5325 2528 6231 2128 
L 6013 1722 
Q 4956 2266 3450 2847 
L 3450 2197 
L 2975 2197 
L 2975 3241 
Q 1863 2191 450 1741 
Q 319 1934 144 2153 
Q 1569 2553 2538 3322 
L 325 3322 
L 325 3741 
z
M 5550 4784 
Q 5163 4459 4394 3891 
L 4069 4222 
Q 4569 4578 5194 5122 
L 5550 4784 
z
M 900 4791 
L 1206 5122 
Q 1875 4647 2306 4266 
L 1969 3897 
Q 1581 4284 900 4791 
z
" transform="scale(0.015625)"/>
       <path id="MicrosoftYaHei-522b" d="M 538 4959 
L 3375 4959 
L 3375 2772 
L 2888 2772 
L 2888 3028 
L 1025 3028 
L 1025 2772 
L 538 2772 
L 538 4959 
z
M 300 2116 
L 1316 2116 
Q 1331 2431 1338 2822 
L 1825 2822 
Q 1816 2431 1797 2116 
L 3431 2116 
Q 3413 1028 3363 328 
Q 3319 -684 2431 -678 
Q 2006 -678 1563 -641 
Q 1531 -347 1469 -122 
Q 1963 -203 2350 -203 
Q 2850 -209 2875 378 
Q 2925 891 2938 1666 
L 1769 1666 
Q 1688 53 431 -859 
Q 300 -666 88 -441 
Q 1238 366 1288 1666 
L 300 1666 
L 300 2116 
z
M 5425 5278 
L 5944 5278 
L 5944 53 
Q 5944 -747 5163 -747 
Q 4756 -747 4175 -741 
Q 4138 -484 4081 -178 
Q 4725 -228 4994 -228 
Q 5425 -228 5425 191 
L 5425 5278 
z
M 4138 4647 
L 4644 4647 
L 4644 666 
L 4138 666 
L 4138 4647 
z
M 2888 4509 
L 1025 4509 
L 1025 3478 
L 2888 3478 
L 2888 4509 
z
" transform="scale(0.015625)"/>
      </defs>
      <use xlink:href="#MicrosoftYaHei-60c5"/>
      <use xlink:href="#MicrosoftYaHei-7eea" x="100"/>
      <use xlink:href="#MicrosoftYaHei-7c7b" x="200"/>
      <use xlink:href="#MicrosoftYaHei-522b" x="300"/>
     </g>
    </g>
    <g id="patch_59">
     <path d="M 850.2 101.593437 
L 870.2 101.593437 
L 870.2 94.593437 
L 850.2 94.593437 
z
" style="fill: #ff0000; opacity: 0.6"/>
    </g>
    <g id="text_38">
     <!-- 消极 -->
     <g transform="translate(878.2 101.593437) scale(0.1 -0.1)">
      <defs>
       <path id="MicrosoftYaHei-6d88" d="M 2513 -803 
L 2019 -803 
L 2019 3566 
L 3731 3566 
L 3731 5334 
L 4250 5334 
L 4250 3566 
L 5925 3566 
L 5925 -47 
Q 5925 -778 5225 -778 
Q 4819 -778 4144 -759 
Q 4106 -528 4050 -247 
Q 4669 -284 5031 -284 
Q 5431 -284 5431 59 
L 5431 653 
L 2513 653 
L 2513 -803 
z
M 2513 1103 
L 5431 1103 
L 5431 1878 
L 2513 1878 
L 2513 1103 
z
M 5431 3097 
L 2513 3097 
L 2513 2328 
L 5431 2328 
L 5431 3097 
z
M 844 1816 
Q 1100 1716 1356 1628 
Q 1050 384 781 -784 
L 231 -622 
Q 569 491 844 1816 
z
M 4750 4097 
Q 5225 4578 5644 5159 
L 6094 4816 
Q 5700 4353 5119 3772 
L 4750 4097 
z
M 400 3622 
Q 869 3291 1500 2772 
Q 1269 2509 1138 2366 
Q 431 2997 88 3259 
L 400 3622 
z
M 638 5241 
Q 1113 4866 1713 4328 
Q 1500 4109 1344 3941 
Q 669 4597 319 4897 
L 638 5241 
z
M 1931 4872 
L 2294 5159 
Q 2581 4897 3250 4141 
L 2825 3816 
Q 2213 4584 1931 4872 
z
" transform="scale(0.015625)"/>
       <path id="MicrosoftYaHei-6781" d="M 3263 2528 
Q 3163 466 1994 -828 
Q 1813 -641 1613 -478 
Q 2406 391 2638 1409 
Q 2863 2284 2844 4472 
L 2288 4472 
L 2288 4916 
L 5406 4916 
L 5406 4447 
L 4800 3191 
L 5888 3191 
L 5888 2728 
Q 5531 1578 4881 709 
Q 5550 72 6331 -316 
Q 6131 -497 5913 -778 
Q 5169 -316 4556 309 
Q 3919 -391 3063 -872 
Q 2888 -641 2713 -472 
Q 3600 34 4213 691 
Q 3638 1403 3263 2528 
z
M 81 1359 
Q 731 2372 1000 3578 
L 125 3578 
L 125 3997 
L 1006 3997 
L 1006 5234 
L 1438 5234 
L 1438 3997 
L 2250 3997 
L 2250 3578 
L 1438 3578 
L 1438 2659 
L 1638 2859 
Q 2088 2466 2456 2097 
L 2131 1759 
Q 1825 2103 1438 2484 
L 1438 -834 
L 1006 -834 
L 1006 2384 
Q 700 1409 281 809 
Q 200 1078 81 1359 
z
M 4281 3203 
L 4881 4472 
L 3319 4472 
Q 3319 4016 3313 3616 
Q 3800 1978 4538 1084 
Q 5106 1828 5369 2747 
L 4281 2747 
L 4281 3203 
z
" transform="scale(0.015625)"/>
      </defs>
      <use xlink:href="#MicrosoftYaHei-6d88"/>
      <use xlink:href="#MicrosoftYaHei-6781" x="100"/>
     </g>
    </g>
    <g id="patch_60">
     <path d="M 850.2 117.073125 
L 870.2 117.073125 
L 870.2 110.073125 
L 850.2 110.073125 
z
" style="fill: #808080; opacity: 0.6"/>
    </g>
    <g id="text_39">
     <!-- 中立 -->
     <g transform="translate(878.2 117.073125) scale(0.1 -0.1)">
      <defs>
       <path id="MicrosoftYaHei-4e2d" d="M 525 3972 
L 2931 3972 
L 2931 5334 
L 3469 5334 
L 3469 3972 
L 5900 3972 
L 5900 1122 
L 5388 1122 
L 5388 1459 
L 3469 1459 
L 3469 -866 
L 2931 -866 
L 2931 1459 
L 1038 1459 
L 1038 1122 
L 525 1122 
L 525 3972 
z
M 5388 3509 
L 3469 3509 
L 3469 1922 
L 5388 1922 
L 5388 3509 
z
M 1038 1922 
L 2931 1922 
L 2931 3509 
L 1038 3509 
L 1038 1922 
z
" transform="scale(0.015625)"/>
       <path id="MicrosoftYaHei-7acb" d="M 181 34 
L 3428 34 
Q 4153 1444 4788 3391 
L 5356 3184 
Q 4713 1428 4038 34 
L 6225 34 
L 6225 -447 
L 181 -447 
L 181 34 
z
M 338 4134 
L 6075 4134 
L 6075 3653 
L 338 3653 
L 338 4134 
z
M 1081 3122 
L 1575 3322 
Q 2150 2003 2669 647 
L 2113 416 
Q 1606 1897 1081 3122 
z
M 2525 5141 
L 2981 5397 
Q 3281 4978 3606 4447 
L 3113 4159 
Q 2863 4628 2525 5141 
z
" transform="scale(0.015625)"/>
      </defs>
      <use xlink:href="#MicrosoftYaHei-4e2d"/>
      <use xlink:href="#MicrosoftYaHei-7acb" x="100"/>
     </g>
    </g>
    <g id="patch_61">
     <path d="M 850.2 132.552812 
L 870.2 132.552812 
L 870.2 125.552812 
L 850.2 125.552812 
z
" style="fill: #ffd100; opacity: 0.6"/>
    </g>
    <g id="text_40">
     <!-- 积极 -->
     <g transform="translate(878.2 132.552812) scale(0.1 -0.1)">
      <defs>
       <path id="MicrosoftYaHei-79ef" d="M 2813 4784 
L 5975 4784 
L 5975 1528 
L 5500 1528 
L 5500 1828 
L 3288 1828 
L 3288 1528 
L 2813 1528 
L 2813 4784 
z
M 88 853 
Q 669 1728 1056 2947 
L 119 2947 
L 119 3384 
L 1119 3384 
L 1119 4378 
Q 713 4347 244 4316 
Q 213 4541 150 4772 
Q 1425 4841 2375 4978 
L 2488 4503 
Q 2106 4459 1581 4416 
L 1581 3384 
L 2513 3384 
L 2513 2947 
L 1581 2947 
L 1581 2066 
L 1831 2297 
Q 2213 1922 2644 1441 
L 2288 1128 
Q 1950 1541 1581 1934 
L 1581 -853 
L 1119 -853 
L 1119 1928 
Q 781 997 306 316 
Q 206 591 88 853 
z
M 5500 4359 
L 3288 4359 
L 3288 2253 
L 5500 2253 
L 5500 4359 
z
M 3475 1128 
L 3888 834 
Q 3175 -66 2519 -759 
Q 2369 -597 2163 -416 
Q 2925 353 3475 1128 
z
M 4775 828 
L 5163 1097 
Q 5738 441 6356 -372 
L 5919 -703 
Q 5369 109 4775 828 
z
" transform="scale(0.015625)"/>
      </defs>
      <use xlink:href="#MicrosoftYaHei-79ef"/>
      <use xlink:href="#MicrosoftYaHei-6781" x="100"/>
     </g>
    </g>
   </g>
  </g>
 </g>
 <defs>
  <clipPath id="pb97569174a">
   <rect x="126" y="69.12" width="781.2" height="420.48"/>
  </clipPath>
 </defs>
</svg>
