<?xml version="1.0" encoding="utf-8" standalone="no"?>
<!DOCTYPE svg PUBLIC "-//W3C//DTD SVG 1.1//EN"
  "http://www.w3.org/Graphics/SVG/1.1/DTD/svg11.dtd">
<svg xmlns:xlink="http://www.w3.org/1999/xlink" width="460.8pt" height="345.6pt" viewBox="0 0 460.8 345.6" xmlns="http://www.w3.org/2000/svg" version="1.1">
 <metadata>
  <rdf:RDF xmlns:dc="http://purl.org/dc/elements/1.1/" xmlns:cc="http://creativecommons.org/ns#" xmlns:rdf="http://www.w3.org/1999/02/22-rdf-syntax-ns#">
   <cc:Work>
    <dc:type rdf:resource="http://purl.org/dc/dcmitype/StillImage"/>
    <dc:date>2024-04-20T10:29:59.201627</dc:date>
    <dc:format>image/svg+xml</dc:format>
    <dc:creator>
     <cc:Agent>
      <dc:title>Matplotlib v3.7.5, https://matplotlib.org/</dc:title>
     </cc:Agent>
    </dc:creator>
   </cc:Work>
  </rdf:RDF>
 </metadata>
 <defs>
  <style type="text/css">*{stroke-linejoin: round; stroke-linecap: butt}</style>
 </defs>
 <g id="figure_1">
  <g id="patch_1">
   <path d="M 0 345.6 
L 460.8 345.6 
L 460.8 0 
L 0 0 
z
" style="fill: #ffffff"/>
  </g>
  <g id="axes_1">
   <g id="patch_2">
    <path d="M 57.6 307.584 
L 414.72 307.584 
L 414.72 41.472 
L 57.6 41.472 
z
" style="fill: #ffffff"/>
   </g>
   <g id="matplotlib.axis_1">
    <g id="xtick_1">
     <g id="line2d_1">
      <defs>
       <path id="m3bc25bc9df" d="M 0 0 
L 0 3.5 
" style="stroke: #000000; stroke-width: 0.8"/>
      </defs>
      <g>
       <use xlink:href="#m3bc25bc9df" x="73.079031" y="307.584" style="stroke: #000000; stroke-width: 0.8"/>
      </g>
     </g>
     <g id="text_1">
      <!-- 0 -->
      <g transform="translate(70.147 322.57775) scale(0.1 -0.1)">
       <defs>
        <path id="MicrosoftYaHei-30" d="M 284 2325 
Q 284 3606 709 4264 
Q 1134 4922 1941 4922 
Q 3478 4922 3478 2441 
Q 3478 1216 3045 567 
Q 2613 -81 1831 -81 
Q 1094 -81 689 534 
Q 284 1150 284 2325 
z
M 909 2353 
Q 909 425 1888 425 
Q 2850 425 2850 2384 
Q 2850 4413 1906 4413 
Q 909 4413 909 2353 
z
" transform="scale(0.015625)"/>
       </defs>
       <use xlink:href="#MicrosoftYaHei-30"/>
      </g>
     </g>
    </g>
    <g id="xtick_2">
     <g id="line2d_2">
      <g>
       <use xlink:href="#m3bc25bc9df" x="120.18503" y="307.584" style="stroke: #000000; stroke-width: 0.8"/>
      </g>
     </g>
     <g id="text_2">
      <!-- 250 -->
      <g transform="translate(111.388937 322.57775) scale(0.1 -0.1)">
       <defs>
        <path id="MicrosoftYaHei-32" d="M 2666 3572 
Q 2666 3963 2419 4186 
Q 2172 4409 1747 4409 
Q 1447 4409 1140 4256 
Q 834 4103 569 3819 
L 569 4413 
Q 806 4659 1107 4790 
Q 1409 4922 1816 4922 
Q 2472 4922 2872 4570 
Q 3272 4219 3272 3619 
Q 3272 3084 3026 2693 
Q 2781 2303 2188 1894 
Q 1581 1475 1376 1294 
Q 1172 1113 1090 947 
Q 1009 781 1009 544 
L 3416 544 
L 3416 0 
L 372 0 
L 372 241 
Q 372 659 486 951 
Q 600 1244 862 1520 
Q 1125 1797 1681 2184 
Q 2250 2584 2458 2886 
Q 2666 3188 2666 3572 
z
" transform="scale(0.015625)"/>
        <path id="MicrosoftYaHei-35" d="M 3294 1494 
Q 3294 784 2823 350 
Q 2353 -84 1559 -84 
Q 878 -84 544 119 
L 544 744 
Q 1034 425 1544 425 
Q 2050 425 2361 704 
Q 2672 984 2672 1447 
Q 2672 1909 2348 2167 
Q 2025 2425 1434 2425 
Q 978 2425 613 2384 
L 791 4841 
L 3053 4841 
L 3053 4303 
L 1306 4303 
L 1206 2931 
L 1647 2950 
Q 2416 2950 2855 2567 
Q 3294 2184 3294 1494 
z
" transform="scale(0.015625)"/>
       </defs>
       <use xlink:href="#MicrosoftYaHei-32"/>
       <use xlink:href="#MicrosoftYaHei-35" x="58.642578"/>
       <use xlink:href="#MicrosoftYaHei-30" x="117.285156"/>
      </g>
     </g>
    </g>
    <g id="xtick_3">
     <g id="line2d_3">
      <g>
       <use xlink:href="#m3bc25bc9df" x="167.291029" y="307.584" style="stroke: #000000; stroke-width: 0.8"/>
      </g>
     </g>
     <g id="text_3">
      <!-- 500 -->
      <g transform="translate(158.494936 322.57775) scale(0.1 -0.1)">
       <use xlink:href="#MicrosoftYaHei-35"/>
       <use xlink:href="#MicrosoftYaHei-30" x="58.642578"/>
       <use xlink:href="#MicrosoftYaHei-30" x="117.285156"/>
      </g>
     </g>
    </g>
    <g id="xtick_4">
     <g id="line2d_4">
      <g>
       <use xlink:href="#m3bc25bc9df" x="214.397028" y="307.584" style="stroke: #000000; stroke-width: 0.8"/>
      </g>
     </g>
     <g id="text_4">
      <!-- 750 -->
      <g transform="translate(205.600935 322.57775) scale(0.1 -0.1)">
       <defs>
        <path id="MicrosoftYaHei-37" d="M 3422 4463 
Q 2659 3131 2223 1998 
Q 1788 866 1684 0 
L 1047 0 
Q 1163 853 1594 1947 
Q 2025 3041 2747 4300 
L 347 4300 
L 347 4841 
L 3422 4841 
L 3422 4463 
z
" transform="scale(0.015625)"/>
       </defs>
       <use xlink:href="#MicrosoftYaHei-37"/>
       <use xlink:href="#MicrosoftYaHei-35" x="58.642578"/>
       <use xlink:href="#MicrosoftYaHei-30" x="117.285156"/>
      </g>
     </g>
    </g>
    <g id="xtick_5">
     <g id="line2d_5">
      <g>
       <use xlink:href="#m3bc25bc9df" x="261.503027" y="307.584" style="stroke: #000000; stroke-width: 0.8"/>
      </g>
     </g>
     <g id="text_5">
      <!-- 1000 -->
      <g transform="translate(249.774902 322.57775) scale(0.1 -0.1)">
       <defs>
        <path id="MicrosoftYaHei-31" d="M 1781 0 
L 1781 4141 
Q 1638 3997 1295 3819 
Q 953 3641 663 3569 
L 663 4169 
Q 1047 4275 1484 4508 
Q 1922 4741 2156 4947 
L 2388 4947 
L 2388 0 
L 1781 0 
z
" transform="scale(0.015625)"/>
       </defs>
       <use xlink:href="#MicrosoftYaHei-31"/>
       <use xlink:href="#MicrosoftYaHei-30" x="58.642578"/>
       <use xlink:href="#MicrosoftYaHei-30" x="117.285156"/>
       <use xlink:href="#MicrosoftYaHei-30" x="175.927734"/>
      </g>
     </g>
    </g>
    <g id="xtick_6">
     <g id="line2d_6">
      <g>
       <use xlink:href="#m3bc25bc9df" x="308.609027" y="307.584" style="stroke: #000000; stroke-width: 0.8"/>
      </g>
     </g>
     <g id="text_6">
      <!-- 1250 -->
      <g transform="translate(296.880902 322.57775) scale(0.1 -0.1)">
       <use xlink:href="#MicrosoftYaHei-31"/>
       <use xlink:href="#MicrosoftYaHei-32" x="58.642578"/>
       <use xlink:href="#MicrosoftYaHei-35" x="117.285156"/>
       <use xlink:href="#MicrosoftYaHei-30" x="175.927734"/>
      </g>
     </g>
    </g>
    <g id="xtick_7">
     <g id="line2d_7">
      <g>
       <use xlink:href="#m3bc25bc9df" x="355.715026" y="307.584" style="stroke: #000000; stroke-width: 0.8"/>
      </g>
     </g>
     <g id="text_7">
      <!-- 1500 -->
      <g transform="translate(343.986901 322.57775) scale(0.1 -0.1)">
       <use xlink:href="#MicrosoftYaHei-31"/>
       <use xlink:href="#MicrosoftYaHei-35" x="58.642578"/>
       <use xlink:href="#MicrosoftYaHei-30" x="117.285156"/>
       <use xlink:href="#MicrosoftYaHei-30" x="175.927734"/>
      </g>
     </g>
    </g>
    <g id="xtick_8">
     <g id="line2d_8">
      <g>
       <use xlink:href="#m3bc25bc9df" x="402.821025" y="307.584" style="stroke: #000000; stroke-width: 0.8"/>
      </g>
     </g>
     <g id="text_8">
      <!-- 1750 -->
      <g transform="translate(391.0929 322.57775) scale(0.1 -0.1)">
       <use xlink:href="#MicrosoftYaHei-31"/>
       <use xlink:href="#MicrosoftYaHei-37" x="58.642578"/>
       <use xlink:href="#MicrosoftYaHei-35" x="117.285156"/>
       <use xlink:href="#MicrosoftYaHei-30" x="175.927734"/>
      </g>
     </g>
    </g>
    <g id="text_9">
     <!-- Batch step -->
     <g transform="translate(211.235 337.057437) scale(0.1 -0.1)">
      <defs>
       <path id="MicrosoftYaHei-42" d="M 625 0 
L 625 4841 
L 2047 4841 
Q 2684 4841 3065 4536 
Q 3447 4231 3447 3728 
Q 3447 3328 3220 3022 
Q 2994 2716 2597 2588 
L 2597 2575 
Q 3091 2519 3386 2201 
Q 3681 1884 3681 1397 
Q 3681 772 3232 386 
Q 2784 0 2084 0 
L 625 0 
z
M 1250 4294 
L 1250 2778 
L 1819 2778 
Q 2272 2778 2530 2998 
Q 2788 3219 2788 3609 
Q 2788 4294 1875 4294 
L 1250 4294 
z
M 1250 2234 
L 1250 547 
L 2000 547 
Q 2491 547 2758 773 
Q 3025 1000 3025 1403 
Q 3025 2234 1897 2234 
L 1250 2234 
z
" transform="scale(0.015625)"/>
       <path id="MicrosoftYaHei-61" d="M 628 3216 
Q 1144 3538 1819 3538 
Q 3069 3538 3069 2225 
L 3069 0 
L 2463 0 
L 2463 534 
L 2447 534 
Q 2088 -81 1388 -81 
Q 884 -81 587 191 
Q 291 463 291 925 
Q 291 1894 1438 2053 
L 2463 2197 
Q 2463 3044 1763 3044 
Q 1141 3044 628 2625 
L 628 3216 
z
M 1653 1625 
Q 1228 1569 1067 1412 
Q 906 1256 906 975 
Q 906 728 1081 572 
Q 1256 416 1544 416 
Q 1944 416 2203 697 
Q 2463 978 2463 1403 
L 2463 1734 
L 1653 1625 
z
" transform="scale(0.015625)"/>
       <path id="MicrosoftYaHei-74" d="M 2206 34 
Q 2006 -75 1666 -75 
Q 738 -75 738 953 
L 738 2950 
L 144 2950 
L 144 3456 
L 738 3456 
L 738 4288 
L 1347 4481 
L 1347 3456 
L 2206 3456 
L 2206 2950 
L 1347 2950 
L 1347 1063 
Q 1347 722 1462 575 
Q 1578 428 1847 428 
Q 2053 428 2206 544 
L 2206 34 
z
" transform="scale(0.015625)"/>
       <path id="MicrosoftYaHei-63" d="M 2934 156 
Q 2538 -81 1978 -81 
Q 1228 -81 772 400 
Q 316 881 316 1647 
Q 316 2497 808 3017 
Q 1300 3538 2125 3538 
Q 2600 3538 2938 3369 
L 2938 2763 
Q 2572 3031 2125 3031 
Q 1600 3031 1270 2667 
Q 941 2303 941 1697 
Q 941 1100 1252 762 
Q 1563 425 2091 425 
Q 2538 425 2934 719 
L 2934 156 
z
" transform="scale(0.015625)"/>
       <path id="MicrosoftYaHei-68" d="M 3466 0 
L 2856 0 
L 2856 1988 
Q 2856 3031 2081 3031 
Q 1684 3031 1421 2726 
Q 1159 2422 1159 1959 
L 1159 0 
L 547 0 
L 547 5116 
L 1159 5116 
L 1159 2888 
L 1172 2888 
Q 1569 3538 2300 3538 
Q 3466 3538 3466 2128 
L 3466 0 
z
" transform="scale(0.015625)"/>
       <path id="MicrosoftYaHei-20" transform="scale(0.015625)"/>
       <path id="MicrosoftYaHei-73" d="M 353 747 
Q 816 413 1350 413 
Q 2066 413 2066 881 
Q 2066 1081 1909 1211 
Q 1753 1341 1275 1519 
Q 700 1750 528 1976 
Q 356 2203 356 2525 
Q 356 2984 745 3261 
Q 1134 3538 1703 3538 
Q 2144 3538 2522 3384 
L 2522 2794 
Q 2134 3044 1644 3044 
Q 1350 3044 1165 2916 
Q 981 2788 981 2578 
Q 981 2372 1114 2256 
Q 1247 2141 1703 1959 
Q 2281 1744 2484 1512 
Q 2688 1281 2688 941 
Q 2688 466 2298 192 
Q 1909 -81 1291 -81 
Q 753 -81 353 122 
L 353 747 
z
" transform="scale(0.015625)"/>
       <path id="MicrosoftYaHei-65" d="M 3363 1572 
L 944 1572 
Q 959 1019 1246 717 
Q 1534 416 2050 416 
Q 2631 416 3116 788 
L 3116 241 
Q 2659 -81 1906 -81 
Q 1156 -81 736 394 
Q 316 869 316 1713 
Q 316 2506 777 3022 
Q 1238 3538 1922 3538 
Q 2600 3538 2981 3102 
Q 3363 2666 3363 1881 
L 3363 1572 
z
M 2750 2063 
Q 2747 2531 2528 2787 
Q 2309 3044 1913 3044 
Q 1547 3044 1280 2772 
Q 1013 2500 944 2063 
L 2750 2063 
z
" transform="scale(0.015625)"/>
       <path id="MicrosoftYaHei-70" d="M 1159 488 
L 1159 -1591 
L 547 -1591 
L 547 3456 
L 1159 3456 
L 1159 2859 
L 1172 2859 
Q 1578 3538 2359 3538 
Q 3022 3538 3398 3073 
Q 3775 2609 3775 1828 
Q 3775 966 3348 442 
Q 2922 -81 2200 -81 
Q 1534 -81 1172 488 
L 1159 488 
z
M 1156 1425 
Q 1156 1003 1428 714 
Q 1700 425 2109 425 
Q 2597 425 2872 800 
Q 3147 1175 3147 1838 
Q 3147 2397 2890 2714 
Q 2634 3031 2191 3031 
Q 1738 3031 1447 2709 
Q 1156 2388 1156 1884 
L 1156 1425 
z
" transform="scale(0.015625)"/>
      </defs>
      <use xlink:href="#MicrosoftYaHei-42"/>
      <use xlink:href="#MicrosoftYaHei-61" x="62.744141"/>
      <use xlink:href="#MicrosoftYaHei-74" x="118.017578"/>
      <use xlink:href="#MicrosoftYaHei-63" x="153.898438"/>
      <use xlink:href="#MicrosoftYaHei-68" x="204.044922"/>
      <use xlink:href="#MicrosoftYaHei-20" x="265.617188"/>
      <use xlink:href="#MicrosoftYaHei-73" x="295.207031"/>
      <use xlink:href="#MicrosoftYaHei-74" x="341.496094"/>
      <use xlink:href="#MicrosoftYaHei-65" x="377.876953"/>
      <use xlink:href="#MicrosoftYaHei-70" x="434.615234"/>
     </g>
    </g>
   </g>
   <g id="matplotlib.axis_2">
    <g id="ytick_1">
     <g id="line2d_9">
      <defs>
       <path id="mc6ce139c67" d="M 0 0 
L -3.5 0 
" style="stroke: #000000; stroke-width: 0.8"/>
      </defs>
      <g>
       <use xlink:href="#mc6ce139c67" x="57.6" y="293.130533" style="stroke: #000000; stroke-width: 0.8"/>
      </g>
     </g>
     <g id="text_10">
      <!-- 0.25 -->
      <g style="fill: #ff7f0e" transform="translate(30.6 297.127408) scale(0.1 -0.1)">
       <defs>
        <path id="MicrosoftYaHei-2e" d="M 372 322 
Q 372 491 487 606 
Q 603 722 775 722 
Q 950 722 1065 605 
Q 1181 488 1181 322 
Q 1181 159 1065 42 
Q 950 -75 772 -75 
Q 600 -75 486 42 
Q 372 159 372 322 
z
" transform="scale(0.015625)"/>
       </defs>
       <use xlink:href="#MicrosoftYaHei-30"/>
       <use xlink:href="#MicrosoftYaHei-2e" x="58.642578"/>
       <use xlink:href="#MicrosoftYaHei-32" x="82.714844"/>
       <use xlink:href="#MicrosoftYaHei-35" x="141.357422"/>
      </g>
     </g>
    </g>
    <g id="ytick_2">
     <g id="line2d_10">
      <g>
       <use xlink:href="#mc6ce139c67" x="57.6" y="255.738594" style="stroke: #000000; stroke-width: 0.8"/>
      </g>
     </g>
     <g id="text_11">
      <!-- 0.30 -->
      <g style="fill: #ff7f0e" transform="translate(30.6 259.735469) scale(0.1 -0.1)">
       <defs>
        <path id="MicrosoftYaHei-33" d="M 447 809 
Q 944 425 1569 425 
Q 2069 425 2361 670 
Q 2653 916 2653 1328 
Q 2653 2247 1338 2247 
L 934 2247 
L 934 2753 
L 1319 2753 
Q 2484 2753 2484 3616 
Q 2484 4413 1594 4413 
Q 1084 4413 634 4069 
L 634 4647 
Q 1109 4922 1744 4922 
Q 2363 4922 2738 4598 
Q 3113 4275 3113 3759 
Q 3113 2809 2144 2538 
L 2144 2525 
Q 2669 2469 2973 2155 
Q 3278 1841 3278 1372 
Q 3278 719 2808 319 
Q 2338 -81 1556 -81 
Q 869 -81 447 175 
L 447 809 
z
" transform="scale(0.015625)"/>
       </defs>
       <use xlink:href="#MicrosoftYaHei-30"/>
       <use xlink:href="#MicrosoftYaHei-2e" x="58.642578"/>
       <use xlink:href="#MicrosoftYaHei-33" x="82.714844"/>
       <use xlink:href="#MicrosoftYaHei-30" x="141.357422"/>
      </g>
     </g>
    </g>
    <g id="ytick_3">
     <g id="line2d_11">
      <g>
       <use xlink:href="#mc6ce139c67" x="57.6" y="218.346655" style="stroke: #000000; stroke-width: 0.8"/>
      </g>
     </g>
     <g id="text_12">
      <!-- 0.35 -->
      <g style="fill: #ff7f0e" transform="translate(30.6 222.34353) scale(0.1 -0.1)">
       <use xlink:href="#MicrosoftYaHei-30"/>
       <use xlink:href="#MicrosoftYaHei-2e" x="58.642578"/>
       <use xlink:href="#MicrosoftYaHei-33" x="82.714844"/>
       <use xlink:href="#MicrosoftYaHei-35" x="141.357422"/>
      </g>
     </g>
    </g>
    <g id="ytick_4">
     <g id="line2d_12">
      <g>
       <use xlink:href="#mc6ce139c67" x="57.6" y="180.954716" style="stroke: #000000; stroke-width: 0.8"/>
      </g>
     </g>
     <g id="text_13">
      <!-- 0.40 -->
      <g style="fill: #ff7f0e" transform="translate(30.6 184.951591) scale(0.1 -0.1)">
       <defs>
        <path id="MicrosoftYaHei-34" d="M 2906 4841 
L 2906 1644 
L 3631 1644 
L 3631 1138 
L 2906 1138 
L 2906 0 
L 2313 0 
L 2313 1138 
L 53 1138 
L 53 1616 
Q 656 2294 1265 3178 
Q 1875 4063 2272 4841 
L 2906 4841 
z
M 741 1644 
L 2313 1644 
L 2313 3950 
Q 1988 3366 1616 2817 
Q 1244 2269 741 1644 
z
" transform="scale(0.015625)"/>
       </defs>
       <use xlink:href="#MicrosoftYaHei-30"/>
       <use xlink:href="#MicrosoftYaHei-2e" x="58.642578"/>
       <use xlink:href="#MicrosoftYaHei-34" x="82.714844"/>
       <use xlink:href="#MicrosoftYaHei-30" x="141.357422"/>
      </g>
     </g>
    </g>
    <g id="ytick_5">
     <g id="line2d_13">
      <g>
       <use xlink:href="#mc6ce139c67" x="57.6" y="143.562777" style="stroke: #000000; stroke-width: 0.8"/>
      </g>
     </g>
     <g id="text_14">
      <!-- 0.45 -->
      <g style="fill: #ff7f0e" transform="translate(30.6 147.559652) scale(0.1 -0.1)">
       <use xlink:href="#MicrosoftYaHei-30"/>
       <use xlink:href="#MicrosoftYaHei-2e" x="58.642578"/>
       <use xlink:href="#MicrosoftYaHei-34" x="82.714844"/>
       <use xlink:href="#MicrosoftYaHei-35" x="141.357422"/>
      </g>
     </g>
    </g>
    <g id="ytick_6">
     <g id="line2d_14">
      <g>
       <use xlink:href="#mc6ce139c67" x="57.6" y="106.170838" style="stroke: #000000; stroke-width: 0.8"/>
      </g>
     </g>
     <g id="text_15">
      <!-- 0.50 -->
      <g style="fill: #ff7f0e" transform="translate(30.6 110.167713) scale(0.1 -0.1)">
       <use xlink:href="#MicrosoftYaHei-30"/>
       <use xlink:href="#MicrosoftYaHei-2e" x="58.642578"/>
       <use xlink:href="#MicrosoftYaHei-35" x="82.714844"/>
       <use xlink:href="#MicrosoftYaHei-30" x="141.357422"/>
      </g>
     </g>
    </g>
    <g id="ytick_7">
     <g id="line2d_15">
      <g>
       <use xlink:href="#mc6ce139c67" x="57.6" y="68.778899" style="stroke: #000000; stroke-width: 0.8"/>
      </g>
     </g>
     <g id="text_16">
      <!-- 0.55 -->
      <g style="fill: #ff7f0e" transform="translate(30.6 72.775774) scale(0.1 -0.1)">
       <use xlink:href="#MicrosoftYaHei-30"/>
       <use xlink:href="#MicrosoftYaHei-2e" x="58.642578"/>
       <use xlink:href="#MicrosoftYaHei-35" x="82.714844"/>
       <use xlink:href="#MicrosoftYaHei-35" x="141.357422"/>
      </g>
     </g>
    </g>
    <g id="text_17">
     <!-- Accuracy -->
     <g style="fill: #ff7f0e" transform="translate(24.05625 195.968625) rotate(-90) scale(0.1 -0.1)">
      <defs>
       <path id="MicrosoftYaHei-41" d="M 4428 0 
L 3738 0 
L 3244 1325 
L 1228 1325 
L 763 0 
L 72 0 
L 1916 4841 
L 2584 4841 
L 4428 0 
z
M 3050 1872 
L 2319 3884 
Q 2284 3981 2244 4222 
L 2228 4222 
Q 2194 4003 2150 3884 
L 1425 1872 
L 3050 1872 
z
" transform="scale(0.015625)"/>
       <path id="MicrosoftYaHei-75" d="M 3400 0 
L 2784 0 
L 2784 544 
L 2772 544 
Q 2425 -81 1706 -81 
Q 478 -81 478 1388 
L 478 3456 
L 1084 3456 
L 1084 1478 
Q 1084 425 1891 425 
Q 2291 425 2537 720 
Q 2784 1016 2784 1466 
L 2784 3456 
L 3400 3456 
L 3400 0 
z
" transform="scale(0.015625)"/>
       <path id="MicrosoftYaHei-72" d="M 2400 2850 
Q 2247 2959 1978 2959 
Q 1622 2959 1390 2626 
Q 1159 2294 1159 1750 
L 1159 0 
L 547 0 
L 547 3456 
L 1159 3456 
L 1159 2753 
L 1172 2753 
Q 1434 3516 2078 3516 
Q 2288 3516 2400 3469 
L 2400 2850 
z
" transform="scale(0.015625)"/>
       <path id="MicrosoftYaHei-79" d="M 3359 3456 
L 1791 -522 
Q 1353 -1628 556 -1628 
Q 328 -1628 166 -1578 
L 166 -1041 
Q 344 -1109 509 -1109 
Q 925 -1109 1131 -622 
L 1397 6 
L 41 3456 
L 719 3456 
L 1622 859 
L 1697 575 
L 1713 575 
Q 1731 672 1788 853 
L 2731 3456 
L 3359 3456 
z
" transform="scale(0.015625)"/>
      </defs>
      <use xlink:href="#MicrosoftYaHei-41"/>
      <use xlink:href="#MicrosoftYaHei-63" x="70.361328"/>
      <use xlink:href="#MicrosoftYaHei-63" x="120.507812"/>
      <use xlink:href="#MicrosoftYaHei-75" x="170.654297"/>
      <use xlink:href="#MicrosoftYaHei-72" x="232.275391"/>
      <use xlink:href="#MicrosoftYaHei-61" x="270.458984"/>
      <use xlink:href="#MicrosoftYaHei-63" x="325.732422"/>
      <use xlink:href="#MicrosoftYaHei-79" x="375.878906"/>
     </g>
    </g>
   </g>
   <g id="line2d_16">
    <path d="M 73.832727 276.251177 
L 74.021151 269.857523 
L 74.209575 284.718663 
L 74.397999 285.899312 
L 74.586423 277.828327 
L 74.963271 287.499153 
L 75.151695 272.116957 
L 75.528543 284.343864 
L 75.716967 285.469753 
L 75.905391 276.924192 
L 76.093815 280.955511 
L 76.470663 272.250583 
L 76.659087 270.514008 
L 76.847511 273.274922 
L 77.035935 274.011282 
L 77.224359 272.63865 
L 77.412783 276.116372 
L 77.601207 277.003181 
L 77.789631 279.772778 
L 77.978055 285.506021 
L 78.166479 287.759605 
L 78.354903 287.377609 
L 78.543327 289.568337 
L 78.731751 295.488 
L 79.108599 284.086915 
L 79.297023 288.419655 
L 79.673871 276.69313 
L 79.862295 278.91754 
L 80.050719 278.895088 
L 80.239143 263.792701 
L 80.427567 264.736989 
L 80.615991 264.608689 
L 80.804415 254.904187 
L 80.992839 251.408402 
L 81.181263 233.619214 
L 81.369687 235.066211 
L 81.558111 228.300258 
L 81.746535 235.56152 
L 81.934959 224.415661 
L 82.123383 230.457043 
L 82.311807 207.417273 
L 82.500231 200.097159 
L 82.688655 183.332569 
L 83.065503 188.883412 
L 83.253927 200.428687 
L 83.630775 192.671091 
L 84.196047 167.020128 
L 84.384471 155.287447 
L 84.572895 153.376179 
L 84.761319 153.636375 
L 84.949743 151.799796 
L 85.138167 156.435352 
L 85.326591 167.414226 
L 85.515015 163.470496 
L 85.891863 176.243339 
L 86.080287 181.566321 
L 86.457135 179.768691 
L 86.645559 177.495254 
L 86.833983 163.978678 
L 87.022407 167.515486 
L 87.210831 167.617566 
L 87.399255 159.72005 
L 87.587679 159.94213 
L 87.776103 161.674221 
L 87.964527 152.920439 
L 88.152951 151.928301 
L 88.341375 168.766469 
L 88.529799 165.824109 
L 88.718223 170.172207 
L 88.906647 167.281692 
L 89.095071 167.0047 
L 89.471919 160.603235 
L 89.660343 166.241805 
L 90.037191 186.063837 
L 90.225615 188.636139 
L 90.414039 199.600954 
L 90.790887 195.808541 
L 90.979311 198.212288 
L 91.167735 204.674201 
L 91.356159 200.773651 
L 91.544583 203.279273 
L 91.733007 211.457467 
L 92.109855 190.057496 
L 92.298279 183.054085 
L 92.486703 181.987725 
L 92.675127 168.163784 
L 92.863551 167.500861 
L 93.051975 168.28172 
L 93.240399 164.44147 
L 93.805671 138.046738 
L 93.994095 132.905924 
L 94.182519 141.424085 
L 94.370943 143.943342 
L 94.559367 161.125828 
L 94.747791 151.462014 
L 94.936215 154.728062 
L 95.124639 141.645171 
L 95.313063 145.366718 
L 95.501487 140.111637 
L 95.689911 154.085567 
L 95.878335 147.976494 
L 96.066759 147.864535 
L 96.255183 139.654894 
L 96.443607 144.827343 
L 96.632031 140.397401 
L 97.008879 159.616325 
L 97.197303 171.357675 
L 97.385727 157.971769 
L 97.574151 157.787935 
L 97.762575 152.987702 
L 97.950999 136.455619 
L 98.139423 134.423335 
L 98.327847 135.473456 
L 98.704695 116.939168 
L 98.893119 124.054483 
L 99.081543 123.299745 
L 99.269967 128.759665 
L 99.835239 156.745841 
L 100.023663 154.768456 
L 100.212087 157.672174 
L 100.400511 154.966733 
L 100.965783 135.966439 
L 101.154207 132.603962 
L 101.342631 137.782611 
L 101.531055 138.854404 
L 101.719479 147.371045 
L 101.907903 143.219811 
L 102.284751 145.78893 
L 102.473175 151.885464 
L 102.661599 147.580113 
L 102.850023 146.97926 
L 103.038447 139.684313 
L 103.226871 125.237138 
L 103.415295 119.817318 
L 103.603719 136.173087 
L 103.792143 136.211729 
L 104.168991 149.292627 
L 104.357415 155.9058 
L 104.545839 140.185805 
L 104.922687 148.182166 
L 105.111111 157.78423 
L 105.299535 158.05824 
L 105.487959 151.81505 
L 106.053231 158.052258 
L 106.241655 154.390035 
L 106.430079 163.097517 
L 106.806927 170.743235 
L 106.995351 162.404488 
L 107.183775 163.963763 
L 107.372199 169.492506 
L 107.560623 179.932909 
L 107.749047 169.193767 
L 107.937471 174.779797 
L 108.125895 169.774918 
L 108.314319 170.49692 
L 108.691167 155.177312 
L 108.879591 141.916189 
L 109.068015 143.459672 
L 109.256439 142.592641 
L 109.444863 137.260142 
L 109.633287 138.129616 
L 109.821711 142.53822 
L 110.010135 137.790037 
L 110.198559 129.356787 
L 110.386983 126.302317 
L 110.575407 136.014423 
L 110.763831 134.680424 
L 110.952255 136.076333 
L 111.329103 154.721804 
L 111.517527 151.881729 
L 111.705951 159.061375 
L 111.894375 158.925961 
L 112.082799 152.245356 
L 112.271222 151.087988 
L 112.459646 145.635579 
L 112.64807 145.339323 
L 112.836494 161.450849 
L 113.024918 157.973731 
L 113.213342 151.436798 
L 113.401766 168.139553 
L 113.59019 168.027279 
L 113.778614 151.753617 
L 113.967038 152.169204 
L 114.155462 157.238115 
L 114.343886 150.893535 
L 114.53231 153.031983 
L 114.720734 161.347743 
L 114.909158 158.664268 
L 115.097582 158.261598 
L 115.286006 160.957055 
L 115.47443 154.694542 
L 115.662854 155.75808 
L 115.851278 160.231972 
L 116.039702 171.248311 
L 116.228126 169.443808 
L 116.41655 170.813699 
L 116.604974 176.208669 
L 116.793398 170.455702 
L 117.170246 154.102853 
L 117.35867 169.692874 
L 117.547094 159.006205 
L 117.735518 166.252115 
L 117.923942 163.928683 
L 118.112366 163.044946 
L 118.489214 139.418996 
L 118.677638 144.185989 
L 118.866062 143.346216 
L 119.054486 150.787635 
L 119.24291 152.83466 
L 119.431334 168.637136 
L 119.619758 172.285189 
L 119.808182 184.598722 
L 119.996606 183.29765 
L 120.18503 178.156706 
L 120.373454 176.403527 
L 120.561878 177.566609 
L 120.750302 176.844228 
L 120.938726 166.024129 
L 121.12715 171.036684 
L 121.692422 145.90896 
L 121.880846 152.356044 
L 122.06927 150.277754 
L 122.446118 156.849798 
L 122.634542 150.066867 
L 122.822966 147.460685 
L 123.199814 140.52833 
L 123.388238 136.034611 
L 123.576662 126.099556 
L 123.765086 123.31252 
L 123.95351 128.639647 
L 124.141934 126.222328 
L 124.330358 122.284981 
L 124.518782 122.100878 
L 124.707206 131.533328 
L 125.084054 126.135902 
L 125.649326 104.708745 
L 126.026174 100.945221 
L 126.214598 102.541092 
L 126.403022 121.109426 
L 126.591446 127.15257 
L 126.77987 122.725267 
L 126.968294 126.443801 
L 127.156718 136.654324 
L 127.345142 126.324034 
L 127.533566 130.909091 
L 127.72199 139.787294 
L 127.910414 133.551994 
L 128.287262 140.779959 
L 128.475686 137.033712 
L 128.66411 125.001976 
L 128.852534 133.330962 
L 129.040958 129.339782 
L 129.229382 129.890689 
L 129.417806 125.287468 
L 129.60623 132.728357 
L 129.794654 125.082201 
L 130.171502 135.000113 
L 130.925198 169.903212 
L 131.113622 166.076535 
L 131.302046 165.034393 
L 131.49047 155.191425 
L 131.867318 146.598356 
L 132.055742 148.040641 
L 132.244166 146.977968 
L 132.621014 140.922236 
L 132.809438 155.493222 
L 132.997862 153.890139 
L 133.186286 158.036496 
L 133.563134 179.082794 
L 133.751558 164.363429 
L 133.939982 164.906384 
L 134.31683 151.065527 
L 134.505254 149.441565 
L 134.693678 155.291325 
L 134.882102 156.641786 
L 135.25895 163.712447 
L 135.447374 164.424808 
L 135.635798 157.911959 
L 135.824222 162.996119 
L 136.012646 158.591598 
L 136.20107 158.198124 
L 136.389494 151.989836 
L 136.577918 153.999244 
L 136.766342 142.575061 
L 136.954766 141.979592 
L 137.14319 140.59344 
L 137.331614 152.787201 
L 137.520038 146.263873 
L 137.708462 150.377009 
L 137.896886 145.784508 
L 138.08531 144.408029 
L 138.273734 125.618488 
L 138.462158 132.714975 
L 138.839006 138.454668 
L 139.02743 141.745785 
L 139.215854 142.604056 
L 139.404278 133.115693 
L 139.781126 137.660811 
L 139.96955 131.624978 
L 140.346398 154.538005 
L 140.723246 137.119924 
L 140.91167 147.351044 
L 141.100094 147.586728 
L 141.288518 145.610702 
L 141.665366 159.862676 
L 141.85379 146.13137 
L 142.042214 141.259087 
L 142.230638 129.863057 
L 142.419062 127.10935 
L 142.607486 132.878703 
L 142.79591 127.815212 
L 142.984334 116.378058 
L 143.172758 125.575135 
L 143.361182 113.605192 
L 143.549606 119.668845 
L 143.926454 124.644518 
L 144.114878 122.986804 
L 144.303302 132.951225 
L 144.491726 117.578271 
L 144.68015 113.069035 
L 144.868574 118.129597 
L 145.056998 113.133909 
L 145.433846 92.239031 
L 145.62227 96.16071 
L 145.999118 98.846169 
L 146.375966 115.981459 
L 146.56439 115.266472 
L 146.752814 116.649388 
L 146.941238 124.74803 
L 147.129662 118.137299 
L 147.318086 119.769557 
L 147.50651 130.550367 
L 147.694934 124.130265 
L 147.883358 109.405822 
L 148.071782 119.053514 
L 148.260206 119.447955 
L 148.44863 115.150752 
L 148.637054 118.984619 
L 149.013902 140.223783 
L 149.202326 138.794287 
L 149.39075 139.252982 
L 149.579174 131.118721 
L 149.767598 138.775752 
L 149.956022 129.615489 
L 150.144446 127.321543 
L 150.33287 130.989601 
L 150.521294 143.784015 
L 150.709718 135.963572 
L 150.898142 145.562588 
L 151.27499 151.453732 
L 151.840262 136.698399 
L 152.028686 135.933364 
L 152.21711 137.760756 
L 152.405534 135.749931 
L 152.593958 135.374193 
L 152.782382 137.780106 
L 152.970806 131.440849 
L 153.15923 121.036275 
L 153.536078 123.883464 
L 153.724502 115.806022 
L 154.10135 135.513052 
L 154.289774 134.155227 
L 154.478198 125.7374 
L 154.666622 122.757049 
L 154.855046 123.701171 
L 155.420318 100.580507 
L 155.608742 110.572069 
L 155.797166 108.497248 
L 155.98559 109.817893 
L 156.174014 120.996621 
L 156.362438 123.437646 
L 156.550862 113.187443 
L 156.739286 117.172454 
L 156.92771 111.354636 
L 157.116134 109.18031 
L 157.304558 113.615075 
L 157.492982 126.50597 
L 157.681406 127.927839 
L 157.86983 127.320955 
L 158.058254 126.194531 
L 158.246678 127.687452 
L 158.435102 114.950661 
L 158.623526 114.41934 
L 159.000374 132.620268 
L 159.377222 145.792215 
L 159.565646 143.680584 
L 159.75407 134.20154 
L 159.942494 134.788611 
L 160.130918 139.01165 
L 160.319342 130.567613 
L 160.69619 155.731687 
L 160.884614 153.534513 
L 161.073038 135.828507 
L 161.261462 148.472222 
L 161.449886 138.582182 
L 161.63831 135.884198 
L 161.826733 129.376373 
L 162.015157 140.03882 
L 162.203581 142.221338 
L 162.392005 131.932552 
L 162.580429 133.681452 
L 162.768853 157.030602 
L 162.957277 154.909129 
L 163.145701 146.23764 
L 163.334125 152.185501 
L 163.522549 153.688077 
L 163.710973 140.005336 
L 163.899397 139.327943 
L 164.276245 152.946056 
L 164.464669 147.282627 
L 164.653093 147.485869 
L 164.841517 145.897718 
L 165.218365 148.815416 
L 165.406789 146.060519 
L 165.783637 133.300949 
L 165.972061 133.235206 
L 166.160485 126.26331 
L 166.348909 136.964537 
L 166.537333 135.35717 
L 166.725757 152.186187 
L 166.914181 152.930281 
L 167.102605 152.949194 
L 167.291029 149.71688 
L 167.479453 160.434765 
L 167.667877 148.902719 
L 168.233149 140.704097 
L 168.609997 134.277014 
L 168.798421 129.430879 
L 168.986845 137.038437 
L 169.363693 119.155077 
L 169.552117 122.227698 
L 169.740541 120.390183 
L 169.928965 105.970012 
L 170.305813 114.639588 
L 170.682661 127.981801 
L 170.871085 124.67872 
L 171.059509 129.765969 
L 171.247933 121.961904 
L 171.624781 116.411613 
L 171.813205 125.390547 
L 172.001629 123.38556 
L 172.190053 133.728501 
L 172.755325 105.164489 
L 172.943749 108.015115 
L 173.132173 99.295334 
L 173.697445 126.661901 
L 173.885869 114.635019 
L 174.074293 114.324369 
L 174.262717 108.535092 
L 174.639565 90.385042 
L 175.016413 88.057237 
L 175.204837 88.480883 
L 175.393261 88.42414 
L 175.581685 88.799583 
L 175.770109 87.4581 
L 176.146957 76.180032 
L 176.335381 79.234377 
L 176.523805 78.184341 
L 176.712229 81.25172 
L 176.900653 87.219964 
L 177.089077 98.239632 
L 177.277501 98.154031 
L 177.654349 113.205122 
L 177.842773 120.19713 
L 178.031197 105.69955 
L 178.219621 109.456477 
L 178.408045 91.913494 
L 178.784893 89.229782 
L 179.161741 74.923619 
L 179.350165 77.110212 
L 179.538589 74.852202 
L 179.727013 77.820509 
L 180.103861 86.524657 
L 180.292285 110.387856 
L 180.480709 110.543787 
L 180.669133 90.20726 
L 180.857557 86.126414 
L 181.045981 89.513919 
L 181.422829 53.568 
L 181.799677 79.908502 
L 181.988101 79.283886 
L 182.364949 111.381844 
L 182.553373 101.80639 
L 182.741797 108.126775 
L 183.118645 91.891072 
L 183.307069 95.702523 
L 183.495493 106.696458 
L 183.683917 105.585283 
L 183.872341 120.228217 
L 184.060765 123.795732 
L 184.249189 122.953347 
L 184.437613 115.984236 
L 184.626037 116.481359 
L 184.814461 116.402409 
L 185.002885 118.241822 
L 185.191309 122.295148 
L 185.379733 117.023267 
L 185.568157 114.98834 
L 185.756581 111.166789 
L 185.945005 113.530771 
L 186.133429 107.577985 
L 186.321853 125.017087 
L 186.698701 134.811438 
L 186.887125 124.744236 
L 187.075549 126.422294 
L 187.263973 121.525732 
L 187.640821 100.281366 
L 187.829245 106.15628 
L 188.017669 96.939216 
L 188.582941 118.794089 
L 188.771365 112.945501 
L 188.959789 112.964249 
L 189.336637 80.150409 
L 189.525061 80.335354 
L 189.713485 95.887423 
L 189.901909 102.022323 
L 190.090333 99.349243 
L 190.278757 109.463484 
L 190.467181 108.049816 
L 190.655605 101.017035 
L 190.844029 98.424528 
L 191.032453 104.132724 
L 191.409301 126.443962 
L 191.597725 115.839925 
L 191.786149 120.743785 
L 191.974573 120.899337 
L 192.351421 108.779606 
L 192.728269 136.551762 
L 193.105117 158.745412 
L 193.293541 154.607051 
L 193.670389 131.833761 
L 193.858813 130.379735 
L 194.235661 114.943529 
L 194.424085 120.074853 
L 194.612509 118.049879 
L 194.800933 102.472362 
L 194.989357 100.125208 
L 195.554629 115.349943 
L 195.743053 129.794301 
L 196.119901 139.080697 
L 196.496749 130.649706 
L 196.685173 118.748467 
L 196.873597 123.789451 
L 197.062021 125.193504 
L 197.250445 124.157718 
L 197.438869 120.167591 
L 197.627293 121.435151 
L 197.815717 104.446712 
L 198.004141 101.573077 
L 198.192565 92.401466 
L 198.380989 92.734046 
L 198.757837 106.520847 
L 198.946261 97.083009 
L 199.134685 108.347807 
L 199.323109 102.839876 
L 199.511533 101.231555 
L 199.888381 107.013429 
L 200.076805 105.566789 
L 200.265229 123.737656 
L 200.453653 123.24347 
L 200.642077 117.257186 
L 201.018925 128.676502 
L 201.207349 122.187848 
L 201.584197 117.73853 
L 201.961045 128.291689 
L 202.337893 124.32223 
L 202.526317 131.01196 
L 202.714741 125.518168 
L 202.903165 113.125168 
L 203.091589 112.634704 
L 203.280013 110.312364 
L 203.468437 111.655492 
L 203.656861 116.785693 
L 203.845285 114.176033 
L 204.033709 115.520517 
L 204.222133 119.452657 
L 204.410557 120.302732 
L 204.598981 118.330669 
L 204.787405 118.258404 
L 204.975829 115.613401 
L 205.164253 119.121655 
L 205.352677 117.828767 
L 205.541101 109.777771 
L 205.729525 113.940764 
L 205.917949 112.553993 
L 206.106373 110.128199 
L 206.483221 133.043023 
L 206.671645 133.410242 
L 206.860069 140.338299 
L 207.048493 134.920396 
L 207.236917 118.754534 
L 207.425341 116.742857 
L 207.613765 126.674221 
L 207.802189 112.48989 
L 208.179037 125.514219 
L 208.367461 124.379575 
L 208.555885 104.301831 
L 208.744309 110.700079 
L 208.932733 105.853725 
L 209.121157 97.68372 
L 209.309581 98.001055 
L 209.498005 105.528317 
L 209.686429 103.019637 
L 209.874853 102.027048 
L 210.063277 108.01191 
L 210.440125 112.258489 
L 210.628549 109.611869 
L 210.816973 111.939009 
L 211.005397 108.951785 
L 211.193821 93.503708 
L 211.382244 89.427056 
L 211.570668 91.038163 
L 211.947516 74.151698 
L 212.13594 80.118507 
L 212.324364 78.06727 
L 212.512788 72.682481 
L 212.701212 72.870925 
L 212.889636 85.995574 
L 213.07806 81.728272 
L 213.266484 87.948943 
L 213.454908 84.564308 
L 213.643332 93.433534 
L 213.831756 79.53128 
L 214.02018 82.809399 
L 214.208604 70.234048 
L 214.397028 78.026217 
L 214.585452 62.781155 
L 214.773876 83.880368 
L 214.9623 90.279877 
L 215.150724 92.315183 
L 215.527572 106.92321 
L 216.281268 74.290196 
L 216.469692 90.645304 
L 216.658116 88.523403 
L 216.84654 104.8006 
L 217.034964 109.542533 
L 217.223388 121.183982 
L 217.600236 105.860625 
L 217.78866 87.098864 
L 217.977084 96.706023 
L 218.165508 90.930716 
L 218.353932 90.441304 
L 218.542356 96.603163 
L 218.73078 107.170652 
L 218.919204 105.789729 
L 219.107628 110.97473 
L 219.296052 124.708505 
L 219.484476 120.488363 
L 219.6729 128.064879 
L 219.861324 127.345386 
L 220.049748 121.441245 
L 220.238172 120.954503 
L 220.426596 127.303615 
L 220.61502 117.789693 
L 220.991868 129.920692 
L 221.180292 122.064942 
L 221.55714 138.54433 
L 221.745564 129.421193 
L 221.933988 135.074825 
L 222.122412 134.241149 
L 222.310836 121.56337 
L 222.49926 124.457706 
L 222.687684 124.539835 
L 222.876108 108.420731 
L 223.064532 119.789183 
L 223.252956 123.44484 
L 223.44138 117.379316 
L 223.629804 104.191821 
L 223.818228 113.317931 
L 224.006652 102.659777 
L 224.3835 94.350645 
L 224.760348 118.032246 
L 224.948772 102.944248 
L 225.137196 111.242744 
L 225.32562 111.029838 
L 225.514044 102.046964 
L 225.890892 105.73726 
L 226.079316 96.981036 
L 226.26774 99.991332 
L 226.456164 100.594695 
L 226.644588 83.625303 
L 226.833012 94.548788 
L 227.021436 96.302712 
L 227.586708 118.467379 
L 227.775132 120.342185 
L 228.15198 105.456355 
L 228.528828 84.250939 
L 228.717252 81.108608 
L 228.905676 83.370148 
L 229.0941 78.603004 
L 229.470948 87.474209 
L 230.03622 69.998623 
L 230.413068 84.582267 
L 230.601492 82.720437 
L 230.789916 84.547722 
L 230.97834 91.508252 
L 231.166764 84.200534 
L 231.355188 69.138055 
L 231.543612 80.126503 
L 231.732036 78.81123 
L 231.92046 84.401397 
L 232.108884 82.840588 
L 232.297308 87.987393 
L 232.485732 87.179169 
L 232.674156 98.412992 
L 232.86258 97.089352 
L 233.239428 114.40303 
L 233.427852 107.714945 
L 233.616276 109.547721 
L 233.993124 99.946499 
L 234.181548 88.36235 
L 234.369972 96.970904 
L 234.558396 83.909965 
L 234.74682 87.926299 
L 234.935244 89.106261 
L 235.500516 131.803905 
L 235.877364 118.84543 
L 236.065788 121.436154 
L 236.442636 97.566965 
L 236.63106 115.491423 
L 236.819484 117.240221 
L 237.007908 116.937733 
L 237.196332 121.502767 
L 237.384756 128.960438 
L 237.57318 116.852207 
L 237.950028 123.904993 
L 238.138452 124.982261 
L 238.326876 119.972813 
L 238.5153 120.375732 
L 238.703724 123.339867 
L 238.892148 112.48681 
L 239.080572 111.860683 
L 239.268996 113.508813 
L 239.45742 122.188535 
L 239.834268 125.346877 
L 240.022692 130.756418 
L 240.211116 114.872686 
L 240.39954 113.861033 
L 240.587964 109.02877 
L 240.776388 118.087099 
L 240.964812 110.475837 
L 241.153236 123.903344 
L 241.34166 124.889242 
L 241.530084 122.439169 
L 241.718508 107.08325 
L 241.906932 124.207214 
L 242.28378 87.133471 
L 242.472204 90.752043 
L 242.660628 98.409337 
L 242.849052 87.034569 
L 243.414324 129.18201 
L 243.602748 131.551684 
L 243.791172 131.944248 
L 243.979596 124.5439 
L 244.16802 123.301867 
L 244.356444 113.399142 
L 244.544868 113.418821 
L 244.733292 110.660661 
L 244.921716 118.732014 
L 245.11014 118.143317 
L 245.298564 117.15987 
L 245.486988 107.949069 
L 245.675412 115.935248 
L 245.863836 110.383434 
L 246.05226 113.035114 
L 246.429108 98.252002 
L 246.617532 76.765369 
L 247.559652 119.21737 
L 247.748076 116.94954 
L 248.124924 87.078555 
L 248.313348 88.066829 
L 248.501772 107.686145 
L 248.690196 103.186065 
L 248.87862 103.328446 
L 249.067044 109.387792 
L 249.255468 107.953584 
L 249.443892 104.72727 
L 249.632316 105.313043 
L 249.82074 129.068545 
L 250.009164 129.382016 
L 250.197588 141.62669 
L 250.386012 135.641044 
L 250.574436 140.201036 
L 250.76286 127.734323 
L 250.951284 124.41285 
L 251.139708 110.875957 
L 251.328132 110.874072 
L 251.516556 114.669818 
L 251.70498 114.262263 
L 251.893404 106.603698 
L 252.081828 117.697379 
L 252.270252 113.324038 
L 252.6471 98.880598 
L 253.212372 120.634911 
L 253.400796 122.949179 
L 253.777644 138.433138 
L 253.966068 136.160655 
L 254.154492 142.720307 
L 254.342916 142.928555 
L 255.096612 115.303184 
L 255.285036 112.252886 
L 255.661884 125.25434 
L 255.850308 129.333461 
L 256.038732 129.828244 
L 256.227156 128.646855 
L 256.41558 125.902148 
L 256.604004 118.365169 
L 256.792428 100.615881 
L 256.980852 97.164478 
L 257.3577 110.407754 
L 257.546124 106.021197 
L 257.922972 128.432081 
L 258.111396 135.783549 
L 258.29982 124.409276 
L 258.676668 131.336851 
L 259.24194 109.649699 
L 259.430364 111.675243 
L 259.618788 103.259658 
L 259.807212 112.043697 
L 259.995636 107.117814 
L 260.18406 124.405736 
L 260.372484 119.150744 
L 260.560908 120.040152 
L 260.749332 118.435361 
L 260.937756 124.281003 
L 261.126179 116.60895 
L 261.314603 123.225314 
L 261.503027 123.836915 
L 261.691451 118.301695 
L 261.879875 118.994532 
L 262.068299 113.420765 
L 262.256723 116.100442 
L 262.445147 108.92648 
L 262.633571 109.761296 
L 262.821995 99.494592 
L 263.010419 110.752111 
L 263.198843 106.105322 
L 263.387267 119.120344 
L 263.575691 121.826512 
L 263.764115 121.366841 
L 263.952539 123.449494 
L 264.140963 129.163569 
L 264.329387 127.196043 
L 264.517811 119.458608 
L 264.706235 125.006211 
L 265.271507 111.894149 
L 265.459931 111.388735 
L 265.648355 108.640466 
L 266.025203 97.232352 
L 266.213627 108.444984 
L 266.402051 108.732874 
L 266.778899 123.924103 
L 266.967323 122.93689 
L 267.155747 113.34534 
L 267.344171 112.293895 
L 267.532595 108.71183 
L 267.721019 108.145349 
L 267.909443 118.019217 
L 268.097867 112.306412 
L 268.286291 121.164855 
L 268.474715 112.627777 
L 268.663139 110.806019 
L 268.851563 113.152354 
L 269.039987 133.500684 
L 269.228411 129.95986 
L 269.605259 150.260072 
L 269.793683 150.128117 
L 270.170531 138.656297 
L 270.358955 135.830727 
L 270.735803 117.193199 
L 270.924227 102.626738 
L 271.112651 104.963779 
L 271.301075 101.967046 
L 271.677923 78.17794 
L 271.866347 85.944344 
L 272.054771 85.159215 
L 272.243195 85.828548 
L 272.431619 90.724059 
L 272.620043 102.530523 
L 272.808467 98.080652 
L 272.996891 98.066273 
L 273.185315 94.885113 
L 273.562163 102.057635 
L 273.750587 107.732619 
L 273.939011 107.547598 
L 274.127435 120.9383 
L 274.315859 118.274768 
L 274.692707 102.795636 
L 274.881131 105.670341 
L 275.069555 93.266094 
L 275.257979 95.929626 
L 275.446403 95.670006 
L 275.823251 114.15914 
L 276.011675 116.344118 
L 276.200099 131.958334 
L 276.388523 134.593432 
L 276.576947 130.24438 
L 276.765371 116.821981 
L 276.953795 125.512824 
L 277.142219 111.265415 
L 277.330643 109.247979 
L 277.519067 104.496543 
L 277.707491 122.218934 
L 277.895915 113.892151 
L 278.272763 124.199525 
L 278.461187 127.450997 
L 278.649611 124.780034 
L 278.838035 135.220548 
L 279.026459 124.977496 
L 279.214883 121.945843 
L 279.403307 124.870351 
L 279.591731 102.128331 
L 279.780155 95.36725 
L 280.345427 101.238874 
L 280.533851 111.226354 
L 280.910699 108.576894 
L 281.099123 112.276747 
L 281.287547 106.881693 
L 281.664395 114.388499 
L 282.041243 99.664167 
L 282.229667 106.253814 
L 282.418091 105.89033 
L 282.606515 104.13362 
L 282.794939 115.727036 
L 282.983363 118.07789 
L 283.171787 112.242652 
L 283.548635 118.493081 
L 283.737059 107.854802 
L 283.925483 90.522153 
L 284.113907 96.386895 
L 284.302331 95.417762 
L 284.490755 91.317223 
L 284.867603 115.363748 
L 285.056027 115.171109 
L 285.244451 117.142745 
L 285.432875 124.214863 
L 285.621299 123.901374 
L 285.809723 116.344622 
L 285.998147 117.08301 
L 286.186571 115.9119 
L 286.374995 116.163275 
L 286.563419 117.780225 
L 286.751843 132.246389 
L 286.940267 134.607272 
L 287.128691 144.499006 
L 287.317115 138.013806 
L 287.505539 143.122099 
L 287.693963 137.435869 
L 288.070811 114.843343 
L 288.447659 108.35444 
L 288.636083 110.883807 
L 288.824507 116.933453 
L 289.012931 98.8547 
L 289.201355 115.492011 
L 289.389779 114.496129 
L 289.578203 114.813514 
L 289.766627 121.204937 
L 289.955051 135.209307 
L 290.143475 111.427105 
L 290.331899 117.908801 
L 290.520323 106.544356 
L 290.708747 104.410487 
L 291.085595 121.50541 
L 291.274019 109.396306 
L 291.462443 123.663466 
L 291.650867 125.377482 
L 291.839291 118.0143 
L 292.027715 123.040053 
L 292.404563 110.259949 
L 292.969835 83.825666 
L 293.158259 100.119854 
L 293.346683 95.218183 
L 293.535107 96.622268 
L 293.911955 107.776658 
L 294.100379 86.089016 
L 294.288803 91.660171 
L 294.665651 79.883999 
L 294.854075 83.782009 
L 295.230923 100.811863 
L 295.419347 104.031829 
L 295.607771 104.818233 
L 295.796195 99.749345 
L 295.984619 103.934059 
L 296.173043 104.746691 
L 296.738315 117.761383 
L 296.926739 114.314264 
L 297.115163 97.28787 
L 297.303587 101.504508 
L 297.492011 99.700126 
L 297.680435 90.263522 
L 297.868859 90.855411 
L 298.057283 104.190841 
L 298.245707 107.266782 
L 298.434131 114.241576 
L 298.622555 112.16544 
L 298.810979 120.987466 
L 299.187827 117.948704 
L 299.376251 107.943796 
L 299.564675 116.905403 
L 299.753099 110.558113 
L 299.941523 120.171518 
L 300.129947 114.884209 
L 300.318371 114.202965 
L 300.695219 98.958288 
L 300.883643 94.517791 
L 301.072067 97.548382 
L 301.448915 90.394077 
L 301.637339 92.376393 
L 301.825763 88.287715 
L 302.014187 78.05901 
L 302.202611 84.968716 
L 302.391035 83.051239 
L 302.767883 68.084979 
L 303.710003 101.146725 
L 304.086851 90.878626 
L 304.463699 98.693501 
L 304.652123 95.938528 
L 304.840547 106.843786 
L 305.028971 107.172747 
L 305.594243 115.78714 
L 305.782667 114.893423 
L 305.971091 104.135229 
L 306.159515 104.076284 
L 306.347939 107.436099 
L 306.536363 106.36345 
L 306.724787 100.023399 
L 306.913211 121.530465 
L 307.290059 103.603601 
L 307.478483 104.24404 
L 307.666907 106.771941 
L 307.855331 96.368433 
L 308.043755 100.824147 
L 308.232179 116.087359 
L 308.420603 121.598705 
L 308.609027 120.300753 
L 308.797451 128.96617 
L 308.985875 126.161448 
L 309.174299 111.327953 
L 309.362723 113.828783 
L 309.551147 114.698212 
L 309.739571 107.757736 
L 309.927995 105.553662 
L 310.116419 114.296786 
L 310.304843 102.699827 
L 310.68169 109.673805 
L 311.058538 103.597057 
L 311.246962 96.082927 
L 311.435386 95.063291 
L 311.62381 90.425252 
L 311.812234 91.962954 
L 312.189082 112.788344 
L 312.377506 108.868987 
L 312.56593 107.396615 
L 312.754354 110.633859 
L 313.131202 97.96097 
L 313.319626 101.056733 
L 313.50805 115.153832 
L 313.696474 106.467879 
L 313.884898 109.644319 
L 314.073322 115.11688 
L 314.261746 112.56293 
L 314.45017 97.424353 
L 314.638594 104.247397 
L 315.015442 99.745182 
L 315.203866 102.81088 
L 315.580714 124.041998 
L 315.769138 117.961002 
L 316.145986 125.562516 
L 316.33441 116.774754 
L 316.522834 100.360072 
L 316.711258 104.253842 
L 317.27653 96.580274 
L 317.653378 107.289836 
L 318.030226 97.878484 
L 318.21865 102.970872 
L 318.407074 103.976521 
L 318.595498 101.050827 
L 318.783922 109.572153 
L 318.972346 109.965742 
L 319.16077 109.519372 
L 319.349194 104.907837 
L 319.537618 103.736085 
L 319.726042 98.187962 
L 319.914466 97.596006 
L 320.856586 137.414768 
L 321.04501 130.73829 
L 321.233434 128.740181 
L 321.798706 79.438351 
L 322.175554 90.859258 
L 322.363978 93.647457 
L 322.740826 116.084257 
L 322.92925 111.980798 
L 323.117674 104.443311 
L 323.306098 110.655718 
L 323.494522 113.118919 
L 324.059794 128.573352 
L 324.248218 126.375607 
L 324.436642 117.67761 
L 324.81349 114.729909 
L 325.001914 97.293419 
L 325.75561 83.096879 
L 325.944034 108.001208 
L 326.132458 114.484428 
L 326.320882 116.7213 
L 326.69773 124.199841 
L 326.886154 118.084269 
L 327.074578 121.563437 
L 327.263002 127.987106 
L 327.451426 125.286291 
L 328.016698 106.487176 
L 328.393546 91.052396 
L 328.58197 91.176518 
L 328.770394 97.603093 
L 328.958818 110.007919 
L 329.147242 101.623059 
L 329.335666 104.011842 
L 329.52409 103.648416 
L 329.712514 101.823739 
L 329.900938 87.630381 
L 330.089362 105.959033 
L 330.654634 123.450715 
L 330.843058 136.28196 
L 331.031482 123.056154 
L 331.219906 124.230161 
L 331.40833 112.955548 
L 331.596754 113.092548 
L 331.785178 99.887072 
L 332.162026 97.61355 
L 332.35045 103.914674 
L 332.538874 99.925188 
L 333.29257 132.52502 
L 333.480994 125.725984 
L 333.669418 123.319438 
L 334.23469 99.765963 
L 334.423114 109.409705 
L 334.611538 103.712323 
L 334.799962 109.056165 
L 334.988386 103.723694 
L 335.17681 104.952002 
L 335.365234 90.576802 
L 335.553658 93.881273 
L 335.742082 101.132341 
L 335.930506 97.587532 
L 336.11893 96.180943 
L 336.495778 124.955079 
L 336.684202 122.046894 
L 337.06105 131.983826 
L 337.249474 125.408546 
L 337.626322 107.732307 
L 337.814746 111.38972 
L 338.00317 107.828958 
L 338.191594 108.18264 
L 338.380018 100.969354 
L 338.568442 103.911411 
L 338.756866 97.022847 
L 339.133714 105.893905 
L 339.322138 104.791163 
L 339.510562 110.962588 
L 339.88741 132.412621 
L 340.075834 130.392444 
L 340.264258 140.778189 
L 340.452682 133.956549 
L 340.82953 105.690903 
L 341.017954 110.983386 
L 341.206378 111.812466 
L 341.394802 102.996757 
L 341.77165 109.037114 
L 341.960074 111.139679 
L 342.148498 92.291852 
L 342.336922 99.909841 
L 342.525346 99.36763 
L 342.71377 100.415054 
L 342.902194 105.20881 
L 343.090618 113.88312 
L 343.279042 112.817973 
L 343.65589 104.930588 
L 343.844314 101.625069 
L 344.032738 112.737903 
L 344.221162 104.698755 
L 344.409586 115.384274 
L 344.59801 115.386467 
L 344.786434 115.732175 
L 344.974858 111.561261 
L 345.163282 115.388817 
L 345.54013 105.114223 
L 345.728554 88.757839 
L 345.916978 89.790438 
L 346.105402 95.06511 
L 346.293826 87.87264 
L 346.670674 101.630294 
L 346.859098 87.229204 
L 347.047522 87.426528 
L 347.235946 83.402559 
L 347.42437 85.877598 
L 347.612794 91.640184 
L 347.989642 122.736206 
L 348.178066 125.348673 
L 348.36649 113.628844 
L 348.554914 114.623871 
L 348.743338 110.475877 
L 348.931762 101.185955 
L 349.30861 106.953712 
L 349.685458 92.00213 
L 349.873882 84.825903 
L 350.062306 91.872458 
L 350.439154 113.961478 
L 350.816002 132.03219 
L 351.004426 132.528684 
L 351.19285 132.503099 
L 351.569698 122.443823 
L 351.946546 113.10087 
L 352.13497 103.22583 
L 352.323394 108.421912 
L 352.511818 96.381752 
L 352.700242 102.098782 
L 352.888666 102.378992 
L 353.265514 94.30319 
L 353.453938 94.359586 
L 353.642362 82.704328 
L 353.830786 80.443474 
L 354.01921 91.458154 
L 354.207634 92.760867 
L 354.396058 92.444512 
L 354.584482 96.578348 
L 354.772906 104.129136 
L 355.149754 98.879408 
L 355.338178 98.974593 
L 355.526602 98.494167 
L 355.715026 88.896395 
L 355.90345 85.966435 
L 356.280298 75.540074 
L 356.657146 92.338745 
L 356.84557 86.230429 
L 357.410842 108.534882 
L 357.599266 96.329751 
L 357.78769 94.344128 
L 357.976114 85.958176 
L 358.164538 83.014206 
L 358.352962 72.699509 
L 358.541386 76.484691 
L 358.918234 105.943236 
L 359.483506 119.138981 
L 359.860354 105.257655 
L 360.237201 120.898156 
L 360.425625 122.529883 
L 360.614049 116.481007 
L 360.802473 121.7166 
L 361.179321 98.105677 
L 361.367745 93.161816 
L 361.556169 109.543282 
L 361.744593 111.975333 
L 362.121441 140.775947 
L 362.309865 142.009747 
L 362.498289 122.3579 
L 362.686713 121.694883 
L 362.875137 108.97549 
L 363.063561 105.487228 
L 363.251985 107.631969 
L 363.440409 113.156705 
L 363.628833 107.527704 
L 364.005681 118.403062 
L 364.194105 106.425391 
L 364.382529 106.848716 
L 364.570953 108.222775 
L 364.759377 106.56597 
L 364.947801 103.89712 
L 365.136225 116.289764 
L 365.324649 120.243617 
L 365.513073 118.635666 
L 365.701497 114.277775 
L 365.889921 115.327375 
L 366.078345 118.134986 
L 366.266769 117.683797 
L 366.455193 119.375699 
L 366.643617 116.854244 
L 366.832041 110.871535 
L 367.020465 109.47962 
L 367.208889 101.456479 
L 367.397313 104.607859 
L 367.585737 111.868519 
L 367.774161 111.824078 
L 367.962585 107.622738 
L 368.151009 108.562345 
L 368.339433 99.002697 
L 368.527857 97.899113 
L 368.716281 92.991951 
L 368.904705 97.391002 
L 369.281553 114.128495 
L 369.469977 111.484375 
L 369.658401 116.397305 
L 370.035249 102.036346 
L 370.223673 107.637024 
L 370.412097 106.414372 
L 370.788945 114.439956 
L 370.977369 111.474635 
L 371.165793 111.941158 
L 371.354217 110.131921 
L 371.542641 106.63026 
L 371.731065 98.078134 
L 371.919489 95.999377 
L 372.107913 88.960257 
L 372.296337 87.31547 
L 372.673185 69.562745 
L 372.861609 72.381673 
L 373.238457 68.324309 
L 373.615305 105.851568 
L 373.992153 112.817656 
L 374.180577 112.977189 
L 374.369001 102.675529 
L 374.557425 101.497786 
L 374.745849 104.153197 
L 374.934273 97.691649 
L 375.122697 107.230882 
L 375.499545 80.702734 
L 375.687969 81.236448 
L 375.876393 89.781113 
L 376.064817 90.489017 
L 376.441665 114.038761 
L 376.630089 115.75502 
L 376.818513 105.480198 
L 377.195361 101.361419 
L 377.383785 109.364212 
L 377.572209 106.092899 
L 378.137481 116.501775 
L 378.514329 109.21815 
L 378.702753 116.843248 
L 378.891177 116.347693 
L 379.079601 116.883392 
L 379.268025 120.801353 
L 379.456449 129.556624 
L 379.644873 122.984424 
L 380.021721 102.909029 
L 380.210145 102.134741 
L 380.398569 99.238239 
L 380.586993 88.671173 
L 380.775417 95.065471 
L 380.963841 93.606203 
L 381.152265 94.12606 
L 381.340689 104.508119 
L 381.529113 122.19613 
L 381.717537 117.456506 
L 381.905961 135.315943 
L 382.471233 103.864777 
L 382.659657 104.960511 
L 382.848081 94.26606 
L 383.036505 98.301217 
L 383.413353 108.618402 
L 383.601777 111.040794 
L 383.790201 104.191959 
L 383.978625 113.207422 
L 384.167049 107.136481 
L 384.355473 106.824535 
L 384.543897 104.028598 
L 385.486017 126.598088 
L 385.674441 119.627635 
L 386.051289 94.417698 
L 386.239713 93.078595 
L 386.428137 90.447816 
L 386.616561 103.254813 
L 386.804985 106.017274 
L 386.993409 119.761038 
L 387.181833 115.219179 
L 387.370257 103.682872 
L 387.558681 100.125141 
L 387.747105 100.67505 
L 387.935529 87.51508 
L 388.123953 89.912622 
L 388.312377 96.933568 
L 388.500801 97.051152 
L 388.877649 114.484602 
L 389.066073 115.863715 
L 389.254497 118.181812 
L 389.442921 118.721031 
L 389.631345 107.586525 
L 389.819769 105.090923 
L 390.196617 88.328928 
L 390.573465 98.047886 
L 390.761889 99.084478 
L 391.138737 107.814186 
L 391.327161 92.311969 
L 391.515585 90.613603 
L 391.704009 81.260224 
L 391.892433 82.114859 
L 392.080857 74.465374 
L 392.269281 89.856845 
L 392.457705 92.011959 
L 392.646129 105.395622 
L 392.834553 99.829018 
L 393.022977 118.355483 
L 393.211401 116.422873 
L 393.399825 119.103384 
L 393.588249 119.479059 
L 393.776673 126.658812 
L 393.965097 125.241551 
L 394.530369 109.502291 
L 394.718793 95.051742 
L 395.095641 103.890666 
L 395.284065 94.490966 
L 395.472489 93.397094 
L 395.849337 102.373335 
L 396.037761 101.797203 
L 396.226185 108.011152 
L 396.414609 108.32527 
L 396.603033 110.327332 
L 396.979881 98.878829 
L 397.168305 97.941165 
L 397.356729 106.339656 
L 397.545153 108.8248 
L 397.733577 105.090384 
L 397.922001 107.515812 
L 398.110425 118.930042 
L 398.487273 104.959303 
L 398.487273 104.959303 
" clip-path="url(#p3ed8eb8267)" style="fill: none; stroke: #ff7f0e; stroke-opacity: 0.7; stroke-linecap: square"/>
   </g>
   <g id="patch_3">
    <path d="M 57.6 307.584 
L 57.6 41.472 
" style="fill: none; stroke: #000000; stroke-width: 0.8; stroke-linejoin: miter; stroke-linecap: square"/>
   </g>
   <g id="patch_4">
    <path d="M 414.72 307.584 
L 414.72 41.472 
" style="fill: none; stroke: #000000; stroke-width: 0.8; stroke-linejoin: miter; stroke-linecap: square"/>
   </g>
   <g id="patch_5">
    <path d="M 57.6 307.584 
L 414.72 307.584 
" style="fill: none; stroke: #000000; stroke-width: 0.8; stroke-linejoin: miter; stroke-linecap: square"/>
   </g>
   <g id="patch_6">
    <path d="M 57.6 41.472 
L 414.72 41.472 
" style="fill: none; stroke: #000000; stroke-width: 0.8; stroke-linejoin: miter; stroke-linecap: square"/>
   </g>
  </g>
  <g id="axes_2">
   <g id="matplotlib.axis_3">
    <g id="ytick_8">
     <g id="line2d_17">
      <defs>
       <path id="mb50279e8b5" d="M 0 0 
L 3.5 0 
" style="stroke: #000000; stroke-width: 0.8"/>
      </defs>
      <g>
       <use xlink:href="#mb50279e8b5" x="414.72" y="267.706185" style="stroke: #000000; stroke-width: 0.8"/>
      </g>
     </g>
     <g id="text_18">
      <!-- 1.0 -->
      <g style="fill: #17becf" transform="translate(421.72 271.70306) scale(0.1 -0.1)">
       <use xlink:href="#MicrosoftYaHei-31"/>
       <use xlink:href="#MicrosoftYaHei-2e" x="58.642578"/>
       <use xlink:href="#MicrosoftYaHei-30" x="82.714844"/>
      </g>
     </g>
    </g>
    <g id="ytick_9">
     <g id="line2d_18">
      <g>
       <use xlink:href="#mb50279e8b5" x="414.72" y="226.28352" style="stroke: #000000; stroke-width: 0.8"/>
      </g>
     </g>
     <g id="text_19">
      <!-- 1.5 -->
      <g style="fill: #17becf" transform="translate(421.72 230.280395) scale(0.1 -0.1)">
       <use xlink:href="#MicrosoftYaHei-31"/>
       <use xlink:href="#MicrosoftYaHei-2e" x="58.642578"/>
       <use xlink:href="#MicrosoftYaHei-35" x="82.714844"/>
      </g>
     </g>
    </g>
    <g id="ytick_10">
     <g id="line2d_19">
      <g>
       <use xlink:href="#mb50279e8b5" x="414.72" y="184.860856" style="stroke: #000000; stroke-width: 0.8"/>
      </g>
     </g>
     <g id="text_20">
      <!-- 2.0 -->
      <g style="fill: #17becf" transform="translate(421.72 188.857731) scale(0.1 -0.1)">
       <use xlink:href="#MicrosoftYaHei-32"/>
       <use xlink:href="#MicrosoftYaHei-2e" x="58.642578"/>
       <use xlink:href="#MicrosoftYaHei-30" x="82.714844"/>
      </g>
     </g>
    </g>
    <g id="ytick_11">
     <g id="line2d_20">
      <g>
       <use xlink:href="#mb50279e8b5" x="414.72" y="143.438191" style="stroke: #000000; stroke-width: 0.8"/>
      </g>
     </g>
     <g id="text_21">
      <!-- 2.5 -->
      <g style="fill: #17becf" transform="translate(421.72 147.435066) scale(0.1 -0.1)">
       <use xlink:href="#MicrosoftYaHei-32"/>
       <use xlink:href="#MicrosoftYaHei-2e" x="58.642578"/>
       <use xlink:href="#MicrosoftYaHei-35" x="82.714844"/>
      </g>
     </g>
    </g>
    <g id="ytick_12">
     <g id="line2d_21">
      <g>
       <use xlink:href="#mb50279e8b5" x="414.72" y="102.015526" style="stroke: #000000; stroke-width: 0.8"/>
      </g>
     </g>
     <g id="text_22">
      <!-- 3.0 -->
      <g style="fill: #17becf" transform="translate(421.72 106.012401) scale(0.1 -0.1)">
       <use xlink:href="#MicrosoftYaHei-33"/>
       <use xlink:href="#MicrosoftYaHei-2e" x="58.642578"/>
       <use xlink:href="#MicrosoftYaHei-30" x="82.714844"/>
      </g>
     </g>
    </g>
    <g id="ytick_13">
     <g id="line2d_22">
      <g>
       <use xlink:href="#mb50279e8b5" x="414.72" y="60.592862" style="stroke: #000000; stroke-width: 0.8"/>
      </g>
     </g>
     <g id="text_23">
      <!-- 3.5 -->
      <g style="fill: #17becf" transform="translate(421.72 64.589737) scale(0.1 -0.1)">
       <use xlink:href="#MicrosoftYaHei-33"/>
       <use xlink:href="#MicrosoftYaHei-2e" x="58.642578"/>
       <use xlink:href="#MicrosoftYaHei-35" x="82.714844"/>
      </g>
     </g>
    </g>
    <g id="text_24">
     <!-- Score RMSE -->
     <g style="fill: #17becf" transform="translate(447.849688 203.041281) rotate(-90) scale(0.1 -0.1)">
      <defs>
       <path id="MicrosoftYaHei-53" d="M 400 909 
Q 622 716 994 591 
Q 1366 466 1700 466 
Q 2719 466 2719 1191 
Q 2719 1394 2609 1556 
Q 2500 1719 2309 1844 
Q 2119 1969 1594 2228 
Q 866 2591 634 2902 
Q 403 3213 403 3613 
Q 403 4216 887 4569 
Q 1372 4922 2109 4922 
Q 2831 4922 3169 4747 
L 3169 4066 
Q 2731 4369 2063 4369 
Q 1619 4369 1339 4183 
Q 1059 3997 1059 3666 
Q 1059 3372 1253 3187 
Q 1447 3003 2094 2684 
Q 2806 2344 3090 2003 
Q 3375 1663 3375 1238 
Q 3375 600 2912 259 
Q 2450 -81 1628 -81 
Q 1341 -81 958 -1 
Q 575 78 400 197 
L 400 909 
z
" transform="scale(0.015625)"/>
       <path id="MicrosoftYaHei-6f" d="M 316 1691 
Q 316 2547 794 3042 
Q 1272 3538 2091 3538 
Q 2869 3538 3311 3061 
Q 3753 2584 3753 1744 
Q 3753 925 3281 422 
Q 2809 -81 2016 -81 
Q 1241 -81 778 406 
Q 316 894 316 1691 
z
M 941 1709 
Q 941 1113 1242 769 
Q 1544 425 2053 425 
Q 2578 425 2853 761 
Q 3128 1097 3128 1725 
Q 3128 2356 2853 2693 
Q 2578 3031 2053 3031 
Q 1538 3031 1239 2678 
Q 941 2325 941 1709 
z
" transform="scale(0.015625)"/>
       <path id="MicrosoftYaHei-52" d="M 4159 0 
L 3422 0 
L 2619 1344 
Q 2378 1747 2178 1892 
Q 1978 2038 1700 2038 
L 1250 2038 
L 1250 0 
L 625 0 
L 625 4841 
L 2100 4841 
Q 2806 4841 3206 4500 
Q 3606 4159 3606 3547 
Q 3606 2541 2531 2241 
L 2531 2225 
Q 2731 2141 2876 1984 
Q 3022 1828 3253 1450 
L 4159 0 
z
M 1250 4294 
L 1250 2584 
L 1988 2584 
Q 2416 2584 2683 2834 
Q 2950 3084 2950 3491 
Q 2950 3869 2706 4081 
Q 2463 4294 1997 4294 
L 1250 4294 
z
" transform="scale(0.015625)"/>
       <path id="MicrosoftYaHei-4d" d="M 5003 0 
L 5003 3206 
Q 5003 3603 5050 4159 
L 5034 4159 
Q 4953 3809 4891 3672 
L 3294 0 
L 2947 0 
L 1353 3644 
Q 1297 3769 1209 4159 
L 1191 4159 
Q 1222 3822 1222 3178 
L 1222 0 
L 625 0 
L 625 4841 
L 1472 4841 
L 2900 1522 
Q 3063 1141 3116 928 
L 3138 928 
Q 3300 1375 3366 1534 
L 4819 4841 
L 5625 4841 
L 5625 0 
L 5003 0 
z
" transform="scale(0.015625)"/>
       <path id="MicrosoftYaHei-45" d="M 3228 0 
L 625 0 
L 625 4841 
L 3119 4841 
L 3119 4284 
L 1250 4284 
L 1250 2734 
L 2981 2734 
L 2981 2181 
L 1250 2181 
L 1250 553 
L 3228 553 
L 3228 0 
z
" transform="scale(0.015625)"/>
      </defs>
      <use xlink:href="#MicrosoftYaHei-53"/>
      <use xlink:href="#MicrosoftYaHei-63" x="57.714844"/>
      <use xlink:href="#MicrosoftYaHei-6f" x="107.861328"/>
      <use xlink:href="#MicrosoftYaHei-72" x="171.435547"/>
      <use xlink:href="#MicrosoftYaHei-65" x="208.244141"/>
      <use xlink:href="#MicrosoftYaHei-20" x="264.982422"/>
      <use xlink:href="#MicrosoftYaHei-52" x="294.572266"/>
      <use xlink:href="#MicrosoftYaHei-4d" x="359.855469"/>
      <use xlink:href="#MicrosoftYaHei-53" x="457.560547"/>
      <use xlink:href="#MicrosoftYaHei-45" x="515.275391"/>
     </g>
    </g>
   </g>
   <g id="line2d_23">
    <path d="M 73.832727 53.568 
L 74.397999 174.573087 
L 74.774847 228.974677 
L 75.151695 242.216709 
L 75.340119 238.086613 
L 75.716967 218.924258 
L 76.282239 198.354131 
L 76.470663 209.353586 
L 76.659087 205.160818 
L 77.224359 230.068175 
L 77.412783 228.409512 
L 77.978055 256.97668 
L 78.354903 267.066793 
L 78.543327 267.953308 
L 78.920175 259.117357 
L 79.108599 258.320881 
L 79.485447 253.985621 
L 79.673871 250.646623 
L 79.862295 249.805488 
L 80.050719 250.226829 
L 80.239143 252.602324 
L 81.181263 271.744761 
L 81.369687 268.395734 
L 81.558111 267.332764 
L 81.746535 267.574602 
L 82.123383 263.874484 
L 82.311807 270.340658 
L 82.500231 268.024406 
L 82.688655 271.946935 
L 82.877079 273.527913 
L 83.065503 272.457424 
L 83.253927 272.703124 
L 83.442351 276.865996 
L 83.630775 272.537124 
L 83.819199 272.823405 
L 84.007623 274.448214 
L 84.384471 271.451396 
L 84.572895 270.184015 
L 84.949743 272.398474 
L 85.138167 272.035215 
L 85.515015 276.69964 
L 85.891863 271.774959 
L 86.080287 274.888098 
L 86.268711 275.729021 
L 86.457135 275.289721 
L 86.645559 276.08241 
L 86.833983 278.347806 
L 87.022407 276.066795 
L 87.210831 271.63735 
L 87.399255 272.025854 
L 87.587679 274.333523 
L 87.776103 272.186674 
L 88.152951 274.345917 
L 88.341375 274.027054 
L 88.529799 273.365417 
L 88.718223 273.904994 
L 88.906647 272.317424 
L 89.095071 269.174928 
L 89.283495 270.75199 
L 89.471919 267.895585 
L 89.660343 268.13858 
L 89.848767 266.644737 
L 90.037191 272.309207 
L 90.225615 271.760921 
L 90.790887 278.066594 
L 90.979311 277.017574 
L 91.167735 277.043925 
L 91.544583 273.598776 
L 91.733007 273.650364 
L 91.921431 272.577428 
L 92.109855 272.256853 
L 92.298279 273.534368 
L 92.486703 278.225767 
L 92.675127 277.976808 
L 93.240399 282.310834 
L 93.428823 277.812656 
L 93.617247 279.320486 
L 93.805671 278.113236 
L 93.994095 280.364712 
L 94.182519 279.014236 
L 94.559367 281.84704 
L 94.747791 283.26157 
L 94.936215 280.564992 
L 95.124639 280.921323 
L 95.313063 280.801115 
L 95.501487 276.986479 
L 95.689911 276.330604 
L 95.878335 276.274969 
L 96.255183 275.365871 
L 97.008879 285.580738 
L 97.197303 286.494724 
L 97.385727 284.443224 
L 97.762575 275.995312 
L 98.139423 272.582692 
L 98.327847 272.474107 
L 98.704695 280.286346 
L 99.269967 283.635429 
L 99.458391 283.329403 
L 99.835239 279.219273 
L 100.023663 278.256881 
L 100.212087 278.106702 
L 100.400511 279.102583 
L 100.588935 278.693471 
L 100.965783 283.561576 
L 101.154207 284.380474 
L 101.342631 282.45602 
L 101.531055 284.526187 
L 102.096327 277.900333 
L 102.284751 279.538001 
L 102.473175 278.399521 
L 102.661599 278.071027 
L 102.850023 281.746284 
L 103.038447 281.998572 
L 103.226871 280.971079 
L 103.603719 283.854458 
L 103.792143 281.724017 
L 103.980567 281.720717 
L 104.168991 284.646222 
L 104.357415 284.245905 
L 104.734263 286.097156 
L 104.922687 288.903375 
L 105.676383 282.761061 
L 105.864807 283.026557 
L 106.053231 279.399885 
L 106.241655 279.701689 
L 106.430079 277.869913 
L 106.618503 278.629509 
L 106.806927 274.713799 
L 106.995351 278.410091 
L 107.183775 279.475702 
L 107.372199 281.819448 
L 107.560623 281.371427 
L 107.749047 283.48974 
L 107.937471 281.646505 
L 108.314319 281.691908 
L 108.502743 282.265121 
L 108.691167 281.92923 
L 109.068015 282.319174 
L 109.256439 280.969755 
L 109.444863 280.478853 
L 109.633287 282.241357 
L 109.821711 282.623146 
L 110.010135 280.510344 
L 110.198559 280.933872 
L 110.386983 279.769805 
L 110.575407 280.901003 
L 110.763831 280.173412 
L 111.329103 284.197269 
L 111.517527 282.705443 
L 111.894375 285.399674 
L 112.082799 285.556135 
L 112.271222 285.366091 
L 112.459646 284.695198 
L 112.836494 279.63791 
L 113.024918 278.142088 
L 113.213342 279.564186 
L 113.401766 279.528088 
L 113.59019 284.412406 
L 113.778614 284.550992 
L 114.155462 285.358013 
L 114.343886 285.259117 
L 114.720734 279.589848 
L 114.909158 280.47867 
L 115.097582 277.180506 
L 115.47443 280.533502 
L 115.662854 284.788902 
L 115.851278 283.758024 
L 116.039702 285.198835 
L 116.228126 284.075691 
L 116.41655 284.26021 
L 116.604974 284.157328 
L 116.793398 284.914493 
L 116.981822 284.387691 
L 117.170246 285.617794 
L 117.35867 283.778716 
L 117.547094 279.529433 
L 117.735518 279.269555 
L 117.923942 280.837678 
L 118.112366 278.663248 
L 118.30079 279.001026 
L 118.489214 282.957141 
L 118.677638 283.42333 
L 119.24291 282.511436 
L 119.431334 280.074864 
L 119.619758 280.980397 
L 119.808182 281.068128 
L 119.996606 282.641538 
L 120.373454 283.946012 
L 120.561878 283.938497 
L 120.750302 281.912919 
L 120.938726 282.173035 
L 121.12715 283.236968 
L 121.692422 288.057025 
L 121.880846 288.147582 
L 122.06927 287.292162 
L 122.257694 287.134268 
L 122.446118 282.92953 
L 122.634542 283.008619 
L 122.822966 283.284626 
L 123.01139 286.475304 
L 123.199814 285.512623 
L 123.576662 286.804888 
L 123.765086 285.661145 
L 123.95351 280.641023 
L 124.141934 283.223769 
L 124.330358 283.985436 
L 124.518782 281.880396 
L 124.707206 282.241783 
L 124.89563 283.49707 
L 125.272478 280.413715 
L 125.460902 281.238896 
L 125.649326 279.000265 
L 125.83775 278.966363 
L 126.214598 280.112684 
L 126.403022 276.0518 
L 126.591446 276.737331 
L 126.77987 279.296041 
L 126.968294 278.156085 
L 127.156718 280.757673 
L 127.533566 288.23451 
L 127.72199 285.384739 
L 127.910414 288.504056 
L 128.287262 284.656176 
L 128.475686 279.024706 
L 128.66411 282.466606 
L 128.852534 277.67481 
L 129.040958 277.290989 
L 129.229382 278.452216 
L 129.417806 280.945184 
L 129.60623 278.063386 
L 129.983078 279.509194 
L 130.171502 278.775481 
L 130.925198 286.342944 
L 131.113622 286.790491 
L 131.302046 286.52422 
L 131.49047 285.453558 
L 131.678894 281.716376 
L 131.867318 281.45062 
L 132.055742 280.468615 
L 132.244166 276.472628 
L 132.43259 275.049152 
L 132.621014 278.302154 
L 132.809438 275.309312 
L 132.997862 278.373417 
L 133.186286 284.614239 
L 133.37471 285.706319 
L 133.563134 285.453492 
L 133.751558 289.255025 
L 134.128406 285.958371 
L 134.31683 286.853021 
L 134.505254 285.744906 
L 134.693678 282.758315 
L 134.882102 283.521937 
L 135.070526 281.960672 
L 135.25895 281.637019 
L 135.447374 283.175447 
L 135.635798 282.730334 
L 135.824222 282.747282 
L 136.012646 282.509918 
L 136.20107 283.917427 
L 136.389494 283.578443 
L 136.577918 287.366023 
L 136.766342 287.309433 
L 136.954766 288.656283 
L 137.14319 286.683637 
L 137.331614 286.149027 
L 137.708462 282.67253 
L 137.896886 282.941842 
L 138.08531 285.097696 
L 138.273734 285.611051 
L 138.462158 287.178899 
L 138.650582 287.255585 
L 138.839006 286.585702 
L 139.02743 284.027039 
L 139.215854 284.70209 
L 139.404278 282.874986 
L 139.592702 285.768944 
L 139.781126 286.474499 
L 139.96955 284.997918 
L 140.157974 285.490693 
L 140.346398 285.367626 
L 140.534822 282.169254 
L 140.723246 281.997048 
L 140.91167 284.722076 
L 141.100094 283.476439 
L 141.476942 284.053673 
L 141.665366 282.948766 
L 142.042214 285.527669 
L 142.230638 285.857336 
L 142.419062 287.446322 
L 142.607486 286.732558 
L 142.79591 284.338911 
L 142.984334 283.732597 
L 143.172758 283.553353 
L 143.361182 282.058656 
L 143.549606 283.507858 
L 143.73803 284.084626 
L 143.926454 283.116127 
L 144.114878 285.372409 
L 144.303302 285.892349 
L 144.491726 287.384158 
L 144.68015 285.36264 
L 144.868574 285.555247 
L 145.056998 281.425013 
L 145.433846 285.741232 
L 145.999118 289.530692 
L 146.187542 287.718403 
L 146.375966 284.579158 
L 146.56439 284.419782 
L 147.129662 281.356825 
L 147.318086 281.858691 
L 147.50651 281.255727 
L 147.694934 281.653729 
L 147.883358 281.423258 
L 148.071782 281.516588 
L 148.44863 279.98107 
L 148.637054 280.994365 
L 148.825478 283.389582 
L 149.013902 282.271328 
L 149.202326 283.317187 
L 149.39075 283.555369 
L 149.767598 278.98753 
L 149.956022 279.112906 
L 150.144446 279.399108 
L 150.521294 283.377492 
L 150.898142 281.244315 
L 151.27499 279.230185 
L 151.463414 278.853368 
L 151.651838 283.894296 
L 151.840262 284.58941 
L 152.028686 285.783411 
L 152.405534 283.755375 
L 152.593958 281.602516 
L 152.782382 283.196918 
L 152.970806 281.16665 
L 153.15923 282.098148 
L 153.347654 284.191485 
L 153.536078 284.264365 
L 153.724502 282.34107 
L 153.912926 282.974153 
L 154.10135 286.61468 
L 154.289774 285.139486 
L 154.478198 284.571474 
L 154.855046 289.417717 
L 155.04347 285.40186 
L 155.231894 287.637459 
L 155.420318 288.062884 
L 155.797166 285.145525 
L 155.98559 287.326242 
L 156.362438 284.554169 
L 156.550862 278.410474 
L 156.739286 277.593027 
L 156.92771 278.323239 
L 157.116134 277.405896 
L 157.304558 278.961499 
L 157.492982 287.505574 
L 157.681406 289.309144 
L 157.86983 284.168673 
L 158.246678 284.842998 
L 158.623526 281.07775 
L 158.81195 284.016271 
L 159.000374 284.771853 
L 159.188798 282.738613 
L 159.377222 282.349277 
L 159.565646 284.071856 
L 159.75407 281.481166 
L 160.130918 283.104678 
L 160.319342 282.173582 
L 160.507766 279.558512 
L 160.69619 282.454549 
L 160.884614 281.883974 
L 161.073038 283.172538 
L 161.261462 282.908459 
L 161.449886 284.871821 
L 161.63831 282.873784 
L 161.826733 282.208248 
L 162.015157 282.572319 
L 162.203581 284.367213 
L 162.392005 283.848523 
L 162.580429 285.009169 
L 162.768853 285.337692 
L 162.957277 283.825316 
L 163.145701 285.915641 
L 163.334125 286.566097 
L 163.522549 288.827917 
L 163.710973 288.629552 
L 163.899397 290.647581 
L 164.087821 289.118645 
L 164.276245 289.890417 
L 164.464669 288.585547 
L 165.029941 287.215788 
L 165.218365 286.331201 
L 165.406789 284.740289 
L 165.595213 284.489956 
L 165.783637 284.929537 
L 165.972061 285.714746 
L 166.537333 289.920333 
L 166.725757 289.689716 
L 166.914181 289.847095 
L 167.291029 286.850384 
L 167.479453 285.7399 
L 167.856301 281.451578 
L 168.233149 283.229216 
L 168.609997 288.251662 
L 168.798421 290.326074 
L 168.986845 288.430183 
L 169.175269 287.993667 
L 169.363693 283.374967 
L 169.552117 283.526841 
L 169.740541 283.374576 
L 169.928965 286.616965 
L 170.117389 285.860577 
L 170.305813 286.662884 
L 170.494237 284.705215 
L 170.682661 284.185255 
L 170.871085 282.893771 
L 171.059509 283.362101 
L 171.247933 280.454328 
L 171.436357 283.136128 
L 171.624781 282.574319 
L 171.813205 284.244514 
L 172.001629 282.949801 
L 172.190053 285.380949 
L 172.378477 283.937215 
L 172.566901 286.045595 
L 172.755325 285.036789 
L 173.132173 288.33553 
L 173.320597 287.996176 
L 173.509021 286.630129 
L 173.697445 282.362727 
L 173.885869 281.410026 
L 174.451141 283.73903 
L 174.639565 288.223549 
L 174.827989 285.314282 
L 175.016413 286.174497 
L 175.204837 285.011235 
L 175.581685 285.329638 
L 175.770109 290.85871 
L 175.958533 287.69367 
L 176.146957 286.476908 
L 176.335381 286.369646 
L 176.712229 284.656654 
L 176.900653 286.127971 
L 177.089077 286.271457 
L 177.277501 287.13339 
L 177.465925 284.959684 
L 177.654349 285.614471 
L 177.842773 283.91658 
L 178.031197 284.654937 
L 178.219621 283.108041 
L 178.408045 285.458184 
L 178.596469 284.615722 
L 178.784893 287.989226 
L 179.161741 288.94248 
L 179.350165 290.88116 
L 179.538589 291.07361 
L 179.727013 289.474797 
L 179.915437 289.542945 
L 180.103861 288.543586 
L 180.480709 281.276285 
L 180.857557 278.628362 
L 181.422829 284.037924 
L 181.611253 288.390855 
L 181.799677 287.719661 
L 181.988101 289.156259 
L 182.176525 293.199689 
L 182.364949 293.741762 
L 183.307069 280.960009 
L 183.495493 281.748563 
L 183.683917 286.943917 
L 183.872341 285.632375 
L 184.060765 289.013842 
L 184.626037 282.754769 
L 184.814461 284.096763 
L 185.002885 280.031584 
L 185.379733 283.367465 
L 185.568157 283.721104 
L 185.756581 283.170125 
L 186.133429 285.956973 
L 186.321853 286.297595 
L 186.510277 286.059203 
L 186.887125 290.772301 
L 187.452397 288.217278 
L 187.640821 284.41857 
L 187.829245 283.19274 
L 188.206093 284.82751 
L 188.582941 288.129732 
L 188.771365 287.424554 
L 188.959789 285.387554 
L 189.148213 286.057035 
L 189.525061 284.485905 
L 189.901909 286.56967 
L 190.090333 285.836781 
L 190.467181 287.944158 
L 190.655605 286.707544 
L 190.844029 286.663741 
L 191.032453 288.15578 
L 191.409301 283.55164 
L 191.597725 285.221436 
L 191.974573 282.819144 
L 192.162997 284.521222 
L 192.351421 289.08503 
L 192.539845 289.456356 
L 192.728269 290.718291 
L 192.916693 288.129528 
L 193.105117 287.843281 
L 193.293541 284.165948 
L 193.481965 284.287251 
L 193.670389 284.906442 
L 193.858813 288.783576 
L 194.047237 288.845724 
L 194.235661 291.690213 
L 194.612509 289.293274 
L 194.800933 289.947973 
L 194.989357 287.357867 
L 195.177781 282.451902 
L 195.366205 282.18544 
L 195.554629 280.888697 
L 195.743053 281.55109 
L 195.931477 283.089897 
L 196.119901 287.089689 
L 196.308325 288.602614 
L 196.496749 291.859438 
L 196.685173 288.812196 
L 196.873597 289.022196 
L 197.062021 288.041397 
L 197.438869 281.37379 
L 197.627293 283.166322 
L 197.815717 283.848036 
L 198.004141 283.019793 
L 198.380989 287.311317 
L 198.569413 286.871161 
L 198.757837 286.891656 
L 198.946261 290.376635 
L 199.888381 281.47659 
L 200.076805 283.257808 
L 200.265229 281.936464 
L 200.453653 282.822379 
L 200.642077 281.908183 
L 200.830501 284.158788 
L 201.018925 282.958262 
L 201.207349 285.302134 
L 201.395773 284.538173 
L 201.584197 287.149591 
L 201.772621 287.216785 
L 201.961045 286.500175 
L 202.149469 286.6499 
L 202.337893 287.677256 
L 202.714741 282.566952 
L 202.903165 281.493214 
L 203.091589 278.472029 
L 203.280013 278.937311 
L 203.656861 283.658037 
L 203.845285 284.595183 
L 204.222133 287.679497 
L 204.410557 285.926809 
L 204.598981 286.573835 
L 204.787405 286.779823 
L 204.975829 285.777354 
L 205.164253 285.757136 
L 205.352677 284.916845 
L 205.541101 283.059442 
L 205.917949 286.521873 
L 206.294797 282.176207 
L 206.483221 282.301761 
L 206.671645 280.326955 
L 206.860069 280.203154 
L 207.236917 284.814554 
L 207.425341 282.932751 
L 207.613765 284.309131 
L 207.802189 284.244593 
L 208.179037 282.481331 
L 208.367461 282.768065 
L 208.932733 284.484673 
L 209.121157 286.657866 
L 209.309581 286.544759 
L 209.498005 284.461787 
L 209.686429 284.840012 
L 209.874853 286.342631 
L 210.063277 285.622203 
L 210.440125 288.5081 
L 210.628549 286.754503 
L 210.816973 286.532566 
L 211.005397 287.275219 
L 211.193821 285.33909 
L 211.570668 290.494547 
L 211.947516 286.401688 
L 212.324364 287.091866 
L 212.512788 286.16559 
L 213.07806 288.431294 
L 213.266484 286.361219 
L 213.454908 286.146562 
L 213.643332 285.647361 
L 213.831756 287.021213 
L 214.208604 285.011106 
L 214.585452 286.962062 
L 214.773876 287.745083 
L 214.9623 286.188184 
L 215.150724 287.470848 
L 215.339148 286.452814 
L 215.527572 286.380973 
L 215.715996 286.906983 
L 215.90442 289.685974 
L 216.469692 287.849437 
L 216.84654 283.022082 
L 217.034964 285.410059 
L 217.223388 283.298016 
L 217.600236 282.408264 
L 217.78866 281.950698 
L 217.977084 278.230545 
L 218.165508 278.061352 
L 218.353932 278.617745 
L 218.542356 280.333481 
L 218.73078 280.881877 
L 219.107628 287.346346 
L 219.484476 287.838468 
L 219.861324 285.278833 
L 220.049748 285.904446 
L 220.238172 285.240048 
L 220.426596 282.491787 
L 220.61502 283.710175 
L 220.803444 282.332146 
L 220.991868 282.957568 
L 221.368716 286.001671 
L 221.745564 291.128981 
L 221.933988 290.270619 
L 222.122412 286.590017 
L 222.310836 287.578775 
L 222.49926 284.678167 
L 222.687684 286.404224 
L 222.876108 286.703322 
L 223.064532 288.418337 
L 223.252956 288.715076 
L 223.44138 288.484277 
L 223.629804 286.762795 
L 223.818228 287.015977 
L 224.195076 290.732453 
L 224.3835 290.935297 
L 224.571924 290.467896 
L 225.137196 283.842917 
L 225.32562 286.060059 
L 225.702468 286.367798 
L 226.079316 290.29406 
L 226.456164 286.840332 
L 226.644588 286.830168 
L 226.833012 283.319209 
L 227.021436 284.576754 
L 227.20986 284.219044 
L 227.398284 281.855898 
L 227.775132 283.564007 
L 228.15198 282.102347 
L 228.340404 284.864857 
L 228.717252 282.731767 
L 228.905676 283.242242 
L 229.282524 286.312918 
L 229.659372 292.823213 
L 230.03622 290.980045 
L 230.413068 288.712285 
L 230.601492 288.783558 
L 230.97834 291.376361 
L 231.166764 289.863701 
L 231.92046 278.24929 
L 232.485732 281.735729 
L 232.86258 288.858998 
L 233.051004 288.475699 
L 233.239428 286.567709 
L 233.427852 287.807338 
L 233.616276 286.336963 
L 233.8047 282.927585 
L 233.993124 281.6784 
L 234.181548 283.505102 
L 234.558396 281.081894 
L 234.935244 284.617029 
L 235.500516 279.752512 
L 235.68894 279.633478 
L 235.877364 280.768759 
L 236.065788 284.153896 
L 236.254212 285.292152 
L 236.442636 287.680757 
L 236.63106 288.645771 
L 237.007908 285.610642 
L 237.196332 285.682267 
L 237.384756 286.067616 
L 237.57318 287.168211 
L 237.761604 286.838252 
L 237.950028 288.502004 
L 238.138452 287.96115 
L 238.326876 288.263806 
L 238.5153 287.424078 
L 238.703724 285.719822 
L 238.892148 282.720312 
L 239.080572 281.949378 
L 239.268996 282.337752 
L 239.45742 281.17636 
L 239.834268 284.008917 
L 240.022692 287.030482 
L 240.211116 285.550568 
L 240.39954 287.284608 
L 240.776388 288.29843 
L 240.964812 282.565875 
L 241.153236 283.17522 
L 241.530084 278.966337 
L 241.718508 280.238715 
L 241.906932 282.792435 
L 242.095356 281.494856 
L 242.472204 285.346813 
L 242.660628 283.423802 
L 243.037476 287.74364 
L 243.2259 285.939452 
L 243.414324 285.40288 
L 243.602748 286.506222 
L 243.979596 282.212693 
L 244.356444 283.720947 
L 244.544868 284.049718 
L 244.733292 283.183298 
L 244.921716 284.208548 
L 245.11014 285.859372 
L 245.298564 285.568202 
L 245.486988 285.788771 
L 245.675412 288.610571 
L 245.863836 288.629681 
L 246.05226 285.791955 
L 246.240684 285.657207 
L 246.429108 286.243303 
L 246.617532 286.242249 
L 246.805956 284.861105 
L 246.99438 287.754679 
L 247.182804 288.52386 
L 247.371228 288.579568 
L 247.559652 289.518362 
L 247.748076 292.806689 
L 247.9365 291.94431 
L 248.124924 293.648395 
L 248.313348 293.081634 
L 248.690196 285.089574 
L 248.87862 285.511265 
L 249.255468 282.256739 
L 249.443892 286.212292 
L 249.632316 292.684716 
L 249.82074 293.760615 
L 250.009164 291.6468 
L 250.197588 291.463034 
L 250.386012 289.117109 
L 250.76286 282.470267 
L 250.951284 283.431363 
L 251.139708 283.434321 
L 251.328132 282.088938 
L 251.516556 284.054973 
L 251.70498 283.71119 
L 251.893404 284.702015 
L 252.081828 284.245554 
L 252.270252 287.750379 
L 252.458676 287.431073 
L 252.6471 287.81531 
L 252.835524 286.326384 
L 253.023948 289.230745 
L 253.212372 288.548846 
L 253.400796 288.756246 
L 253.58922 288.043424 
L 253.777644 288.850484 
L 253.966068 288.310915 
L 254.154492 289.075372 
L 254.342916 286.283125 
L 254.53134 287.542466 
L 254.719764 284.503632 
L 254.908188 285.044196 
L 255.096612 283.237993 
L 255.285036 286.097146 
L 255.47346 286.650639 
L 255.661884 290.663448 
L 255.850308 289.846711 
L 256.038732 288.174491 
L 256.227156 287.984442 
L 256.604004 286.775618 
L 256.792428 284.498292 
L 256.980852 286.467212 
L 257.169276 282.707803 
L 257.3577 283.95599 
L 257.546124 284.238108 
L 257.734548 287.040494 
L 257.922972 287.255024 
L 258.111396 291.202171 
L 258.29982 290.931111 
L 258.488244 290.124094 
L 258.676668 288.129019 
L 258.865092 284.423949 
L 259.053516 283.608368 
L 259.24194 285.308669 
L 259.430364 284.841892 
L 259.618788 284.830837 
L 259.807212 289.135288 
L 259.995636 289.73795 
L 260.18406 286.729371 
L 260.372484 285.902245 
L 260.560908 286.83353 
L 260.749332 286.774531 
L 260.937756 283.382654 
L 261.126179 285.571011 
L 261.314603 285.578017 
L 261.503027 285.288428 
L 261.691451 285.577194 
L 261.879875 285.591121 
L 262.068299 284.622708 
L 262.445147 286.400915 
L 262.633571 285.615629 
L 263.010419 288.445911 
L 263.387267 286.953091 
L 263.764115 289.115868 
L 264.140963 286.227421 
L 264.894659 283.325867 
L 265.083083 285.7758 
L 265.271507 284.245438 
L 265.459931 284.447805 
L 265.648355 286.415829 
L 265.836779 286.254473 
L 266.025203 284.932852 
L 266.213627 287.425278 
L 266.402051 287.414626 
L 266.590475 286.019823 
L 266.967323 288.391572 
L 267.155747 288.068731 
L 267.532595 287.024141 
L 267.721019 288.094414 
L 267.909443 287.735559 
L 268.474715 290.181174 
L 268.663139 290.265401 
L 268.851563 290.515812 
L 269.039987 291.431986 
L 269.228411 288.162519 
L 269.416835 287.361184 
L 269.605259 284.565068 
L 269.793683 283.469437 
L 269.982107 280.718754 
L 270.170531 283.292858 
L 270.358955 280.980122 
L 270.547379 281.181234 
L 270.735803 280.662212 
L 270.924227 282.892408 
L 271.112651 283.656948 
L 271.301075 287.406213 
L 271.489499 288.924599 
L 271.677923 291.387241 
L 271.866347 289.935891 
L 272.054771 287.350358 
L 272.243195 286.711316 
L 272.620043 282.916679 
L 272.996891 284.141203 
L 273.185315 283.56253 
L 273.750587 286.891044 
L 273.939011 289.980791 
L 274.127435 290.983786 
L 274.692707 289.338184 
L 275.257979 286.059356 
L 275.446403 283.823103 
L 275.634827 283.753433 
L 275.823251 283.470791 
L 276.011675 283.859337 
L 276.388523 288.105447 
L 276.765371 285.147502 
L 276.953795 284.153748 
L 277.330643 284.208008 
L 277.519067 282.315081 
L 277.707491 283.948777 
L 278.084339 281.907966 
L 278.272763 282.006037 
L 278.461187 285.195995 
L 278.649611 283.702049 
L 279.026459 287.820878 
L 279.214883 288.16765 
L 279.403307 287.109871 
L 279.591731 288.274463 
L 279.780155 286.71704 
L 279.968579 286.728512 
L 280.157003 283.953116 
L 280.345427 284.243477 
L 280.533851 285.031262 
L 280.722275 284.575422 
L 280.910699 283.520832 
L 281.852819 290.896127 
L 282.041243 290.67821 
L 282.229667 289.977954 
L 282.418091 288.682464 
L 282.606515 288.765547 
L 282.794939 288.022071 
L 283.171787 291.601843 
L 283.360211 290.465015 
L 283.548635 288.139162 
L 283.737059 291.243392 
L 284.679179 281.211048 
L 284.867603 283.606789 
L 285.056027 284.376609 
L 285.244451 288.15537 
L 285.432875 288.198574 
L 285.621299 289.036437 
L 285.809723 287.266839 
L 285.998147 286.886163 
L 286.186571 285.823862 
L 286.374995 288.782723 
L 286.751843 287.335728 
L 286.940267 289.841708 
L 287.128691 285.769703 
L 287.317115 285.073363 
L 287.505539 282.932642 
L 287.693963 283.616276 
L 287.882387 281.353362 
L 288.070811 284.785629 
L 288.259235 285.679501 
L 288.636083 289.814173 
L 288.824507 289.517976 
L 289.012931 289.808796 
L 289.201355 287.796639 
L 289.389779 287.175623 
L 289.578203 286.166313 
L 289.766627 287.559308 
L 289.955051 284.862981 
L 290.143475 287.974912 
L 290.331899 289.201596 
L 290.520323 288.758244 
L 290.897171 289.6908 
L 291.274019 284.073471 
L 291.462443 284.866366 
L 291.650867 282.922844 
L 291.839291 283.87595 
L 292.027715 281.960262 
L 292.216139 283.320702 
L 292.404563 282.957431 
L 292.592987 283.531307 
L 292.781411 283.425087 
L 293.158259 286.079228 
L 293.535107 284.59274 
L 293.723531 285.724288 
L 293.911955 288.113435 
L 294.100379 286.875798 
L 294.477227 290.013005 
L 294.665651 289.798065 
L 294.854075 287.269589 
L 295.042499 288.12448 
L 295.230923 286.861942 
L 295.419347 288.342912 
L 295.607771 288.77204 
L 295.796195 290.000611 
L 295.984619 288.511234 
L 296.549891 290.772278 
L 296.738315 289.759234 
L 296.926739 290.291801 
L 297.115163 289.717459 
L 297.303587 287.245932 
L 297.680435 287.99516 
L 297.868859 289.213562 
L 298.057283 291.60622 
L 298.434131 292.594941 
L 298.622555 292.536892 
L 298.810979 293.952308 
L 299.187827 288.075516 
L 299.376251 284.802313 
L 299.564675 284.865208 
L 299.753099 283.159957 
L 299.941523 282.788557 
L 300.129947 285.108762 
L 300.506795 283.585035 
L 300.695219 284.926844 
L 300.883643 288.557969 
L 301.072067 287.206262 
L 301.260491 288.834437 
L 301.448915 287.444998 
L 301.825763 282.070754 
L 302.202611 282.721695 
L 302.767883 292.509476 
L 302.956307 293.139223 
L 303.144731 294.463277 
L 303.521579 293.062944 
L 303.710003 288.393453 
L 303.898427 288.314821 
L 304.275275 284.376434 
L 304.463699 282.078573 
L 304.652123 284.171718 
L 304.840547 282.285558 
L 305.028971 282.593139 
L 305.217395 282.555422 
L 305.405819 285.848104 
L 305.594243 285.011647 
L 305.971091 287.436051 
L 306.159515 290.28374 
L 306.536363 287.707633 
L 306.724787 289.808993 
L 307.101635 285.083943 
L 307.290059 282.663302 
L 307.478483 284.410522 
L 307.666907 282.352356 
L 307.855331 283.36009 
L 308.043755 283.434861 
L 308.232179 284.227091 
L 308.420603 285.649428 
L 308.609027 285.068384 
L 308.985875 287.969719 
L 309.174299 288.013669 
L 309.362723 286.309421 
L 309.551147 287.636506 
L 309.739571 288.006611 
L 309.927995 288.057072 
L 310.116419 288.956442 
L 310.493267 293.490273 
L 311.058538 290.13504 
L 311.246962 290.342442 
L 311.435386 287.352484 
L 311.62381 286.929557 
L 311.812234 288.192559 
L 312.000658 290.731576 
L 312.189082 290.057642 
L 312.56593 290.17535 
L 312.754354 291.492796 
L 313.131202 286.451237 
L 313.319626 290.242587 
L 313.696474 288.71671 
L 314.073322 292.323839 
L 314.261746 290.327008 
L 314.45017 294.339564 
L 314.638594 292.508837 
L 314.827018 292.07763 
L 315.015442 292.044726 
L 315.203866 290.33238 
L 315.39229 287.182836 
L 315.580714 286.735797 
L 315.957562 288.519114 
L 316.145986 285.81994 
L 316.33441 285.166878 
L 316.522834 287.593915 
L 316.899682 284.291946 
L 317.088106 286.33751 
L 317.27653 286.42345 
L 317.464954 282.881399 
L 317.653378 284.502276 
L 317.841802 283.899496 
L 318.21865 285.864776 
L 318.407074 289.459546 
L 318.595498 288.343849 
L 318.783922 288.443933 
L 318.972346 290.89062 
L 319.16077 291.712181 
L 319.349194 290.092191 
L 319.537618 290.371238 
L 319.726042 291.236595 
L 320.10289 286.23486 
L 320.668162 285.734504 
L 320.856586 284.663539 
L 321.04501 282.860359 
L 321.421858 285.219751 
L 321.610282 284.666062 
L 321.798706 285.971848 
L 321.98713 290.107287 
L 322.552402 288.376514 
L 322.740826 290.950389 
L 322.92925 287.824188 
L 323.117674 287.529825 
L 323.306098 288.113465 
L 323.494522 287.25162 
L 323.682946 285.088649 
L 324.059794 288.064162 
L 324.436642 286.902139 
L 324.625066 285.806636 
L 324.81349 286.33293 
L 325.190338 284.842179 
L 325.567186 288.580278 
L 325.75561 289.088829 
L 325.944034 287.698264 
L 326.132458 287.283161 
L 326.509306 288.90972 
L 326.69773 287.964635 
L 326.886154 285.435628 
L 327.074578 284.983339 
L 327.451426 279.832028 
L 327.63985 281.314835 
L 327.828274 283.953813 
L 328.016698 283.511755 
L 328.205122 284.190891 
L 328.393546 284.094992 
L 328.58197 283.27008 
L 328.770394 284.897017 
L 328.958818 284.715916 
L 329.147242 286.911595 
L 329.335666 286.753184 
L 329.712514 285.03858 
L 329.900938 288.65354 
L 330.089362 288.716299 
L 330.46621 288.123468 
L 330.654634 287.10502 
L 330.843058 283.132627 
L 331.031482 283.342692 
L 331.219906 282.604363 
L 331.40833 282.947179 
L 331.596754 283.785699 
L 331.785178 287.688054 
L 331.973602 285.940625 
L 332.162026 289.098162 
L 332.35045 288.551277 
L 332.538874 288.514617 
L 332.727298 286.679287 
L 332.915722 288.634134 
L 333.104146 285.435644 
L 333.29257 284.690556 
L 333.480994 285.882349 
L 333.669418 286.344248 
L 333.857842 283.873679 
L 334.23469 289.574981 
L 334.423114 289.985886 
L 334.611538 289.994937 
L 334.988386 295.488 
L 335.365234 287.520776 
L 335.553658 286.755856 
L 335.742082 285.142482 
L 335.930506 279.644908 
L 336.11893 279.782694 
L 336.307354 281.18619 
L 336.495778 280.227944 
L 336.684202 281.497596 
L 336.872626 281.03314 
L 337.06105 282.358416 
L 337.249474 282.636639 
L 337.437898 284.942938 
L 337.626322 283.915567 
L 337.814746 285.514182 
L 338.00317 285.49709 
L 338.191594 286.512442 
L 338.380018 285.76454 
L 338.568442 286.423247 
L 338.756866 285.346469 
L 338.94529 285.064219 
L 339.133714 286.220366 
L 339.510562 284.064359 
L 339.698986 286.454934 
L 339.88741 285.348508 
L 340.075834 285.523601 
L 340.641106 287.541619 
L 340.82953 290.383191 
L 341.017954 289.089112 
L 341.206378 289.923471 
L 341.394802 289.813697 
L 341.77165 287.355118 
L 342.148498 289.409962 
L 342.336922 288.06203 
L 342.525346 288.094348 
L 342.71377 289.215404 
L 342.902194 286.790477 
L 343.090618 286.566433 
L 343.65589 290.409906 
L 343.844314 290.548639 
L 344.032738 288.261572 
L 344.409586 286.948878 
L 344.59801 284.161273 
L 344.786434 286.205517 
L 344.974858 286.892064 
L 345.163282 286.208731 
L 345.351706 286.06937 
L 345.54013 287.335877 
L 345.728554 287.497387 
L 346.105402 291.826804 
L 346.293826 292.070113 
L 346.48225 292.622007 
L 346.670674 290.957789 
L 347.047522 285.343219 
L 347.235946 285.150576 
L 347.42437 282.798625 
L 347.612794 282.962623 
L 347.801218 286.443409 
L 347.989642 287.731541 
L 348.178066 286.90807 
L 348.36649 286.665978 
L 348.743338 285.298989 
L 348.931762 284.523155 
L 349.120186 286.550108 
L 349.30861 286.969764 
L 349.497034 289.893645 
L 349.685458 290.146374 
L 349.873882 292.199181 
L 350.062306 291.083213 
L 350.25073 292.726972 
L 350.627578 287.944045 
L 350.816002 286.789626 
L 351.004426 287.541262 
L 351.19285 287.365603 
L 351.381274 288.636371 
L 351.758122 292.646244 
L 351.946546 291.185419 
L 352.13497 291.60944 
L 352.511818 285.509969 
L 352.700242 283.917777 
L 352.888666 283.623198 
L 353.07709 283.953099 
L 353.265514 285.079708 
L 353.453938 285.114613 
L 353.830786 282.469959 
L 354.01921 279.098255 
L 354.207634 281.460006 
L 354.584482 282.035771 
L 354.96133 286.215247 
L 355.149754 285.359307 
L 355.338178 285.157037 
L 355.526602 287.744973 
L 355.715026 288.388719 
L 355.90345 290.358862 
L 356.091874 289.960429 
L 356.280298 292.053946 
L 356.84557 287.86979 
L 357.033994 287.817508 
L 357.599266 285.394435 
L 357.976114 288.993354 
L 358.164538 288.535624 
L 358.352962 290.878815 
L 358.541386 291.707747 
L 358.918234 289.73384 
L 359.106658 289.781007 
L 359.483506 286.088571 
L 359.67193 286.365148 
L 360.048778 284.09523 
L 360.425625 287.690577 
L 360.614049 286.547291 
L 360.802473 287.018192 
L 360.990897 290.758946 
L 361.179321 287.75131 
L 361.367745 287.359264 
L 361.556169 288.720558 
L 361.744593 287.500786 
L 361.933017 283.011872 
L 362.121441 283.074732 
L 362.309865 281.745451 
L 362.498289 282.318266 
L 362.686713 283.420249 
L 362.875137 286.013714 
L 363.063561 283.354141 
L 363.440409 284.514343 
L 363.628833 283.88504 
L 363.817257 284.373435 
L 364.194105 291.663664 
L 364.382529 290.846283 
L 364.570953 292.428487 
L 364.759377 289.898348 
L 364.947801 289.793317 
L 365.136225 287.619962 
L 365.324649 287.583222 
L 365.701497 289.186626 
L 365.889921 287.582105 
L 366.078345 288.076318 
L 366.266769 289.009191 
L 366.455193 288.462392 
L 366.832041 290.579959 
L 367.020465 290.573206 
L 367.397313 287.342052 
L 367.774161 285.961811 
L 367.962585 284.576722 
L 368.527857 289.237741 
L 368.716281 288.344511 
L 368.904705 288.711266 
L 369.281553 284.142594 
L 369.469977 284.486427 
L 369.658401 286.051381 
L 369.846825 286.05272 
L 370.035249 288.107675 
L 370.223673 288.329907 
L 370.412097 287.512483 
L 370.600521 283.464934 
L 370.788945 284.45786 
L 370.977369 280.312412 
L 371.165793 280.699447 
L 371.542641 285.443525 
L 371.731065 285.906952 
L 371.919489 290.064106 
L 372.107913 289.333999 
L 372.296337 289.216826 
L 372.484761 291.415949 
L 372.673185 292.284472 
L 372.861609 288.705983 
L 373.050033 288.434345 
L 373.238457 286.568665 
L 373.426881 286.615426 
L 373.615305 284.140712 
L 373.803729 286.849339 
L 374.180577 285.64117 
L 374.369001 285.786266 
L 374.557425 289.020745 
L 374.745849 289.294833 
L 375.122697 295.139437 
L 375.687969 292.777507 
L 376.064817 288.681078 
L 376.253241 289.747039 
L 376.441665 289.676601 
L 376.630089 290.045316 
L 376.818513 291.525929 
L 377.006937 290.19397 
L 377.195361 290.602482 
L 377.383785 288.120138 
L 377.572209 288.7856 
L 377.760633 285.492781 
L 377.949057 286.553543 
L 378.137481 284.890719 
L 378.325905 285.444997 
L 378.514329 284.969488 
L 378.702753 282.911205 
L 378.891177 282.819909 
L 379.079601 283.691229 
L 379.268025 283.151703 
L 379.456449 283.797864 
L 379.644873 286.70671 
L 379.833297 283.566843 
L 380.210145 285.22693 
L 380.398569 283.88057 
L 380.775417 289.400955 
L 381.340689 282.679735 
L 381.529113 281.43914 
L 381.717537 279.456482 
L 381.905961 279.549498 
L 382.094385 282.902223 
L 382.282809 283.762801 
L 382.471233 282.939153 
L 383.224929 287.348647 
L 383.790201 290.016681 
L 383.978625 288.583955 
L 384.355473 289.201683 
L 385.109169 280.50522 
L 385.297593 280.745231 
L 386.051289 288.759215 
L 386.239713 288.795773 
L 386.428137 289.072936 
L 386.616561 287.776923 
L 386.804985 284.886021 
L 386.993409 286.930782 
L 387.181833 287.080315 
L 387.370257 284.592106 
L 387.558681 284.354207 
L 387.747105 285.448956 
L 388.123953 280.634673 
L 388.312377 282.451208 
L 388.500801 282.330189 
L 388.689225 280.926155 
L 388.877649 280.914103 
L 389.066073 284.290788 
L 389.254497 285.095753 
L 389.442921 286.942885 
L 389.631345 286.546417 
L 389.819769 286.530569 
L 390.008193 284.638607 
L 390.196617 284.72923 
L 390.385041 281.357592 
L 390.761889 278.975277 
L 390.950313 279.222673 
L 391.138737 277.84013 
L 391.327161 279.898587 
L 391.704009 287.383976 
L 391.892433 286.355309 
L 392.269281 288.204703 
L 392.457705 286.18923 
L 392.646129 286.64032 
L 392.834553 288.316277 
L 393.022977 288.636646 
L 393.399825 291.548516 
L 393.588249 290.586172 
L 394.153521 280.959594 
L 394.341945 281.666296 
L 394.530369 282.970275 
L 394.718793 286.771543 
L 395.095641 289.754039 
L 395.284065 288.868176 
L 395.472489 287.388743 
L 395.660913 287.250081 
L 395.849337 286.271855 
L 396.037761 285.953482 
L 396.414609 284.322627 
L 396.603033 284.526215 
L 396.791457 284.986064 
L 396.979881 283.998331 
L 397.168305 284.86342 
L 397.545153 289.101943 
L 397.733577 289.119677 
L 397.922001 290.104899 
L 398.110425 289.670544 
L 398.298849 288.435703 
L 398.487273 284.80705 
L 398.487273 284.80705 
" clip-path="url(#p3ed8eb8267)" style="fill: none; stroke: #17becf; stroke-opacity: 0.7; stroke-linecap: square"/>
   </g>
   <g id="patch_7">
    <path d="M 57.6 307.584 
L 57.6 41.472 
" style="fill: none; stroke: #000000; stroke-width: 0.8; stroke-linejoin: miter; stroke-linecap: square"/>
   </g>
   <g id="patch_8">
    <path d="M 414.72 307.584 
L 414.72 41.472 
" style="fill: none; stroke: #000000; stroke-width: 0.8; stroke-linejoin: miter; stroke-linecap: square"/>
   </g>
   <g id="patch_9">
    <path d="M 57.6 307.584 
L 414.72 307.584 
" style="fill: none; stroke: #000000; stroke-width: 0.8; stroke-linejoin: miter; stroke-linecap: square"/>
   </g>
   <g id="patch_10">
    <path d="M 57.6 41.472 
L 414.72 41.472 
" style="fill: none; stroke: #000000; stroke-width: 0.8; stroke-linejoin: miter; stroke-linecap: square"/>
   </g>
  </g>
 </g>
 <defs>
  <clipPath id="p3ed8eb8267">
   <rect x="57.6" y="41.472" width="357.12" height="266.112"/>
  </clipPath>
 </defs>
</svg>
