<?xml version="1.0" encoding="utf-8" standalone="no"?>
<!DOCTYPE svg PUBLIC "-//W3C//DTD SVG 1.1//EN"
  "http://www.w3.org/Graphics/SVG/1.1/DTD/svg11.dtd">
<svg xmlns:xlink="http://www.w3.org/1999/xlink" width="460.8pt" height="345.6pt" viewBox="0 0 460.8 345.6" xmlns="http://www.w3.org/2000/svg" version="1.1">
 <metadata>
  <rdf:RDF xmlns:dc="http://purl.org/dc/elements/1.1/" xmlns:cc="http://creativecommons.org/ns#" xmlns:rdf="http://www.w3.org/1999/02/22-rdf-syntax-ns#">
   <cc:Work>
    <dc:type rdf:resource="http://purl.org/dc/dcmitype/StillImage"/>
    <dc:date>2024-04-20T10:29:59.060875</dc:date>
    <dc:format>image/svg+xml</dc:format>
    <dc:creator>
     <cc:Agent>
      <dc:title>Matplotlib v3.7.5, https://matplotlib.org/</dc:title>
     </cc:Agent>
    </dc:creator>
   </cc:Work>
  </rdf:RDF>
 </metadata>
 <defs>
  <style type="text/css">*{stroke-linejoin: round; stroke-linecap: butt}</style>
 </defs>
 <g id="figure_1">
  <g id="patch_1">
   <path d="M 0 345.6 
L 460.8 345.6 
L 460.8 0 
L 0 0 
z
" style="fill: #ffffff"/>
  </g>
  <g id="axes_1">
   <g id="patch_2">
    <path d="M 57.6 307.584 
L 414.72 307.584 
L 414.72 41.472 
L 57.6 41.472 
z
" style="fill: #ffffff"/>
   </g>
   <g id="matplotlib.axis_1">
    <g id="xtick_1">
     <g id="line2d_1">
      <defs>
       <path id="m1b1e5ffd27" d="M 0 0 
L 0 3.5 
" style="stroke: #000000; stroke-width: 0.8"/>
      </defs>
      <g>
       <use xlink:href="#m1b1e5ffd27" x="73.079031" y="307.584" style="stroke: #000000; stroke-width: 0.8"/>
      </g>
     </g>
     <g id="text_1">
      <!-- 0 -->
      <g transform="translate(70.147 322.57775) scale(0.1 -0.1)">
       <defs>
        <path id="MicrosoftYaHei-30" d="M 284 2325 
Q 284 3606 709 4264 
Q 1134 4922 1941 4922 
Q 3478 4922 3478 2441 
Q 3478 1216 3045 567 
Q 2613 -81 1831 -81 
Q 1094 -81 689 534 
Q 284 1150 284 2325 
z
M 909 2353 
Q 909 425 1888 425 
Q 2850 425 2850 2384 
Q 2850 4413 1906 4413 
Q 909 4413 909 2353 
z
" transform="scale(0.015625)"/>
       </defs>
       <use xlink:href="#MicrosoftYaHei-30"/>
      </g>
     </g>
    </g>
    <g id="xtick_2">
     <g id="line2d_2">
      <g>
       <use xlink:href="#m1b1e5ffd27" x="120.18503" y="307.584" style="stroke: #000000; stroke-width: 0.8"/>
      </g>
     </g>
     <g id="text_2">
      <!-- 250 -->
      <g transform="translate(111.388937 322.57775) scale(0.1 -0.1)">
       <defs>
        <path id="MicrosoftYaHei-32" d="M 2666 3572 
Q 2666 3963 2419 4186 
Q 2172 4409 1747 4409 
Q 1447 4409 1140 4256 
Q 834 4103 569 3819 
L 569 4413 
Q 806 4659 1107 4790 
Q 1409 4922 1816 4922 
Q 2472 4922 2872 4570 
Q 3272 4219 3272 3619 
Q 3272 3084 3026 2693 
Q 2781 2303 2188 1894 
Q 1581 1475 1376 1294 
Q 1172 1113 1090 947 
Q 1009 781 1009 544 
L 3416 544 
L 3416 0 
L 372 0 
L 372 241 
Q 372 659 486 951 
Q 600 1244 862 1520 
Q 1125 1797 1681 2184 
Q 2250 2584 2458 2886 
Q 2666 3188 2666 3572 
z
" transform="scale(0.015625)"/>
        <path id="MicrosoftYaHei-35" d="M 3294 1494 
Q 3294 784 2823 350 
Q 2353 -84 1559 -84 
Q 878 -84 544 119 
L 544 744 
Q 1034 425 1544 425 
Q 2050 425 2361 704 
Q 2672 984 2672 1447 
Q 2672 1909 2348 2167 
Q 2025 2425 1434 2425 
Q 978 2425 613 2384 
L 791 4841 
L 3053 4841 
L 3053 4303 
L 1306 4303 
L 1206 2931 
L 1647 2950 
Q 2416 2950 2855 2567 
Q 3294 2184 3294 1494 
z
" transform="scale(0.015625)"/>
       </defs>
       <use xlink:href="#MicrosoftYaHei-32"/>
       <use xlink:href="#MicrosoftYaHei-35" x="58.642578"/>
       <use xlink:href="#MicrosoftYaHei-30" x="117.285156"/>
      </g>
     </g>
    </g>
    <g id="xtick_3">
     <g id="line2d_3">
      <g>
       <use xlink:href="#m1b1e5ffd27" x="167.291029" y="307.584" style="stroke: #000000; stroke-width: 0.8"/>
      </g>
     </g>
     <g id="text_3">
      <!-- 500 -->
      <g transform="translate(158.494936 322.57775) scale(0.1 -0.1)">
       <use xlink:href="#MicrosoftYaHei-35"/>
       <use xlink:href="#MicrosoftYaHei-30" x="58.642578"/>
       <use xlink:href="#MicrosoftYaHei-30" x="117.285156"/>
      </g>
     </g>
    </g>
    <g id="xtick_4">
     <g id="line2d_4">
      <g>
       <use xlink:href="#m1b1e5ffd27" x="214.397028" y="307.584" style="stroke: #000000; stroke-width: 0.8"/>
      </g>
     </g>
     <g id="text_4">
      <!-- 750 -->
      <g transform="translate(205.600935 322.57775) scale(0.1 -0.1)">
       <defs>
        <path id="MicrosoftYaHei-37" d="M 3422 4463 
Q 2659 3131 2223 1998 
Q 1788 866 1684 0 
L 1047 0 
Q 1163 853 1594 1947 
Q 2025 3041 2747 4300 
L 347 4300 
L 347 4841 
L 3422 4841 
L 3422 4463 
z
" transform="scale(0.015625)"/>
       </defs>
       <use xlink:href="#MicrosoftYaHei-37"/>
       <use xlink:href="#MicrosoftYaHei-35" x="58.642578"/>
       <use xlink:href="#MicrosoftYaHei-30" x="117.285156"/>
      </g>
     </g>
    </g>
    <g id="xtick_5">
     <g id="line2d_5">
      <g>
       <use xlink:href="#m1b1e5ffd27" x="261.503027" y="307.584" style="stroke: #000000; stroke-width: 0.8"/>
      </g>
     </g>
     <g id="text_5">
      <!-- 1000 -->
      <g transform="translate(249.774902 322.57775) scale(0.1 -0.1)">
       <defs>
        <path id="MicrosoftYaHei-31" d="M 1781 0 
L 1781 4141 
Q 1638 3997 1295 3819 
Q 953 3641 663 3569 
L 663 4169 
Q 1047 4275 1484 4508 
Q 1922 4741 2156 4947 
L 2388 4947 
L 2388 0 
L 1781 0 
z
" transform="scale(0.015625)"/>
       </defs>
       <use xlink:href="#MicrosoftYaHei-31"/>
       <use xlink:href="#MicrosoftYaHei-30" x="58.642578"/>
       <use xlink:href="#MicrosoftYaHei-30" x="117.285156"/>
       <use xlink:href="#MicrosoftYaHei-30" x="175.927734"/>
      </g>
     </g>
    </g>
    <g id="xtick_6">
     <g id="line2d_6">
      <g>
       <use xlink:href="#m1b1e5ffd27" x="308.609027" y="307.584" style="stroke: #000000; stroke-width: 0.8"/>
      </g>
     </g>
     <g id="text_6">
      <!-- 1250 -->
      <g transform="translate(296.880902 322.57775) scale(0.1 -0.1)">
       <use xlink:href="#MicrosoftYaHei-31"/>
       <use xlink:href="#MicrosoftYaHei-32" x="58.642578"/>
       <use xlink:href="#MicrosoftYaHei-35" x="117.285156"/>
       <use xlink:href="#MicrosoftYaHei-30" x="175.927734"/>
      </g>
     </g>
    </g>
    <g id="xtick_7">
     <g id="line2d_7">
      <g>
       <use xlink:href="#m1b1e5ffd27" x="355.715026" y="307.584" style="stroke: #000000; stroke-width: 0.8"/>
      </g>
     </g>
     <g id="text_7">
      <!-- 1500 -->
      <g transform="translate(343.986901 322.57775) scale(0.1 -0.1)">
       <use xlink:href="#MicrosoftYaHei-31"/>
       <use xlink:href="#MicrosoftYaHei-35" x="58.642578"/>
       <use xlink:href="#MicrosoftYaHei-30" x="117.285156"/>
       <use xlink:href="#MicrosoftYaHei-30" x="175.927734"/>
      </g>
     </g>
    </g>
    <g id="xtick_8">
     <g id="line2d_8">
      <g>
       <use xlink:href="#m1b1e5ffd27" x="402.821025" y="307.584" style="stroke: #000000; stroke-width: 0.8"/>
      </g>
     </g>
     <g id="text_8">
      <!-- 1750 -->
      <g transform="translate(391.0929 322.57775) scale(0.1 -0.1)">
       <use xlink:href="#MicrosoftYaHei-31"/>
       <use xlink:href="#MicrosoftYaHei-37" x="58.642578"/>
       <use xlink:href="#MicrosoftYaHei-35" x="117.285156"/>
       <use xlink:href="#MicrosoftYaHei-30" x="175.927734"/>
      </g>
     </g>
    </g>
    <g id="text_9">
     <!-- Batch step -->
     <g transform="translate(211.235 337.057437) scale(0.1 -0.1)">
      <defs>
       <path id="MicrosoftYaHei-42" d="M 625 0 
L 625 4841 
L 2047 4841 
Q 2684 4841 3065 4536 
Q 3447 4231 3447 3728 
Q 3447 3328 3220 3022 
Q 2994 2716 2597 2588 
L 2597 2575 
Q 3091 2519 3386 2201 
Q 3681 1884 3681 1397 
Q 3681 772 3232 386 
Q 2784 0 2084 0 
L 625 0 
z
M 1250 4294 
L 1250 2778 
L 1819 2778 
Q 2272 2778 2530 2998 
Q 2788 3219 2788 3609 
Q 2788 4294 1875 4294 
L 1250 4294 
z
M 1250 2234 
L 1250 547 
L 2000 547 
Q 2491 547 2758 773 
Q 3025 1000 3025 1403 
Q 3025 2234 1897 2234 
L 1250 2234 
z
" transform="scale(0.015625)"/>
       <path id="MicrosoftYaHei-61" d="M 628 3216 
Q 1144 3538 1819 3538 
Q 3069 3538 3069 2225 
L 3069 0 
L 2463 0 
L 2463 534 
L 2447 534 
Q 2088 -81 1388 -81 
Q 884 -81 587 191 
Q 291 463 291 925 
Q 291 1894 1438 2053 
L 2463 2197 
Q 2463 3044 1763 3044 
Q 1141 3044 628 2625 
L 628 3216 
z
M 1653 1625 
Q 1228 1569 1067 1412 
Q 906 1256 906 975 
Q 906 728 1081 572 
Q 1256 416 1544 416 
Q 1944 416 2203 697 
Q 2463 978 2463 1403 
L 2463 1734 
L 1653 1625 
z
" transform="scale(0.015625)"/>
       <path id="MicrosoftYaHei-74" d="M 2206 34 
Q 2006 -75 1666 -75 
Q 738 -75 738 953 
L 738 2950 
L 144 2950 
L 144 3456 
L 738 3456 
L 738 4288 
L 1347 4481 
L 1347 3456 
L 2206 3456 
L 2206 2950 
L 1347 2950 
L 1347 1063 
Q 1347 722 1462 575 
Q 1578 428 1847 428 
Q 2053 428 2206 544 
L 2206 34 
z
" transform="scale(0.015625)"/>
       <path id="MicrosoftYaHei-63" d="M 2934 156 
Q 2538 -81 1978 -81 
Q 1228 -81 772 400 
Q 316 881 316 1647 
Q 316 2497 808 3017 
Q 1300 3538 2125 3538 
Q 2600 3538 2938 3369 
L 2938 2763 
Q 2572 3031 2125 3031 
Q 1600 3031 1270 2667 
Q 941 2303 941 1697 
Q 941 1100 1252 762 
Q 1563 425 2091 425 
Q 2538 425 2934 719 
L 2934 156 
z
" transform="scale(0.015625)"/>
       <path id="MicrosoftYaHei-68" d="M 3466 0 
L 2856 0 
L 2856 1988 
Q 2856 3031 2081 3031 
Q 1684 3031 1421 2726 
Q 1159 2422 1159 1959 
L 1159 0 
L 547 0 
L 547 5116 
L 1159 5116 
L 1159 2888 
L 1172 2888 
Q 1569 3538 2300 3538 
Q 3466 3538 3466 2128 
L 3466 0 
z
" transform="scale(0.015625)"/>
       <path id="MicrosoftYaHei-20" transform="scale(0.015625)"/>
       <path id="MicrosoftYaHei-73" d="M 353 747 
Q 816 413 1350 413 
Q 2066 413 2066 881 
Q 2066 1081 1909 1211 
Q 1753 1341 1275 1519 
Q 700 1750 528 1976 
Q 356 2203 356 2525 
Q 356 2984 745 3261 
Q 1134 3538 1703 3538 
Q 2144 3538 2522 3384 
L 2522 2794 
Q 2134 3044 1644 3044 
Q 1350 3044 1165 2916 
Q 981 2788 981 2578 
Q 981 2372 1114 2256 
Q 1247 2141 1703 1959 
Q 2281 1744 2484 1512 
Q 2688 1281 2688 941 
Q 2688 466 2298 192 
Q 1909 -81 1291 -81 
Q 753 -81 353 122 
L 353 747 
z
" transform="scale(0.015625)"/>
       <path id="MicrosoftYaHei-65" d="M 3363 1572 
L 944 1572 
Q 959 1019 1246 717 
Q 1534 416 2050 416 
Q 2631 416 3116 788 
L 3116 241 
Q 2659 -81 1906 -81 
Q 1156 -81 736 394 
Q 316 869 316 1713 
Q 316 2506 777 3022 
Q 1238 3538 1922 3538 
Q 2600 3538 2981 3102 
Q 3363 2666 3363 1881 
L 3363 1572 
z
M 2750 2063 
Q 2747 2531 2528 2787 
Q 2309 3044 1913 3044 
Q 1547 3044 1280 2772 
Q 1013 2500 944 2063 
L 2750 2063 
z
" transform="scale(0.015625)"/>
       <path id="MicrosoftYaHei-70" d="M 1159 488 
L 1159 -1591 
L 547 -1591 
L 547 3456 
L 1159 3456 
L 1159 2859 
L 1172 2859 
Q 1578 3538 2359 3538 
Q 3022 3538 3398 3073 
Q 3775 2609 3775 1828 
Q 3775 966 3348 442 
Q 2922 -81 2200 -81 
Q 1534 -81 1172 488 
L 1159 488 
z
M 1156 1425 
Q 1156 1003 1428 714 
Q 1700 425 2109 425 
Q 2597 425 2872 800 
Q 3147 1175 3147 1838 
Q 3147 2397 2890 2714 
Q 2634 3031 2191 3031 
Q 1738 3031 1447 2709 
Q 1156 2388 1156 1884 
L 1156 1425 
z
" transform="scale(0.015625)"/>
      </defs>
      <use xlink:href="#MicrosoftYaHei-42"/>
      <use xlink:href="#MicrosoftYaHei-61" x="62.744141"/>
      <use xlink:href="#MicrosoftYaHei-74" x="118.017578"/>
      <use xlink:href="#MicrosoftYaHei-63" x="153.898438"/>
      <use xlink:href="#MicrosoftYaHei-68" x="204.044922"/>
      <use xlink:href="#MicrosoftYaHei-20" x="265.617188"/>
      <use xlink:href="#MicrosoftYaHei-73" x="295.207031"/>
      <use xlink:href="#MicrosoftYaHei-74" x="341.496094"/>
      <use xlink:href="#MicrosoftYaHei-65" x="377.876953"/>
      <use xlink:href="#MicrosoftYaHei-70" x="434.615234"/>
     </g>
    </g>
   </g>
   <g id="matplotlib.axis_2">
    <g id="ytick_1">
     <g id="line2d_9">
      <defs>
       <path id="me260b56a4f" d="M 0 0 
L -3.5 0 
" style="stroke: #000000; stroke-width: 0.8"/>
      </defs>
      <g>
       <use xlink:href="#me260b56a4f" x="57.6" y="288.89368" style="stroke: #000000; stroke-width: 0.8"/>
      </g>
     </g>
     <g id="text_10">
      <!-- 2 -->
      <g transform="translate(44.735937 292.890555) scale(0.1 -0.1)">
       <use xlink:href="#MicrosoftYaHei-32"/>
      </g>
     </g>
    </g>
    <g id="ytick_2">
     <g id="line2d_10">
      <g>
       <use xlink:href="#me260b56a4f" x="57.6" y="252.230084" style="stroke: #000000; stroke-width: 0.8"/>
      </g>
     </g>
     <g id="text_11">
      <!-- 4 -->
      <g transform="translate(44.735937 256.226959) scale(0.1 -0.1)">
       <defs>
        <path id="MicrosoftYaHei-34" d="M 2906 4841 
L 2906 1644 
L 3631 1644 
L 3631 1138 
L 2906 1138 
L 2906 0 
L 2313 0 
L 2313 1138 
L 53 1138 
L 53 1616 
Q 656 2294 1265 3178 
Q 1875 4063 2272 4841 
L 2906 4841 
z
M 741 1644 
L 2313 1644 
L 2313 3950 
Q 1988 3366 1616 2817 
Q 1244 2269 741 1644 
z
" transform="scale(0.015625)"/>
       </defs>
       <use xlink:href="#MicrosoftYaHei-34"/>
      </g>
     </g>
    </g>
    <g id="ytick_3">
     <g id="line2d_11">
      <g>
       <use xlink:href="#me260b56a4f" x="57.6" y="215.566489" style="stroke: #000000; stroke-width: 0.8"/>
      </g>
     </g>
     <g id="text_12">
      <!-- 6 -->
      <g transform="translate(44.735937 219.563364) scale(0.1 -0.1)">
       <defs>
        <path id="MicrosoftYaHei-36" d="M 3181 4219 
Q 2803 4413 2391 4413 
Q 1763 4413 1381 3866 
Q 1000 3319 994 2372 
L 1009 2372 
Q 1353 3038 2106 3038 
Q 2734 3038 3109 2628 
Q 3484 2219 3484 1541 
Q 3484 831 3051 375 
Q 2619 -81 1947 -81 
Q 1209 -81 789 495 
Q 369 1072 369 2131 
Q 369 3413 920 4167 
Q 1472 4922 2372 4922 
Q 2888 4922 3181 4781 
L 3181 4219 
z
M 1031 1584 
Q 1031 1106 1286 765 
Q 1541 425 1963 425 
Q 2363 425 2613 719 
Q 2863 1013 2863 1475 
Q 2863 1975 2627 2253 
Q 2391 2531 1956 2531 
Q 1544 2531 1287 2250 
Q 1031 1969 1031 1584 
z
" transform="scale(0.015625)"/>
       </defs>
       <use xlink:href="#MicrosoftYaHei-36"/>
      </g>
     </g>
    </g>
    <g id="ytick_4">
     <g id="line2d_12">
      <g>
       <use xlink:href="#me260b56a4f" x="57.6" y="178.902894" style="stroke: #000000; stroke-width: 0.8"/>
      </g>
     </g>
     <g id="text_13">
      <!-- 8 -->
      <g transform="translate(44.735937 182.899769) scale(0.1 -0.1)">
       <defs>
        <path id="MicrosoftYaHei-38" d="M 306 1350 
Q 306 1769 556 2122 
Q 806 2475 1200 2625 
Q 884 2803 700 3081 
Q 516 3359 516 3684 
Q 516 4028 692 4312 
Q 869 4597 1183 4759 
Q 1497 4922 1875 4922 
Q 2256 4922 2572 4761 
Q 2888 4600 3063 4315 
Q 3238 4031 3238 3684 
Q 3238 3366 3058 3086 
Q 2878 2806 2559 2625 
Q 2953 2472 3200 2119 
Q 3447 1766 3447 1350 
Q 3447 938 3250 611 
Q 3053 284 2690 103 
Q 2328 -78 1875 -78 
Q 1425 -78 1065 103 
Q 706 284 506 612 
Q 306 941 306 1350 
z
M 906 1378 
Q 906 947 1172 687 
Q 1438 428 1878 428 
Q 2309 428 2582 692 
Q 2856 956 2856 1378 
Q 2856 1778 2579 2051 
Q 2303 2325 1878 2325 
Q 1456 2325 1181 2058 
Q 906 1791 906 1378 
z
M 1081 3634 
Q 1081 3309 1312 3076 
Q 1544 2844 1878 2844 
Q 2206 2844 2445 3078 
Q 2684 3313 2684 3634 
Q 2684 3963 2454 4191 
Q 2225 4419 1878 4419 
Q 1534 4419 1307 4195 
Q 1081 3972 1081 3634 
z
" transform="scale(0.015625)"/>
       </defs>
       <use xlink:href="#MicrosoftYaHei-38"/>
      </g>
     </g>
    </g>
    <g id="ytick_5">
     <g id="line2d_13">
      <g>
       <use xlink:href="#me260b56a4f" x="57.6" y="142.239298" style="stroke: #000000; stroke-width: 0.8"/>
      </g>
     </g>
     <g id="text_14">
      <!-- 10 -->
      <g transform="translate(38.871875 146.236173) scale(0.1 -0.1)">
       <use xlink:href="#MicrosoftYaHei-31"/>
       <use xlink:href="#MicrosoftYaHei-30" x="58.642578"/>
      </g>
     </g>
    </g>
    <g id="ytick_6">
     <g id="line2d_14">
      <g>
       <use xlink:href="#me260b56a4f" x="57.6" y="105.575703" style="stroke: #000000; stroke-width: 0.8"/>
      </g>
     </g>
     <g id="text_15">
      <!-- 12 -->
      <g transform="translate(38.871875 109.572578) scale(0.1 -0.1)">
       <use xlink:href="#MicrosoftYaHei-31"/>
       <use xlink:href="#MicrosoftYaHei-32" x="58.642578"/>
      </g>
     </g>
    </g>
    <g id="ytick_7">
     <g id="line2d_15">
      <g>
       <use xlink:href="#me260b56a4f" x="57.6" y="68.912108" style="stroke: #000000; stroke-width: 0.8"/>
      </g>
     </g>
     <g id="text_16">
      <!-- 14 -->
      <g transform="translate(38.871875 72.908983) scale(0.1 -0.1)">
       <use xlink:href="#MicrosoftYaHei-31"/>
       <use xlink:href="#MicrosoftYaHei-34" x="58.642578"/>
      </g>
     </g>
    </g>
    <g id="text_17">
     <!-- Batch loss -->
     <g transform="translate(32.385937 198.428) rotate(-90) scale(0.1 -0.1)">
      <defs>
       <path id="MicrosoftYaHei-6c" d="M 544 0 
L 544 5116 
L 1156 5116 
L 1156 0 
L 544 0 
z
" transform="scale(0.015625)"/>
       <path id="MicrosoftYaHei-6f" d="M 316 1691 
Q 316 2547 794 3042 
Q 1272 3538 2091 3538 
Q 2869 3538 3311 3061 
Q 3753 2584 3753 1744 
Q 3753 925 3281 422 
Q 2809 -81 2016 -81 
Q 1241 -81 778 406 
Q 316 894 316 1691 
z
M 941 1709 
Q 941 1113 1242 769 
Q 1544 425 2053 425 
Q 2578 425 2853 761 
Q 3128 1097 3128 1725 
Q 3128 2356 2853 2693 
Q 2578 3031 2053 3031 
Q 1538 3031 1239 2678 
Q 941 2325 941 1709 
z
" transform="scale(0.015625)"/>
      </defs>
      <use xlink:href="#MicrosoftYaHei-42"/>
      <use xlink:href="#MicrosoftYaHei-61" x="62.744141"/>
      <use xlink:href="#MicrosoftYaHei-74" x="118.017578"/>
      <use xlink:href="#MicrosoftYaHei-63" x="153.898438"/>
      <use xlink:href="#MicrosoftYaHei-68" x="204.044922"/>
      <use xlink:href="#MicrosoftYaHei-20" x="265.617188"/>
      <use xlink:href="#MicrosoftYaHei-6c" x="295.207031"/>
      <use xlink:href="#MicrosoftYaHei-6f" x="321.818359"/>
      <use xlink:href="#MicrosoftYaHei-73" x="385.392578"/>
      <use xlink:href="#MicrosoftYaHei-73" x="431.681641"/>
     </g>
    </g>
   </g>
   <g id="line2d_16">
    <path d="M 73.832727 53.568 
L 74.209575 172.467985 
L 74.586423 239.854214 
L 74.774847 258.675562 
L 75.151695 268.521234 
L 75.340119 265.982139 
L 75.716967 253.17861 
L 76.282239 238.123422 
L 76.470663 245.945963 
L 76.659087 242.737659 
L 77.224359 260.480302 
L 77.412783 259.534169 
L 77.789631 273.381986 
L 78.354903 281.617491 
L 78.543327 282.083974 
L 78.920175 278.105057 
L 79.108599 277.642503 
L 79.485447 275.405602 
L 79.673871 273.733635 
L 79.862295 273.31562 
L 80.050719 273.584347 
L 80.239143 274.772289 
L 81.181263 283.949805 
L 81.369687 282.071241 
L 81.558111 281.501915 
L 81.746535 281.543093 
L 81.934959 280.939664 
L 82.123383 279.90773 
L 82.311807 283.037108 
L 82.500231 282.175538 
L 82.877079 284.236264 
L 83.065503 283.78339 
L 83.253927 283.932478 
L 83.442351 285.892576 
L 83.630775 284.190995 
L 83.819199 284.200206 
L 84.007623 284.985455 
L 84.384471 283.830581 
L 84.572895 283.328627 
L 84.949743 284.102607 
L 85.138167 283.885269 
L 85.515015 285.943489 
L 85.703439 284.472571 
L 85.891863 283.904332 
L 86.080287 285.177231 
L 86.268711 285.513565 
L 86.457135 285.193184 
L 86.645559 285.734266 
L 86.833983 286.688774 
L 87.022407 285.665369 
L 87.210831 283.681903 
L 87.399255 283.939552 
L 87.587679 284.745489 
L 87.776103 283.791725 
L 88.152951 284.942246 
L 88.529799 284.45279 
L 88.718223 284.774192 
L 88.906647 284.136272 
L 89.095071 282.857105 
L 89.283495 283.705974 
L 89.471919 282.594345 
L 89.660343 282.696903 
L 89.848767 281.850135 
L 90.037191 284.377954 
L 90.225615 284.028619 
L 90.414039 285.02429 
L 90.602463 285.288329 
L 90.790887 286.546649 
L 90.979311 285.961709 
L 91.167735 286.09531 
L 91.544583 284.739506 
L 91.733007 284.883383 
L 92.109855 284.238166 
L 92.298279 284.914964 
L 92.486703 286.874805 
L 92.675127 286.628458 
L 93.051975 287.636228 
L 93.240399 288.276866 
L 93.428823 286.397325 
L 93.617247 287.088382 
L 93.805671 286.486444 
L 93.994095 287.244523 
L 94.182519 286.663248 
L 94.370943 287.669287 
L 94.559367 287.769559 
L 94.747791 288.409205 
L 94.936215 287.417227 
L 95.124639 287.716873 
L 95.313063 287.568302 
L 95.501487 286.257174 
L 95.689911 285.981864 
L 95.878335 286.039438 
L 96.255183 285.866345 
L 97.008879 289.721382 
L 97.197303 289.97275 
L 97.385727 289.189509 
L 97.762575 285.719745 
L 98.139423 284.386548 
L 98.327847 284.487881 
L 98.704695 287.514659 
L 99.269967 288.657677 
L 99.458391 288.739338 
L 99.835239 287.189169 
L 100.023663 286.98496 
L 100.212087 286.95771 
L 100.400511 287.237754 
L 100.588935 287.111631 
L 100.965783 288.971293 
L 101.154207 289.380065 
L 101.342631 288.736027 
L 101.531055 289.490707 
L 102.096327 287.109547 
L 102.284751 287.681616 
L 102.473175 287.069297 
L 102.661599 287.050974 
L 102.850023 288.362243 
L 103.038447 288.3757 
L 103.226871 287.924805 
L 103.603719 288.810395 
L 103.792143 287.847631 
L 103.980567 288.046419 
L 104.168991 289.139097 
L 104.357415 288.987789 
L 104.734263 290.212165 
L 104.922687 291.241432 
L 105.676383 288.605732 
L 105.864807 288.495782 
L 106.053231 287.350592 
L 106.241655 287.495592 
L 106.430079 286.759064 
L 106.618503 287.252964 
L 106.806927 285.897376 
L 106.995351 287.361971 
L 107.183775 287.642309 
L 107.372199 288.653129 
L 107.560623 288.46672 
L 107.749047 289.302823 
L 107.937471 288.479205 
L 108.125895 288.620388 
L 108.314319 288.309776 
L 108.502743 288.565989 
L 108.691167 288.51549 
L 108.879591 288.790505 
L 109.256439 288.542683 
L 109.444863 288.304853 
L 109.633287 288.698954 
L 109.821711 288.513871 
L 110.010135 287.817833 
L 110.198559 287.909796 
L 110.386983 287.536903 
L 110.575407 288.108727 
L 110.763831 287.96499 
L 111.329103 289.600152 
L 111.517527 289.15909 
L 111.894375 290.226802 
L 112.082799 290.077661 
L 112.271222 290.109918 
L 112.459646 289.690819 
L 112.64807 287.977463 
L 113.024918 286.95763 
L 113.213342 287.405373 
L 113.401766 287.421047 
L 113.59019 289.489505 
L 113.967038 290.085781 
L 114.343886 290.400894 
L 114.720734 288.118028 
L 114.909158 288.367131 
L 115.097582 287.105277 
L 115.286006 287.301336 
L 115.47443 287.916512 
L 115.662854 289.190278 
L 115.851278 288.94934 
L 116.039702 289.253357 
L 116.228126 289.061323 
L 116.604974 289.415855 
L 116.793398 289.603132 
L 116.981822 289.553338 
L 117.170246 289.851561 
L 117.735518 287.389035 
L 117.923942 288.109871 
L 118.112366 287.437423 
L 118.30079 287.789676 
L 118.489214 289.217083 
L 118.677638 289.239243 
L 119.24291 288.788969 
L 119.431334 287.69817 
L 119.619758 288.227624 
L 119.808182 288.274807 
L 120.373454 289.41542 
L 120.561878 289.494228 
L 120.750302 288.693768 
L 120.938726 288.925069 
L 121.692422 290.897814 
L 121.880846 290.914013 
L 122.06927 290.43318 
L 122.257694 290.383671 
L 122.446118 288.802014 
L 122.822966 288.957123 
L 123.01139 289.984851 
L 123.199814 289.615527 
L 123.576662 290.397141 
L 123.765086 290.305577 
L 123.95351 288.653691 
L 124.141934 289.478278 
L 124.330358 289.715044 
L 124.518782 288.916198 
L 124.707206 288.720242 
L 124.89563 289.252146 
L 125.272478 288.522515 
L 125.460902 288.671374 
L 125.649326 288.051558 
L 125.83775 288.07859 
L 126.214598 288.363658 
L 126.403022 286.790659 
L 126.591446 286.954872 
L 126.77987 287.666784 
L 126.968294 287.044747 
L 127.156718 288.07595 
L 127.533566 290.940508 
L 127.72199 289.986777 
L 127.910414 291.109557 
L 128.287262 289.590086 
L 128.475686 287.389663 
L 128.66411 288.811526 
L 128.852534 287.119963 
L 129.040958 286.930099 
L 129.229382 287.508229 
L 129.417806 288.629079 
L 129.60623 287.477734 
L 129.983078 287.915383 
L 130.171502 287.594048 
L 131.113622 290.464458 
L 131.302046 290.534834 
L 131.49047 290.423607 
L 131.678894 289.248585 
L 131.867318 289.064828 
L 132.055742 288.724747 
L 132.43259 286.506014 
L 132.621014 287.809298 
L 132.809438 286.694717 
L 132.997862 287.630155 
L 133.186286 289.886548 
L 133.37471 290.445261 
L 133.563134 290.173913 
L 133.751558 291.403406 
L 133.939982 291.054613 
L 134.128406 290.382023 
L 134.31683 290.619153 
L 134.505254 290.092279 
L 134.693678 289.124136 
L 134.882102 289.348678 
L 135.070526 288.933565 
L 135.25895 288.873491 
L 135.447374 289.527284 
L 136.012646 289.244253 
L 136.20107 289.582024 
L 136.389494 289.416509 
L 136.577918 290.72309 
L 136.766342 290.758772 
L 136.954766 291.232791 
L 137.708462 289.276122 
L 137.896886 289.383902 
L 138.273734 290.642201 
L 138.462158 291.149935 
L 138.650582 291.214394 
L 138.839006 290.774015 
L 139.02743 289.780086 
L 139.215854 289.89671 
L 139.404278 289.345966 
L 139.592702 290.303886 
L 139.781126 290.61042 
L 139.96955 290.15453 
L 140.346398 290.093921 
L 140.534822 289.156254 
L 140.723246 289.239628 
L 140.91167 290.22007 
L 141.100094 289.928805 
L 141.476942 289.908597 
L 141.665366 289.503989 
L 142.042214 290.405788 
L 142.230638 290.638249 
L 142.419062 291.089555 
L 142.607486 290.732219 
L 142.79591 289.811201 
L 142.984334 289.642422 
L 143.172758 289.713661 
L 143.361182 289.403836 
L 143.73803 290.419462 
L 143.926454 290.032906 
L 144.114878 290.563196 
L 144.303302 290.713519 
L 144.491726 291.170505 
L 144.68015 290.382387 
L 144.868574 290.583222 
L 145.056998 289.413194 
L 145.245422 290.381065 
L 145.999118 291.734138 
L 146.187542 291.206425 
L 146.375966 290.238294 
L 146.56439 290.125907 
L 147.129662 289.016055 
L 147.318086 289.356735 
L 147.694934 289.200794 
L 147.883358 289.124705 
L 148.071782 289.265697 
L 148.44863 288.737633 
L 148.637054 289.087968 
L 148.825478 289.861972 
L 149.013902 289.296515 
L 149.39075 289.630187 
L 149.767598 288.104272 
L 150.144446 288.274765 
L 150.521294 289.801802 
L 150.709718 289.424394 
L 150.898142 289.31858 
L 151.27499 288.356344 
L 151.463414 288.255498 
L 151.651838 289.820233 
L 151.840262 290.078678 
L 152.028686 290.694265 
L 152.21711 290.521651 
L 152.593958 289.366121 
L 152.782382 289.898574 
L 152.970806 289.097158 
L 153.15923 289.488351 
L 153.347654 290.391176 
L 153.536078 290.542306 
L 153.724502 290.046728 
L 153.912926 290.251752 
L 154.10135 291.218437 
L 154.289774 290.605409 
L 154.478198 290.375883 
L 154.855046 292.1806 
L 155.04347 291.126455 
L 155.231894 291.797534 
L 155.420318 291.828964 
L 155.797166 290.597128 
L 155.98559 291.192908 
L 156.362438 290.534387 
L 156.550862 287.816817 
L 156.739286 287.568821 
L 156.92771 287.802947 
L 157.116134 287.537493 
L 157.304558 287.996427 
L 157.492982 291.45842 
L 157.681406 292.061372 
L 157.86983 290.325044 
L 158.246678 290.409047 
L 158.435102 290.106521 
L 158.623526 289.421299 
L 158.81195 290.563628 
L 159.000374 290.879769 
L 159.188798 290.030463 
L 159.377222 289.704561 
L 159.565646 290.256768 
L 159.75407 289.296138 
L 160.130918 289.851025 
L 160.319342 289.512253 
L 160.507766 288.173645 
L 160.69619 289.207184 
L 160.884614 288.899153 
L 161.073038 289.435505 
L 161.261462 289.470105 
L 161.449886 290.570777 
L 161.63831 289.663252 
L 161.826733 289.704875 
L 162.015157 289.963355 
L 162.203581 290.512556 
L 162.392005 290.353296 
L 162.580429 291.08477 
L 162.768853 290.883578 
L 162.957277 290.197316 
L 163.145701 290.801544 
L 163.334125 290.92884 
L 163.522549 291.312702 
L 163.710973 291.263613 
L 163.899397 292.009243 
L 164.087821 291.658018 
L 164.276245 291.9753 
L 164.464669 291.782359 
L 164.653093 291.941632 
L 164.841517 291.885083 
L 165.218365 291.207726 
L 165.406789 290.679994 
L 165.595213 290.616705 
L 165.972061 291.073446 
L 166.537333 292.784541 
L 166.725757 292.628513 
L 166.914181 292.75279 
L 167.856301 289.52251 
L 168.044725 289.716374 
L 168.233149 290.136944 
L 168.609997 291.925152 
L 168.798421 292.567925 
L 168.986845 292.000889 
L 169.175269 291.903998 
L 169.363693 290.302597 
L 169.552117 290.071704 
L 169.740541 290.273575 
L 169.928965 291.333275 
L 170.117389 291.130947 
L 170.305813 291.455283 
L 170.871085 290.254 
L 171.059509 290.431419 
L 171.247933 289.255751 
L 171.436357 289.939308 
L 171.624781 289.772963 
L 171.813205 290.233654 
L 172.001629 289.73039 
L 172.190053 290.796556 
L 172.378477 290.512334 
L 172.566901 291.233936 
L 172.755325 291.025419 
L 173.132173 291.984534 
L 173.320597 291.815916 
L 173.509021 291.450065 
L 173.697445 289.71222 
L 173.885869 289.412923 
L 174.262717 289.924982 
L 174.451141 290.001177 
L 174.639565 291.797347 
L 174.827989 290.565541 
L 175.016413 290.846218 
L 175.393261 290.523779 
L 175.581685 290.489914 
L 175.770109 292.848547 
L 175.958533 291.843175 
L 176.146957 291.477363 
L 176.335381 291.670973 
L 176.712229 291.213288 
L 176.900653 291.644529 
L 177.089077 291.452859 
L 177.277501 291.641425 
L 177.465925 290.634556 
L 177.654349 290.580729 
L 177.842773 290.114365 
L 178.031197 290.62371 
L 178.219621 290.092559 
L 178.408045 291.067413 
L 178.596469 291.019401 
L 178.784893 292.074783 
L 178.973317 292.174252 
L 179.161741 292.440941 
L 179.350165 293.143616 
L 179.538589 293.104071 
L 179.727013 292.595929 
L 179.915437 292.757175 
L 180.103861 292.353279 
L 180.480709 289.664924 
L 180.857557 288.861405 
L 181.422829 291.180215 
L 181.611253 292.563722 
L 181.799677 292.294831 
L 181.988101 292.628155 
L 182.176525 293.799943 
L 182.364949 293.685149 
L 182.553373 293.014362 
L 183.118645 289.979485 
L 183.495493 289.687979 
L 183.683917 291.537568 
L 183.872341 290.849063 
L 184.060765 291.820904 
L 184.437613 290.19406 
L 184.626037 289.805005 
L 184.814461 290.323367 
L 185.002885 289.037474 
L 185.379733 290.359671 
L 185.568157 290.55587 
L 185.756581 290.540421 
L 186.133429 291.735922 
L 186.321853 291.557885 
L 186.510277 291.533242 
L 186.887125 293.137462 
L 187.263973 292.330169 
L 187.452397 292.252695 
L 187.829245 290.391967 
L 188.394517 292.003536 
L 188.582941 292.128999 
L 188.959789 291.276421 
L 189.148213 291.559853 
L 189.525061 291.222777 
L 189.713485 291.575154 
L 189.901909 291.603797 
L 190.090333 291.226652 
L 190.467181 291.955807 
L 190.655605 291.639091 
L 191.032453 292.131999 
L 191.409301 290.519424 
L 191.597725 291.098548 
L 191.786149 290.461631 
L 191.974573 290.315064 
L 192.162997 290.95191 
L 192.351421 292.552062 
L 192.539845 292.610466 
L 192.728269 293.280669 
L 192.916693 292.143959 
L 193.105117 291.977309 
L 193.293541 290.759404 
L 193.481965 290.783115 
L 193.670389 291.044362 
L 193.858813 292.477622 
L 194.047237 292.389468 
L 194.235661 293.314462 
L 194.612509 292.308656 
L 194.800933 292.721907 
L 194.989357 292.055888 
L 195.177781 290.271739 
L 195.366205 290.148795 
L 195.554629 289.684171 
L 195.743053 289.694359 
L 195.931477 290.211106 
L 196.308325 292.523128 
L 196.496749 293.627454 
L 196.685173 292.877043 
L 196.873597 292.880475 
L 197.062021 292.586563 
L 197.438869 290.098496 
L 197.815717 290.717097 
L 198.004141 290.498155 
L 198.380989 292.216761 
L 198.569413 292.271262 
L 198.757837 292.20536 
L 198.946261 293.305285 
L 199.699957 291.092371 
L 199.888381 290.031704 
L 200.076805 290.72348 
L 200.265229 290.271114 
L 200.453653 290.646746 
L 200.642077 290.397146 
L 200.830501 291.012139 
L 201.018925 290.334916 
L 201.207349 291.255792 
L 201.395773 291.034854 
L 201.584197 291.760141 
L 201.772621 291.828873 
L 202.149469 291.586074 
L 202.337893 291.987908 
L 202.714741 290.37943 
L 202.903165 290.034691 
L 203.091589 289.054696 
L 203.280013 289.248008 
L 203.656861 290.749947 
L 204.222133 291.699271 
L 204.410557 291.137712 
L 204.787405 291.232274 
L 204.975829 290.916805 
L 205.164253 290.820096 
L 205.541101 290.245184 
L 205.917949 291.751188 
L 206.294797 290.274845 
L 206.483221 290.293387 
L 206.671645 289.586299 
L 206.860069 289.547403 
L 207.236917 291.530166 
L 207.425341 290.881061 
L 207.613765 291.487947 
L 207.802189 291.657114 
L 207.990613 291.362019 
L 208.179037 290.777531 
L 208.367461 290.884133 
L 208.932733 291.471907 
L 209.121157 292.391812 
L 209.309581 292.367338 
L 209.498005 291.457438 
L 209.686429 291.563396 
L 209.874853 292.162363 
L 210.063277 291.706429 
L 210.440125 292.880845 
L 210.816973 292.008633 
L 211.005397 292.412518 
L 211.193821 291.589313 
L 211.570668 293.018561 
L 211.947516 291.94674 
L 212.13594 292.147971 
L 212.324364 292.180598 
L 212.512788 292.091427 
L 212.889636 292.592558 
L 213.07806 292.705564 
L 213.454908 291.885332 
L 213.643332 291.609587 
L 213.831756 292.103853 
L 214.02018 291.934849 
L 214.208604 291.477153 
L 214.585452 292.243127 
L 214.773876 292.192726 
L 214.9623 291.63214 
L 215.150724 292.22624 
L 215.339148 291.831128 
L 215.527572 291.75209 
L 215.715996 291.822694 
L 215.90442 292.750299 
L 216.092844 292.462835 
L 216.281268 292.576689 
L 216.469692 292.198784 
L 216.84654 290.557784 
L 217.034964 291.183731 
L 217.223388 290.217766 
L 217.600236 289.806439 
L 217.78866 290.016664 
L 217.977084 288.938473 
L 218.165508 289.137483 
L 218.353932 289.548542 
L 218.542356 290.278719 
L 218.73078 290.084443 
L 219.107628 292.491963 
L 219.484476 292.699926 
L 219.6729 292.467001 
L 219.861324 291.859615 
L 220.049748 291.911079 
L 220.238172 291.682322 
L 220.426596 290.686363 
L 220.61502 291.004842 
L 220.803444 290.379959 
L 220.991868 290.418604 
L 221.368716 291.392028 
L 221.745564 293.195341 
L 221.933988 292.974688 
L 222.122412 291.671134 
L 222.310836 292.05054 
L 222.49926 291.15267 
L 222.876108 292.007744 
L 223.252956 292.46817 
L 223.629804 292.179985 
L 223.818228 292.244767 
L 224.195076 293.666049 
L 224.3835 293.874175 
L 224.948772 292.291932 
L 225.137196 290.906795 
L 225.32562 291.688578 
L 225.890892 292.292718 
L 226.079316 293.202023 
L 226.456164 291.920901 
L 226.644588 291.873808 
L 226.833012 290.856604 
L 227.021436 291.327114 
L 227.20986 291.314515 
L 227.398284 290.391386 
L 227.586708 290.461868 
L 227.775132 290.81897 
L 228.15198 289.899942 
L 228.340404 291.102278 
L 228.528828 290.914984 
L 228.717252 290.483278 
L 229.0941 291.627401 
L 229.282524 292.190589 
L 229.659372 294.419541 
L 229.847796 294.059391 
L 230.03622 294.0206 
L 230.413068 293.199294 
L 230.601492 293.271887 
L 230.97834 293.912581 
L 231.166764 293.544104 
L 231.732036 290.707736 
L 231.92046 289.513569 
L 232.674156 292.019588 
L 232.86258 293.131874 
L 233.051004 292.686666 
L 233.239428 291.871664 
L 233.427852 292.486251 
L 233.616276 292.236785 
L 233.993124 290.383602 
L 234.181548 290.951261 
L 234.369972 290.338498 
L 234.558396 290.140879 
L 234.935244 292.003202 
L 235.123668 291.301602 
L 235.312092 291.240066 
L 235.500516 289.998907 
L 235.68894 289.611961 
L 235.877364 290.06142 
L 236.065788 291.278083 
L 236.254212 291.710924 
L 236.442636 292.774249 
L 236.63106 293.016592 
L 236.819484 292.531728 
L 237.007908 291.715215 
L 237.196332 291.771544 
L 237.384756 291.660344 
L 237.57318 292.287385 
L 237.761604 292.107585 
L 237.950028 292.86763 
L 238.138452 292.434017 
L 238.326876 292.528161 
L 238.703724 291.722073 
L 238.892148 290.679505 
L 239.080572 290.634042 
L 239.268996 290.704184 
L 239.45742 290.206324 
L 239.645844 290.373741 
L 240.022692 291.969194 
L 240.211116 292.055703 
L 240.587964 293.24262 
L 240.776388 293.280432 
L 240.964812 291.380959 
L 241.153236 291.381244 
L 241.530084 289.86915 
L 241.718508 290.258943 
L 241.906932 291.380895 
L 242.095356 291.054778 
L 242.472204 292.446787 
L 242.660628 291.865928 
L 243.037476 293.151628 
L 243.2259 292.460209 
L 243.414324 292.244622 
L 243.602748 292.563838 
L 243.979596 290.573011 
L 244.356444 291.294483 
L 244.733292 291.038849 
L 244.921716 291.264518 
L 245.11014 291.749192 
L 245.298564 291.422831 
L 245.486988 291.679941 
L 245.675412 292.705031 
L 245.863836 292.677162 
L 246.05226 291.294104 
L 246.240684 291.287256 
L 246.617532 291.770535 
L 246.805956 291.428108 
L 246.99438 292.526273 
L 247.182804 292.724922 
L 247.371228 292.645893 
L 247.559652 293.170187 
L 247.748076 294.110568 
L 247.9365 294.021351 
L 248.124924 294.725512 
L 248.313348 294.684849 
L 248.690196 291.528293 
L 248.87862 291.659722 
L 249.255468 290.05732 
L 249.632316 293.559445 
L 249.82074 293.676754 
L 250.009164 293.180531 
L 250.197588 293.227627 
L 250.76286 290.875766 
L 250.951284 291.37762 
L 251.139708 291.559741 
L 251.328132 291.352454 
L 251.516556 291.726705 
L 251.70498 291.609344 
L 251.893404 291.988025 
L 252.081828 291.56752 
L 252.270252 292.6252 
L 252.458676 292.666249 
L 252.6471 292.962788 
L 252.835524 292.344204 
L 253.023948 293.137073 
L 253.400796 292.950862 
L 253.58922 292.339327 
L 253.777644 292.576403 
L 253.966068 292.51454 
L 254.154492 292.808733 
L 254.342916 291.896013 
L 254.53134 292.522465 
L 254.719764 291.519278 
L 254.908188 291.530276 
L 255.096612 290.86317 
L 255.285036 292.048576 
L 255.47346 291.93162 
L 255.661884 293.438681 
L 255.850308 293.449745 
L 256.227156 292.620878 
L 256.604004 292.432857 
L 256.792428 291.753756 
L 256.980852 292.3982 
L 257.169276 291.105801 
L 257.3577 291.508512 
L 257.546124 291.41993 
L 257.734548 292.205142 
L 257.922972 292.21594 
L 258.111396 293.5019 
L 258.29982 293.516411 
L 258.676668 292.594619 
L 258.865092 291.212897 
L 259.053516 291.022591 
L 259.24194 291.643285 
L 259.430364 291.415885 
L 259.618788 291.518846 
L 259.807212 293.029433 
L 259.995636 293.211678 
L 260.18406 291.898073 
L 260.372484 291.819432 
L 260.560908 292.100926 
L 260.749332 292.064348 
L 260.937756 290.985289 
L 261.126179 291.977019 
L 261.314603 291.955641 
L 261.503027 291.684681 
L 261.691451 291.930486 
L 261.879875 291.714843 
L 262.068299 291.268193 
L 262.445147 292.023471 
L 262.633571 291.856328 
L 263.010419 293.15628 
L 263.387267 292.593967 
L 263.764115 293.338844 
L 264.517811 291.537529 
L 264.894659 290.727743 
L 265.083083 291.657512 
L 265.271507 291.178248 
L 265.459931 291.365345 
L 265.648355 292.177505 
L 265.836779 292.31142 
L 266.025203 291.983193 
L 266.213627 292.71525 
L 266.402051 292.630474 
L 266.590475 292.162885 
L 266.967323 293.036809 
L 267.155747 292.823898 
L 267.344171 292.812887 
L 267.532595 292.592384 
L 267.721019 292.924265 
L 267.909443 292.282407 
L 268.097867 292.860146 
L 268.286291 292.875508 
L 268.474715 293.4223 
L 268.663139 293.470234 
L 268.851563 293.750032 
L 269.039987 293.667998 
L 269.228411 292.434515 
L 269.416835 292.026899 
L 269.605259 291.049197 
L 269.793683 290.978126 
L 269.982107 290.341295 
L 270.170531 291.271697 
L 270.358955 290.226987 
L 270.547379 290.381472 
L 270.735803 289.970074 
L 271.677923 294.453103 
L 271.866347 294.09225 
L 272.431619 291.962172 
L 272.620043 291.365651 
L 272.808467 291.268856 
L 272.996891 291.402993 
L 273.185315 291.353428 
L 273.750587 292.638566 
L 273.939011 293.775067 
L 274.127435 294.027562 
L 274.315859 293.717548 
L 274.692707 293.573337 
L 275.446403 291.798935 
L 275.823251 291.610331 
L 276.200099 292.665526 
L 276.388523 293.137016 
L 276.576947 292.357001 
L 276.765371 292.115362 
L 276.953795 291.58989 
L 277.142219 291.582479 
L 277.330643 291.908131 
L 277.519067 291.403557 
L 277.707491 291.695911 
L 278.272763 290.702828 
L 278.461187 291.517211 
L 278.649611 291.273365 
L 279.214883 293.375036 
L 279.403307 292.895021 
L 279.591731 293.516826 
L 279.780155 292.868762 
L 279.968579 292.75508 
L 280.157003 291.618803 
L 280.345427 292.055868 
L 280.533851 292.005696 
L 280.722275 292.149356 
L 280.910699 291.473206 
L 281.475971 292.356732 
L 281.664395 292.976119 
L 282.041243 293.092466 
L 282.418091 292.426998 
L 282.794939 292.442834 
L 283.171787 293.908865 
L 283.360211 293.531329 
L 283.548635 292.587719 
L 283.737059 293.762969 
L 283.925483 293.426695 
L 284.302331 291.960603 
L 284.490755 291.66002 
L 284.679179 290.657945 
L 285.056027 291.622775 
L 285.244451 292.986023 
L 285.432875 292.707462 
L 285.621299 293.046256 
L 286.186571 291.961944 
L 286.374995 293.178409 
L 286.563419 293.060061 
L 286.751843 292.441925 
L 286.940267 293.277053 
L 287.128691 291.616775 
L 287.317115 291.598885 
L 287.505539 290.610816 
L 287.693963 290.94464 
L 287.882387 290.26582 
L 288.070811 291.736915 
L 288.259235 292.005152 
L 288.636083 293.348082 
L 288.824507 293.375095 
L 289.012931 293.689655 
L 289.201355 292.847153 
L 289.578203 292.447322 
L 289.766627 292.872137 
L 289.955051 291.712761 
L 290.143475 292.879677 
L 290.331899 293.336222 
L 290.520323 293.236196 
L 290.708747 293.389084 
L 290.897171 293.387921 
L 291.274019 291.508712 
L 291.462443 291.904761 
L 291.650867 291.216405 
L 291.839291 291.90086 
L 292.027715 291.026574 
L 292.216139 291.684981 
L 292.404563 291.540818 
L 292.592987 291.977026 
L 292.781411 291.762702 
L 292.969835 292.638136 
L 293.158259 292.695467 
L 293.535107 291.988 
L 293.911955 292.667141 
L 294.100379 292.466192 
L 294.288803 292.809027 
L 294.477227 293.488759 
L 294.665651 293.466585 
L 294.854075 292.856494 
L 295.042499 293.214172 
L 295.230923 293.102271 
L 295.796195 294.075911 
L 295.984619 293.29224 
L 296.173043 293.298523 
L 296.361467 293.588521 
L 296.549891 293.641068 
L 296.738315 293.305922 
L 297.115163 293.587598 
L 297.303587 292.754103 
L 297.492011 292.83907 
L 298.057283 294.436144 
L 298.245707 294.406789 
L 298.434131 294.557456 
L 298.622555 294.267379 
L 298.810979 294.427034 
L 299.187827 292.508332 
L 299.376251 291.380754 
L 299.564675 291.313341 
L 299.753099 291.05368 
L 299.941523 291.046966 
L 300.129947 291.956745 
L 300.506795 291.573935 
L 300.695219 292.021171 
L 300.883643 293.138229 
L 301.072067 292.6972 
L 301.260491 293.340447 
L 301.448915 292.937819 
L 301.825763 291.278423 
L 302.014187 291.658169 
L 302.202611 291.561967 
L 302.767883 294.928583 
L 302.956307 295.012572 
L 303.144731 295.488 
L 303.521579 295.017639 
L 303.710003 293.473653 
L 303.898427 293.367931 
L 304.463699 291.335979 
L 304.652123 291.987832 
L 304.840547 291.222208 
L 305.217395 291.254073 
L 305.405819 292.154708 
L 305.594243 291.861131 
L 305.971091 292.925902 
L 306.159515 293.914476 
L 306.536363 293.208475 
L 306.724787 293.699091 
L 307.101635 292.049697 
L 307.290059 291.580494 
L 307.478483 291.963124 
L 307.666907 291.406472 
L 307.855331 291.90688 
L 308.232179 291.721284 
L 308.420603 292.171311 
L 308.609027 292.217582 
L 308.985875 293.360713 
L 309.174299 293.573711 
L 309.362723 292.869097 
L 309.551147 293.173893 
L 309.739571 293.116975 
L 309.927995 292.923298 
L 310.116419 292.965033 
L 310.304843 294.06691 
L 310.493267 294.328931 
L 310.68169 294.023198 
L 311.058538 293.910872 
L 311.246962 294.123945 
L 311.435386 293.333209 
L 311.62381 293.356356 
L 311.812234 293.538931 
L 312.000658 294.011296 
L 312.189082 293.667035 
L 312.377506 293.831666 
L 312.56593 293.670161 
L 312.754354 294.013453 
L 312.942778 292.845255 
L 313.131202 292.399012 
L 313.319626 293.416796 
L 313.50805 293.004538 
L 313.696474 292.926497 
L 314.073322 294.251717 
L 314.261746 293.622346 
L 314.45017 295.094262 
L 314.638594 294.413906 
L 314.827018 294.407568 
L 315.015442 294.526728 
L 315.203866 293.987741 
L 315.39229 293.021382 
L 315.580714 292.835936 
L 315.769138 293.059794 
L 315.957562 293.048753 
L 316.145986 292.043134 
L 316.33441 291.894486 
L 316.522834 292.926634 
L 316.899682 292.296796 
L 317.088106 293.130753 
L 317.27653 293.227474 
L 317.464954 291.744279 
L 317.653378 292.195488 
L 317.841802 291.921584 
L 318.21865 292.592028 
L 318.407074 293.977045 
L 318.595498 293.572947 
L 318.783922 293.666781 
L 319.16077 294.788136 
L 319.349194 294.376319 
L 319.537618 294.433085 
L 319.726042 294.671805 
L 320.10289 292.705028 
L 320.479738 292.287211 
L 320.668162 292.149909 
L 320.856586 291.823245 
L 321.04501 291.121912 
L 321.421858 292.293268 
L 321.610282 292.080499 
L 321.798706 292.6931 
L 321.98713 294.279888 
L 322.175554 293.896251 
L 322.552402 293.861619 
L 322.740826 294.39317 
L 322.92925 293.166682 
L 323.494522 292.096532 
L 323.682946 291.442232 
L 324.059794 292.524894 
L 324.248218 292.629153 
L 324.625066 292.308157 
L 324.81349 292.72862 
L 325.001914 292.757838 
L 325.190338 292.420778 
L 325.75561 293.816284 
L 325.944034 292.933662 
L 326.132458 292.73295 
L 326.320882 293.091674 
L 326.509306 293.100247 
L 327.451426 289.823475 
L 327.828274 291.888074 
L 328.016698 291.758696 
L 328.393546 291.888381 
L 328.58197 291.444781 
L 328.770394 291.953861 
L 328.958818 291.677744 
L 329.147242 292.810424 
L 329.335666 292.884955 
L 329.712514 292.215671 
L 329.900938 293.638491 
L 330.654634 292.183077 
L 330.843058 290.925884 
L 331.031482 291.392541 
L 331.219906 291.19204 
L 331.596754 292.077338 
L 331.785178 293.334329 
L 331.973602 292.647172 
L 332.162026 293.977607 
L 332.35045 293.56088 
L 332.538874 293.474603 
L 332.727298 292.819278 
L 332.915722 293.41415 
L 333.104146 292.020899 
L 333.29257 292.001477 
L 333.669418 292.838208 
L 333.857842 292.120142 
L 334.23469 293.96074 
L 334.611538 293.653845 
L 334.988386 295.134477 
L 335.365234 292.961681 
L 335.553658 292.696352 
L 335.742082 292.050416 
L 335.930506 290.562968 
L 336.307354 290.967376 
L 336.495778 290.715019 
L 336.684202 291.175523 
L 336.872626 290.802497 
L 337.06105 291.24164 
L 337.249474 291.393118 
L 337.437898 292.191359 
L 337.626322 291.941373 
L 337.814746 292.738602 
L 338.00317 292.756064 
L 338.191594 293.10503 
L 338.568442 292.898333 
L 338.94529 292.039907 
L 339.133714 292.435218 
L 339.322138 291.952522 
L 339.510562 291.84031 
L 339.698986 292.417138 
L 339.88741 291.879297 
L 340.075834 291.835052 
L 340.641106 292.549818 
L 340.82953 293.9362 
L 341.017954 293.462068 
L 341.394802 293.959461 
L 341.77165 293.321708 
L 342.148498 294.142767 
L 342.336922 293.649024 
L 342.525346 293.675022 
L 342.71377 293.908184 
L 342.902194 292.99586 
L 343.090618 292.894497 
L 343.467466 293.734685 
L 343.65589 294.43713 
L 343.844314 294.372965 
L 344.032738 293.624807 
L 344.221162 293.499592 
L 344.409586 293.142416 
L 344.59801 292.104379 
L 344.786434 292.783873 
L 344.974858 292.937642 
L 345.163282 292.652678 
L 345.351706 292.690643 
L 345.54013 293.223722 
L 345.728554 293.325669 
L 346.105402 294.854551 
L 346.48225 294.892714 
L 347.42437 291.441952 
L 347.612794 291.599355 
L 347.989642 293.122042 
L 348.178066 292.663692 
L 348.36649 292.613519 
L 348.554914 292.728778 
L 348.931762 292.053301 
L 349.120186 293.021354 
L 349.30861 293.189702 
L 349.497034 293.984204 
L 349.685458 294.12716 
L 349.873882 294.720832 
L 350.062306 294.500539 
L 350.25073 295.070351 
L 350.816002 292.465776 
L 351.004426 292.522793 
L 351.19285 292.185467 
L 351.381274 292.675704 
L 351.758122 294.445538 
L 351.946546 293.905844 
L 352.13497 294.506989 
L 352.511818 292.017484 
L 352.700242 291.35845 
L 352.888666 291.128677 
L 353.07709 291.172895 
L 353.265514 291.998401 
L 353.453938 292.197316 
L 353.830786 291.499711 
L 354.01921 290.219807 
L 354.207634 291.063732 
L 354.584482 291.292493 
L 354.96133 292.684171 
L 355.149754 292.375 
L 355.338178 292.394614 
L 355.715026 293.76066 
L 355.90345 294.275032 
L 356.091874 294.141485 
L 356.280298 294.821603 
L 357.410842 292.403094 
L 357.599266 292.660554 
L 357.976114 294.102851 
L 358.164538 294.004099 
L 358.352962 295.24502 
L 358.541386 295.284682 
L 359.106658 294.159648 
L 359.295082 293.095835 
L 359.483506 292.697714 
L 359.67193 292.808612 
L 360.048778 292.014005 
L 360.237201 292.634646 
L 360.425625 292.836196 
L 360.614049 292.674398 
L 360.802473 292.808439 
L 360.990897 294.123113 
L 361.179321 293.370174 
L 361.556169 293.477371 
L 361.744593 292.914629 
L 361.933017 291.209915 
L 362.121441 291.369359 
L 362.309865 290.860748 
L 362.686713 291.947127 
L 362.875137 293.03644 
L 363.063561 291.835689 
L 363.440409 292.337549 
L 363.628833 292.215493 
L 363.817257 292.327222 
L 364.194105 294.64367 
L 364.382529 294.31876 
L 364.570953 294.74525 
L 364.759377 294.022302 
L 364.947801 294.169941 
L 365.324649 293.348073 
L 365.513073 293.555698 
L 365.701497 294.007084 
L 365.889921 293.578202 
L 366.078345 293.455097 
L 366.266769 293.863921 
L 366.455193 293.755019 
L 366.643617 293.844189 
L 367.020465 294.178089 
L 367.397313 292.680165 
L 367.774161 292.354782 
L 367.962585 291.800531 
L 368.339433 293.747343 
L 368.527857 293.721155 
L 368.716281 293.424162 
L 368.904705 293.51538 
L 369.281553 291.807387 
L 369.469977 291.996397 
L 370.035249 293.431464 
L 370.223673 293.318466 
L 370.412097 293.038369 
L 370.600521 291.479228 
L 370.788945 291.659583 
L 370.977369 290.300767 
L 371.165793 290.418711 
L 371.919489 294.153056 
L 372.296337 293.975594 
L 372.484761 294.789404 
L 372.673185 294.887771 
L 372.861609 293.45452 
L 373.050033 293.365721 
L 373.238457 292.686373 
L 373.426881 292.647494 
L 373.615305 291.813018 
L 373.803729 292.612581 
L 374.180577 292.371472 
L 374.369001 292.404863 
L 374.557425 293.460608 
L 374.745849 293.734862 
L 375.122697 295.438154 
L 375.311121 295.345784 
L 375.687969 294.546936 
L 375.876393 293.532943 
L 376.064817 293.211402 
L 376.441665 293.528343 
L 376.818513 294.582912 
L 377.006937 294.297772 
L 377.195361 294.602051 
L 377.383785 293.759836 
L 377.572209 294.064126 
L 377.760633 293.002955 
L 377.949057 293.203759 
L 378.137481 292.450283 
L 378.325905 292.592015 
L 378.514329 292.48965 
L 378.702753 291.638479 
L 378.891177 291.741555 
L 379.079601 292.280017 
L 379.268025 291.893834 
L 379.456449 291.941382 
L 379.644873 293.041278 
L 379.833297 291.905431 
L 380.021721 292.05771 
L 380.210145 292.353042 
L 380.398569 291.696305 
L 380.775417 293.792228 
L 381.529113 290.780844 
L 381.717537 290.161322 
L 381.905961 290.107313 
L 382.094385 291.633718 
L 382.282809 292.195176 
L 382.471233 291.970421 
L 382.848081 292.654408 
L 383.036505 292.429849 
L 383.790201 293.635833 
L 383.978625 293.478416 
L 384.355473 293.789503 
L 385.297593 290.562495 
L 386.051289 293.980159 
L 386.239713 293.990473 
L 386.428137 294.132556 
L 386.616561 293.371803 
L 386.804985 292.148285 
L 387.181833 292.702829 
L 387.370257 291.987737 
L 387.558681 291.917095 
L 387.747105 292.322359 
L 387.935529 291.960711 
L 388.123953 290.92594 
L 388.312377 291.375579 
L 388.500801 291.412429 
L 388.877649 290.724506 
L 389.254497 292.162328 
L 389.442921 292.979238 
L 389.631345 292.833906 
L 389.819769 293.240899 
L 390.008193 292.60085 
L 390.196617 292.393919 
L 390.385041 291.079962 
L 390.761889 290.020751 
L 390.950313 290.136705 
L 391.138737 289.622226 
L 391.327161 290.594551 
L 391.704009 293.152911 
L 391.892433 293.077211 
L 392.080857 293.756501 
L 392.269281 293.77953 
L 392.457705 292.9887 
L 392.646129 293.020679 
L 392.834553 293.360796 
L 393.022977 293.275939 
L 393.211401 293.867444 
L 393.399825 294.069032 
L 393.588249 293.857863 
L 394.153521 290.380433 
L 394.530369 291.043877 
L 394.718793 292.688483 
L 395.095641 293.732765 
L 395.472489 292.922648 
L 395.660913 292.932688 
L 396.603033 292.106518 
L 396.791457 292.239332 
L 396.979881 292.042871 
L 397.922001 294.500034 
L 398.110425 294.117987 
L 398.298849 294.021983 
L 398.487273 292.504884 
L 398.487273 292.504884 
" clip-path="url(#pcede60e01e)" style="fill: none; stroke: #1f77b4; stroke-opacity: 0.7; stroke-linecap: square"/>
   </g>
   <g id="patch_3">
    <path d="M 57.6 307.584 
L 57.6 41.472 
" style="fill: none; stroke: #000000; stroke-width: 0.8; stroke-linejoin: miter; stroke-linecap: square"/>
   </g>
   <g id="patch_4">
    <path d="M 414.72 307.584 
L 414.72 41.472 
" style="fill: none; stroke: #000000; stroke-width: 0.8; stroke-linejoin: miter; stroke-linecap: square"/>
   </g>
   <g id="patch_5">
    <path d="M 57.6 307.584 
L 414.72 307.584 
" style="fill: none; stroke: #000000; stroke-width: 0.8; stroke-linejoin: miter; stroke-linecap: square"/>
   </g>
   <g id="patch_6">
    <path d="M 57.6 41.472 
L 414.72 41.472 
" style="fill: none; stroke: #000000; stroke-width: 0.8; stroke-linejoin: miter; stroke-linecap: square"/>
   </g>
  </g>
 </g>
 <defs>
  <clipPath id="pcede60e01e">
   <rect x="57.6" y="41.472" width="357.12" height="266.112"/>
  </clipPath>
 </defs>
</svg>
